<?xml version="1.0" encoding="UTF-8" standalone="no"?><svg xmlns="http://www.w3.org/2000/svg" xmlns:xlink="http://www.w3.org/1999/xlink" contentStyleType="text/css" height="284px" preserveAspectRatio="none" style="width:398px;height:284px;background:#FFFFFF;" version="1.1" viewBox="0 0 398 284" width="398px" zoomAndPan="magnify"><defs/><g><!--MD5=[057e21001075b62abe8ec09e092c6a4e]
class com.javafwp.game.highscoreSystem.Dbc--><a href="dbc.html" target="_top" title="dbc.html" xlink:actuate="onRequest" xlink:href="dbc.html" xlink:show="new" xlink:title="dbc.html" xlink:type="simple"><g id="elem_com.javafwp.game.highscoreSystem.Dbc"><rect codeLine="5" fill="#F1F1F1" height="249.8906" id="com.javafwp.game.highscoreSystem.Dbc" rx="2.5" ry="2.5" style="stroke:#181818;stroke-width:0.5;" width="377" x="7" y="7"/><ellipse cx="104.75" cy="27.0938" fill="#ADD1B2" rx="11" ry="11" style="stroke:#181818;stroke-width:1.0;"/><path d="M107.5156,22.9688 Q107.6719,22.75 107.8594,22.6406 Q108.0469,22.5313 108.2656,22.5313 Q108.6406,22.5313 108.875,22.7969 Q109.1094,23.0469 109.1094,23.6563 L109.1094,25.1094 Q109.1094,25.7188 108.875,25.9844 Q108.6406,26.25 108.2656,26.25 Q107.9219,26.25 107.7188,26.0469 Q107.5156,25.8594 107.4063,25.3438 Q107.3594,24.9844 107.1719,24.7969 Q106.8438,24.4219 106.2344,24.2031 Q105.625,23.9844 105,23.9844 Q104.2344,23.9844 103.5938,24.3125 Q102.9688,24.6406 102.4688,25.3906 Q101.9844,26.1406 101.9844,27.1719 L101.9844,28.2656 Q101.9844,29.5 102.875,30.3281 Q103.7656,31.1406 105.3594,31.1406 Q106.2969,31.1406 106.9531,30.8906 Q107.3438,30.7344 107.7656,30.2969 Q108.0313,30.0313 108.1719,29.9531 Q108.3281,29.875 108.5313,29.875 Q108.8594,29.875 109.1094,30.1406 Q109.375,30.3906 109.375,30.7344 Q109.375,31.0781 109.0313,31.4844 Q108.5313,32.0625 107.7344,32.3906 Q106.6563,32.8438 105.3594,32.8438 Q103.8438,32.8438 102.6406,32.2188 Q101.6563,31.7188 100.9688,30.6563 Q100.2813,29.5781 100.2813,28.2969 L100.2813,27.1406 Q100.2813,25.8125 100.8906,24.6719 Q101.5156,23.5156 102.6094,22.9063 Q103.7031,22.2813 104.9375,22.2813 Q105.6719,22.2813 106.3125,22.4531 Q106.9688,22.6094 107.5156,22.9688 Z " fill="#000000"/><text fill="#000000" font-family="sans-serif" font-size="14" lengthAdjust="spacing" textLength="25" x="199.25" y="26.5332">Dbc</text><text fill="#000000" font-family="sans-serif" font-size="10" lengthAdjust="spacing" textLength="173" x="125.25" y="39.9902">com.javafwp.game.highscoreSystem</text><line style="stroke:#181818;stroke-width:0.5;" x1="8" x2="383" y1="47.1875" y2="47.1875"/><polygon fill="none" points="18,54.1875,14,60.1875,22,60.1875" style="stroke:#1963A0;stroke-width:1.0;"/><text fill="#000000" font-family="sans-serif" font-size="14" lengthAdjust="spacing" text-decoration="underline" textLength="172" x="27" y="65.7207">HIGHSCORES_FILE: String</text><polygon fill="none" points="18,71.7969,14,77.7969,22,77.7969" style="stroke:#1963A0;stroke-width:1.0;"/><text fill="#000000" font-family="sans-serif" font-size="14" lengthAdjust="spacing" text-decoration="underline" textLength="99" x="27" y="83.3301">DB_URL: String</text><polygon fill="none" points="18,89.4063,14,95.4063,22,95.4063" style="stroke:#1963A0;stroke-width:1.0;"/><text fill="#000000" font-family="sans-serif" font-size="14" lengthAdjust="spacing" text-decoration="underline" textLength="82" x="27" y="100.9395">USER: String</text><polygon fill="none" points="18,107.0156,14,113.0156,22,113.0156" style="stroke:#1963A0;stroke-width:1.0;"/><text fill="#000000" font-family="sans-serif" font-size="14" lengthAdjust="spacing" text-decoration="underline" textLength="81" x="27" y="118.5488">PASS: String</text><polygon fill="none" points="18,124.625,14,130.625,22,130.625" style="stroke:#1963A0;stroke-width:1.0;"/><text fill="#000000" font-family="sans-serif" font-size="14" lengthAdjust="spacing" text-decoration="underline" textLength="132" x="27" y="136.1582">ADMIN_USER: String</text><polygon fill="none" points="18,142.2344,14,148.2344,22,148.2344" style="stroke:#1963A0;stroke-width:1.0;"/><text fill="#000000" font-family="sans-serif" font-size="14" lengthAdjust="spacing" text-decoration="underline" textLength="150" x="27" y="153.7676">INSERT_QUERY: String</text><polygon fill="none" points="18,159.8438,14,165.8438,22,165.8438" style="stroke:#1963A0;stroke-width:1.0;"/><text fill="#000000" font-family="sans-serif" font-size="14" lengthAdjust="spacing" text-decoration="underline" textLength="178" x="27" y="171.377">SELECTION_QUERY: String</text><polygon fill="none" points="18,177.4531,14,183.4531,22,183.4531" style="stroke:#1963A0;stroke-width:1.0;"/><text fill="#000000" font-family="sans-serif" font-size="14" lengthAdjust="spacing" text-decoration="underline" textLength="155" x="27" y="188.9863">DELETE_QUERY: String</text><line style="stroke:#181818;stroke-width:0.5;" x1="8" x2="383" y1="196.0625" y2="196.0625"/><ellipse cx="18" cy="207.0625" fill="#84BE84" rx="3" ry="3" style="stroke:#038048;stroke-width:1.0;"/><text fill="#000000" font-family="sans-serif" font-size="14" lengthAdjust="spacing" text-decoration="underline" textLength="306" x="27" y="214.5957">writeToDatabase(HighscoreEntry, boolean): void</text><ellipse cx="18" cy="224.6719" fill="#84BE84" rx="3" ry="3" style="stroke:#038048;stroke-width:1.0;"/><text fill="#000000" font-family="sans-serif" font-size="14" lengthAdjust="spacing" text-decoration="underline" textLength="279" x="27" y="232.2051">resetScore(String, boolean, String): boolean</text><ellipse cx="18" cy="242.2813" fill="#84BE84" rx="3" ry="3" style="stroke:#038048;stroke-width:1.0;"/><text fill="#000000" font-family="sans-serif" font-size="14" lengthAdjust="spacing" text-decoration="underline" textLength="351" x="27" y="249.8145">getFromDatabase(boolean): ArrayList&lt;HighscoreEntry&gt;</text></g></a><rect height="12.5781" style="stroke:#00000000;stroke-width:1.0;fill:none;" width="184" x="103" y="263.8906"/><text fill="#888888" font-family="sans-serif" font-size="10" lengthAdjust="spacing" textLength="184" x="103" y="274.2715">UMLDoclet 2.0.17, PlantUML 1.2022.5</text><!--MD5=[3a9b35fa9640ba3df50f4a89d09268db]
@startuml
    set namespaceSeparator none
    hide empty fields
    hide empty methods

    class "<size:14>Dbc\n<size:10>com.javafwp.game.highscoreSystem" as com.javafwp.game.highscoreSystem.Dbc [[dbc.html]] {
        {static} ~HIGHSCORES_FILE: String
        {static} ~DB_URL: String
        {static} ~USER: String
        {static} ~PASS: String
        {static} ~ADMIN_USER: String
        {static} ~INSERT_QUERY: String
        {static} ~SELECTION_QUERY: String
        {static} ~DELETE_QUERY: String
        {static} +writeToDatabase(HighscoreEntry, boolean): void
        {static} +resetScore(String, boolean, String): boolean
        {static} +getFromDatabase(boolean): ArrayList<HighscoreEntry>
    }

    center footer UMLDoclet 2.0.17, PlantUML 1.2022.5
@enduml

PlantUML version 1.2022.5(Sat Apr 30 12:55:52 CEST 2022)
(APACHE source distribution)
Java Runtime: Java(TM) SE Runtime Environment
JVM: Java HotSpot(TM) 64-Bit Server VM
Default Encoding: UTF-8
Language: de
Country: DE
--></g></svg>