<?xml version="1.0" encoding="UTF-8" standalone="no"?><svg xmlns="http://www.w3.org/2000/svg" xmlns:xlink="http://www.w3.org/1999/xlink" contentStyleType="text/css" height="203px" preserveAspectRatio="none" style="width:371px;height:203px;background:#FFFFFF;" version="1.1" viewBox="0 0 371 203" width="371px" zoomAndPan="magnify"><defs/><g><!--MD5=[b463664bb294738ed1863a6a8aef0ee0]
class com.javafwp.game.highscoreSystem.dbc--><a href="dbc.html" target="_top" title="dbc.html" xlink:actuate="onRequest" xlink:href="dbc.html" xlink:show="new" xlink:title="dbc.html" xlink:type="simple"><g id="elem_com.javafwp.game.highscoreSystem.dbc"><rect codeLine="5" fill="#F1F1F1" height="169.6836" id="com.javafwp.game.highscoreSystem.dbc" rx="2.5" ry="2.5" style="stroke:#181818;stroke-width:0.5;" width="350" x="7" y="7"/><ellipse cx="90.25" cy="26.1328" fill="#ADD1B2" rx="11" ry="11" style="stroke:#181818;stroke-width:1.0;"/><path d="M92.7231,32.2759 Q92.1421,32.5747 91.5029,32.7241 Q90.8638,32.8735 90.1582,32.8735 Q87.6514,32.8735 86.3315,31.2217 Q85.0117,29.5698 85.0117,26.4487 Q85.0117,23.3193 86.3315,21.6675 Q87.6514,20.0156 90.1582,20.0156 Q90.8638,20.0156 91.5112,20.165 Q92.1587,20.3145 92.7231,20.6133 L92.7231,23.3359 Q92.0923,22.7549 91.4988,22.4851 Q90.9053,22.2153 90.2744,22.2153 Q88.9297,22.2153 88.2449,23.282 Q87.5601,24.3486 87.5601,26.4487 Q87.5601,28.5405 88.2449,29.6072 Q88.9297,30.6738 90.2744,30.6738 Q90.9053,30.6738 91.4988,30.4041 Q92.0923,30.1343 92.7231,29.5532 Z " fill="#000000"/><text fill="#000000" font-family="sans-serif" font-size="14" lengthAdjust="spacing" textLength="25" x="185.75" y="25.5352">dbc</text><text fill="#000000" font-family="sans-serif" font-size="10" lengthAdjust="spacing" textLength="175" x="110.75" y="38.1563">com.javafwp.game.highscoreSystem</text><line style="stroke:#181818;stroke-width:0.5;" x1="8" x2="356" y1="45.2656" y2="45.2656"/><polygon fill="none" points="18,52.2656,14,58.2656,22,58.2656" style="stroke:#1963A0;stroke-width:1.0;"/><text fill="#000000" font-family="sans-serif" font-size="14" lengthAdjust="spacing" text-decoration="underline" textLength="100" x="27" y="62.8008">DB_URL: String</text><polygon fill="none" points="18,68.7539,14,74.7539,22,74.7539" style="stroke:#1963A0;stroke-width:1.0;"/><text fill="#000000" font-family="sans-serif" font-size="14" lengthAdjust="spacing" text-decoration="underline" textLength="84" x="27" y="79.2891">USER: String</text><polygon fill="none" points="18,85.2422,14,91.2422,22,91.2422" style="stroke:#1963A0;stroke-width:1.0;"/><text fill="#000000" font-family="sans-serif" font-size="14" lengthAdjust="spacing" text-decoration="underline" textLength="83" x="27" y="95.7773">PASS: String</text><polygon fill="none" points="18,101.7305,14,107.7305,22,107.7305" style="stroke:#1963A0;stroke-width:1.0;"/><text fill="#000000" font-family="sans-serif" font-size="14" lengthAdjust="spacing" text-decoration="underline" textLength="151" x="27" y="112.2656">INSERT_QUERY: String</text><polygon fill="none" points="18,118.2188,14,124.2188,22,124.2188" style="stroke:#1963A0;stroke-width:1.0;"/><text fill="#000000" font-family="sans-serif" font-size="14" lengthAdjust="spacing" text-decoration="underline" textLength="178" x="27" y="128.7539">SELECTION_QUERY: String</text><line style="stroke:#181818;stroke-width:0.5;" x1="8" x2="356" y1="135.707" y2="135.707"/><ellipse cx="18" cy="146.707" fill="#84BE84" rx="3" ry="3" style="stroke:#038048;stroke-width:1.0;"/><text fill="#000000" font-family="sans-serif" font-size="14" lengthAdjust="spacing" text-decoration="underline" textLength="265" x="27" y="153.2422">writeToDatabase(highscoreEntry): void</text><ellipse cx="18" cy="163.1953" fill="#84BE84" rx="3" ry="3" style="stroke:#038048;stroke-width:1.0;"/><text fill="#000000" font-family="sans-serif" font-size="14" lengthAdjust="spacing" text-decoration="underline" textLength="324" x="27" y="169.7305">getFromDatabase(): ArrayList&lt;highscoreEntry&gt;</text></g></a><rect height="11.7773" style="stroke:#00000000;stroke-width:1.0;fill:none;" width="182" x="90.5" y="183.6836"/><text fill="#888888" font-family="sans-serif" font-size="10" lengthAdjust="spacing" textLength="182" x="90.5" y="193.3516">UMLDoclet 2.0.17, PlantUML 1.2022.5</text><!--MD5=[95b6f2f545bee269f0a1e53c75f42868]
@startuml
    set namespaceSeparator none
    hide empty fields
    hide empty methods

    class "<size:14>dbc\n<size:10>com.javafwp.game.highscoreSystem" as com.javafwp.game.highscoreSystem.dbc [[dbc.html]] {
        {static} ~DB_URL: String
        {static} ~USER: String
        {static} ~PASS: String
        {static} ~INSERT_QUERY: String
        {static} ~SELECTION_QUERY: String
        {static} +writeToDatabase(highscoreEntry): void
        {static} +getFromDatabase(): ArrayList<highscoreEntry>
    }

    center footer UMLDoclet 2.0.17, PlantUML 1.2022.5
@enduml

PlantUML version 1.2022.5(Sat Apr 30 12:55:52 CEST 2022)
(APACHE source distribution)
Java Runtime: OpenJDK Runtime Environment
JVM: OpenJDK 64-Bit Server VM
Default Encoding: UTF-8
Language: en
Country: DE
--></g></svg>