<?xml version="1.0" encoding="UTF-8" standalone="no"?><svg xmlns="http://www.w3.org/2000/svg" xmlns:xlink="http://www.w3.org/1999/xlink" contentStyleType="text/css" height="266px" preserveAspectRatio="none" style="width:346px;height:266px;background:#FFFFFF;" version="1.1" viewBox="0 0 346 266" width="346px" zoomAndPan="magnify"><defs/><g><!--MD5=[b463664bb294738ed1863a6a8aef0ee0]
class com.javafwp.game.highscoreSystem.dbc--><a href="dbc.html" target="_top" title="dbc.html" xlink:actuate="onRequest" xlink:href="dbc.html" xlink:show="new" xlink:title="dbc.html" xlink:type="simple"><g id="elem_com.javafwp.game.highscoreSystem.dbc"><rect codeLine="5" fill="#F1F1F1" height="232.2813" id="com.javafwp.game.highscoreSystem.dbc" rx="2.5" ry="2.5" style="stroke:#181818;stroke-width:0.5;" width="325" x="7" y="7"/><ellipse cx="78.75" cy="27.0938" fill="#ADD1B2" rx="11" ry="11" style="stroke:#181818;stroke-width:1.0;"/><path d="M81.5156,22.9688 Q81.6719,22.75 81.8594,22.6406 Q82.0469,22.5313 82.2656,22.5313 Q82.6406,22.5313 82.875,22.7969 Q83.1094,23.0469 83.1094,23.6563 L83.1094,25.1094 Q83.1094,25.7188 82.875,25.9844 Q82.6406,26.25 82.2656,26.25 Q81.9219,26.25 81.7188,26.0469 Q81.5156,25.8594 81.4063,25.3438 Q81.3594,24.9844 81.1719,24.7969 Q80.8438,24.4219 80.2344,24.2031 Q79.625,23.9844 79,23.9844 Q78.2344,23.9844 77.5938,24.3125 Q76.9688,24.6406 76.4688,25.3906 Q75.9844,26.1406 75.9844,27.1719 L75.9844,28.2656 Q75.9844,29.5 76.875,30.3281 Q77.7656,31.1406 79.3594,31.1406 Q80.2969,31.1406 80.9531,30.8906 Q81.3438,30.7344 81.7656,30.2969 Q82.0313,30.0313 82.1719,29.9531 Q82.3281,29.875 82.5313,29.875 Q82.8594,29.875 83.1094,30.1406 Q83.375,30.3906 83.375,30.7344 Q83.375,31.0781 83.0313,31.4844 Q82.5313,32.0625 81.7344,32.3906 Q80.6563,32.8438 79.3594,32.8438 Q77.8438,32.8438 76.6406,32.2188 Q75.6563,31.7188 74.9688,30.6563 Q74.2813,29.5781 74.2813,28.2969 L74.2813,27.1406 Q74.2813,25.8125 74.8906,24.6719 Q75.5156,23.5156 76.6094,22.9063 Q77.7031,22.2813 78.9375,22.2813 Q79.6719,22.2813 80.3125,22.4531 Q80.9688,22.6094 81.5156,22.9688 Z " fill="#000000"/><text fill="#000000" font-family="sans-serif" font-size="14" lengthAdjust="spacing" textLength="23" x="174.25" y="26.5332">dbc</text><text fill="#000000" font-family="sans-serif" font-size="10" lengthAdjust="spacing" textLength="173" x="99.25" y="39.9902">com.javafwp.game.highscoreSystem</text><line style="stroke:#181818;stroke-width:0.5;" x1="8" x2="331" y1="47.1875" y2="47.1875"/><polygon fill="none" points="18,54.1875,14,60.1875,22,60.1875" style="stroke:#1963A0;stroke-width:1.0;"/><text fill="#000000" font-family="sans-serif" font-size="14" lengthAdjust="spacing" text-decoration="underline" textLength="99" x="27" y="65.7207">DB_URL: String</text><polygon fill="none" points="18,71.7969,14,77.7969,22,77.7969" style="stroke:#1963A0;stroke-width:1.0;"/><text fill="#000000" font-family="sans-serif" font-size="14" lengthAdjust="spacing" text-decoration="underline" textLength="82" x="27" y="83.3301">USER: String</text><polygon fill="none" points="18,89.4063,14,95.4063,22,95.4063" style="stroke:#1963A0;stroke-width:1.0;"/><text fill="#000000" font-family="sans-serif" font-size="14" lengthAdjust="spacing" text-decoration="underline" textLength="81" x="27" y="100.9395">PASS: String</text><polygon fill="none" points="18,107.0156,14,113.0156,22,113.0156" style="stroke:#1963A0;stroke-width:1.0;"/><text fill="#000000" font-family="sans-serif" font-size="14" lengthAdjust="spacing" text-decoration="underline" textLength="132" x="27" y="118.5488">ADMIN_USER: String</text><polygon fill="none" points="18,124.625,14,130.625,22,130.625" style="stroke:#1963A0;stroke-width:1.0;"/><text fill="#000000" font-family="sans-serif" font-size="14" lengthAdjust="spacing" text-decoration="underline" textLength="150" x="27" y="136.1582">INSERT_QUERY: String</text><polygon fill="none" points="18,142.2344,14,148.2344,22,148.2344" style="stroke:#1963A0;stroke-width:1.0;"/><text fill="#000000" font-family="sans-serif" font-size="14" lengthAdjust="spacing" text-decoration="underline" textLength="178" x="27" y="153.7676">SELECTION_QUERY: String</text><polygon fill="none" points="18,159.8438,14,165.8438,22,165.8438" style="stroke:#1963A0;stroke-width:1.0;"/><text fill="#000000" font-family="sans-serif" font-size="14" lengthAdjust="spacing" text-decoration="underline" textLength="155" x="27" y="171.377">DELETE_QUERY: String</text><line style="stroke:#181818;stroke-width:0.5;" x1="8" x2="331" y1="178.4531" y2="178.4531"/><ellipse cx="18" cy="189.4531" fill="#84BE84" rx="3" ry="3" style="stroke:#038048;stroke-width:1.0;"/><text fill="#000000" font-family="sans-serif" font-size="14" lengthAdjust="spacing" text-decoration="underline" textLength="246" x="27" y="196.9863">writeToDatabase(highscoreEntry): void</text><ellipse cx="18" cy="207.0625" fill="#84BE84" rx="3" ry="3" style="stroke:#038048;stroke-width:1.0;"/><text fill="#000000" font-family="sans-serif" font-size="14" lengthAdjust="spacing" text-decoration="underline" textLength="175" x="27" y="214.5957">resetScore(String): boolean</text><ellipse cx="18" cy="224.6719" fill="#84BE84" rx="3" ry="3" style="stroke:#038048;stroke-width:1.0;"/><text fill="#000000" font-family="sans-serif" font-size="14" lengthAdjust="spacing" text-decoration="underline" textLength="299" x="27" y="232.2051">getFromDatabase(): ArrayList&lt;highscoreEntry&gt;</text></g></a><rect height="12.5781" style="stroke:#00000000;stroke-width:1.0;fill:none;" width="184" x="77" y="246.2813"/><text fill="#888888" font-family="sans-serif" font-size="10" lengthAdjust="spacing" textLength="184" x="77" y="256.6621">UMLDoclet 2.0.17, PlantUML 1.2022.5</text><!--MD5=[f24f8571f9b5ccb18282cff913e50338]
@startuml
    set namespaceSeparator none
    hide empty fields
    hide empty methods

    class "<size:14>dbc\n<size:10>com.javafwp.game.highscoreSystem" as com.javafwp.game.highscoreSystem.dbc [[dbc.html]] {
        {static} ~DB_URL: String
        {static} ~USER: String
        {static} ~PASS: String
        {static} ~ADMIN_USER: String
        {static} ~INSERT_QUERY: String
        {static} ~SELECTION_QUERY: String
        {static} ~DELETE_QUERY: String
        {static} +writeToDatabase(highscoreEntry): void
        {static} +resetScore(String): boolean
        {static} +getFromDatabase(): ArrayList<highscoreEntry>
    }

    center footer UMLDoclet 2.0.17, PlantUML 1.2022.5
@enduml

PlantUML version 1.2022.5(Sat Apr 30 12:55:52 CEST 2022)
(APACHE source distribution)
Java Runtime: Java(TM) SE Runtime Environment
JVM: Java HotSpot(TM) 64-Bit Server VM
Default Encoding: UTF-8
Language: de
Country: DE
--></g></svg>