<?xml version="1.0" encoding="UTF-8" standalone="no"?><svg xmlns="http://www.w3.org/2000/svg" xmlns:xlink="http://www.w3.org/1999/xlink" contentStyleType="text/css" height="407px" preserveAspectRatio="none" style="width:309px;height:407px;background:#FFFFFF;" version="1.1" viewBox="0 0 309 407" width="309px" zoomAndPan="magnify"><defs/><g><!--MD5=[2b01fb5f81bfc508786581b4c9c407a1]
class com.javafwp.game.highscoreSystem.HighscoreSystem--><a href="highscoreSystem.html" target="_top" title="highscoreSystem.html" xlink:actuate="onRequest" xlink:href="highscoreSystem.html" xlink:show="new" xlink:title="highscoreSystem.html" xlink:type="simple"><g id="elem_com.javafwp.game.highscoreSystem.HighscoreSystem"><rect codeLine="5" fill="#F1F1F1" height="373.1563" id="com.javafwp.game.highscoreSystem.HighscoreSystem" rx="2.5" ry="2.5" style="stroke:#181818;stroke-width:0.5;" width="288" x="7" y="7"/><ellipse cx="60.25" cy="27.0938" fill="#ADD1B2" rx="11" ry="11" style="stroke:#181818;stroke-width:1.0;"/><path d="M63.0156,22.9688 Q63.1719,22.75 63.3594,22.6406 Q63.5469,22.5313 63.7656,22.5313 Q64.1406,22.5313 64.375,22.7969 Q64.6094,23.0469 64.6094,23.6563 L64.6094,25.1094 Q64.6094,25.7188 64.375,25.9844 Q64.1406,26.25 63.7656,26.25 Q63.4219,26.25 63.2188,26.0469 Q63.0156,25.8594 62.9063,25.3438 Q62.8594,24.9844 62.6719,24.7969 Q62.3438,24.4219 61.7344,24.2031 Q61.125,23.9844 60.5,23.9844 Q59.7344,23.9844 59.0938,24.3125 Q58.4688,24.6406 57.9688,25.3906 Q57.4844,26.1406 57.4844,27.1719 L57.4844,28.2656 Q57.4844,29.5 58.375,30.3281 Q59.2656,31.1406 60.8594,31.1406 Q61.7969,31.1406 62.4531,30.8906 Q62.8438,30.7344 63.2656,30.2969 Q63.5313,30.0313 63.6719,29.9531 Q63.8281,29.875 64.0313,29.875 Q64.3594,29.875 64.6094,30.1406 Q64.875,30.3906 64.875,30.7344 Q64.875,31.0781 64.5313,31.4844 Q64.0313,32.0625 63.2344,32.3906 Q62.1563,32.8438 60.8594,32.8438 Q59.3438,32.8438 58.1406,32.2188 Q57.1563,31.7188 56.4688,30.6563 Q55.7813,29.5781 55.7813,28.2969 L55.7813,27.1406 Q55.7813,25.8125 56.3906,24.6719 Q57.0156,23.5156 58.1094,22.9063 Q59.2031,22.2813 60.4375,22.2813 Q61.1719,22.2813 61.8125,22.4531 Q62.4688,22.6094 63.0156,22.9688 Z " fill="#000000"/><text fill="#000000" font-family="sans-serif" font-size="14" lengthAdjust="spacing" textLength="109" x="112.75" y="26.5332">HighscoreSystem</text><text fill="#000000" font-family="sans-serif" font-size="10" lengthAdjust="spacing" textLength="173" x="80.75" y="39.9902">com.javafwp.game.highscoreSystem</text><line style="stroke:#181818;stroke-width:0.5;" x1="8" x2="294" y1="47.1875" y2="47.1875"/><rect fill="none" height="6" style="stroke:#C82930;stroke-width:1.0;" width="6" x="15" y="55.1875"/><text fill="#000000" font-family="sans-serif" font-size="14" lengthAdjust="spacing" textLength="106" x="27" y="65.7207">displayText: Text</text><rect fill="none" height="6" style="stroke:#C82930;stroke-width:1.0;" width="6" x="15" y="72.7969"/><text fill="#000000" font-family="sans-serif" font-size="14" lengthAdjust="spacing" textLength="104" x="27" y="83.3301">infoDisplay: Text</text><rect fill="none" height="6" style="stroke:#C82930;stroke-width:1.0;" width="6" x="15" y="90.4063"/><text fill="#000000" font-family="sans-serif" font-size="14" lengthAdjust="spacing" textLength="90" x="27" y="100.9395">congrats: Text</text><rect fill="none" height="6" style="stroke:#C82930;stroke-width:1.0;" width="6" x="15" y="108.0156"/><text fill="#000000" font-family="sans-serif" font-size="14" lengthAdjust="spacing" textLength="133" x="27" y="118.5488">inputName: TextField</text><rect fill="none" height="6" style="stroke:#C82930;stroke-width:1.0;" width="6" x="15" y="125.625"/><text fill="#000000" font-family="sans-serif" font-size="14" lengthAdjust="spacing" textLength="219" x="27" y="136.1582">entries: ArrayList&lt;HighscoreEntry&gt;</text><rect fill="none" height="6" style="stroke:#C82930;stroke-width:1.0;" width="6" x="15" y="143.2344"/><text fill="#000000" font-family="sans-serif" font-size="14" lengthAdjust="spacing" textLength="124" x="27" y="153.7676">tempScoreEntry: int</text><rect fill="none" height="6" style="stroke:#C82930;stroke-width:1.0;" width="6" x="15" y="160.8438"/><text fill="#000000" font-family="sans-serif" font-size="14" lengthAdjust="spacing" textLength="92" x="27" y="171.377">maxEntries: int</text><rect fill="none" height="6" style="stroke:#C82930;stroke-width:1.0;" width="6" x="15" y="178.4531"/><text fill="#000000" font-family="sans-serif" font-size="14" lengthAdjust="spacing" textLength="128" x="27" y="188.9863">maxNameLength: int</text><rect fill="none" height="6" style="stroke:#C82930;stroke-width:1.0;" width="6" x="15" y="196.0625"/><text fill="#000000" font-family="sans-serif" font-size="14" lengthAdjust="spacing" textLength="77" x="27" y="206.5957">textXPos: int</text><rect fill="none" height="6" style="stroke:#C82930;stroke-width:1.0;" width="6" x="15" y="213.6719"/><text fill="#000000" font-family="sans-serif" font-size="14" lengthAdjust="spacing" textLength="78" x="27" y="224.2051">textYPos: int</text><rect fill="none" height="6" style="stroke:#C82930;stroke-width:1.0;" width="6" x="15" y="231.2813"/><text fill="#000000" font-family="sans-serif" font-size="14" lengthAdjust="spacing" textLength="132" x="27" y="241.8145">onlineMode: boolean</text><line style="stroke:#181818;stroke-width:0.5;" x1="8" x2="294" y1="248.8906" y2="248.8906"/><ellipse cx="18" cy="259.8906" fill="#84BE84" rx="3" ry="3" style="stroke:#038048;stroke-width:1.0;"/><text fill="#000000" font-family="sans-serif" font-size="14" lengthAdjust="spacing" textLength="262" x="27" y="267.4238">HighscoreSystem(int, int, int, int, boolean)</text><ellipse cx="18" cy="277.5" fill="#84BE84" rx="3" ry="3" style="stroke:#038048;stroke-width:1.0;"/><text fill="#000000" font-family="sans-serif" font-size="14" lengthAdjust="spacing" textLength="116" x="27" y="285.0332">addEntry(int): void</text><rect fill="#F24D5C" height="6" style="stroke:#C82930;stroke-width:1.0;" width="6" x="15" y="292.1094"/><text fill="#000000" font-family="sans-serif" font-size="14" lengthAdjust="spacing" textLength="204" x="27" y="302.6426">completeAddingNewEntry(): void</text><rect fill="#F24D5C" height="6" style="stroke:#C82930;stroke-width:1.0;" width="6" x="15" y="309.7188"/><text fill="#000000" font-family="sans-serif" font-size="14" lengthAdjust="spacing" textLength="68" x="27" y="320.252">sort(): void</text><ellipse cx="18" cy="330.3281" fill="#84BE84" rx="3" ry="3" style="stroke:#038048;stroke-width:1.0;"/><text fill="#000000" font-family="sans-serif" font-size="14" lengthAdjust="spacing" textLength="128" x="27" y="337.8613">generateText(): void</text><ellipse cx="18" cy="347.9375" fill="#84BE84" rx="3" ry="3" style="stroke:#038048;stroke-width:1.0;"/><text fill="#000000" font-family="sans-serif" font-size="14" lengthAdjust="spacing" textLength="220" x="27" y="355.4707">resetScore(String, String): boolean</text><ellipse cx="18" cy="365.5469" fill="#84BE84" rx="3" ry="3" style="stroke:#038048;stroke-width:1.0;"/><text fill="#000000" font-family="sans-serif" font-size="14" lengthAdjust="spacing" textLength="125" x="27" y="373.0801">getEntities(): Node[]</text></g></a><rect height="12.5781" style="stroke:#00000000;stroke-width:1.0;fill:none;" width="184" x="58.5" y="387.1563"/><text fill="#888888" font-family="sans-serif" font-size="10" lengthAdjust="spacing" textLength="184" x="58.5" y="397.5371">UMLDoclet 2.0.17, PlantUML 1.2022.5</text><!--MD5=[f1da8ecbecc4e6f078b513934469002b]
@startuml
    set namespaceSeparator none
    hide empty fields
    hide empty methods

    class "<size:14>HighscoreSystem\n<size:10>com.javafwp.game.highscoreSystem" as com.javafwp.game.highscoreSystem.HighscoreSystem [[highscoreSystem.html]] {
        -displayText: Text
        -infoDisplay: Text
        -congrats: Text
        -inputName: TextField
        -entries: ArrayList<HighscoreEntry>
        -tempScoreEntry: int
        -maxEntries: int
        -maxNameLength: int
        -textXPos: int
        -textYPos: int
        -onlineMode: boolean
        +HighscoreSystem(int, int, int, int, boolean)
        +addEntry(int): void
        -completeAddingNewEntry(): void
        -sort(): void
        +generateText(): void
        +resetScore(String, String): boolean
        +getEntities(): Node[]
    }

    center footer UMLDoclet 2.0.17, PlantUML 1.2022.5
@enduml

PlantUML version 1.2022.5(Sat Apr 30 12:55:52 CEST 2022)
(APACHE source distribution)
Java Runtime: Java(TM) SE Runtime Environment
JVM: Java HotSpot(TM) 64-Bit Server VM
Default Encoding: UTF-8
Language: de
Country: DE
--></g></svg>