<?xml version="1.0" encoding="UTF-8" standalone="no"?><svg xmlns="http://www.w3.org/2000/svg" xmlns:xlink="http://www.w3.org/1999/xlink" contentStyleType="text/css" height="351px" preserveAspectRatio="none" style="width:287px;height:351px;background:#FFFFFF;" version="1.1" viewBox="0 0 287 351" width="287px" zoomAndPan="magnify"><defs/><g><!--MD5=[ae1d88347e15c19d1382172edb361c22]
class com.javafwp.game.highscoreSystem.highscoreSystem--><a href="highscoreSystem.html" target="_top" title="highscoreSystem.html" xlink:actuate="onRequest" xlink:href="highscoreSystem.html" xlink:show="new" xlink:title="highscoreSystem.html" xlink:type="simple"><g id="elem_com.javafwp.game.highscoreSystem.highscoreSystem"><rect codeLine="5" fill="#F1F1F1" height="318.0781" id="com.javafwp.game.highscoreSystem.highscoreSystem" rx="2.5" ry="2.5" style="stroke:#181818;stroke-width:0.5;" width="266" x="7" y="7"/><ellipse cx="48.55" cy="26.1328" fill="#ADD1B2" rx="11" ry="11" style="stroke:#181818;stroke-width:1.0;"/><path d="M51.0231,32.2759 Q50.4421,32.5747 49.8029,32.7241 Q49.1638,32.8735 48.4582,32.8735 Q45.9514,32.8735 44.6315,31.2217 Q43.3117,29.5698 43.3117,26.4487 Q43.3117,23.3193 44.6315,21.6675 Q45.9514,20.0156 48.4582,20.0156 Q49.1638,20.0156 49.8112,20.165 Q50.4587,20.3145 51.0231,20.6133 L51.0231,23.3359 Q50.3923,22.7549 49.7988,22.4851 Q49.2053,22.2153 48.5744,22.2153 Q47.2297,22.2153 46.5449,23.282 Q45.8601,24.3486 45.8601,26.4487 Q45.8601,28.5405 46.5449,29.6072 Q47.2297,30.6738 48.5744,30.6738 Q49.2053,30.6738 49.7988,30.4041 Q50.3923,30.1343 51.0231,29.5532 Z " fill="#000000"/><text fill="#000000" font-family="sans-serif" font-size="14" lengthAdjust="spacing" textLength="116" x="97.95" y="25.5352">highscoreSystem</text><text fill="#000000" font-family="sans-serif" font-size="10" lengthAdjust="spacing" textLength="175" x="68.45" y="38.1563">com.javafwp.game.highscoreSystem</text><line style="stroke:#181818;stroke-width:0.5;" x1="8" x2="272" y1="45.2656" y2="45.2656"/><rect fill="none" height="6" style="stroke:#C82930;stroke-width:1.0;" width="6" x="15" y="53.2656"/><text fill="#000000" font-family="sans-serif" font-size="14" lengthAdjust="spacing" textLength="118" x="27" y="62.8008">displayText: Text</text><rect fill="none" height="6" style="stroke:#C82930;stroke-width:1.0;" width="6" x="15" y="69.7539"/><text fill="#000000" font-family="sans-serif" font-size="14" lengthAdjust="spacing" textLength="115" x="27" y="79.2891">infoDisplay: Text</text><rect fill="none" height="6" style="stroke:#C82930;stroke-width:1.0;" width="6" x="15" y="86.2422"/><text fill="#000000" font-family="sans-serif" font-size="14" lengthAdjust="spacing" textLength="99" x="27" y="95.7773">congrats: Text</text><rect fill="none" height="6" style="stroke:#C82930;stroke-width:1.0;" width="6" x="15" y="102.7305"/><text fill="#000000" font-family="sans-serif" font-size="14" lengthAdjust="spacing" textLength="147" x="27" y="112.2656">inputName: TextField</text><rect fill="none" height="6" style="stroke:#C82930;stroke-width:1.0;" width="6" x="15" y="119.2188"/><text fill="#000000" font-family="sans-serif" font-size="14" lengthAdjust="spacing" textLength="240" x="27" y="128.7539">entries: ArrayList&lt;highscoreEntry&gt;</text><rect fill="none" height="6" style="stroke:#C82930;stroke-width:1.0;" width="6" x="15" y="135.707"/><text fill="#000000" font-family="sans-serif" font-size="14" lengthAdjust="spacing" textLength="134" x="27" y="145.2422">tempScoreEntry: int</text><rect fill="none" height="6" style="stroke:#C82930;stroke-width:1.0;" width="6" x="15" y="152.1953"/><text fill="#000000" font-family="sans-serif" font-size="14" lengthAdjust="spacing" textLength="103" x="27" y="161.7305">maxEntries: int</text><rect fill="none" height="6" style="stroke:#C82930;stroke-width:1.0;" width="6" x="15" y="168.6836"/><text fill="#000000" font-family="sans-serif" font-size="14" lengthAdjust="spacing" textLength="142" x="27" y="178.2188">maxNameLength: int</text><rect fill="none" height="6" style="stroke:#C82930;stroke-width:1.0;" width="6" x="15" y="185.1719"/><text fill="#000000" font-family="sans-serif" font-size="14" lengthAdjust="spacing" textLength="86" x="27" y="194.707">textXPos: int</text><rect fill="none" height="6" style="stroke:#C82930;stroke-width:1.0;" width="6" x="15" y="201.6602"/><text fill="#000000" font-family="sans-serif" font-size="14" lengthAdjust="spacing" textLength="86" x="27" y="211.1953">textYPos: int</text><line style="stroke:#181818;stroke-width:0.5;" x1="8" x2="272" y1="218.1484" y2="218.1484"/><ellipse cx="18" cy="229.1484" fill="#84BE84" rx="3" ry="3" style="stroke:#038048;stroke-width:1.0;"/><text fill="#000000" font-family="sans-serif" font-size="14" lengthAdjust="spacing" textLength="222" x="27" y="235.6836">highscoreSystem(int, int, int, int)</text><ellipse cx="18" cy="245.6367" fill="#84BE84" rx="3" ry="3" style="stroke:#038048;stroke-width:1.0;"/><text fill="#000000" font-family="sans-serif" font-size="14" lengthAdjust="spacing" textLength="126" x="27" y="252.1719">addEntry(int): void</text><rect fill="#F24D5C" height="6" style="stroke:#C82930;stroke-width:1.0;" width="6" x="15" y="259.125"/><text fill="#000000" font-family="sans-serif" font-size="14" lengthAdjust="spacing" textLength="224" x="27" y="268.6602">completeAddingNewEntry(): void</text><rect fill="#F24D5C" height="6" style="stroke:#C82930;stroke-width:1.0;" width="6" x="15" y="275.6133"/><text fill="#000000" font-family="sans-serif" font-size="14" lengthAdjust="spacing" textLength="74" x="27" y="285.1484">sort(): void</text><ellipse cx="18" cy="295.1016" fill="#84BE84" rx="3" ry="3" style="stroke:#038048;stroke-width:1.0;"/><text fill="#000000" font-family="sans-serif" font-size="14" lengthAdjust="spacing" textLength="139" x="27" y="301.6367">generateText(): void</text><ellipse cx="18" cy="311.5898" fill="#84BE84" rx="3" ry="3" style="stroke:#038048;stroke-width:1.0;"/><text fill="#000000" font-family="sans-serif" font-size="14" lengthAdjust="spacing" textLength="136" x="27" y="318.125">getEntities(): Node[]</text></g></a><rect height="11.7773" style="stroke:#00000000;stroke-width:1.0;fill:none;" width="182" x="48.5" y="332.0781"/><text fill="#888888" font-family="sans-serif" font-size="10" lengthAdjust="spacing" textLength="182" x="48.5" y="341.7461">UMLDoclet 2.0.17, PlantUML 1.2022.5</text><!--MD5=[9161e4b387e9eb6613a368f938af39de]
@startuml
    set namespaceSeparator none
    hide empty fields
    hide empty methods

    class "<size:14>highscoreSystem\n<size:10>com.javafwp.game.highscoreSystem" as com.javafwp.game.highscoreSystem.highscoreSystem [[highscoreSystem.html]] {
        -displayText: Text
        -infoDisplay: Text
        -congrats: Text
        -inputName: TextField
        -entries: ArrayList<highscoreEntry>
        -tempScoreEntry: int
        -maxEntries: int
        -maxNameLength: int
        -textXPos: int
        -textYPos: int
        +highscoreSystem(int, int, int, int)
        +addEntry(int): void
        -completeAddingNewEntry(): void
        -sort(): void
        +generateText(): void
        +getEntities(): Node[]
    }

    center footer UMLDoclet 2.0.17, PlantUML 1.2022.5
@enduml

PlantUML version 1.2022.5(Sat Apr 30 12:55:52 CEST 2022)
(APACHE source distribution)
Java Runtime: OpenJDK Runtime Environment
JVM: OpenJDK 64-Bit Server VM
Default Encoding: UTF-8
Language: en
Country: DE
--></g></svg>