<?xml version="1.0" encoding="UTF-8" standalone="no"?><svg xmlns="http://www.w3.org/2000/svg" xmlns:xlink="http://www.w3.org/1999/xlink" contentStyleType="text/css" height="645px" preserveAspectRatio="none" style="width:746px;height:645px;background:#FFFFFF;" version="1.1" viewBox="0 0 746 645" width="746px" zoomAndPan="magnify"><defs/><g><!--MD5=[4199d943960f50d9a5d7ff517e7bb65f]
cluster com.javafwp.game.highscoreSystem--><g id="cluster_com.javafwp.game.highscoreSystem"><path d="M8.5,6 L263.5,6 A3.75,3.75 0 0 1 266,8.5 L273,29.6094 L736.5,29.6094 A2.5,2.5 0 0 1 739,32.1094 L739,616.5 A2.5,2.5 0 0 1 736.5,619 L8.5,619 A2.5,2.5 0 0 1 6,616.5 L6,8.5 A2.5,2.5 0 0 1 8.5,6 " style="stroke:#000000;stroke-width:1.5;fill:none;"/><line style="stroke:#000000;stroke-width:1.5;fill:none;" x1="6" x2="273" y1="29.6094" y2="29.6094"/><text fill="#000000" font-family="sans-serif" font-size="14" font-weight="bold" lengthAdjust="spacing" textLength="254" x="10" y="22.5332">com.javafwp.game.highscoreSystem</text></g><!--MD5=[057e21001075b62abe8ec09e092c6a4e]
class com.javafwp.game.highscoreSystem.Dbc--><a href="dbc.html" target="_top" title="dbc.html" xlink:actuate="onRequest" xlink:href="dbc.html" xlink:show="new" xlink:title="dbc.html" xlink:type="simple"><g id="elem_com.javafwp.game.highscoreSystem.Dbc"><rect codeLine="3" fill="#F1F1F1" height="241.7031" id="com.javafwp.game.highscoreSystem.Dbc" rx="2.5" ry="2.5" style="stroke:#181818;stroke-width:0.5;" width="377" x="345.5" y="94.5"/><ellipse cx="517.25" cy="110.5" fill="#ADD1B2" rx="11" ry="11" style="stroke:#181818;stroke-width:1.0;"/><path d="M520.0156,106.375 Q520.1719,106.1563 520.3594,106.0469 Q520.5469,105.9375 520.7656,105.9375 Q521.1406,105.9375 521.375,106.2031 Q521.6094,106.4531 521.6094,107.0625 L521.6094,108.5156 Q521.6094,109.125 521.375,109.3906 Q521.1406,109.6563 520.7656,109.6563 Q520.4219,109.6563 520.2188,109.4531 Q520.0156,109.2656 519.9063,108.75 Q519.8594,108.3906 519.6719,108.2031 Q519.3438,107.8281 518.7344,107.6094 Q518.125,107.3906 517.5,107.3906 Q516.7344,107.3906 516.0938,107.7188 Q515.4688,108.0469 514.9688,108.7969 Q514.4844,109.5469 514.4844,110.5781 L514.4844,111.6719 Q514.4844,112.9063 515.375,113.7344 Q516.2656,114.5469 517.8594,114.5469 Q518.7969,114.5469 519.4531,114.2969 Q519.8438,114.1406 520.2656,113.7031 Q520.5313,113.4375 520.6719,113.3594 Q520.8281,113.2813 521.0313,113.2813 Q521.3594,113.2813 521.6094,113.5469 Q521.875,113.7969 521.875,114.1406 Q521.875,114.4844 521.5313,114.8906 Q521.0313,115.4688 520.2344,115.7969 Q519.1563,116.25 517.8594,116.25 Q516.3438,116.25 515.1406,115.625 Q514.1563,115.125 513.4688,114.0625 Q512.7813,112.9844 512.7813,111.7031 L512.7813,110.5469 Q512.7813,109.2188 513.3906,108.0781 Q514.0156,106.9219 515.1094,106.3125 Q516.2031,105.6875 517.4375,105.6875 Q518.1719,105.6875 518.8125,105.8594 Q519.4688,106.0156 520.0156,106.375 Z " fill="#000000"/><text fill="#000000" font-family="sans-serif" font-size="14" lengthAdjust="spacing" textLength="25" x="537.75" y="116.2285">Dbc</text><line style="stroke:#181818;stroke-width:0.5;" x1="346.5" x2="721.5" y1="126.5" y2="126.5"/><polygon fill="none" points="356.5,133.5,352.5,139.5,360.5,139.5" style="stroke:#1963A0;stroke-width:1.0;"/><text fill="#000000" font-family="sans-serif" font-size="14" lengthAdjust="spacing" text-decoration="underline" textLength="172" x="365.5" y="145.0332">HIGHSCORES_FILE: String</text><polygon fill="none" points="356.5,151.1094,352.5,157.1094,360.5,157.1094" style="stroke:#1963A0;stroke-width:1.0;"/><text fill="#000000" font-family="sans-serif" font-size="14" lengthAdjust="spacing" text-decoration="underline" textLength="99" x="365.5" y="162.6426">DB_URL: String</text><polygon fill="none" points="356.5,168.7188,352.5,174.7188,360.5,174.7188" style="stroke:#1963A0;stroke-width:1.0;"/><text fill="#000000" font-family="sans-serif" font-size="14" lengthAdjust="spacing" text-decoration="underline" textLength="82" x="365.5" y="180.252">USER: String</text><polygon fill="none" points="356.5,186.3281,352.5,192.3281,360.5,192.3281" style="stroke:#1963A0;stroke-width:1.0;"/><text fill="#000000" font-family="sans-serif" font-size="14" lengthAdjust="spacing" text-decoration="underline" textLength="81" x="365.5" y="197.8613">PASS: String</text><polygon fill="none" points="356.5,203.9375,352.5,209.9375,360.5,209.9375" style="stroke:#1963A0;stroke-width:1.0;"/><text fill="#000000" font-family="sans-serif" font-size="14" lengthAdjust="spacing" text-decoration="underline" textLength="132" x="365.5" y="215.4707">ADMIN_USER: String</text><polygon fill="none" points="356.5,221.5469,352.5,227.5469,360.5,227.5469" style="stroke:#1963A0;stroke-width:1.0;"/><text fill="#000000" font-family="sans-serif" font-size="14" lengthAdjust="spacing" text-decoration="underline" textLength="150" x="365.5" y="233.0801">INSERT_QUERY: String</text><polygon fill="none" points="356.5,239.1563,352.5,245.1563,360.5,245.1563" style="stroke:#1963A0;stroke-width:1.0;"/><text fill="#000000" font-family="sans-serif" font-size="14" lengthAdjust="spacing" text-decoration="underline" textLength="178" x="365.5" y="250.6895">SELECTION_QUERY: String</text><polygon fill="none" points="356.5,256.7656,352.5,262.7656,360.5,262.7656" style="stroke:#1963A0;stroke-width:1.0;"/><text fill="#000000" font-family="sans-serif" font-size="14" lengthAdjust="spacing" text-decoration="underline" textLength="155" x="365.5" y="268.2988">DELETE_QUERY: String</text><line style="stroke:#181818;stroke-width:0.5;" x1="346.5" x2="721.5" y1="275.375" y2="275.375"/><ellipse cx="356.5" cy="286.375" fill="#84BE84" rx="3" ry="3" style="stroke:#038048;stroke-width:1.0;"/><text fill="#000000" font-family="sans-serif" font-size="14" lengthAdjust="spacing" text-decoration="underline" textLength="306" x="365.5" y="293.9082">writeToDatabase(HighscoreEntry, boolean): void</text><ellipse cx="356.5" cy="303.9844" fill="#84BE84" rx="3" ry="3" style="stroke:#038048;stroke-width:1.0;"/><text fill="#000000" font-family="sans-serif" font-size="14" lengthAdjust="spacing" text-decoration="underline" textLength="279" x="365.5" y="311.5176">resetScore(String, boolean, String): boolean</text><ellipse cx="356.5" cy="321.5938" fill="#84BE84" rx="3" ry="3" style="stroke:#038048;stroke-width:1.0;"/><text fill="#000000" font-family="sans-serif" font-size="14" lengthAdjust="spacing" text-decoration="underline" textLength="351" x="365.5" y="329.127">getFromDatabase(boolean): ArrayList&lt;HighscoreEntry&gt;</text></g></a><!--MD5=[067189eaf474a2077c59ca4b59fbb24c]
class com.javafwp.game.highscoreSystem.HighscoreEntry--><a href="highscoreEntry.html" target="_top" title="highscoreEntry.html" xlink:actuate="onRequest" xlink:href="highscoreEntry.html" xlink:show="new" xlink:title="highscoreEntry.html" xlink:type="simple"><g id="elem_com.javafwp.game.highscoreSystem.HighscoreEntry"><rect codeLine="17" fill="#F1F1F1" height="136.0469" id="com.javafwp.game.highscoreSystem.HighscoreEntry" rx="2.5" ry="2.5" style="stroke:#181818;stroke-width:0.5;" width="192" x="70" y="467"/><ellipse cx="113.8" cy="483" fill="#ADD1B2" rx="11" ry="11" style="stroke:#181818;stroke-width:1.0;"/><path d="M116.5656,478.875 Q116.7219,478.6563 116.9094,478.5469 Q117.0969,478.4375 117.3156,478.4375 Q117.6906,478.4375 117.925,478.7031 Q118.1594,478.9531 118.1594,479.5625 L118.1594,481.0156 Q118.1594,481.625 117.925,481.8906 Q117.6906,482.1563 117.3156,482.1563 Q116.9719,482.1563 116.7688,481.9531 Q116.5656,481.7656 116.4563,481.25 Q116.4094,480.8906 116.2219,480.7031 Q115.8938,480.3281 115.2844,480.1094 Q114.675,479.8906 114.05,479.8906 Q113.2844,479.8906 112.6438,480.2188 Q112.0188,480.5469 111.5188,481.2969 Q111.0344,482.0469 111.0344,483.0781 L111.0344,484.1719 Q111.0344,485.4063 111.925,486.2344 Q112.8156,487.0469 114.4094,487.0469 Q115.3469,487.0469 116.0031,486.7969 Q116.3938,486.6406 116.8156,486.2031 Q117.0813,485.9375 117.2219,485.8594 Q117.3781,485.7813 117.5813,485.7813 Q117.9094,485.7813 118.1594,486.0469 Q118.425,486.2969 118.425,486.6406 Q118.425,486.9844 118.0813,487.3906 Q117.5813,487.9688 116.7844,488.2969 Q115.7063,488.75 114.4094,488.75 Q112.8938,488.75 111.6906,488.125 Q110.7063,487.625 110.0188,486.5625 Q109.3313,485.4844 109.3313,484.2031 L109.3313,483.0469 Q109.3313,481.7188 109.9406,480.5781 Q110.5656,479.4219 111.6594,478.8125 Q112.7531,478.1875 113.9875,478.1875 Q114.7219,478.1875 115.3625,478.3594 Q116.0188,478.5156 116.5656,478.875 Z " fill="#000000"/><text fill="#000000" font-family="sans-serif" font-size="14" lengthAdjust="spacing" textLength="96" x="134.2" y="488.7285">HighscoreEntry</text><line style="stroke:#181818;stroke-width:0.5;" x1="71" x2="261" y1="499" y2="499"/><rect fill="none" height="6" style="stroke:#C82930;stroke-width:1.0;" width="6" x="78" y="507"/><text fill="#000000" font-family="sans-serif" font-size="14" lengthAdjust="spacing" textLength="80" x="90" y="517.5332">name: String</text><rect fill="none" height="6" style="stroke:#C82930;stroke-width:1.0;" width="6" x="78" y="524.6094"/><text fill="#000000" font-family="sans-serif" font-size="14" lengthAdjust="spacing" textLength="58" x="90" y="535.1426">score: int</text><line style="stroke:#181818;stroke-width:0.5;" x1="71" x2="261" y1="542.2188" y2="542.2188"/><ellipse cx="81" cy="553.2188" fill="#84BE84" rx="3" ry="3" style="stroke:#038048;stroke-width:1.0;"/><text fill="#000000" font-family="sans-serif" font-size="14" lengthAdjust="spacing" textLength="166" x="90" y="560.752">HighscoreEntry(String, int)</text><ellipse cx="81" cy="570.8281" fill="#84BE84" rx="3" ry="3" style="stroke:#038048;stroke-width:1.0;"/><text fill="#000000" font-family="sans-serif" font-size="14" lengthAdjust="spacing" textLength="90" x="90" y="578.3613">getScore(): int</text><ellipse cx="81" cy="588.4375" fill="#84BE84" rx="3" ry="3" style="stroke:#038048;stroke-width:1.0;"/><text fill="#000000" font-family="sans-serif" font-size="14" lengthAdjust="spacing" textLength="111" x="90" y="595.9707">getName(): String</text></g></a><!--MD5=[2b01fb5f81bfc508786581b4c9c407a1]
class com.javafwp.game.highscoreSystem.HighscoreSystem--><a href="highscoreSystem.html" target="_top" title="highscoreSystem.html" xlink:actuate="onRequest" xlink:href="highscoreSystem.html" xlink:show="new" xlink:title="highscoreSystem.html" xlink:type="simple"><g id="elem_com.javafwp.game.highscoreSystem.HighscoreSystem"><rect codeLine="25" fill="#F1F1F1" height="347.3594" id="com.javafwp.game.highscoreSystem.HighscoreSystem" rx="2.5" ry="2.5" style="stroke:#181818;stroke-width:0.5;" width="288" x="22" y="42"/><ellipse cx="107.25" cy="58" fill="#ADD1B2" rx="11" ry="11" style="stroke:#181818;stroke-width:1.0;"/><path d="M110.0156,53.875 Q110.1719,53.6563 110.3594,53.5469 Q110.5469,53.4375 110.7656,53.4375 Q111.1406,53.4375 111.375,53.7031 Q111.6094,53.9531 111.6094,54.5625 L111.6094,56.0156 Q111.6094,56.625 111.375,56.8906 Q111.1406,57.1563 110.7656,57.1563 Q110.4219,57.1563 110.2188,56.9531 Q110.0156,56.7656 109.9063,56.25 Q109.8594,55.8906 109.6719,55.7031 Q109.3438,55.3281 108.7344,55.1094 Q108.125,54.8906 107.5,54.8906 Q106.7344,54.8906 106.0938,55.2188 Q105.4688,55.5469 104.9688,56.2969 Q104.4844,57.0469 104.4844,58.0781 L104.4844,59.1719 Q104.4844,60.4063 105.375,61.2344 Q106.2656,62.0469 107.8594,62.0469 Q108.7969,62.0469 109.4531,61.7969 Q109.8438,61.6406 110.2656,61.2031 Q110.5313,60.9375 110.6719,60.8594 Q110.8281,60.7813 111.0313,60.7813 Q111.3594,60.7813 111.6094,61.0469 Q111.875,61.2969 111.875,61.6406 Q111.875,61.9844 111.5313,62.3906 Q111.0313,62.9688 110.2344,63.2969 Q109.1563,63.75 107.8594,63.75 Q106.3438,63.75 105.1406,63.125 Q104.1563,62.625 103.4688,61.5625 Q102.7813,60.4844 102.7813,59.2031 L102.7813,58.0469 Q102.7813,56.7188 103.3906,55.5781 Q104.0156,54.4219 105.1094,53.8125 Q106.2031,53.1875 107.4375,53.1875 Q108.1719,53.1875 108.8125,53.3594 Q109.4688,53.5156 110.0156,53.875 Z " fill="#000000"/><text fill="#000000" font-family="sans-serif" font-size="14" lengthAdjust="spacing" textLength="109" x="127.75" y="63.7285">HighscoreSystem</text><line style="stroke:#181818;stroke-width:0.5;" x1="23" x2="309" y1="74" y2="74"/><rect fill="none" height="6" style="stroke:#C82930;stroke-width:1.0;" width="6" x="30" y="82"/><text fill="#000000" font-family="sans-serif" font-size="14" lengthAdjust="spacing" textLength="106" x="42" y="92.5332">displayText: Text</text><rect fill="none" height="6" style="stroke:#C82930;stroke-width:1.0;" width="6" x="30" y="99.6094"/><text fill="#000000" font-family="sans-serif" font-size="14" lengthAdjust="spacing" textLength="104" x="42" y="110.1426">infoDisplay: Text</text><rect fill="none" height="6" style="stroke:#C82930;stroke-width:1.0;" width="6" x="30" y="117.2188"/><text fill="#000000" font-family="sans-serif" font-size="14" lengthAdjust="spacing" textLength="90" x="42" y="127.752">congrats: Text</text><rect fill="none" height="6" style="stroke:#C82930;stroke-width:1.0;" width="6" x="30" y="134.8281"/><text fill="#000000" font-family="sans-serif" font-size="14" lengthAdjust="spacing" textLength="133" x="42" y="145.3613">inputName: TextField</text><rect fill="none" height="6" style="stroke:#C82930;stroke-width:1.0;" width="6" x="30" y="152.4375"/><text fill="#000000" font-family="sans-serif" font-size="14" lengthAdjust="spacing" textLength="124" x="42" y="162.9707">tempScoreEntry: int</text><rect fill="none" height="6" style="stroke:#C82930;stroke-width:1.0;" width="6" x="30" y="170.0469"/><text fill="#000000" font-family="sans-serif" font-size="14" lengthAdjust="spacing" textLength="92" x="42" y="180.5801">maxEntries: int</text><rect fill="none" height="6" style="stroke:#C82930;stroke-width:1.0;" width="6" x="30" y="187.6563"/><text fill="#000000" font-family="sans-serif" font-size="14" lengthAdjust="spacing" textLength="128" x="42" y="198.1895">maxNameLength: int</text><rect fill="none" height="6" style="stroke:#C82930;stroke-width:1.0;" width="6" x="30" y="205.2656"/><text fill="#000000" font-family="sans-serif" font-size="14" lengthAdjust="spacing" textLength="77" x="42" y="215.7988">textXPos: int</text><rect fill="none" height="6" style="stroke:#C82930;stroke-width:1.0;" width="6" x="30" y="222.875"/><text fill="#000000" font-family="sans-serif" font-size="14" lengthAdjust="spacing" textLength="78" x="42" y="233.4082">textYPos: int</text><rect fill="none" height="6" style="stroke:#C82930;stroke-width:1.0;" width="6" x="30" y="240.4844"/><text fill="#000000" font-family="sans-serif" font-size="14" lengthAdjust="spacing" textLength="132" x="42" y="251.0176">onlineMode: boolean</text><line style="stroke:#181818;stroke-width:0.5;" x1="23" x2="309" y1="258.0938" y2="258.0938"/><ellipse cx="33" cy="269.0938" fill="#84BE84" rx="3" ry="3" style="stroke:#038048;stroke-width:1.0;"/><text fill="#000000" font-family="sans-serif" font-size="14" lengthAdjust="spacing" textLength="262" x="42" y="276.627">HighscoreSystem(int, int, int, int, boolean)</text><ellipse cx="33" cy="286.7031" fill="#84BE84" rx="3" ry="3" style="stroke:#038048;stroke-width:1.0;"/><text fill="#000000" font-family="sans-serif" font-size="14" lengthAdjust="spacing" textLength="116" x="42" y="294.2363">addEntry(int): void</text><rect fill="#F24D5C" height="6" style="stroke:#C82930;stroke-width:1.0;" width="6" x="30" y="301.3125"/><text fill="#000000" font-family="sans-serif" font-size="14" lengthAdjust="spacing" textLength="204" x="42" y="311.8457">completeAddingNewEntry(): void</text><rect fill="#F24D5C" height="6" style="stroke:#C82930;stroke-width:1.0;" width="6" x="30" y="318.9219"/><text fill="#000000" font-family="sans-serif" font-size="14" lengthAdjust="spacing" textLength="68" x="42" y="329.4551">sort(): void</text><ellipse cx="33" cy="339.5313" fill="#84BE84" rx="3" ry="3" style="stroke:#038048;stroke-width:1.0;"/><text fill="#000000" font-family="sans-serif" font-size="14" lengthAdjust="spacing" textLength="128" x="42" y="347.0645">generateText(): void</text><ellipse cx="33" cy="357.1406" fill="#84BE84" rx="3" ry="3" style="stroke:#038048;stroke-width:1.0;"/><text fill="#000000" font-family="sans-serif" font-size="14" lengthAdjust="spacing" textLength="220" x="42" y="364.6738">resetScore(String, String): boolean</text><ellipse cx="33" cy="374.75" fill="#84BE84" rx="3" ry="3" style="stroke:#038048;stroke-width:1.0;"/><text fill="#000000" font-family="sans-serif" font-size="14" lengthAdjust="spacing" textLength="125" x="42" y="382.2832">getEntities(): Node[]</text></g></a><!--MD5=[07b6ef51ff8cd28b8babb5761771c4dd]
link com.javafwp.game.highscoreSystem.HighscoreSystem to com.javafwp.game.highscoreSystem.HighscoreEntry--><g id="link_com.javafwp.game.highscoreSystem.HighscoreSystem_com.javafwp.game.highscoreSystem.HighscoreEntry"><path codeLine="45" d="M166,389.19 C166,414.64 166,439.6 166,461.45 " fill="none" id="com.javafwp.game.highscoreSystem.HighscoreSystem-to-com.javafwp.game.highscoreSystem.HighscoreEntry" style="stroke:#181818;stroke-width:1.0;"/><polygon fill="#181818" points="166,466.64,170,457.64,166,461.64,162,457.64,166,466.64" style="stroke:#181818;stroke-width:1.0;"/><text fill="#000000" font-family="sans-serif" font-size="13" lengthAdjust="spacing" textLength="39" x="167" y="433.4951">entries</text><text fill="#000000" font-family="sans-serif" font-size="13" lengthAdjust="spacing" textLength="5" x="160.7422" y="456.2762">*</text></g><rect height="12.5781" style="stroke:#00000000;stroke-width:1.0;fill:none;" width="184" x="274" y="625"/><text fill="#888888" font-family="sans-serif" font-size="10" lengthAdjust="spacing" textLength="184" x="274" y="635.3809">UMLDoclet 2.0.17, PlantUML 1.2022.5</text><!--MD5=[ef8fdba8385c4eabf0e3f13d37f20f8b]
@startuml
    namespace com.javafwp.game.highscoreSystem {

        class Dbc [[dbc.html]] {
            {static} ~HIGHSCORES_FILE: String
            {static} ~DB_URL: String
            {static} ~USER: String
            {static} ~PASS: String
            {static} ~ADMIN_USER: String
            {static} ~INSERT_QUERY: String
            {static} ~SELECTION_QUERY: String
            {static} ~DELETE_QUERY: String
            {static} +writeToDatabase(HighscoreEntry, boolean): void
            {static} +resetScore(String, boolean, String): boolean
            {static} +getFromDatabase(boolean): ArrayList<HighscoreEntry>
        }

        class HighscoreEntry [[highscoreEntry.html]] {
            -name: String
            -score: int
            +HighscoreEntry(String, int)
            +getScore(): int
            +getName(): String
        }

        class HighscoreSystem [[highscoreSystem.html]] {
            -displayText: Text
            -infoDisplay: Text
            -congrats: Text
            -inputName: TextField
            -tempScoreEntry: int
            -maxEntries: int
            -maxNameLength: int
            -textXPos: int
            -textYPos: int
            -onlineMode: boolean
            +HighscoreSystem(int, int, int, int, boolean)
            +addEntry(int): void
            -completeAddingNewEntry(): void
            -sort(): void
            +generateText(): void
            +resetScore(String, String): boolean
            +getEntities(): Node[]
        }

        HighscoreSystem - -> "*" HighscoreEntry: entries
    }

    center footer UMLDoclet 2.0.17, PlantUML 1.2022.5
@enduml

PlantUML version 1.2022.5(Sat Apr 30 12:55:52 CEST 2022)
(APACHE source distribution)
Java Runtime: Java(TM) SE Runtime Environment
JVM: Java HotSpot(TM) 64-Bit Server VM
Default Encoding: UTF-8
Language: de
Country: DE
--></g></svg>