<?xml version="1.0" encoding="UTF-8" standalone="no"?><svg xmlns="http://www.w3.org/2000/svg" xmlns:xlink="http://www.w3.org/1999/xlink" contentStyleType="text/css" height="628px" preserveAspectRatio="none" style="width:636px;height:628px;background:#FFFFFF;" version="1.1" viewBox="0 0 636 628" width="636px" zoomAndPan="magnify"><defs/><g><!--MD5=[4199d943960f50d9a5d7ff517e7bb65f]
cluster com.javafwp.game.highscoreSystem--><g id="cluster_com.javafwp.game.highscoreSystem"><path d="M8.5,6 L263.5,6 A3.75,3.75 0 0 1 266,8.5 L273,29.6094 L626.5,29.6094 A2.5,2.5 0 0 1 629,32.1094 L629,599.5 A2.5,2.5 0 0 1 626.5,602 L8.5,602 A2.5,2.5 0 0 1 6,599.5 L6,8.5 A2.5,2.5 0 0 1 8.5,6 " style="stroke:#000000;stroke-width:1.5;fill:none;"/><line style="stroke:#000000;stroke-width:1.5;fill:none;" x1="6" x2="273" y1="29.6094" y2="29.6094"/><text fill="#000000" font-family="sans-serif" font-size="14" font-weight="bold" lengthAdjust="spacing" textLength="254" x="10" y="22.5332">com.javafwp.game.highscoreSystem</text></g><!--MD5=[b463664bb294738ed1863a6a8aef0ee0]
class com.javafwp.game.highscoreSystem.dbc--><a href="dbc.html" target="_top" title="dbc.html" xlink:actuate="onRequest" xlink:href="dbc.html" xlink:show="new" xlink:title="dbc.html" xlink:type="simple"><g id="elem_com.javafwp.game.highscoreSystem.dbc"><rect codeLine="3" fill="#F1F1F1" height="224.0938" id="com.javafwp.game.highscoreSystem.dbc" rx="2.5" ry="2.5" style="stroke:#181818;stroke-width:0.5;" width="325" x="287.5" y="95"/><ellipse cx="434.25" cy="111" fill="#ADD1B2" rx="11" ry="11" style="stroke:#181818;stroke-width:1.0;"/><path d="M437.0156,106.875 Q437.1719,106.6563 437.3594,106.5469 Q437.5469,106.4375 437.7656,106.4375 Q438.1406,106.4375 438.375,106.7031 Q438.6094,106.9531 438.6094,107.5625 L438.6094,109.0156 Q438.6094,109.625 438.375,109.8906 Q438.1406,110.1563 437.7656,110.1563 Q437.4219,110.1563 437.2188,109.9531 Q437.0156,109.7656 436.9063,109.25 Q436.8594,108.8906 436.6719,108.7031 Q436.3438,108.3281 435.7344,108.1094 Q435.125,107.8906 434.5,107.8906 Q433.7344,107.8906 433.0938,108.2188 Q432.4688,108.5469 431.9688,109.2969 Q431.4844,110.0469 431.4844,111.0781 L431.4844,112.1719 Q431.4844,113.4063 432.375,114.2344 Q433.2656,115.0469 434.8594,115.0469 Q435.7969,115.0469 436.4531,114.7969 Q436.8438,114.6406 437.2656,114.2031 Q437.5313,113.9375 437.6719,113.8594 Q437.8281,113.7813 438.0313,113.7813 Q438.3594,113.7813 438.6094,114.0469 Q438.875,114.2969 438.875,114.6406 Q438.875,114.9844 438.5313,115.3906 Q438.0313,115.9688 437.2344,116.2969 Q436.1563,116.75 434.8594,116.75 Q433.3438,116.75 432.1406,116.125 Q431.1563,115.625 430.4688,114.5625 Q429.7813,113.4844 429.7813,112.2031 L429.7813,111.0469 Q429.7813,109.7188 430.3906,108.5781 Q431.0156,107.4219 432.1094,106.8125 Q433.2031,106.1875 434.4375,106.1875 Q435.1719,106.1875 435.8125,106.3594 Q436.4688,106.5156 437.0156,106.875 Z " fill="#000000"/><text fill="#000000" font-family="sans-serif" font-size="14" lengthAdjust="spacing" textLength="23" x="454.75" y="116.7285">dbc</text><line style="stroke:#181818;stroke-width:0.5;" x1="288.5" x2="611.5" y1="127" y2="127"/><polygon fill="none" points="298.5,134,294.5,140,302.5,140" style="stroke:#1963A0;stroke-width:1.0;"/><text fill="#000000" font-family="sans-serif" font-size="14" lengthAdjust="spacing" text-decoration="underline" textLength="99" x="307.5" y="145.5332">DB_URL: String</text><polygon fill="none" points="298.5,151.6094,294.5,157.6094,302.5,157.6094" style="stroke:#1963A0;stroke-width:1.0;"/><text fill="#000000" font-family="sans-serif" font-size="14" lengthAdjust="spacing" text-decoration="underline" textLength="82" x="307.5" y="163.1426">USER: String</text><polygon fill="none" points="298.5,169.2188,294.5,175.2188,302.5,175.2188" style="stroke:#1963A0;stroke-width:1.0;"/><text fill="#000000" font-family="sans-serif" font-size="14" lengthAdjust="spacing" text-decoration="underline" textLength="81" x="307.5" y="180.752">PASS: String</text><polygon fill="none" points="298.5,186.8281,294.5,192.8281,302.5,192.8281" style="stroke:#1963A0;stroke-width:1.0;"/><text fill="#000000" font-family="sans-serif" font-size="14" lengthAdjust="spacing" text-decoration="underline" textLength="132" x="307.5" y="198.3613">ADMIN_USER: String</text><polygon fill="none" points="298.5,204.4375,294.5,210.4375,302.5,210.4375" style="stroke:#1963A0;stroke-width:1.0;"/><text fill="#000000" font-family="sans-serif" font-size="14" lengthAdjust="spacing" text-decoration="underline" textLength="150" x="307.5" y="215.9707">INSERT_QUERY: String</text><polygon fill="none" points="298.5,222.0469,294.5,228.0469,302.5,228.0469" style="stroke:#1963A0;stroke-width:1.0;"/><text fill="#000000" font-family="sans-serif" font-size="14" lengthAdjust="spacing" text-decoration="underline" textLength="178" x="307.5" y="233.5801">SELECTION_QUERY: String</text><polygon fill="none" points="298.5,239.6563,294.5,245.6563,302.5,245.6563" style="stroke:#1963A0;stroke-width:1.0;"/><text fill="#000000" font-family="sans-serif" font-size="14" lengthAdjust="spacing" text-decoration="underline" textLength="155" x="307.5" y="251.1895">DELETE_QUERY: String</text><line style="stroke:#181818;stroke-width:0.5;" x1="288.5" x2="611.5" y1="258.2656" y2="258.2656"/><ellipse cx="298.5" cy="269.2656" fill="#84BE84" rx="3" ry="3" style="stroke:#038048;stroke-width:1.0;"/><text fill="#000000" font-family="sans-serif" font-size="14" lengthAdjust="spacing" text-decoration="underline" textLength="246" x="307.5" y="276.7988">writeToDatabase(highscoreEntry): void</text><ellipse cx="298.5" cy="286.875" fill="#84BE84" rx="3" ry="3" style="stroke:#038048;stroke-width:1.0;"/><text fill="#000000" font-family="sans-serif" font-size="14" lengthAdjust="spacing" text-decoration="underline" textLength="175" x="307.5" y="294.4082">resetScore(String): boolean</text><ellipse cx="298.5" cy="304.4844" fill="#84BE84" rx="3" ry="3" style="stroke:#038048;stroke-width:1.0;"/><text fill="#000000" font-family="sans-serif" font-size="14" lengthAdjust="spacing" text-decoration="underline" textLength="299" x="307.5" y="312.0176">getFromDatabase(): ArrayList&lt;highscoreEntry&gt;</text></g></a><!--MD5=[98098a10abca00a7fae82bf3a4fd0c94]
class com.javafwp.game.highscoreSystem.highscoreEntry--><a href="highscoreEntry.html" target="_top" title="highscoreEntry.html" xlink:actuate="onRequest" xlink:href="highscoreEntry.html" xlink:show="new" xlink:title="highscoreEntry.html" xlink:type="simple"><g id="elem_com.javafwp.game.highscoreSystem.highscoreEntry"><rect codeLine="16" fill="#F1F1F1" height="136.0469" id="com.javafwp.game.highscoreSystem.highscoreEntry" rx="2.5" ry="2.5" style="stroke:#181818;stroke-width:0.5;" width="191" x="41.5" y="450"/><ellipse cx="85.3" cy="466" fill="#ADD1B2" rx="11" ry="11" style="stroke:#181818;stroke-width:1.0;"/><path d="M88.0656,461.875 Q88.2219,461.6563 88.4094,461.5469 Q88.5969,461.4375 88.8156,461.4375 Q89.1906,461.4375 89.425,461.7031 Q89.6594,461.9531 89.6594,462.5625 L89.6594,464.0156 Q89.6594,464.625 89.425,464.8906 Q89.1906,465.1563 88.8156,465.1563 Q88.4719,465.1563 88.2688,464.9531 Q88.0656,464.7656 87.9563,464.25 Q87.9094,463.8906 87.7219,463.7031 Q87.3938,463.3281 86.7844,463.1094 Q86.175,462.8906 85.55,462.8906 Q84.7844,462.8906 84.1438,463.2188 Q83.5188,463.5469 83.0188,464.2969 Q82.5344,465.0469 82.5344,466.0781 L82.5344,467.1719 Q82.5344,468.4063 83.425,469.2344 Q84.3156,470.0469 85.9094,470.0469 Q86.8469,470.0469 87.5031,469.7969 Q87.8938,469.6406 88.3156,469.2031 Q88.5813,468.9375 88.7219,468.8594 Q88.8781,468.7813 89.0813,468.7813 Q89.4094,468.7813 89.6594,469.0469 Q89.925,469.2969 89.925,469.6406 Q89.925,469.9844 89.5813,470.3906 Q89.0813,470.9688 88.2844,471.2969 Q87.2063,471.75 85.9094,471.75 Q84.3938,471.75 83.1906,471.125 Q82.2063,470.625 81.5188,469.5625 Q80.8313,468.4844 80.8313,467.2031 L80.8313,466.0469 Q80.8313,464.7188 81.4406,463.5781 Q82.0656,462.4219 83.1594,461.8125 Q84.2531,461.1875 85.4875,461.1875 Q86.2219,461.1875 86.8625,461.3594 Q87.5188,461.5156 88.0656,461.875 Z " fill="#000000"/><text fill="#000000" font-family="sans-serif" font-size="14" lengthAdjust="spacing" textLength="95" x="105.7" y="471.7285">highscoreEntry</text><line style="stroke:#181818;stroke-width:0.5;" x1="42.5" x2="231.5" y1="482" y2="482"/><rect fill="none" height="6" style="stroke:#C82930;stroke-width:1.0;" width="6" x="49.5" y="490"/><text fill="#000000" font-family="sans-serif" font-size="14" lengthAdjust="spacing" textLength="80" x="61.5" y="500.5332">name: String</text><rect fill="none" height="6" style="stroke:#C82930;stroke-width:1.0;" width="6" x="49.5" y="507.6094"/><text fill="#000000" font-family="sans-serif" font-size="14" lengthAdjust="spacing" textLength="58" x="61.5" y="518.1426">score: int</text><line style="stroke:#181818;stroke-width:0.5;" x1="42.5" x2="231.5" y1="525.2188" y2="525.2188"/><ellipse cx="52.5" cy="536.2188" fill="#84BE84" rx="3" ry="3" style="stroke:#038048;stroke-width:1.0;"/><text fill="#000000" font-family="sans-serif" font-size="14" lengthAdjust="spacing" textLength="165" x="61.5" y="543.752">highscoreEntry(String, int)</text><ellipse cx="52.5" cy="553.8281" fill="#84BE84" rx="3" ry="3" style="stroke:#038048;stroke-width:1.0;"/><text fill="#000000" font-family="sans-serif" font-size="14" lengthAdjust="spacing" textLength="90" x="61.5" y="561.3613">getScore(): int</text><ellipse cx="52.5" cy="571.4375" fill="#84BE84" rx="3" ry="3" style="stroke:#038048;stroke-width:1.0;"/><text fill="#000000" font-family="sans-serif" font-size="14" lengthAdjust="spacing" textLength="111" x="61.5" y="578.9707">getName(): String</text></g></a><!--MD5=[ae1d88347e15c19d1382172edb361c22]
class com.javafwp.game.highscoreSystem.highscoreSystem--><a href="highscoreSystem.html" target="_top" title="highscoreSystem.html" xlink:actuate="onRequest" xlink:href="highscoreSystem.html" xlink:show="new" xlink:title="highscoreSystem.html" xlink:type="simple"><g id="elem_com.javafwp.game.highscoreSystem.highscoreSystem"><rect codeLine="24" fill="#F1F1F1" height="329.75" id="com.javafwp.game.highscoreSystem.highscoreSystem" rx="2.5" ry="2.5" style="stroke:#181818;stroke-width:0.5;" width="230" x="22" y="42"/><ellipse cx="78.75" cy="58" fill="#ADD1B2" rx="11" ry="11" style="stroke:#181818;stroke-width:1.0;"/><path d="M81.5156,53.875 Q81.6719,53.6563 81.8594,53.5469 Q82.0469,53.4375 82.2656,53.4375 Q82.6406,53.4375 82.875,53.7031 Q83.1094,53.9531 83.1094,54.5625 L83.1094,56.0156 Q83.1094,56.625 82.875,56.8906 Q82.6406,57.1563 82.2656,57.1563 Q81.9219,57.1563 81.7188,56.9531 Q81.5156,56.7656 81.4063,56.25 Q81.3594,55.8906 81.1719,55.7031 Q80.8438,55.3281 80.2344,55.1094 Q79.625,54.8906 79,54.8906 Q78.2344,54.8906 77.5938,55.2188 Q76.9688,55.5469 76.4688,56.2969 Q75.9844,57.0469 75.9844,58.0781 L75.9844,59.1719 Q75.9844,60.4063 76.875,61.2344 Q77.7656,62.0469 79.3594,62.0469 Q80.2969,62.0469 80.9531,61.7969 Q81.3438,61.6406 81.7656,61.2031 Q82.0313,60.9375 82.1719,60.8594 Q82.3281,60.7813 82.5313,60.7813 Q82.8594,60.7813 83.1094,61.0469 Q83.375,61.2969 83.375,61.6406 Q83.375,61.9844 83.0313,62.3906 Q82.5313,62.9688 81.7344,63.2969 Q80.6563,63.75 79.3594,63.75 Q77.8438,63.75 76.6406,63.125 Q75.6563,62.625 74.9688,61.5625 Q74.2813,60.4844 74.2813,59.2031 L74.2813,58.0469 Q74.2813,56.7188 74.8906,55.5781 Q75.5156,54.4219 76.6094,53.8125 Q77.7031,53.1875 78.9375,53.1875 Q79.6719,53.1875 80.3125,53.3594 Q80.9688,53.5156 81.5156,53.875 Z " fill="#000000"/><text fill="#000000" font-family="sans-serif" font-size="14" lengthAdjust="spacing" textLength="108" x="99.25" y="63.7285">highscoreSystem</text><line style="stroke:#181818;stroke-width:0.5;" x1="23" x2="251" y1="74" y2="74"/><rect fill="none" height="6" style="stroke:#C82930;stroke-width:1.0;" width="6" x="30" y="82"/><text fill="#000000" font-family="sans-serif" font-size="14" lengthAdjust="spacing" textLength="106" x="42" y="92.5332">displayText: Text</text><rect fill="none" height="6" style="stroke:#C82930;stroke-width:1.0;" width="6" x="30" y="99.6094"/><text fill="#000000" font-family="sans-serif" font-size="14" lengthAdjust="spacing" textLength="104" x="42" y="110.1426">infoDisplay: Text</text><rect fill="none" height="6" style="stroke:#C82930;stroke-width:1.0;" width="6" x="30" y="117.2188"/><text fill="#000000" font-family="sans-serif" font-size="14" lengthAdjust="spacing" textLength="90" x="42" y="127.752">congrats: Text</text><rect fill="none" height="6" style="stroke:#C82930;stroke-width:1.0;" width="6" x="30" y="134.8281"/><text fill="#000000" font-family="sans-serif" font-size="14" lengthAdjust="spacing" textLength="133" x="42" y="145.3613">inputName: TextField</text><rect fill="none" height="6" style="stroke:#C82930;stroke-width:1.0;" width="6" x="30" y="152.4375"/><text fill="#000000" font-family="sans-serif" font-size="14" lengthAdjust="spacing" textLength="124" x="42" y="162.9707">tempScoreEntry: int</text><rect fill="none" height="6" style="stroke:#C82930;stroke-width:1.0;" width="6" x="30" y="170.0469"/><text fill="#000000" font-family="sans-serif" font-size="14" lengthAdjust="spacing" textLength="92" x="42" y="180.5801">maxEntries: int</text><rect fill="none" height="6" style="stroke:#C82930;stroke-width:1.0;" width="6" x="30" y="187.6563"/><text fill="#000000" font-family="sans-serif" font-size="14" lengthAdjust="spacing" textLength="128" x="42" y="198.1895">maxNameLength: int</text><rect fill="none" height="6" style="stroke:#C82930;stroke-width:1.0;" width="6" x="30" y="205.2656"/><text fill="#000000" font-family="sans-serif" font-size="14" lengthAdjust="spacing" textLength="77" x="42" y="215.7988">textXPos: int</text><rect fill="none" height="6" style="stroke:#C82930;stroke-width:1.0;" width="6" x="30" y="222.875"/><text fill="#000000" font-family="sans-serif" font-size="14" lengthAdjust="spacing" textLength="78" x="42" y="233.4082">textYPos: int</text><line style="stroke:#181818;stroke-width:0.5;" x1="23" x2="251" y1="240.4844" y2="240.4844"/><ellipse cx="33" cy="251.4844" fill="#84BE84" rx="3" ry="3" style="stroke:#038048;stroke-width:1.0;"/><text fill="#000000" font-family="sans-serif" font-size="14" lengthAdjust="spacing" textLength="202" x="42" y="259.0176">highscoreSystem(int, int, int, int)</text><ellipse cx="33" cy="269.0938" fill="#84BE84" rx="3" ry="3" style="stroke:#038048;stroke-width:1.0;"/><text fill="#000000" font-family="sans-serif" font-size="14" lengthAdjust="spacing" textLength="116" x="42" y="276.627">addEntry(int): void</text><rect fill="#F24D5C" height="6" style="stroke:#C82930;stroke-width:1.0;" width="6" x="30" y="283.7031"/><text fill="#000000" font-family="sans-serif" font-size="14" lengthAdjust="spacing" textLength="204" x="42" y="294.2363">completeAddingNewEntry(): void</text><rect fill="#F24D5C" height="6" style="stroke:#C82930;stroke-width:1.0;" width="6" x="30" y="301.3125"/><text fill="#000000" font-family="sans-serif" font-size="14" lengthAdjust="spacing" textLength="68" x="42" y="311.8457">sort(): void</text><ellipse cx="33" cy="321.9219" fill="#84BE84" rx="3" ry="3" style="stroke:#038048;stroke-width:1.0;"/><text fill="#000000" font-family="sans-serif" font-size="14" lengthAdjust="spacing" textLength="128" x="42" y="329.4551">generateText(): void</text><ellipse cx="33" cy="339.5313" fill="#84BE84" rx="3" ry="3" style="stroke:#038048;stroke-width:1.0;"/><text fill="#000000" font-family="sans-serif" font-size="14" lengthAdjust="spacing" textLength="175" x="42" y="347.0645">resetScore(String): boolean</text><ellipse cx="33" cy="357.1406" fill="#84BE84" rx="3" ry="3" style="stroke:#038048;stroke-width:1.0;"/><text fill="#000000" font-family="sans-serif" font-size="14" lengthAdjust="spacing" textLength="125" x="42" y="364.6738">getEntities(): Node[]</text></g></a><!--MD5=[86fdf480cc76bdde28352602d75563a5]
link com.javafwp.game.highscoreSystem.highscoreSystem to com.javafwp.game.highscoreSystem.highscoreEntry--><g id="link_com.javafwp.game.highscoreSystem.highscoreSystem_com.javafwp.game.highscoreSystem.highscoreEntry"><path codeLine="43" d="M137,372 C137,397.41 137,422.47 137,444.43 " fill="none" id="com.javafwp.game.highscoreSystem.highscoreSystem-to-com.javafwp.game.highscoreSystem.highscoreEntry" style="stroke:#181818;stroke-width:1.0;"/><polygon fill="#181818" points="137,449.65,141,440.65,137,444.65,133,440.65,137,449.65" style="stroke:#181818;stroke-width:1.0;"/><text fill="#000000" font-family="sans-serif" font-size="13" lengthAdjust="spacing" textLength="39" x="138" y="416.4951">entries</text><text fill="#000000" font-family="sans-serif" font-size="13" lengthAdjust="spacing" textLength="5" x="131.7422" y="439.2872">*</text></g><rect height="12.5781" style="stroke:#00000000;stroke-width:1.0;fill:none;" width="184" x="219" y="608"/><text fill="#888888" font-family="sans-serif" font-size="10" lengthAdjust="spacing" textLength="184" x="219" y="618.3809">UMLDoclet 2.0.17, PlantUML 1.2022.5</text><!--MD5=[95e5935602216244c2abfae7cf5ea048]
@startuml
    namespace com.javafwp.game.highscoreSystem {

        class dbc [[dbc.html]] {
            {static} ~DB_URL: String
            {static} ~USER: String
            {static} ~PASS: String
            {static} ~ADMIN_USER: String
            {static} ~INSERT_QUERY: String
            {static} ~SELECTION_QUERY: String
            {static} ~DELETE_QUERY: String
            {static} +writeToDatabase(highscoreEntry): void
            {static} +resetScore(String): boolean
            {static} +getFromDatabase(): ArrayList<highscoreEntry>
        }

        class highscoreEntry [[highscoreEntry.html]] {
            -name: String
            -score: int
            +highscoreEntry(String, int)
            +getScore(): int
            +getName(): String
        }

        class highscoreSystem [[highscoreSystem.html]] {
            -displayText: Text
            -infoDisplay: Text
            -congrats: Text
            -inputName: TextField
            -tempScoreEntry: int
            -maxEntries: int
            -maxNameLength: int
            -textXPos: int
            -textYPos: int
            +highscoreSystem(int, int, int, int)
            +addEntry(int): void
            -completeAddingNewEntry(): void
            -sort(): void
            +generateText(): void
            +resetScore(String): boolean
            +getEntities(): Node[]
        }

        highscoreSystem - -> "*" highscoreEntry: entries
    }

    center footer UMLDoclet 2.0.17, PlantUML 1.2022.5
@enduml

PlantUML version 1.2022.5(Sat Apr 30 12:55:52 CEST 2022)
(APACHE source distribution)
Java Runtime: Java(TM) SE Runtime Environment
JVM: Java HotSpot(TM) 64-Bit Server VM
Default Encoding: UTF-8
Language: de
Country: DE
--></g></svg>