<?xml version="1.0" encoding="UTF-8" standalone="no"?><svg xmlns="http://www.w3.org/2000/svg" xmlns:xlink="http://www.w3.org/1999/xlink" contentStyleType="text/css" height="584px" preserveAspectRatio="none" style="width:680px;height:584px;background:#FFFFFF;" version="1.1" viewBox="0 0 680 584" width="680px" zoomAndPan="magnify"><defs/><g><!--MD5=[4199d943960f50d9a5d7ff517e7bb65f]
cluster com.javafwp.game.highscoreSystem--><g id="cluster_com.javafwp.game.highscoreSystem"><path d="M8.5,6 L265.5,6 A3.75,3.75 0 0 1 268,8.5 L275,28.4883 L670.5,28.4883 A2.5,2.5 0 0 1 673,30.9883 L673,556.5 A2.5,2.5 0 0 1 670.5,559 L8.5,559 A2.5,2.5 0 0 1 6,556.5 L6,8.5 A2.5,2.5 0 0 1 8.5,6 " style="stroke:#000000;stroke-width:1.5;fill:none;"/><line style="stroke:#000000;stroke-width:1.5;fill:none;" x1="6" x2="275" y1="28.4883" y2="28.4883"/><text fill="#000000" font-family="sans-serif" font-size="14" font-weight="bold" lengthAdjust="spacing" textLength="256" x="10" y="21.5352">com.javafwp.game.highscoreSystem</text></g><!--MD5=[98098a10abca00a7fae82bf3a4fd0c94]
class com.javafwp.game.highscoreSystem.highscoreEntry--><a href="highscoreEntry.html" target="_top" title="highscoreEntry.html" xlink:actuate="onRequest" xlink:href="highscoreEntry.html" xlink:show="new" xlink:title="highscoreEntry.html" xlink:type="simple"><g id="elem_com.javafwp.game.highscoreSystem.highscoreEntry"><rect codeLine="3" fill="#F1F1F1" height="130.4414" id="com.javafwp.game.highscoreSystem.highscoreEntry" rx="2.5" ry="2.5" style="stroke:#181818;stroke-width:0.5;" width="206" x="429" y="413"/><ellipse cx="476.25" cy="429" fill="#ADD1B2" rx="11" ry="11" style="stroke:#181818;stroke-width:1.0;"/><path d="M478.7231,435.1431 Q478.1421,435.4419 477.5029,435.5913 Q476.8638,435.7407 476.1582,435.7407 Q473.6514,435.7407 472.3315,434.0889 Q471.0117,432.437 471.0117,429.3159 Q471.0117,426.1865 472.3315,424.5347 Q473.6514,422.8828 476.1582,422.8828 Q476.8638,422.8828 477.5112,423.0322 Q478.1587,423.1816 478.7231,423.4805 L478.7231,426.2031 Q478.0923,425.6221 477.4988,425.3523 Q476.9053,425.0825 476.2744,425.0825 Q474.9297,425.0825 474.2449,426.1492 Q473.5601,427.2158 473.5601,429.3159 Q473.5601,431.4077 474.2449,432.4744 Q474.9297,433.541 476.2744,433.541 Q476.9053,433.541 477.4988,433.2712 Q478.0923,433.0015 478.7231,432.4204 Z " fill="#000000"/><text fill="#000000" font-family="sans-serif" font-size="14" lengthAdjust="spacing" textLength="103" x="496.75" y="434.291">highscoreEntry</text><line style="stroke:#181818;stroke-width:0.5;" x1="430" x2="634" y1="445" y2="445"/><rect fill="none" height="6" style="stroke:#C82930;stroke-width:1.0;" width="6" x="437" y="453"/><text fill="#000000" font-family="sans-serif" font-size="14" lengthAdjust="spacing" textLength="87" x="449" y="462.5352">name: String</text><rect fill="none" height="6" style="stroke:#C82930;stroke-width:1.0;" width="6" x="437" y="469.4883"/><text fill="#000000" font-family="sans-serif" font-size="14" lengthAdjust="spacing" textLength="63" x="449" y="479.0234">score: int</text><line style="stroke:#181818;stroke-width:0.5;" x1="430" x2="634" y1="485.9766" y2="485.9766"/><ellipse cx="440" cy="496.9766" fill="#84BE84" rx="3" ry="3" style="stroke:#038048;stroke-width:1.0;"/><text fill="#000000" font-family="sans-serif" font-size="14" lengthAdjust="spacing" textLength="180" x="449" y="503.5117">highscoreEntry(String, int)</text><ellipse cx="440" cy="513.4648" fill="#84BE84" rx="3" ry="3" style="stroke:#038048;stroke-width:1.0;"/><text fill="#000000" font-family="sans-serif" font-size="14" lengthAdjust="spacing" textLength="96" x="449" y="520">getScore(): int</text><ellipse cx="440" cy="529.9531" fill="#84BE84" rx="3" ry="3" style="stroke:#038048;stroke-width:1.0;"/><text fill="#000000" font-family="sans-serif" font-size="14" lengthAdjust="spacing" textLength="120" x="449" y="536.4883">getName(): String</text></g></a><!--MD5=[ae1d88347e15c19d1382172edb361c22]
class com.javafwp.game.highscoreSystem.highscoreSystem--><a href="highscoreSystem.html" target="_top" title="highscoreSystem.html" xlink:actuate="onRequest" xlink:href="highscoreSystem.html" xlink:show="new" xlink:title="highscoreSystem.html" xlink:type="simple"><g id="elem_com.javafwp.game.highscoreSystem.highscoreSystem"><rect codeLine="11" fill="#F1F1F1" height="295.3242" id="com.javafwp.game.highscoreSystem.highscoreSystem" rx="2.5" ry="2.5" style="stroke:#181818;stroke-width:0.5;" width="250" x="407" y="41"/><ellipse cx="469.75" cy="57" fill="#ADD1B2" rx="11" ry="11" style="stroke:#181818;stroke-width:1.0;"/><path d="M472.2231,63.1431 Q471.6421,63.4419 471.0029,63.5913 Q470.3638,63.7407 469.6582,63.7407 Q467.1514,63.7407 465.8315,62.0889 Q464.5117,60.437 464.5117,57.3159 Q464.5117,54.1865 465.8315,52.5347 Q467.1514,50.8828 469.6582,50.8828 Q470.3638,50.8828 471.0112,51.0322 Q471.6587,51.1816 472.2231,51.4805 L472.2231,54.2031 Q471.5923,53.6221 470.9988,53.3523 Q470.4053,53.0825 469.7744,53.0825 Q468.4297,53.0825 467.7449,54.1492 Q467.0601,55.2158 467.0601,57.3159 Q467.0601,59.4077 467.7449,60.4744 Q468.4297,61.541 469.7744,61.541 Q470.4053,61.541 470.9988,61.2712 Q471.5923,61.0015 472.2231,60.4204 Z " fill="#000000"/><text fill="#000000" font-family="sans-serif" font-size="14" lengthAdjust="spacing" textLength="116" x="490.25" y="62.291">highscoreSystem</text><line style="stroke:#181818;stroke-width:0.5;" x1="408" x2="656" y1="73" y2="73"/><rect fill="none" height="6" style="stroke:#C82930;stroke-width:1.0;" width="6" x="415" y="81"/><text fill="#000000" font-family="sans-serif" font-size="14" lengthAdjust="spacing" textLength="118" x="427" y="90.5352">displayText: Text</text><rect fill="none" height="6" style="stroke:#C82930;stroke-width:1.0;" width="6" x="415" y="97.4883"/><text fill="#000000" font-family="sans-serif" font-size="14" lengthAdjust="spacing" textLength="115" x="427" y="107.0234">infoDisplay: Text</text><rect fill="none" height="6" style="stroke:#C82930;stroke-width:1.0;" width="6" x="415" y="113.9766"/><text fill="#000000" font-family="sans-serif" font-size="14" lengthAdjust="spacing" textLength="99" x="427" y="123.5117">congrats: Text</text><rect fill="none" height="6" style="stroke:#C82930;stroke-width:1.0;" width="6" x="415" y="130.4648"/><text fill="#000000" font-family="sans-serif" font-size="14" lengthAdjust="spacing" textLength="147" x="427" y="140">inputName: TextField</text><rect fill="none" height="6" style="stroke:#C82930;stroke-width:1.0;" width="6" x="415" y="146.9531"/><text fill="#000000" font-family="sans-serif" font-size="14" lengthAdjust="spacing" textLength="134" x="427" y="156.4883">tempScoreEntry: int</text><rect fill="none" height="6" style="stroke:#C82930;stroke-width:1.0;" width="6" x="415" y="163.4414"/><text fill="#000000" font-family="sans-serif" font-size="14" lengthAdjust="spacing" textLength="103" x="427" y="172.9766">maxEntries: int</text><rect fill="none" height="6" style="stroke:#C82930;stroke-width:1.0;" width="6" x="415" y="179.9297"/><text fill="#000000" font-family="sans-serif" font-size="14" lengthAdjust="spacing" textLength="142" x="427" y="189.4648">maxNameLength: int</text><rect fill="none" height="6" style="stroke:#C82930;stroke-width:1.0;" width="6" x="415" y="196.418"/><text fill="#000000" font-family="sans-serif" font-size="14" lengthAdjust="spacing" textLength="86" x="427" y="205.9531">textXPos: int</text><rect fill="none" height="6" style="stroke:#C82930;stroke-width:1.0;" width="6" x="415" y="212.9063"/><text fill="#000000" font-family="sans-serif" font-size="14" lengthAdjust="spacing" textLength="86" x="427" y="222.4414">textYPos: int</text><line style="stroke:#181818;stroke-width:0.5;" x1="408" x2="656" y1="229.3945" y2="229.3945"/><ellipse cx="418" cy="240.3945" fill="#84BE84" rx="3" ry="3" style="stroke:#038048;stroke-width:1.0;"/><text fill="#000000" font-family="sans-serif" font-size="14" lengthAdjust="spacing" textLength="222" x="427" y="246.9297">highscoreSystem(int, int, int, int)</text><ellipse cx="418" cy="256.8828" fill="#84BE84" rx="3" ry="3" style="stroke:#038048;stroke-width:1.0;"/><text fill="#000000" font-family="sans-serif" font-size="14" lengthAdjust="spacing" textLength="126" x="427" y="263.418">addEntry(int): void</text><rect fill="#F24D5C" height="6" style="stroke:#C82930;stroke-width:1.0;" width="6" x="415" y="270.3711"/><text fill="#000000" font-family="sans-serif" font-size="14" lengthAdjust="spacing" textLength="224" x="427" y="279.9063">completeAddingNewEntry(): void</text><rect fill="#F24D5C" height="6" style="stroke:#C82930;stroke-width:1.0;" width="6" x="415" y="286.8594"/><text fill="#000000" font-family="sans-serif" font-size="14" lengthAdjust="spacing" textLength="74" x="427" y="296.3945">sort(): void</text><ellipse cx="418" cy="306.3477" fill="#84BE84" rx="3" ry="3" style="stroke:#038048;stroke-width:1.0;"/><text fill="#000000" font-family="sans-serif" font-size="14" lengthAdjust="spacing" textLength="139" x="427" y="312.8828">generateText(): void</text><ellipse cx="418" cy="322.8359" fill="#84BE84" rx="3" ry="3" style="stroke:#038048;stroke-width:1.0;"/><text fill="#000000" font-family="sans-serif" font-size="14" lengthAdjust="spacing" textLength="136" x="427" y="329.3711">getEntities(): Node[]</text></g></a><!--MD5=[b463664bb294738ed1863a6a8aef0ee0]
class com.javafwp.game.highscoreSystem.dbc--><a href="dbc.html" target="_top" title="dbc.html" xlink:actuate="onRequest" xlink:href="dbc.html" xlink:show="new" xlink:title="dbc.html" xlink:type="simple"><g id="elem_com.javafwp.game.highscoreSystem.dbc"><rect codeLine="29" fill="#F1F1F1" height="163.418" id="com.javafwp.game.highscoreSystem.dbc" rx="2.5" ry="2.5" style="stroke:#181818;stroke-width:0.5;" width="350" x="22" y="107"/><ellipse cx="180.25" cy="123" fill="#ADD1B2" rx="11" ry="11" style="stroke:#181818;stroke-width:1.0;"/><path d="M182.7231,129.1431 Q182.1421,129.4419 181.5029,129.5913 Q180.8638,129.7407 180.1582,129.7407 Q177.6514,129.7407 176.3315,128.0889 Q175.0117,126.437 175.0117,123.3159 Q175.0117,120.1865 176.3315,118.5347 Q177.6514,116.8828 180.1582,116.8828 Q180.8638,116.8828 181.5112,117.0322 Q182.1587,117.1816 182.7231,117.4805 L182.7231,120.2031 Q182.0923,119.6221 181.4988,119.3523 Q180.9053,119.0825 180.2744,119.0825 Q178.9297,119.0825 178.2449,120.1492 Q177.5601,121.2158 177.5601,123.3159 Q177.5601,125.4077 178.2449,126.4744 Q178.9297,127.541 180.2744,127.541 Q180.9053,127.541 181.4988,127.2712 Q182.0923,127.0015 182.7231,126.4204 Z " fill="#000000"/><text fill="#000000" font-family="sans-serif" font-size="14" lengthAdjust="spacing" textLength="25" x="200.75" y="128.291">dbc</text><line style="stroke:#181818;stroke-width:0.5;" x1="23" x2="371" y1="139" y2="139"/><polygon fill="none" points="33,146,29,152,37,152" style="stroke:#1963A0;stroke-width:1.0;"/><text fill="#000000" font-family="sans-serif" font-size="14" lengthAdjust="spacing" text-decoration="underline" textLength="100" x="42" y="156.5352">DB_URL: String</text><polygon fill="none" points="33,162.4883,29,168.4883,37,168.4883" style="stroke:#1963A0;stroke-width:1.0;"/><text fill="#000000" font-family="sans-serif" font-size="14" lengthAdjust="spacing" text-decoration="underline" textLength="84" x="42" y="173.0234">USER: String</text><polygon fill="none" points="33,178.9766,29,184.9766,37,184.9766" style="stroke:#1963A0;stroke-width:1.0;"/><text fill="#000000" font-family="sans-serif" font-size="14" lengthAdjust="spacing" text-decoration="underline" textLength="83" x="42" y="189.5117">PASS: String</text><polygon fill="none" points="33,195.4648,29,201.4648,37,201.4648" style="stroke:#1963A0;stroke-width:1.0;"/><text fill="#000000" font-family="sans-serif" font-size="14" lengthAdjust="spacing" text-decoration="underline" textLength="151" x="42" y="206">INSERT_QUERY: String</text><polygon fill="none" points="33,211.9531,29,217.9531,37,217.9531" style="stroke:#1963A0;stroke-width:1.0;"/><text fill="#000000" font-family="sans-serif" font-size="14" lengthAdjust="spacing" text-decoration="underline" textLength="178" x="42" y="222.4883">SELECTION_QUERY: String</text><line style="stroke:#181818;stroke-width:0.5;" x1="23" x2="371" y1="229.4414" y2="229.4414"/><ellipse cx="33" cy="240.4414" fill="#84BE84" rx="3" ry="3" style="stroke:#038048;stroke-width:1.0;"/><text fill="#000000" font-family="sans-serif" font-size="14" lengthAdjust="spacing" text-decoration="underline" textLength="265" x="42" y="246.9766">writeToDatabase(highscoreEntry): void</text><ellipse cx="33" cy="256.9297" fill="#84BE84" rx="3" ry="3" style="stroke:#038048;stroke-width:1.0;"/><text fill="#000000" font-family="sans-serif" font-size="14" lengthAdjust="spacing" text-decoration="underline" textLength="324" x="42" y="263.4648">getFromDatabase(): ArrayList&lt;highscoreEntry&gt;</text></g></a><!--MD5=[86fdf480cc76bdde28352602d75563a5]
link com.javafwp.game.highscoreSystem.highscoreSystem to com.javafwp.game.highscoreSystem.highscoreEntry--><g id="link_com.javafwp.game.highscoreSystem.highscoreSystem_com.javafwp.game.highscoreSystem.highscoreEntry"><path codeLine="39" d="M532,336.2 C532,361.19 532,386.06 532,407.79 " fill="none" id="com.javafwp.game.highscoreSystem.highscoreSystem-to-com.javafwp.game.highscoreSystem.highscoreEntry" style="stroke:#181818;stroke-width:1.0;"/><polygon fill="#181818" points="532,412.96,536,403.96,532,407.96,528,403.96,532,412.96" style="stroke:#181818;stroke-width:1.0;"/><text fill="#000000" font-family="sans-serif" font-size="13" lengthAdjust="spacing" textLength="43" x="533" y="379.5684">entries</text><text fill="#000000" font-family="sans-serif" font-size="13" lengthAdjust="spacing" textLength="6" x="525.6531" y="402.1334">*</text></g><rect height="11.7773" style="stroke:#00000000;stroke-width:1.0;fill:none;" width="182" x="242" y="565"/><text fill="#888888" font-family="sans-serif" font-size="10" lengthAdjust="spacing" textLength="182" x="242" y="574.668">UMLDoclet 2.0.17, PlantUML 1.2022.5</text><!--MD5=[e772aeeb4cae722cf1a2d7e71bcdbb9c]
@startuml
    namespace com.javafwp.game.highscoreSystem {

        class highscoreEntry [[highscoreEntry.html]] {
            -name: String
            -score: int
            +highscoreEntry(String, int)
            +getScore(): int
            +getName(): String
        }

        class highscoreSystem [[highscoreSystem.html]] {
            -displayText: Text
            -infoDisplay: Text
            -congrats: Text
            -inputName: TextField
            -tempScoreEntry: int
            -maxEntries: int
            -maxNameLength: int
            -textXPos: int
            -textYPos: int
            +highscoreSystem(int, int, int, int)
            +addEntry(int): void
            -completeAddingNewEntry(): void
            -sort(): void
            +generateText(): void
            +getEntities(): Node[]
        }

        class dbc [[dbc.html]] {
            {static} ~DB_URL: String
            {static} ~USER: String
            {static} ~PASS: String
            {static} ~INSERT_QUERY: String
            {static} ~SELECTION_QUERY: String
            {static} +writeToDatabase(highscoreEntry): void
            {static} +getFromDatabase(): ArrayList<highscoreEntry>
        }

        highscoreSystem - -> "*" highscoreEntry: entries
    }

    center footer UMLDoclet 2.0.17, PlantUML 1.2022.5
@enduml

PlantUML version 1.2022.5(Sat Apr 30 12:55:52 CEST 2022)
(APACHE source distribution)
Java Runtime: OpenJDK Runtime Environment
JVM: OpenJDK 64-Bit Server VM
Default Encoding: UTF-8
Language: en
Country: DE
--></g></svg>