<?xml version="1.0" encoding="UTF-8" standalone="no"?><svg xmlns="http://www.w3.org/2000/svg" xmlns:xlink="http://www.w3.org/1999/xlink" contentStyleType="text/css" height="168px" preserveAspectRatio="none" style="width:360px;height:168px;background:#FFFFFF;" version="1.1" viewBox="0 0 360 168" width="360px" zoomAndPan="magnify"><defs/><g><!--MD5=[e174b7214f093818a5bdbd373e689567]
class com.javafwp.game.ownTypes--><a href="ownTypes.html" target="_top" title="ownTypes.html" xlink:actuate="onRequest" xlink:href="ownTypes.html" xlink:show="new" xlink:title="ownTypes.html" xlink:type="simple"><g id="elem_com.javafwp.game.ownTypes"><rect codeLine="5" fill="#F1F1F1" height="38.2656" id="com.javafwp.game.ownTypes" rx="2.5" ry="2.5" style="stroke:#181818;stroke-width:0.5;" width="123" x="107.5" y="7"/><ellipse cx="122.5" cy="26.1328" fill="#ADD1B2" rx="11" ry="11" style="stroke:#181818;stroke-width:1.0;"/><path d="M124.9731,32.2759 Q124.3921,32.5747 123.7529,32.7241 Q123.1138,32.8735 122.4082,32.8735 Q119.9014,32.8735 118.5815,31.2217 Q117.2617,29.5698 117.2617,26.4487 Q117.2617,23.3193 118.5815,21.6675 Q119.9014,20.0156 122.4082,20.0156 Q123.1138,20.0156 123.7612,20.165 Q124.4087,20.3145 124.9731,20.6133 L124.9731,23.3359 Q124.3423,22.7549 123.7488,22.4851 Q123.1553,22.2153 122.5244,22.2153 Q121.1797,22.2153 120.4949,23.282 Q119.8101,24.3486 119.8101,26.4487 Q119.8101,28.5405 120.4949,29.6072 Q121.1797,30.6738 122.5244,30.6738 Q123.1553,30.6738 123.7488,30.4041 Q124.3423,30.1343 124.9731,29.5532 Z " fill="#000000"/><text fill="#000000" font-family="sans-serif" font-size="14" lengthAdjust="spacing" textLength="69" x="147.5" y="25.5352">ownTypes</text><text fill="#000000" font-family="sans-serif" font-size="10" lengthAdjust="spacing" textLength="91" x="136.5" y="38.1563">com.javafwp.game</text></g></a><!--MD5=[9d03aacf66eed608561496e864e4daab]
class com.javafwp.game.ownTypes.type--><a href="ownTypes.type.html" target="_top" title="ownTypes.type.html" xlink:actuate="onRequest" xlink:href="ownTypes.type.html" xlink:show="new" xlink:title="ownTypes.type.html" xlink:type="simple"><g id="elem_com.javafwp.game.ownTypes.type"><rect codeLine="6" fill="#F1F1F1" height="38.2656" id="com.javafwp.game.ownTypes.type" rx="2.5" ry="2.5" style="stroke:#181818;stroke-width:0.5;" width="134" x="7" y="105"/><ellipse cx="22" cy="124.1328" fill="#EB937F" rx="11" ry="11" style="stroke:#181818;stroke-width:1.0;"/><path d="M25.6143,130.6328 L17.8945,130.6328 L17.8945,118.2397 L25.6143,118.2397 L25.6143,120.3979 L20.3433,120.3979 L20.3433,123.0708 L25.1162,123.0708 L25.1162,125.229 L20.3433,125.229 L20.3433,128.4746 L25.6143,128.4746 Z " fill="#000000"/><text fill="#000000" font-family="sans-serif" font-size="14" lengthAdjust="spacing" textLength="102" x="36" y="123.5352">ownTypes.type</text><text fill="#000000" font-family="sans-serif" font-size="10" lengthAdjust="spacing" textLength="91" x="41.5" y="136.1563">com.javafwp.game</text></g></a><!--MD5=[e1d1e35cbe993f7cdb5596ceeae21108]
class com.javafwp.game.ownTypes.gameState--><a href="ownTypes.gameState.html" target="_top" title="ownTypes.gameState.html" xlink:actuate="onRequest" xlink:href="ownTypes.gameState.html" xlink:show="new" xlink:title="ownTypes.gameState.html" xlink:type="simple"><g id="elem_com.javafwp.game.ownTypes.gameState"><rect codeLine="7" fill="#F1F1F1" height="38.2656" id="com.javafwp.game.ownTypes.gameState" rx="2.5" ry="2.5" style="stroke:#181818;stroke-width:0.5;" width="177" x="176.5" y="105"/><ellipse cx="191.5" cy="124.1328" fill="#EB937F" rx="11" ry="11" style="stroke:#181818;stroke-width:1.0;"/><path d="M195.1143,130.6328 L187.3945,130.6328 L187.3945,118.2397 L195.1143,118.2397 L195.1143,120.3979 L189.8433,120.3979 L189.8433,123.0708 L194.6162,123.0708 L194.6162,125.229 L189.8433,125.229 L189.8433,128.4746 L195.1143,128.4746 Z " fill="#000000"/><text fill="#000000" font-family="sans-serif" font-size="14" lengthAdjust="spacing" textLength="145" x="205.5" y="123.5352">ownTypes.gameState</text><text fill="#000000" font-family="sans-serif" font-size="10" lengthAdjust="spacing" textLength="91" x="232.5" y="136.1563">com.javafwp.game</text></g></a><!--MD5=[5a7be986edb8b6e9daf78ced986947e2]
reverse link com.javafwp.game.ownTypes to com.javafwp.game.ownTypes.type--><g id="link_com.javafwp.game.ownTypes_com.javafwp.game.ownTypes.type"><path codeLine="9" d="M140.41,55.89 C124.73,71.74 105.76,90.91 92.11,104.7 " fill="none" id="com.javafwp.game.ownTypes-backto-com.javafwp.game.ownTypes.type" style="stroke:#181818;stroke-width:1.0;"/><ellipse cx="145.5037" cy="50.7473" fill="#FFFFFF" rx="8" ry="8" style="stroke:#181818;stroke-width:1.0;"/><line style="stroke:#181818;stroke-width:1.0;" x1="139.8774" x2="151.13" y1="56.4345" y2="45.06"/><line style="stroke:#181818;stroke-width:1.0;" x1="139.8165" x2="151.191" y1="45.121" y2="56.3735"/></g><!--MD5=[03a2e62363b578c86b6b02ab7077b8a7]
reverse link com.javafwp.game.ownTypes to com.javafwp.game.ownTypes.gameState--><g id="link_com.javafwp.game.ownTypes_com.javafwp.game.ownTypes.gameState"><path codeLine="10" d="M197.89,55.89 C213.74,71.74 232.91,90.91 246.7,104.7 " fill="none" id="com.javafwp.game.ownTypes-backto-com.javafwp.game.ownTypes.gameState" style="stroke:#181818;stroke-width:1.0;"/><ellipse cx="192.7169" cy="50.7169" fill="#FFFFFF" rx="8" ry="8" style="stroke:#181818;stroke-width:1.0;"/><line style="stroke:#181818;stroke-width:1.0;" x1="198.3737" x2="187.06" y1="56.3737" y2="45.06"/><line style="stroke:#181818;stroke-width:1.0;" x1="187.06" x2="198.3737" y1="56.3737" y2="45.06"/></g><rect height="11.7773" style="stroke:#00000000;stroke-width:1.0;fill:none;" width="182" x="82.25" y="148.2656"/><text fill="#888888" font-family="sans-serif" font-size="10" lengthAdjust="spacing" textLength="182" x="82.25" y="157.9336">UMLDoclet 2.0.17, PlantUML 1.2022.5</text><!--MD5=[72ca2d3f1151bc3fe0d5b160896e853e]
@startuml
    set namespaceSeparator none
    hide empty fields
    hide empty methods

    class "<size:14>ownTypes\n<size:10>com.javafwp.game" as com.javafwp.game.ownTypes [[ownTypes.html]]
    enum "<size:14>ownTypes.type\n<size:10>com.javafwp.game" as com.javafwp.game.ownTypes.type [[ownTypes.type.html]]
    enum "<size:14>ownTypes.gameState\n<size:10>com.javafwp.game" as com.javafwp.game.ownTypes.gameState [[ownTypes.gameState.html]]

    com.javafwp.game.ownTypes +- - com.javafwp.game.ownTypes.type
    com.javafwp.game.ownTypes +- - com.javafwp.game.ownTypes.gameState

    center footer UMLDoclet 2.0.17, PlantUML 1.2022.5
@enduml

PlantUML version 1.2022.5(Sat Apr 30 12:55:52 CEST 2022)
(APACHE source distribution)
Java Runtime: OpenJDK Runtime Environment
JVM: OpenJDK 64-Bit Server VM
Default Encoding: UTF-8
Language: en
Country: DE
--></g></svg>