<?xml version="1.0" encoding="UTF-8" standalone="no"?><svg xmlns="http://www.w3.org/2000/svg" xmlns:xlink="http://www.w3.org/1999/xlink" contentStyleType="text/css" height="172px" preserveAspectRatio="none" style="width:350px;height:172px;background:#FFFFFF;" version="1.1" viewBox="0 0 350 172" width="350px" zoomAndPan="magnify"><defs/><g><!--MD5=[f197242c47f81d52f9c3ec001d0452dc]
class com.javafwp.game.OwnTypes--><a href="ownTypes.html" target="_top" title="ownTypes.html" xlink:actuate="onRequest" xlink:href="ownTypes.html" xlink:show="new" xlink:title="ownTypes.html" xlink:type="simple"><g id="elem_com.javafwp.game.OwnTypes"><rect codeLine="5" fill="#F1F1F1" height="40.1875" id="com.javafwp.game.OwnTypes" rx="2.5" ry="2.5" style="stroke:#181818;stroke-width:0.5;" width="122" x="104" y="7"/><ellipse cx="119" cy="27.0938" fill="#ADD1B2" rx="11" ry="11" style="stroke:#181818;stroke-width:1.0;"/><path d="M121.7656,22.9688 Q121.9219,22.75 122.1094,22.6406 Q122.2969,22.5313 122.5156,22.5313 Q122.8906,22.5313 123.125,22.7969 Q123.3594,23.0469 123.3594,23.6563 L123.3594,25.1094 Q123.3594,25.7188 123.125,25.9844 Q122.8906,26.25 122.5156,26.25 Q122.1719,26.25 121.9688,26.0469 Q121.7656,25.8594 121.6563,25.3438 Q121.6094,24.9844 121.4219,24.7969 Q121.0938,24.4219 120.4844,24.2031 Q119.875,23.9844 119.25,23.9844 Q118.4844,23.9844 117.8438,24.3125 Q117.2188,24.6406 116.7188,25.3906 Q116.2344,26.1406 116.2344,27.1719 L116.2344,28.2656 Q116.2344,29.5 117.125,30.3281 Q118.0156,31.1406 119.6094,31.1406 Q120.5469,31.1406 121.2031,30.8906 Q121.5938,30.7344 122.0156,30.2969 Q122.2813,30.0313 122.4219,29.9531 Q122.5781,29.875 122.7813,29.875 Q123.1094,29.875 123.3594,30.1406 Q123.625,30.3906 123.625,30.7344 Q123.625,31.0781 123.2813,31.4844 Q122.7813,32.0625 121.9844,32.3906 Q120.9063,32.8438 119.6094,32.8438 Q118.0938,32.8438 116.8906,32.2188 Q115.9063,31.7188 115.2188,30.6563 Q114.5313,29.5781 114.5313,28.2969 L114.5313,27.1406 Q114.5313,25.8125 115.1406,24.6719 Q115.7656,23.5156 116.8594,22.9063 Q117.9531,22.2813 119.1875,22.2813 Q119.9219,22.2813 120.5625,22.4531 Q121.2188,22.6094 121.7656,22.9688 Z " fill="#000000"/><text fill="#000000" font-family="sans-serif" font-size="14" lengthAdjust="spacing" textLength="67" x="144.5" y="26.5332">OwnTypes</text><text fill="#000000" font-family="sans-serif" font-size="10" lengthAdjust="spacing" textLength="90" x="133" y="39.9902">com.javafwp.game</text></g></a><!--MD5=[ea1272706208f726b75e3ce5e8bc10b5]
class com.javafwp.game.OwnTypes.type--><a href="ownTypes.type.html" target="_top" title="ownTypes.type.html" xlink:actuate="onRequest" xlink:href="ownTypes.type.html" xlink:show="new" xlink:title="ownTypes.type.html" xlink:type="simple"><g id="elem_com.javafwp.game.OwnTypes.type"><rect codeLine="6" fill="#F1F1F1" height="40.1875" id="com.javafwp.game.OwnTypes.type" rx="2.5" ry="2.5" style="stroke:#181818;stroke-width:0.5;" width="130" x="7" y="107"/><ellipse cx="22" cy="127.0938" fill="#EB937F" rx="11" ry="11" style="stroke:#181818;stroke-width:1.0;"/><path d="M20.8594,127.8906 L20.8594,130.3906 L25.1875,130.3906 L25.1875,129.4688 Q25.1875,128.8594 25.4219,128.5938 Q25.6719,128.3281 26.0469,128.3281 Q26.4219,128.3281 26.6563,128.5938 Q26.8906,128.8594 26.8906,129.4688 L26.8906,132.0938 L18.8906,132.0938 Q18.2656,132.0938 18,131.8594 Q17.75,131.625 17.75,131.2344 Q17.75,130.8594 18.0156,130.625 Q18.2813,130.3906 18.8906,130.3906 L19.1563,130.3906 L19.1563,123.7344 L18.8906,123.7344 Q18.2656,123.7344 18,123.5 Q17.75,123.2656 17.75,122.875 Q17.75,122.5 18,122.2656 Q18.2656,122.0313 18.8906,122.0313 L26.5156,122.0313 L26.5156,124.625 Q26.5156,125.2344 26.2813,125.5 Q26.0625,125.75 25.6719,125.75 Q25.2969,125.75 25.0625,125.5 Q24.8281,125.2344 24.8281,124.625 L24.8281,123.7344 L20.8594,123.7344 L20.8594,126.1875 L22.3438,126.1875 Q22.3438,125.5313 22.4688,125.3438 Q22.7344,124.9375 23.2031,124.9375 Q23.5781,124.9375 23.8125,125.2031 Q24.0469,125.4531 24.0469,126.0625 L24.0469,128.0313 Q24.0469,128.5781 23.9219,128.7656 Q23.6563,129.1563 23.2031,129.1563 Q22.7344,129.1563 22.4688,128.75 Q22.3438,128.5625 22.3438,127.8906 L20.8594,127.8906 Z " fill="#000000"/><text fill="#000000" font-family="sans-serif" font-size="14" lengthAdjust="spacing" textLength="98" x="36" y="126.5332">OwnTypes.type</text><text fill="#000000" font-family="sans-serif" font-size="10" lengthAdjust="spacing" textLength="90" x="40" y="139.9902">com.javafwp.game</text></g></a><!--MD5=[3fddf8e29931883f5864c5c8ad3a460a]
class com.javafwp.game.OwnTypes.gameState--><a href="ownTypes.gameState.html" target="_top" title="ownTypes.gameState.html" xlink:actuate="onRequest" xlink:href="ownTypes.gameState.html" xlink:show="new" xlink:title="ownTypes.gameState.html" xlink:type="simple"><g id="elem_com.javafwp.game.OwnTypes.gameState"><rect codeLine="7" fill="#F1F1F1" height="40.1875" id="com.javafwp.game.OwnTypes.gameState" rx="2.5" ry="2.5" style="stroke:#181818;stroke-width:0.5;" width="171" x="172.5" y="107"/><ellipse cx="187.5" cy="127.0938" fill="#EB937F" rx="11" ry="11" style="stroke:#181818;stroke-width:1.0;"/><path d="M186.3594,127.8906 L186.3594,130.3906 L190.6875,130.3906 L190.6875,129.4688 Q190.6875,128.8594 190.9219,128.5938 Q191.1719,128.3281 191.5469,128.3281 Q191.9219,128.3281 192.1563,128.5938 Q192.3906,128.8594 192.3906,129.4688 L192.3906,132.0938 L184.3906,132.0938 Q183.7656,132.0938 183.5,131.8594 Q183.25,131.625 183.25,131.2344 Q183.25,130.8594 183.5156,130.625 Q183.7813,130.3906 184.3906,130.3906 L184.6563,130.3906 L184.6563,123.7344 L184.3906,123.7344 Q183.7656,123.7344 183.5,123.5 Q183.25,123.2656 183.25,122.875 Q183.25,122.5 183.5,122.2656 Q183.7656,122.0313 184.3906,122.0313 L192.0156,122.0313 L192.0156,124.625 Q192.0156,125.2344 191.7813,125.5 Q191.5625,125.75 191.1719,125.75 Q190.7969,125.75 190.5625,125.5 Q190.3281,125.2344 190.3281,124.625 L190.3281,123.7344 L186.3594,123.7344 L186.3594,126.1875 L187.8438,126.1875 Q187.8438,125.5313 187.9688,125.3438 Q188.2344,124.9375 188.7031,124.9375 Q189.0781,124.9375 189.3125,125.2031 Q189.5469,125.4531 189.5469,126.0625 L189.5469,128.0313 Q189.5469,128.5781 189.4219,128.7656 Q189.1563,129.1563 188.7031,129.1563 Q188.2344,129.1563 187.9688,128.75 Q187.8438,128.5625 187.8438,127.8906 L186.3594,127.8906 Z " fill="#000000"/><text fill="#000000" font-family="sans-serif" font-size="14" lengthAdjust="spacing" textLength="139" x="201.5" y="126.5332">OwnTypes.gameState</text><text fill="#000000" font-family="sans-serif" font-size="10" lengthAdjust="spacing" textLength="90" x="226" y="139.9902">com.javafwp.game</text></g></a><!--MD5=[44a647f8801be0803f398dd0c2af42de]
reverse link com.javafwp.game.OwnTypes to com.javafwp.game.OwnTypes.type--><g id="link_com.javafwp.game.OwnTypes_com.javafwp.game.OwnTypes.type"><path codeLine="9" d="M135.9,58.66 C121,74.36 103.32,93 90.34,106.68 " fill="none" id="com.javafwp.game.OwnTypes-backto-com.javafwp.game.OwnTypes.type" style="stroke:#181818;stroke-width:1.0;"/><ellipse cx="141.1236" cy="53.1634" fill="#FFFFFF" rx="8" ry="8" style="stroke:#181818;stroke-width:1.0;"/><line style="stroke:#181818;stroke-width:1.0;" x1="135.6172" x2="146.63" y1="58.9668" y2="47.36"/><line style="stroke:#181818;stroke-width:1.0;" x1="135.3202" x2="146.927" y1="47.657" y2="58.6698"/></g><!--MD5=[f8f535d44cbbd4c1d9cc1ac6a7c207be]
reverse link com.javafwp.game.OwnTypes to com.javafwp.game.OwnTypes.gameState--><g id="link_com.javafwp.game.OwnTypes_com.javafwp.game.OwnTypes.gameState"><path codeLine="10" d="M194.1,58.66 C209,74.36 226.68,93 239.66,106.68 " fill="none" id="com.javafwp.game.OwnTypes-backto-com.javafwp.game.OwnTypes.gameState" style="stroke:#181818;stroke-width:1.0;"/><ellipse cx="188.8764" cy="53.1634" fill="#FFFFFF" rx="8" ry="8" style="stroke:#181818;stroke-width:1.0;"/><line style="stroke:#181818;stroke-width:1.0;" x1="194.3828" x2="183.37" y1="58.9668" y2="47.36"/><line style="stroke:#181818;stroke-width:1.0;" x1="183.073" x2="194.6798" y1="58.6698" y2="47.657"/></g><rect height="12.5781" style="stroke:#00000000;stroke-width:1.0;fill:none;" width="184" x="76.25" y="152.1875"/><text fill="#888888" font-family="sans-serif" font-size="10" lengthAdjust="spacing" textLength="184" x="76.25" y="162.5684">UMLDoclet 2.0.17, PlantUML 1.2022.5</text><!--MD5=[34594d83820f69afd6f42fc21ed8fa3c]
@startuml
    set namespaceSeparator none
    hide empty fields
    hide empty methods

    class "<size:14>OwnTypes\n<size:10>com.javafwp.game" as com.javafwp.game.OwnTypes [[ownTypes.html]]
    enum "<size:14>OwnTypes.type\n<size:10>com.javafwp.game" as com.javafwp.game.OwnTypes.type [[ownTypes.type.html]]
    enum "<size:14>OwnTypes.gameState\n<size:10>com.javafwp.game" as com.javafwp.game.OwnTypes.gameState [[ownTypes.gameState.html]]

    com.javafwp.game.OwnTypes +- - com.javafwp.game.OwnTypes.type
    com.javafwp.game.OwnTypes +- - com.javafwp.game.OwnTypes.gameState

    center footer UMLDoclet 2.0.17, PlantUML 1.2022.5
@enduml

PlantUML version 1.2022.5(Sat Apr 30 12:55:52 CEST 2022)
(APACHE source distribution)
Java Runtime: Java(TM) SE Runtime Environment
JVM: Java HotSpot(TM) 64-Bit Server VM
Default Encoding: UTF-8
Language: de
Country: DE
--></g></svg>