<?xml version="1.0" encoding="UTF-8" standalone="no"?><svg xmlns="http://www.w3.org/2000/svg" xmlns:xlink="http://www.w3.org/1999/xlink" contentStyleType="text/css" height="269px" preserveAspectRatio="none" style="width:192px;height:269px;background:#FFFFFF;" version="1.1" viewBox="0 0 192 269" width="192px" zoomAndPan="magnify"><defs/><g><!--MD5=[e1d1e35cbe993f7cdb5596ceeae21108]
class com.javafwp.game.ownTypes.gameState--><a href="ownTypes.gameState.html" target="_top" title="ownTypes.gameState.html" xlink:actuate="onRequest" xlink:href="ownTypes.gameState.html" xlink:show="new" xlink:title="ownTypes.gameState.html" xlink:type="simple"><g id="elem_com.javafwp.game.ownTypes.gameState"><rect codeLine="5" fill="#F1F1F1" height="136.2344" id="com.javafwp.game.ownTypes.gameState" rx="2.5" ry="2.5" style="stroke:#181818;stroke-width:0.5;" width="168" x="15" y="107"/><ellipse cx="30" cy="127.0938" fill="#EB937F" rx="11" ry="11" style="stroke:#181818;stroke-width:1.0;"/><path d="M28.8594,127.8906 L28.8594,130.3906 L33.1875,130.3906 L33.1875,129.4688 Q33.1875,128.8594 33.4219,128.5938 Q33.6719,128.3281 34.0469,128.3281 Q34.4219,128.3281 34.6563,128.5938 Q34.8906,128.8594 34.8906,129.4688 L34.8906,132.0938 L26.8906,132.0938 Q26.2656,132.0938 26,131.8594 Q25.75,131.625 25.75,131.2344 Q25.75,130.8594 26.0156,130.625 Q26.2813,130.3906 26.8906,130.3906 L27.1563,130.3906 L27.1563,123.7344 L26.8906,123.7344 Q26.2656,123.7344 26,123.5 Q25.75,123.2656 25.75,122.875 Q25.75,122.5 26,122.2656 Q26.2656,122.0313 26.8906,122.0313 L34.5156,122.0313 L34.5156,124.625 Q34.5156,125.2344 34.2813,125.5 Q34.0625,125.75 33.6719,125.75 Q33.2969,125.75 33.0625,125.5 Q32.8281,125.2344 32.8281,124.625 L32.8281,123.7344 L28.8594,123.7344 L28.8594,126.1875 L30.3438,126.1875 Q30.3438,125.5313 30.4688,125.3438 Q30.7344,124.9375 31.2031,124.9375 Q31.5781,124.9375 31.8125,125.2031 Q32.0469,125.4531 32.0469,126.0625 L32.0469,128.0313 Q32.0469,128.5781 31.9219,128.7656 Q31.6563,129.1563 31.2031,129.1563 Q30.7344,129.1563 30.4688,128.75 Q30.3438,128.5625 30.3438,127.8906 L28.8594,127.8906 Z " fill="#000000"/><text fill="#000000" font-family="sans-serif" font-size="14" lengthAdjust="spacing" textLength="136" x="44" y="126.5332">ownTypes.gameState</text><text fill="#000000" font-family="sans-serif" font-size="10" lengthAdjust="spacing" textLength="90" x="67" y="139.9902">com.javafwp.game</text><line style="stroke:#181818;stroke-width:0.5;" x1="16" x2="182" y1="147.1875" y2="147.1875"/><ellipse cx="26" cy="158.1875" fill="none" rx="3" ry="3" style="stroke:#038048;stroke-width:1.0;"/><text fill="#000000" font-family="sans-serif" font-size="14" lengthAdjust="spacing" text-decoration="underline" textLength="45" x="35" y="165.7207">playing</text><ellipse cx="26" cy="175.7969" fill="none" rx="3" ry="3" style="stroke:#038048;stroke-width:1.0;"/><text fill="#000000" font-family="sans-serif" font-size="14" lengthAdjust="spacing" text-decoration="underline" textLength="21" x="35" y="183.3301">exit</text><ellipse cx="26" cy="193.4063" fill="none" rx="3" ry="3" style="stroke:#038048;stroke-width:1.0;"/><text fill="#000000" font-family="sans-serif" font-size="14" lengthAdjust="spacing" text-decoration="underline" textLength="65" x="35" y="200.9395">mainMenu</text><ellipse cx="26" cy="211.0156" fill="none" rx="3" ry="3" style="stroke:#038048;stroke-width:1.0;"/><text fill="#000000" font-family="sans-serif" font-size="14" lengthAdjust="spacing" text-decoration="underline" textLength="31" x="35" y="218.5488">shop</text><ellipse cx="26" cy="228.625" fill="none" rx="3" ry="3" style="stroke:#038048;stroke-width:1.0;"/><text fill="#000000" font-family="sans-serif" font-size="14" lengthAdjust="spacing" text-decoration="underline" textLength="36" x="35" y="236.1582">death</text></g></a><!--MD5=[e174b7214f093818a5bdbd373e689567]
class com.javafwp.game.ownTypes--><a href="ownTypes.html" target="_top" title="ownTypes.html" xlink:actuate="onRequest" xlink:href="ownTypes.html" xlink:show="new" xlink:title="ownTypes.html" xlink:type="simple"><g id="elem_com.javafwp.game.ownTypes"><rect codeLine="13" fill="#F1F1F1" height="40.1875" id="com.javafwp.game.ownTypes" rx="2.5" ry="2.5" style="stroke:#181818;stroke-width:0.5;" width="122" x="38" y="7"/><ellipse cx="53" cy="27.0938" fill="#ADD1B2" rx="11" ry="11" style="stroke:#181818;stroke-width:1.0;"/><path d="M55.7656,22.9688 Q55.9219,22.75 56.1094,22.6406 Q56.2969,22.5313 56.5156,22.5313 Q56.8906,22.5313 57.125,22.7969 Q57.3594,23.0469 57.3594,23.6563 L57.3594,25.1094 Q57.3594,25.7188 57.125,25.9844 Q56.8906,26.25 56.5156,26.25 Q56.1719,26.25 55.9688,26.0469 Q55.7656,25.8594 55.6563,25.3438 Q55.6094,24.9844 55.4219,24.7969 Q55.0938,24.4219 54.4844,24.2031 Q53.875,23.9844 53.25,23.9844 Q52.4844,23.9844 51.8438,24.3125 Q51.2188,24.6406 50.7188,25.3906 Q50.2344,26.1406 50.2344,27.1719 L50.2344,28.2656 Q50.2344,29.5 51.125,30.3281 Q52.0156,31.1406 53.6094,31.1406 Q54.5469,31.1406 55.2031,30.8906 Q55.5938,30.7344 56.0156,30.2969 Q56.2813,30.0313 56.4219,29.9531 Q56.5781,29.875 56.7813,29.875 Q57.1094,29.875 57.3594,30.1406 Q57.625,30.3906 57.625,30.7344 Q57.625,31.0781 57.2813,31.4844 Q56.7813,32.0625 55.9844,32.3906 Q54.9063,32.8438 53.6094,32.8438 Q52.0938,32.8438 50.8906,32.2188 Q49.9063,31.7188 49.2188,30.6563 Q48.5313,29.5781 48.5313,28.2969 L48.5313,27.1406 Q48.5313,25.8125 49.1406,24.6719 Q49.7656,23.5156 50.8594,22.9063 Q51.9531,22.2813 53.1875,22.2813 Q53.9219,22.2813 54.5625,22.4531 Q55.2188,22.6094 55.7656,22.9688 Z " fill="#000000"/><text fill="#000000" font-family="sans-serif" font-size="14" lengthAdjust="spacing" textLength="64" x="80" y="26.5332">ownTypes</text><text fill="#000000" font-family="sans-serif" font-size="10" lengthAdjust="spacing" textLength="90" x="67" y="39.9902">com.javafwp.game</text></g></a><!--MD5=[03a2e62363b578c86b6b02ab7077b8a7]
reverse link com.javafwp.game.ownTypes to com.javafwp.game.ownTypes.gameState--><g id="link_com.javafwp.game.ownTypes_com.javafwp.game.ownTypes.gameState"><path codeLine="15" d="M99,62.49 C99,75.82 99,91.56 99,106.95 " fill="none" id="com.javafwp.game.ownTypes-backto-com.javafwp.game.ownTypes.gameState" style="stroke:#181818;stroke-width:1.0;"/><ellipse cx="99" cy="55.09" fill="#FFFFFF" rx="8" ry="8" style="stroke:#181818;stroke-width:1.0;"/><line style="stroke:#181818;stroke-width:1.0;" x1="99" x2="99" y1="63.09" y2="47.09"/><line style="stroke:#181818;stroke-width:1.0;" x1="91" x2="107" y1="55.09" y2="55.09"/></g><rect height="12.5781" style="stroke:#00000000;stroke-width:1.0;fill:none;" width="184" x="0" y="249.2344"/><text fill="#888888" font-family="sans-serif" font-size="10" lengthAdjust="spacing" textLength="184" x="0" y="259.6152">UMLDoclet 2.0.17, PlantUML 1.2022.5</text><!--MD5=[f4666146d07b19723bdfc01885c95422]
@startuml
    set namespaceSeparator none
    hide empty fields
    hide empty methods

    enum "<size:14>ownTypes.gameState\n<size:10>com.javafwp.game" as com.javafwp.game.ownTypes.gameState [[ownTypes.gameState.html]] {
        {static} +playing
        {static} +exit
        {static} +mainMenu
        {static} +shop
        {static} +death
    }

    class "<size:14>ownTypes\n<size:10>com.javafwp.game" as com.javafwp.game.ownTypes [[ownTypes.html]]

    com.javafwp.game.ownTypes +- - com.javafwp.game.ownTypes.gameState

    center footer UMLDoclet 2.0.17, PlantUML 1.2022.5
@enduml

PlantUML version 1.2022.5(Sat Apr 30 12:55:52 CEST 2022)
(APACHE source distribution)
Java Runtime: Java(TM) SE Runtime Environment
JVM: Java HotSpot(TM) 64-Bit Server VM
Default Encoding: UTF-8
Language: de
Country: DE
--></g></svg>