<?xml version="1.0" encoding="UTF-8" standalone="no"?><svg xmlns="http://www.w3.org/2000/svg" xmlns:xlink="http://www.w3.org/1999/xlink" contentStyleType="text/css" height="172px" preserveAspectRatio="none" style="width:344px;height:172px;background:#FFFFFF;" version="1.1" viewBox="0 0 344 172" width="344px" zoomAndPan="magnify"><defs/><g><!--MD5=[e174b7214f093818a5bdbd373e689567]
class com.javafwp.game.ownTypes--><a href="ownTypes.html" target="_top" title="ownTypes.html" xlink:actuate="onRequest" xlink:href="ownTypes.html" xlink:show="new" xlink:title="ownTypes.html" xlink:type="simple"><g id="elem_com.javafwp.game.ownTypes"><rect codeLine="5" fill="#F1F1F1" height="40.1875" id="com.javafwp.game.ownTypes" rx="2.5" ry="2.5" style="stroke:#181818;stroke-width:0.5;" width="122" x="100.5" y="7"/><ellipse cx="115.5" cy="27.0938" fill="#ADD1B2" rx="11" ry="11" style="stroke:#181818;stroke-width:1.0;"/><path d="M118.2656,22.9688 Q118.4219,22.75 118.6094,22.6406 Q118.7969,22.5313 119.0156,22.5313 Q119.3906,22.5313 119.625,22.7969 Q119.8594,23.0469 119.8594,23.6563 L119.8594,25.1094 Q119.8594,25.7188 119.625,25.9844 Q119.3906,26.25 119.0156,26.25 Q118.6719,26.25 118.4688,26.0469 Q118.2656,25.8594 118.1563,25.3438 Q118.1094,24.9844 117.9219,24.7969 Q117.5938,24.4219 116.9844,24.2031 Q116.375,23.9844 115.75,23.9844 Q114.9844,23.9844 114.3438,24.3125 Q113.7188,24.6406 113.2188,25.3906 Q112.7344,26.1406 112.7344,27.1719 L112.7344,28.2656 Q112.7344,29.5 113.625,30.3281 Q114.5156,31.1406 116.1094,31.1406 Q117.0469,31.1406 117.7031,30.8906 Q118.0938,30.7344 118.5156,30.2969 Q118.7813,30.0313 118.9219,29.9531 Q119.0781,29.875 119.2813,29.875 Q119.6094,29.875 119.8594,30.1406 Q120.125,30.3906 120.125,30.7344 Q120.125,31.0781 119.7813,31.4844 Q119.2813,32.0625 118.4844,32.3906 Q117.4063,32.8438 116.1094,32.8438 Q114.5938,32.8438 113.3906,32.2188 Q112.4063,31.7188 111.7188,30.6563 Q111.0313,29.5781 111.0313,28.2969 L111.0313,27.1406 Q111.0313,25.8125 111.6406,24.6719 Q112.2656,23.5156 113.3594,22.9063 Q114.4531,22.2813 115.6875,22.2813 Q116.4219,22.2813 117.0625,22.4531 Q117.7188,22.6094 118.2656,22.9688 Z " fill="#000000"/><text fill="#000000" font-family="sans-serif" font-size="14" lengthAdjust="spacing" textLength="64" x="142.5" y="26.5332">ownTypes</text><text fill="#000000" font-family="sans-serif" font-size="10" lengthAdjust="spacing" textLength="90" x="129.5" y="39.9902">com.javafwp.game</text></g></a><!--MD5=[9d03aacf66eed608561496e864e4daab]
class com.javafwp.game.ownTypes.type--><a href="ownTypes.type.html" target="_top" title="ownTypes.type.html" xlink:actuate="onRequest" xlink:href="ownTypes.type.html" xlink:show="new" xlink:title="ownTypes.type.html" xlink:type="simple"><g id="elem_com.javafwp.game.ownTypes.type"><rect codeLine="6" fill="#F1F1F1" height="40.1875" id="com.javafwp.game.ownTypes.type" rx="2.5" ry="2.5" style="stroke:#181818;stroke-width:0.5;" width="127" x="7" y="107"/><ellipse cx="22" cy="127.0938" fill="#EB937F" rx="11" ry="11" style="stroke:#181818;stroke-width:1.0;"/><path d="M20.8594,127.8906 L20.8594,130.3906 L25.1875,130.3906 L25.1875,129.4688 Q25.1875,128.8594 25.4219,128.5938 Q25.6719,128.3281 26.0469,128.3281 Q26.4219,128.3281 26.6563,128.5938 Q26.8906,128.8594 26.8906,129.4688 L26.8906,132.0938 L18.8906,132.0938 Q18.2656,132.0938 18,131.8594 Q17.75,131.625 17.75,131.2344 Q17.75,130.8594 18.0156,130.625 Q18.2813,130.3906 18.8906,130.3906 L19.1563,130.3906 L19.1563,123.7344 L18.8906,123.7344 Q18.2656,123.7344 18,123.5 Q17.75,123.2656 17.75,122.875 Q17.75,122.5 18,122.2656 Q18.2656,122.0313 18.8906,122.0313 L26.5156,122.0313 L26.5156,124.625 Q26.5156,125.2344 26.2813,125.5 Q26.0625,125.75 25.6719,125.75 Q25.2969,125.75 25.0625,125.5 Q24.8281,125.2344 24.8281,124.625 L24.8281,123.7344 L20.8594,123.7344 L20.8594,126.1875 L22.3438,126.1875 Q22.3438,125.5313 22.4688,125.3438 Q22.7344,124.9375 23.2031,124.9375 Q23.5781,124.9375 23.8125,125.2031 Q24.0469,125.4531 24.0469,126.0625 L24.0469,128.0313 Q24.0469,128.5781 23.9219,128.7656 Q23.6563,129.1563 23.2031,129.1563 Q22.7344,129.1563 22.4688,128.75 Q22.3438,128.5625 22.3438,127.8906 L20.8594,127.8906 Z " fill="#000000"/><text fill="#000000" font-family="sans-serif" font-size="14" lengthAdjust="spacing" textLength="95" x="36" y="126.5332">ownTypes.type</text><text fill="#000000" font-family="sans-serif" font-size="10" lengthAdjust="spacing" textLength="90" x="38.5" y="139.9902">com.javafwp.game</text></g></a><!--MD5=[e1d1e35cbe993f7cdb5596ceeae21108]
class com.javafwp.game.ownTypes.gameState--><a href="ownTypes.gameState.html" target="_top" title="ownTypes.gameState.html" xlink:actuate="onRequest" xlink:href="ownTypes.gameState.html" xlink:show="new" xlink:title="ownTypes.gameState.html" xlink:type="simple"><g id="elem_com.javafwp.game.ownTypes.gameState"><rect codeLine="7" fill="#F1F1F1" height="40.1875" id="com.javafwp.game.ownTypes.gameState" rx="2.5" ry="2.5" style="stroke:#181818;stroke-width:0.5;" width="168" x="169.5" y="107"/><ellipse cx="184.5" cy="127.0938" fill="#EB937F" rx="11" ry="11" style="stroke:#181818;stroke-width:1.0;"/><path d="M183.3594,127.8906 L183.3594,130.3906 L187.6875,130.3906 L187.6875,129.4688 Q187.6875,128.8594 187.9219,128.5938 Q188.1719,128.3281 188.5469,128.3281 Q188.9219,128.3281 189.1563,128.5938 Q189.3906,128.8594 189.3906,129.4688 L189.3906,132.0938 L181.3906,132.0938 Q180.7656,132.0938 180.5,131.8594 Q180.25,131.625 180.25,131.2344 Q180.25,130.8594 180.5156,130.625 Q180.7813,130.3906 181.3906,130.3906 L181.6563,130.3906 L181.6563,123.7344 L181.3906,123.7344 Q180.7656,123.7344 180.5,123.5 Q180.25,123.2656 180.25,122.875 Q180.25,122.5 180.5,122.2656 Q180.7656,122.0313 181.3906,122.0313 L189.0156,122.0313 L189.0156,124.625 Q189.0156,125.2344 188.7813,125.5 Q188.5625,125.75 188.1719,125.75 Q187.7969,125.75 187.5625,125.5 Q187.3281,125.2344 187.3281,124.625 L187.3281,123.7344 L183.3594,123.7344 L183.3594,126.1875 L184.8438,126.1875 Q184.8438,125.5313 184.9688,125.3438 Q185.2344,124.9375 185.7031,124.9375 Q186.0781,124.9375 186.3125,125.2031 Q186.5469,125.4531 186.5469,126.0625 L186.5469,128.0313 Q186.5469,128.5781 186.4219,128.7656 Q186.1563,129.1563 185.7031,129.1563 Q185.2344,129.1563 184.9688,128.75 Q184.8438,128.5625 184.8438,127.8906 L183.3594,127.8906 Z " fill="#000000"/><text fill="#000000" font-family="sans-serif" font-size="14" lengthAdjust="spacing" textLength="136" x="198.5" y="126.5332">ownTypes.gameState</text><text fill="#000000" font-family="sans-serif" font-size="10" lengthAdjust="spacing" textLength="90" x="221.5" y="139.9902">com.javafwp.game</text></g></a><!--MD5=[5a7be986edb8b6e9daf78ced986947e2]
reverse link com.javafwp.game.ownTypes to com.javafwp.game.ownTypes.type--><g id="link_com.javafwp.game.ownTypes_com.javafwp.game.ownTypes.type"><path codeLine="9" d="M133.03,58.66 C118.45,74.36 101.15,93 88.44,106.68 " fill="none" id="com.javafwp.game.ownTypes-backto-com.javafwp.game.ownTypes.type" style="stroke:#181818;stroke-width:1.0;"/><ellipse cx="138.0726" cy="53.2188" fill="#FFFFFF" rx="8" ry="8" style="stroke:#181818;stroke-width:1.0;"/><line style="stroke:#181818;stroke-width:1.0;" x1="132.6252" x2="143.52" y1="59.0776" y2="47.36"/><line style="stroke:#181818;stroke-width:1.0;" x1="132.2138" x2="143.9314" y1="47.7714" y2="58.6662"/></g><!--MD5=[03a2e62363b578c86b6b02ab7077b8a7]
reverse link com.javafwp.game.ownTypes to com.javafwp.game.ownTypes.gameState--><g id="link_com.javafwp.game.ownTypes_com.javafwp.game.ownTypes.gameState"><path codeLine="10" d="M190.29,58.66 C205.03,74.36 222.52,93 235.36,106.68 " fill="none" id="com.javafwp.game.ownTypes-backto-com.javafwp.game.ownTypes.gameState" style="stroke:#181818;stroke-width:1.0;"/><ellipse cx="185.1589" cy="53.1894" fill="#FFFFFF" rx="8" ry="8" style="stroke:#181818;stroke-width:1.0;"/><line style="stroke:#181818;stroke-width:1.0;" x1="190.6378" x2="179.68" y1="59.0188" y2="47.36"/><line style="stroke:#181818;stroke-width:1.0;" x1="179.3295" x2="190.9883" y1="58.6683" y2="47.7105"/></g><rect height="12.5781" style="stroke:#00000000;stroke-width:1.0;fill:none;" width="184" x="73.25" y="152.1875"/><text fill="#888888" font-family="sans-serif" font-size="10" lengthAdjust="spacing" textLength="184" x="73.25" y="162.5684">UMLDoclet 2.0.17, PlantUML 1.2022.5</text><!--MD5=[3da6d7add1fe9e0ea24b7abe0ca4f956]
@startuml
    set namespaceSeparator none
    hide empty fields
    hide empty methods

    class "<size:14>ownTypes\n<size:10>com.javafwp.game" as com.javafwp.game.ownTypes [[ownTypes.html]]
    enum "<size:14>ownTypes.type\n<size:10>com.javafwp.game" as com.javafwp.game.ownTypes.type [[ownTypes.type.html]]
    enum "<size:14>ownTypes.gameState\n<size:10>com.javafwp.game" as com.javafwp.game.ownTypes.gameState [[ownTypes.gameState.html]]

    com.javafwp.game.ownTypes +- - com.javafwp.game.ownTypes.type
    com.javafwp.game.ownTypes +- - com.javafwp.game.ownTypes.gameState

    center footer UMLDoclet 2.0.17, PlantUML 1.2022.5
@enduml

PlantUML version 1.2022.5(Sat Apr 30 12:55:52 CEST 2022)
(APACHE source distribution)
Java Runtime: Java(TM) SE Runtime Environment
JVM: Java HotSpot(TM) 64-Bit Server VM
Default Encoding: UTF-8
Language: de
Country: DE
--></g></svg>