<?xml version="1.0" encoding="UTF-8" standalone="no"?><svg xmlns="http://www.w3.org/2000/svg" xmlns:xlink="http://www.w3.org/1999/xlink" contentStyleType="text/css" height="328px" preserveAspectRatio="none" style="width:382px;height:328px;background:#FFFFFF;" version="1.1" viewBox="0 0 382 328" width="382px" zoomAndPan="magnify"><defs/><g><!--MD5=[9334b56610f7b533e0d872ce578da37f]
cluster com.javafwp.game--><g id="cluster_com.javafwp.game"><path d="M8.5,6 L138.5,6 A3.75,3.75 0 0 1 141,8.5 L148,29.6094 L372.5,29.6094 A2.5,2.5 0 0 1 375,32.1094 L375,299.5 A2.5,2.5 0 0 1 372.5,302 L8.5,302 A2.5,2.5 0 0 1 6,299.5 L6,8.5 A2.5,2.5 0 0 1 8.5,6 " style="stroke:#000000;stroke-width:1.5;fill:none;"/><line style="stroke:#000000;stroke-width:1.5;fill:none;" x1="6" x2="148" y1="29.6094" y2="29.6094"/><text fill="#000000" font-family="sans-serif" font-size="14" font-weight="bold" lengthAdjust="spacing" textLength="129" x="10" y="22.5332">com.javafwp.game</text></g><!--MD5=[f197242c47f81d52f9c3ec001d0452dc]
class com.javafwp.game.OwnTypes--><a href="ownTypes.html" target="_top" title="ownTypes.html" xlink:actuate="onRequest" xlink:href="ownTypes.html" xlink:show="new" xlink:title="ownTypes.html" xlink:type="simple"><g id="elem_com.javafwp.game.OwnTypes"><rect codeLine="3" fill="#F1F1F1" height="48" id="com.javafwp.game.OwnTypes" rx="2.5" ry="2.5" style="stroke:#181818;stroke-width:0.5;" width="99" x="130.5" y="42"/><ellipse cx="145.5" cy="58" fill="#ADD1B2" rx="11" ry="11" style="stroke:#181818;stroke-width:1.0;"/><path d="M148.2656,53.875 Q148.4219,53.6563 148.6094,53.5469 Q148.7969,53.4375 149.0156,53.4375 Q149.3906,53.4375 149.625,53.7031 Q149.8594,53.9531 149.8594,54.5625 L149.8594,56.0156 Q149.8594,56.625 149.625,56.8906 Q149.3906,57.1563 149.0156,57.1563 Q148.6719,57.1563 148.4688,56.9531 Q148.2656,56.7656 148.1563,56.25 Q148.1094,55.8906 147.9219,55.7031 Q147.5938,55.3281 146.9844,55.1094 Q146.375,54.8906 145.75,54.8906 Q144.9844,54.8906 144.3438,55.2188 Q143.7188,55.5469 143.2188,56.2969 Q142.7344,57.0469 142.7344,58.0781 L142.7344,59.1719 Q142.7344,60.4063 143.625,61.2344 Q144.5156,62.0469 146.1094,62.0469 Q147.0469,62.0469 147.7031,61.7969 Q148.0938,61.6406 148.5156,61.2031 Q148.7813,60.9375 148.9219,60.8594 Q149.0781,60.7813 149.2813,60.7813 Q149.6094,60.7813 149.8594,61.0469 Q150.125,61.2969 150.125,61.6406 Q150.125,61.9844 149.7813,62.3906 Q149.2813,62.9688 148.4844,63.2969 Q147.4063,63.75 146.1094,63.75 Q144.5938,63.75 143.3906,63.125 Q142.4063,62.625 141.7188,61.5625 Q141.0313,60.4844 141.0313,59.2031 L141.0313,58.0469 Q141.0313,56.7188 141.6406,55.5781 Q142.2656,54.4219 143.3594,53.8125 Q144.4531,53.1875 145.6875,53.1875 Q146.4219,53.1875 147.0625,53.3594 Q147.7188,53.5156 148.2656,53.875 Z " fill="#000000"/><text fill="#000000" font-family="sans-serif" font-size="14" lengthAdjust="spacing" textLength="67" x="159.5" y="63.7285">OwnTypes</text><line style="stroke:#181818;stroke-width:0.5;" x1="131.5" x2="228.5" y1="74" y2="74"/><line style="stroke:#181818;stroke-width:0.5;" x1="131.5" x2="228.5" y1="82" y2="82"/></g></a><!--MD5=[ea1272706208f726b75e3ce5e8bc10b5]
class com.javafwp.game.OwnTypes.type--><a href="ownTypes.type.html" target="_top" title="ownTypes.type.html" xlink:actuate="onRequest" xlink:href="ownTypes.type.html" xlink:show="new" xlink:title="ownTypes.type.html" xlink:type="simple"><g id="elem_com.javafwp.game.OwnTypes.type"><rect codeLine="5" fill="#F1F1F1" height="136.0469" id="com.javafwp.game.OwnTypes.type" rx="2.5" ry="2.5" style="stroke:#181818;stroke-width:0.5;" width="130" x="22" y="150"/><ellipse cx="37" cy="166" fill="#EB937F" rx="11" ry="11" style="stroke:#181818;stroke-width:1.0;"/><path d="M35.8594,166.7969 L35.8594,169.2969 L40.1875,169.2969 L40.1875,168.375 Q40.1875,167.7656 40.4219,167.5 Q40.6719,167.2344 41.0469,167.2344 Q41.4219,167.2344 41.6563,167.5 Q41.8906,167.7656 41.8906,168.375 L41.8906,171 L33.8906,171 Q33.2656,171 33,170.7656 Q32.75,170.5313 32.75,170.1406 Q32.75,169.7656 33.0156,169.5313 Q33.2813,169.2969 33.8906,169.2969 L34.1563,169.2969 L34.1563,162.6406 L33.8906,162.6406 Q33.2656,162.6406 33,162.4063 Q32.75,162.1719 32.75,161.7813 Q32.75,161.4063 33,161.1719 Q33.2656,160.9375 33.8906,160.9375 L41.5156,160.9375 L41.5156,163.5313 Q41.5156,164.1406 41.2813,164.4063 Q41.0625,164.6563 40.6719,164.6563 Q40.2969,164.6563 40.0625,164.4063 Q39.8281,164.1406 39.8281,163.5313 L39.8281,162.6406 L35.8594,162.6406 L35.8594,165.0938 L37.3438,165.0938 Q37.3438,164.4375 37.4688,164.25 Q37.7344,163.8438 38.2031,163.8438 Q38.5781,163.8438 38.8125,164.1094 Q39.0469,164.3594 39.0469,164.9688 L39.0469,166.9375 Q39.0469,167.4844 38.9219,167.6719 Q38.6563,168.0625 38.2031,168.0625 Q37.7344,168.0625 37.4688,167.6563 Q37.3438,167.4688 37.3438,166.7969 L35.8594,166.7969 Z " fill="#000000"/><text fill="#000000" font-family="sans-serif" font-size="14" lengthAdjust="spacing" textLength="98" x="51" y="171.7285">OwnTypes.type</text><line style="stroke:#181818;stroke-width:0.5;" x1="23" x2="151" y1="182" y2="182"/><ellipse cx="33" cy="193" fill="none" rx="3" ry="3" style="stroke:#038048;stroke-width:1.0;"/><text fill="#000000" font-family="sans-serif" font-size="14" lengthAdjust="spacing" text-decoration="underline" textLength="42" x="42" y="200.5332">enemy</text><ellipse cx="33" cy="210.6094" fill="none" rx="3" ry="3" style="stroke:#038048;stroke-width:1.0;"/><text fill="#000000" font-family="sans-serif" font-size="14" lengthAdjust="spacing" text-decoration="underline" textLength="55" x="42" y="218.1426">plattform</text><ellipse cx="33" cy="228.2188" fill="none" rx="3" ry="3" style="stroke:#038048;stroke-width:1.0;"/><text fill="#000000" font-family="sans-serif" font-size="14" lengthAdjust="spacing" text-decoration="underline" textLength="39" x="42" y="235.752">player</text><ellipse cx="33" cy="245.8281" fill="none" rx="3" ry="3" style="stroke:#038048;stroke-width:1.0;"/><text fill="#000000" font-family="sans-serif" font-size="14" lengthAdjust="spacing" text-decoration="underline" textLength="57" x="42" y="253.3613">projectile</text><ellipse cx="33" cy="263.4375" fill="none" rx="3" ry="3" style="stroke:#038048;stroke-width:1.0;"/><text fill="#000000" font-family="sans-serif" font-size="14" lengthAdjust="spacing" text-decoration="underline" textLength="49" x="42" y="270.9707">heatbar</text><line style="stroke:#181818;stroke-width:0.5;" x1="23" x2="151" y1="278.0469" y2="278.0469"/></g></a><!--MD5=[3fddf8e29931883f5864c5c8ad3a460a]
class com.javafwp.game.OwnTypes.gameState--><a href="ownTypes.gameState.html" target="_top" title="ownTypes.gameState.html" xlink:actuate="onRequest" xlink:href="ownTypes.gameState.html" xlink:show="new" xlink:title="ownTypes.gameState.html" xlink:type="simple"><g id="elem_com.javafwp.game.OwnTypes.gameState"><rect codeLine="13" fill="#F1F1F1" height="136.0469" id="com.javafwp.game.OwnTypes.gameState" rx="2.5" ry="2.5" style="stroke:#181818;stroke-width:0.5;" width="171" x="187.5" y="150"/><ellipse cx="202.5" cy="166" fill="#EB937F" rx="11" ry="11" style="stroke:#181818;stroke-width:1.0;"/><path d="M201.3594,166.7969 L201.3594,169.2969 L205.6875,169.2969 L205.6875,168.375 Q205.6875,167.7656 205.9219,167.5 Q206.1719,167.2344 206.5469,167.2344 Q206.9219,167.2344 207.1563,167.5 Q207.3906,167.7656 207.3906,168.375 L207.3906,171 L199.3906,171 Q198.7656,171 198.5,170.7656 Q198.25,170.5313 198.25,170.1406 Q198.25,169.7656 198.5156,169.5313 Q198.7813,169.2969 199.3906,169.2969 L199.6563,169.2969 L199.6563,162.6406 L199.3906,162.6406 Q198.7656,162.6406 198.5,162.4063 Q198.25,162.1719 198.25,161.7813 Q198.25,161.4063 198.5,161.1719 Q198.7656,160.9375 199.3906,160.9375 L207.0156,160.9375 L207.0156,163.5313 Q207.0156,164.1406 206.7813,164.4063 Q206.5625,164.6563 206.1719,164.6563 Q205.7969,164.6563 205.5625,164.4063 Q205.3281,164.1406 205.3281,163.5313 L205.3281,162.6406 L201.3594,162.6406 L201.3594,165.0938 L202.8438,165.0938 Q202.8438,164.4375 202.9688,164.25 Q203.2344,163.8438 203.7031,163.8438 Q204.0781,163.8438 204.3125,164.1094 Q204.5469,164.3594 204.5469,164.9688 L204.5469,166.9375 Q204.5469,167.4844 204.4219,167.6719 Q204.1563,168.0625 203.7031,168.0625 Q203.2344,168.0625 202.9688,167.6563 Q202.8438,167.4688 202.8438,166.7969 L201.3594,166.7969 Z " fill="#000000"/><text fill="#000000" font-family="sans-serif" font-size="14" lengthAdjust="spacing" textLength="139" x="216.5" y="171.7285">OwnTypes.gameState</text><line style="stroke:#181818;stroke-width:0.5;" x1="188.5" x2="357.5" y1="182" y2="182"/><ellipse cx="198.5" cy="193" fill="none" rx="3" ry="3" style="stroke:#038048;stroke-width:1.0;"/><text fill="#000000" font-family="sans-serif" font-size="14" lengthAdjust="spacing" text-decoration="underline" textLength="45" x="207.5" y="200.5332">playing</text><ellipse cx="198.5" cy="210.6094" fill="none" rx="3" ry="3" style="stroke:#038048;stroke-width:1.0;"/><text fill="#000000" font-family="sans-serif" font-size="14" lengthAdjust="spacing" text-decoration="underline" textLength="21" x="207.5" y="218.1426">exit</text><ellipse cx="198.5" cy="228.2188" fill="none" rx="3" ry="3" style="stroke:#038048;stroke-width:1.0;"/><text fill="#000000" font-family="sans-serif" font-size="14" lengthAdjust="spacing" text-decoration="underline" textLength="65" x="207.5" y="235.752">mainMenu</text><ellipse cx="198.5" cy="245.8281" fill="none" rx="3" ry="3" style="stroke:#038048;stroke-width:1.0;"/><text fill="#000000" font-family="sans-serif" font-size="14" lengthAdjust="spacing" text-decoration="underline" textLength="31" x="207.5" y="253.3613">shop</text><ellipse cx="198.5" cy="263.4375" fill="none" rx="3" ry="3" style="stroke:#038048;stroke-width:1.0;"/><text fill="#000000" font-family="sans-serif" font-size="14" lengthAdjust="spacing" text-decoration="underline" textLength="36" x="207.5" y="270.9707">death</text><line style="stroke:#181818;stroke-width:0.5;" x1="188.5" x2="357.5" y1="278.0469" y2="278.0469"/></g></a><!--MD5=[44a647f8801be0803f398dd0c2af42de]
reverse link com.javafwp.game.OwnTypes to com.javafwp.game.OwnTypes.type--><g id="link_com.javafwp.game.OwnTypes_com.javafwp.game.OwnTypes.type"><path codeLine="21" d="M157.57,103.18 C148.88,117.19 138.64,133.7 128.7,149.74 " fill="none" id="com.javafwp.game.OwnTypes-backto-com.javafwp.game.OwnTypes.type" style="stroke:#181818;stroke-width:1.0;"/><ellipse cx="161.4547" cy="96.9094" fill="#FFFFFF" rx="8" ry="8" style="stroke:#181818;stroke-width:1.0;"/><line style="stroke:#181818;stroke-width:1.0;" x1="157.2394" x2="165.67" y1="103.7087" y2="90.11"/><line style="stroke:#181818;stroke-width:1.0;" x1="154.6553" x2="168.2541" y1="92.6941" y2="101.1247"/></g><!--MD5=[f8f535d44cbbd4c1d9cc1ac6a7c207be]
reverse link com.javafwp.game.OwnTypes to com.javafwp.game.OwnTypes.gameState--><g id="link_com.javafwp.game.OwnTypes_com.javafwp.game.OwnTypes.gameState"><path codeLine="22" d="M202.43,103.18 C211.12,117.19 221.36,133.7 231.3,149.74 " fill="none" id="com.javafwp.game.OwnTypes-backto-com.javafwp.game.OwnTypes.gameState" style="stroke:#181818;stroke-width:1.0;"/><ellipse cx="198.5453" cy="96.9094" fill="#FFFFFF" rx="8" ry="8" style="stroke:#181818;stroke-width:1.0;"/><line style="stroke:#181818;stroke-width:1.0;" x1="202.7606" x2="194.33" y1="103.7087" y2="90.11"/><line style="stroke:#181818;stroke-width:1.0;" x1="191.7459" x2="205.3447" y1="101.1247" y2="92.6941"/></g><rect height="12.5781" style="stroke:#00000000;stroke-width:1.0;fill:none;" width="184" x="92" y="308"/><text fill="#888888" font-family="sans-serif" font-size="10" lengthAdjust="spacing" textLength="184" x="92" y="318.3809">UMLDoclet 2.0.17, PlantUML 1.2022.5</text><!--MD5=[c0f798f74ae8d21e0c8694faad64cd65]
@startuml
    namespace com.javafwp.game {

        class OwnTypes [[ownTypes.html]]

        enum com.javafwp.game.OwnTypes.type [[ownTypes.type.html]] {
            {static} +enemy
            {static} +plattform
            {static} +player
            {static} +projectile
            {static} +heatbar
        }

        enum com.javafwp.game.OwnTypes.gameState [[ownTypes.gameState.html]] {
            {static} +playing
            {static} +exit
            {static} +mainMenu
            {static} +shop
            {static} +death
        }

        OwnTypes +- - com.javafwp.game.OwnTypes.type
        OwnTypes +- - com.javafwp.game.OwnTypes.gameState
    }

    center footer UMLDoclet 2.0.17, PlantUML 1.2022.5
@enduml

PlantUML version 1.2022.5(Sat Apr 30 12:55:52 CEST 2022)
(APACHE source distribution)
Java Runtime: Java(TM) SE Runtime Environment
JVM: Java HotSpot(TM) 64-Bit Server VM
Default Encoding: UTF-8
Language: de
Country: DE
--></g></svg>