<?xml version="1.0" encoding="UTF-8" standalone="no"?><svg xmlns="http://www.w3.org/2000/svg" xmlns:xlink="http://www.w3.org/1999/xlink" contentStyleType="text/css" height="320px" preserveAspectRatio="none" style="width:392px;height:320px;background:#FFFFFF;" version="1.1" viewBox="0 0 392 320" width="392px" zoomAndPan="magnify"><defs/><g><!--MD5=[9334b56610f7b533e0d872ce578da37f]
cluster com.javafwp.game--><g id="cluster_com.javafwp.game"><path d="M8.5,6 L140.5,6 A3.75,3.75 0 0 1 143,8.5 L150,28.4883 L382.5,28.4883 A2.5,2.5 0 0 1 385,30.9883 L385,292.5 A2.5,2.5 0 0 1 382.5,295 L8.5,295 A2.5,2.5 0 0 1 6,292.5 L6,8.5 A2.5,2.5 0 0 1 8.5,6 " style="stroke:#000000;stroke-width:1.5;fill:none;"/><line style="stroke:#000000;stroke-width:1.5;fill:none;" x1="6" x2="150" y1="28.4883" y2="28.4883"/><text fill="#000000" font-family="sans-serif" font-size="14" font-weight="bold" lengthAdjust="spacing" textLength="131" x="10" y="21.5352">com.javafwp.game</text></g><!--MD5=[e174b7214f093818a5bdbd373e689567]
class com.javafwp.game.ownTypes--><a href="ownTypes.html" target="_top" title="ownTypes.html" xlink:actuate="onRequest" xlink:href="ownTypes.html" xlink:show="new" xlink:title="ownTypes.html" xlink:type="simple"><g id="elem_com.javafwp.game.ownTypes"><rect codeLine="3" fill="#F1F1F1" height="48" id="com.javafwp.game.ownTypes" rx="2.5" ry="2.5" style="stroke:#181818;stroke-width:0.5;" width="101" x="133.5" y="41"/><ellipse cx="148.5" cy="57" fill="#ADD1B2" rx="11" ry="11" style="stroke:#181818;stroke-width:1.0;"/><path d="M150.9731,63.1431 Q150.3921,63.4419 149.7529,63.5913 Q149.1138,63.7407 148.4082,63.7407 Q145.9014,63.7407 144.5815,62.0889 Q143.2617,60.437 143.2617,57.3159 Q143.2617,54.1865 144.5815,52.5347 Q145.9014,50.8828 148.4082,50.8828 Q149.1138,50.8828 149.7612,51.0322 Q150.4087,51.1816 150.9731,51.4805 L150.9731,54.2031 Q150.3423,53.6221 149.7488,53.3523 Q149.1553,53.0825 148.5244,53.0825 Q147.1797,53.0825 146.4949,54.1492 Q145.8101,55.2158 145.8101,57.3159 Q145.8101,59.4077 146.4949,60.4744 Q147.1797,61.541 148.5244,61.541 Q149.1553,61.541 149.7488,61.2712 Q150.3423,61.0015 150.9731,60.4204 Z " fill="#000000"/><text fill="#000000" font-family="sans-serif" font-size="14" lengthAdjust="spacing" textLength="69" x="162.5" y="62.291">ownTypes</text><line style="stroke:#181818;stroke-width:0.5;" x1="134.5" x2="233.5" y1="73" y2="73"/><line style="stroke:#181818;stroke-width:0.5;" x1="134.5" x2="233.5" y1="81" y2="81"/></g></a><!--MD5=[9d03aacf66eed608561496e864e4daab]
class com.javafwp.game.ownTypes.type--><a href="ownTypes.type.html" target="_top" title="ownTypes.type.html" xlink:actuate="onRequest" xlink:href="ownTypes.type.html" xlink:show="new" xlink:title="ownTypes.type.html" xlink:type="simple"><g id="elem_com.javafwp.game.ownTypes.type"><rect codeLine="5" fill="#F1F1F1" height="130.4414" id="com.javafwp.game.ownTypes.type" rx="2.5" ry="2.5" style="stroke:#181818;stroke-width:0.5;" width="134" x="22" y="149"/><ellipse cx="37" cy="165" fill="#EB937F" rx="11" ry="11" style="stroke:#181818;stroke-width:1.0;"/><path d="M40.6143,171.5 L32.8945,171.5 L32.8945,159.1069 L40.6143,159.1069 L40.6143,161.2651 L35.3433,161.2651 L35.3433,163.938 L40.1162,163.938 L40.1162,166.0962 L35.3433,166.0962 L35.3433,169.3418 L40.6143,169.3418 Z " fill="#000000"/><text fill="#000000" font-family="sans-serif" font-size="14" lengthAdjust="spacing" textLength="102" x="51" y="170.291">ownTypes.type</text><line style="stroke:#181818;stroke-width:0.5;" x1="23" x2="155" y1="181" y2="181"/><ellipse cx="33" cy="192" fill="none" rx="3" ry="3" style="stroke:#038048;stroke-width:1.0;"/><text fill="#000000" font-family="sans-serif" font-size="14" lengthAdjust="spacing" text-decoration="underline" textLength="45" x="42" y="198.5352">enemy</text><ellipse cx="33" cy="208.4883" fill="none" rx="3" ry="3" style="stroke:#038048;stroke-width:1.0;"/><text fill="#000000" font-family="sans-serif" font-size="14" lengthAdjust="spacing" text-decoration="underline" textLength="64" x="42" y="215.0234">plattform</text><ellipse cx="33" cy="224.9766" fill="none" rx="3" ry="3" style="stroke:#038048;stroke-width:1.0;"/><text fill="#000000" font-family="sans-serif" font-size="14" lengthAdjust="spacing" text-decoration="underline" textLength="42" x="42" y="231.5117">player</text><ellipse cx="33" cy="241.4648" fill="none" rx="3" ry="3" style="stroke:#038048;stroke-width:1.0;"/><text fill="#000000" font-family="sans-serif" font-size="14" lengthAdjust="spacing" text-decoration="underline" textLength="64" x="42" y="248">projectile</text><ellipse cx="33" cy="257.9531" fill="none" rx="3" ry="3" style="stroke:#038048;stroke-width:1.0;"/><text fill="#000000" font-family="sans-serif" font-size="14" lengthAdjust="spacing" text-decoration="underline" textLength="53" x="42" y="264.4883">heatbar</text><line style="stroke:#181818;stroke-width:0.5;" x1="23" x2="155" y1="271.4414" y2="271.4414"/></g></a><!--MD5=[e1d1e35cbe993f7cdb5596ceeae21108]
class com.javafwp.game.ownTypes.gameState--><a href="ownTypes.gameState.html" target="_top" title="ownTypes.gameState.html" xlink:actuate="onRequest" xlink:href="ownTypes.gameState.html" xlink:show="new" xlink:title="ownTypes.gameState.html" xlink:type="simple"><g id="elem_com.javafwp.game.ownTypes.gameState"><rect codeLine="13" fill="#F1F1F1" height="130.4414" id="com.javafwp.game.ownTypes.gameState" rx="2.5" ry="2.5" style="stroke:#181818;stroke-width:0.5;" width="177" x="191.5" y="149"/><ellipse cx="206.5" cy="165" fill="#EB937F" rx="11" ry="11" style="stroke:#181818;stroke-width:1.0;"/><path d="M210.1143,171.5 L202.3945,171.5 L202.3945,159.1069 L210.1143,159.1069 L210.1143,161.2651 L204.8433,161.2651 L204.8433,163.938 L209.6162,163.938 L209.6162,166.0962 L204.8433,166.0962 L204.8433,169.3418 L210.1143,169.3418 Z " fill="#000000"/><text fill="#000000" font-family="sans-serif" font-size="14" lengthAdjust="spacing" textLength="145" x="220.5" y="170.291">ownTypes.gameState</text><line style="stroke:#181818;stroke-width:0.5;" x1="192.5" x2="367.5" y1="181" y2="181"/><ellipse cx="202.5" cy="192" fill="none" rx="3" ry="3" style="stroke:#038048;stroke-width:1.0;"/><text fill="#000000" font-family="sans-serif" font-size="14" lengthAdjust="spacing" text-decoration="underline" textLength="50" x="211.5" y="198.5352">playing</text><ellipse cx="202.5" cy="208.4883" fill="none" rx="3" ry="3" style="stroke:#038048;stroke-width:1.0;"/><text fill="#000000" font-family="sans-serif" font-size="14" lengthAdjust="spacing" text-decoration="underline" textLength="26" x="211.5" y="215.0234">exit</text><ellipse cx="202.5" cy="224.9766" fill="none" rx="3" ry="3" style="stroke:#038048;stroke-width:1.0;"/><text fill="#000000" font-family="sans-serif" font-size="14" lengthAdjust="spacing" text-decoration="underline" textLength="72" x="211.5" y="231.5117">mainMenu</text><ellipse cx="202.5" cy="241.4648" fill="none" rx="3" ry="3" style="stroke:#038048;stroke-width:1.0;"/><text fill="#000000" font-family="sans-serif" font-size="14" lengthAdjust="spacing" text-decoration="underline" textLength="34" x="211.5" y="248">shop</text><ellipse cx="202.5" cy="257.9531" fill="none" rx="3" ry="3" style="stroke:#038048;stroke-width:1.0;"/><text fill="#000000" font-family="sans-serif" font-size="14" lengthAdjust="spacing" text-decoration="underline" textLength="39" x="211.5" y="264.4883">death</text><line style="stroke:#181818;stroke-width:0.5;" x1="192.5" x2="367.5" y1="271.4414" y2="271.4414"/></g></a><!--MD5=[5a7be986edb8b6e9daf78ced986947e2]
reverse link com.javafwp.game.ownTypes to com.javafwp.game.ownTypes.type--><g id="link_com.javafwp.game.ownTypes_com.javafwp.game.ownTypes.type"><path codeLine="21" d="M160.75,101.98 C151.6,116.13 140.82,132.82 130.43,148.89 " fill="none" id="com.javafwp.game.ownTypes-backto-com.javafwp.game.ownTypes.type" style="stroke:#181818;stroke-width:1.0;"/><ellipse cx="164.6043" cy="96.0068" fill="#FFFFFF" rx="8" ry="8" style="stroke:#181818;stroke-width:1.0;"/><line style="stroke:#181818;stroke-width:1.0;" x1="160.2586" x2="168.95" y1="102.7235" y2="89.29"/><line style="stroke:#181818;stroke-width:1.0;" x1="157.8875" x2="171.3211" y1="91.6611" y2="100.3525"/></g><!--MD5=[03a2e62363b578c86b6b02ab7077b8a7]
reverse link com.javafwp.game.ownTypes to com.javafwp.game.ownTypes.gameState--><g id="link_com.javafwp.game.ownTypes_com.javafwp.game.ownTypes.gameState"><path codeLine="22" d="M207.5,101.98 C216.74,116.13 227.63,132.82 238.13,148.89 " fill="none" id="com.javafwp.game.ownTypes-backto-com.javafwp.game.ownTypes.gameState" style="stroke:#181818;stroke-width:1.0;"/><ellipse cx="203.5841" cy="95.9883" fill="#FFFFFF" rx="8" ry="8" style="stroke:#181818;stroke-width:1.0;"/><line style="stroke:#181818;stroke-width:1.0;" x1="207.9582" x2="199.21" y1="102.6866" y2="89.29"/><line style="stroke:#181818;stroke-width:1.0;" x1="196.8858" x2="210.2824" y1="100.3624" y2="91.6142"/></g><rect height="11.7773" style="stroke:#00000000;stroke-width:1.0;fill:none;" width="182" x="98" y="301"/><text fill="#888888" font-family="sans-serif" font-size="10" lengthAdjust="spacing" textLength="182" x="98" y="310.668">UMLDoclet 2.0.17, PlantUML 1.2022.5</text><!--MD5=[50ac8556f2a4a888c6dd54758cb28d4b]
@startuml
    namespace com.javafwp.game {

        class ownTypes [[ownTypes.html]]

        enum com.javafwp.game.ownTypes.type [[ownTypes.type.html]] {
            {static} +enemy
            {static} +plattform
            {static} +player
            {static} +projectile
            {static} +heatbar
        }

        enum com.javafwp.game.ownTypes.gameState [[ownTypes.gameState.html]] {
            {static} +playing
            {static} +exit
            {static} +mainMenu
            {static} +shop
            {static} +death
        }

        ownTypes +- - com.javafwp.game.ownTypes.type
        ownTypes +- - com.javafwp.game.ownTypes.gameState
    }

    center footer UMLDoclet 2.0.17, PlantUML 1.2022.5
@enduml

PlantUML version 1.2022.5(Sat Apr 30 12:55:52 CEST 2022)
(APACHE source distribution)
Java Runtime: OpenJDK Runtime Environment
JVM: OpenJDK 64-Bit Server VM
Default Encoding: UTF-8
Language: en
Country: DE
--></g></svg>