<?xml version="1.0" encoding="UTF-8" standalone="no"?><svg xmlns="http://www.w3.org/2000/svg" xmlns:xlink="http://www.w3.org/1999/xlink" contentStyleType="text/css" height="328px" preserveAspectRatio="none" style="width:376px;height:328px;background:#FFFFFF;" version="1.1" viewBox="0 0 376 328" width="376px" zoomAndPan="magnify"><defs/><g><!--MD5=[9334b56610f7b533e0d872ce578da37f]
cluster com.javafwp.game--><g id="cluster_com.javafwp.game"><path d="M8.5,6 L138.5,6 A3.75,3.75 0 0 1 141,8.5 L148,29.6094 L366.5,29.6094 A2.5,2.5 0 0 1 369,32.1094 L369,299.5 A2.5,2.5 0 0 1 366.5,302 L8.5,302 A2.5,2.5 0 0 1 6,299.5 L6,8.5 A2.5,2.5 0 0 1 8.5,6 " style="stroke:#000000;stroke-width:1.5;fill:none;"/><line style="stroke:#000000;stroke-width:1.5;fill:none;" x1="6" x2="148" y1="29.6094" y2="29.6094"/><text fill="#000000" font-family="sans-serif" font-size="14" font-weight="bold" lengthAdjust="spacing" textLength="129" x="10" y="22.5332">com.javafwp.game</text></g><!--MD5=[e174b7214f093818a5bdbd373e689567]
class com.javafwp.game.ownTypes--><a href="ownTypes.html" target="_top" title="ownTypes.html" xlink:actuate="onRequest" xlink:href="ownTypes.html" xlink:show="new" xlink:title="ownTypes.html" xlink:type="simple"><g id="elem_com.javafwp.game.ownTypes"><rect codeLine="3" fill="#F1F1F1" height="48" id="com.javafwp.game.ownTypes" rx="2.5" ry="2.5" style="stroke:#181818;stroke-width:0.5;" width="96" x="129" y="42"/><ellipse cx="144" cy="58" fill="#ADD1B2" rx="11" ry="11" style="stroke:#181818;stroke-width:1.0;"/><path d="M146.7656,53.875 Q146.9219,53.6563 147.1094,53.5469 Q147.2969,53.4375 147.5156,53.4375 Q147.8906,53.4375 148.125,53.7031 Q148.3594,53.9531 148.3594,54.5625 L148.3594,56.0156 Q148.3594,56.625 148.125,56.8906 Q147.8906,57.1563 147.5156,57.1563 Q147.1719,57.1563 146.9688,56.9531 Q146.7656,56.7656 146.6563,56.25 Q146.6094,55.8906 146.4219,55.7031 Q146.0938,55.3281 145.4844,55.1094 Q144.875,54.8906 144.25,54.8906 Q143.4844,54.8906 142.8438,55.2188 Q142.2188,55.5469 141.7188,56.2969 Q141.2344,57.0469 141.2344,58.0781 L141.2344,59.1719 Q141.2344,60.4063 142.125,61.2344 Q143.0156,62.0469 144.6094,62.0469 Q145.5469,62.0469 146.2031,61.7969 Q146.5938,61.6406 147.0156,61.2031 Q147.2813,60.9375 147.4219,60.8594 Q147.5781,60.7813 147.7813,60.7813 Q148.1094,60.7813 148.3594,61.0469 Q148.625,61.2969 148.625,61.6406 Q148.625,61.9844 148.2813,62.3906 Q147.7813,62.9688 146.9844,63.2969 Q145.9063,63.75 144.6094,63.75 Q143.0938,63.75 141.8906,63.125 Q140.9063,62.625 140.2188,61.5625 Q139.5313,60.4844 139.5313,59.2031 L139.5313,58.0469 Q139.5313,56.7188 140.1406,55.5781 Q140.7656,54.4219 141.8594,53.8125 Q142.9531,53.1875 144.1875,53.1875 Q144.9219,53.1875 145.5625,53.3594 Q146.2188,53.5156 146.7656,53.875 Z " fill="#000000"/><text fill="#000000" font-family="sans-serif" font-size="14" lengthAdjust="spacing" textLength="64" x="158" y="63.7285">ownTypes</text><line style="stroke:#181818;stroke-width:0.5;" x1="130" x2="224" y1="74" y2="74"/><line style="stroke:#181818;stroke-width:0.5;" x1="130" x2="224" y1="82" y2="82"/></g></a><!--MD5=[9d03aacf66eed608561496e864e4daab]
class com.javafwp.game.ownTypes.type--><a href="ownTypes.type.html" target="_top" title="ownTypes.type.html" xlink:actuate="onRequest" xlink:href="ownTypes.type.html" xlink:show="new" xlink:title="ownTypes.type.html" xlink:type="simple"><g id="elem_com.javafwp.game.ownTypes.type"><rect codeLine="5" fill="#F1F1F1" height="136.0469" id="com.javafwp.game.ownTypes.type" rx="2.5" ry="2.5" style="stroke:#181818;stroke-width:0.5;" width="127" x="22.5" y="150"/><ellipse cx="37.5" cy="166" fill="#EB937F" rx="11" ry="11" style="stroke:#181818;stroke-width:1.0;"/><path d="M36.3594,166.7969 L36.3594,169.2969 L40.6875,169.2969 L40.6875,168.375 Q40.6875,167.7656 40.9219,167.5 Q41.1719,167.2344 41.5469,167.2344 Q41.9219,167.2344 42.1563,167.5 Q42.3906,167.7656 42.3906,168.375 L42.3906,171 L34.3906,171 Q33.7656,171 33.5,170.7656 Q33.25,170.5313 33.25,170.1406 Q33.25,169.7656 33.5156,169.5313 Q33.7813,169.2969 34.3906,169.2969 L34.6563,169.2969 L34.6563,162.6406 L34.3906,162.6406 Q33.7656,162.6406 33.5,162.4063 Q33.25,162.1719 33.25,161.7813 Q33.25,161.4063 33.5,161.1719 Q33.7656,160.9375 34.3906,160.9375 L42.0156,160.9375 L42.0156,163.5313 Q42.0156,164.1406 41.7813,164.4063 Q41.5625,164.6563 41.1719,164.6563 Q40.7969,164.6563 40.5625,164.4063 Q40.3281,164.1406 40.3281,163.5313 L40.3281,162.6406 L36.3594,162.6406 L36.3594,165.0938 L37.8438,165.0938 Q37.8438,164.4375 37.9688,164.25 Q38.2344,163.8438 38.7031,163.8438 Q39.0781,163.8438 39.3125,164.1094 Q39.5469,164.3594 39.5469,164.9688 L39.5469,166.9375 Q39.5469,167.4844 39.4219,167.6719 Q39.1563,168.0625 38.7031,168.0625 Q38.2344,168.0625 37.9688,167.6563 Q37.8438,167.4688 37.8438,166.7969 L36.3594,166.7969 Z " fill="#000000"/><text fill="#000000" font-family="sans-serif" font-size="14" lengthAdjust="spacing" textLength="95" x="51.5" y="171.7285">ownTypes.type</text><line style="stroke:#181818;stroke-width:0.5;" x1="23.5" x2="148.5" y1="182" y2="182"/><ellipse cx="33.5" cy="193" fill="none" rx="3" ry="3" style="stroke:#038048;stroke-width:1.0;"/><text fill="#000000" font-family="sans-serif" font-size="14" lengthAdjust="spacing" text-decoration="underline" textLength="42" x="42.5" y="200.5332">enemy</text><ellipse cx="33.5" cy="210.6094" fill="none" rx="3" ry="3" style="stroke:#038048;stroke-width:1.0;"/><text fill="#000000" font-family="sans-serif" font-size="14" lengthAdjust="spacing" text-decoration="underline" textLength="55" x="42.5" y="218.1426">plattform</text><ellipse cx="33.5" cy="228.2188" fill="none" rx="3" ry="3" style="stroke:#038048;stroke-width:1.0;"/><text fill="#000000" font-family="sans-serif" font-size="14" lengthAdjust="spacing" text-decoration="underline" textLength="39" x="42.5" y="235.752">player</text><ellipse cx="33.5" cy="245.8281" fill="none" rx="3" ry="3" style="stroke:#038048;stroke-width:1.0;"/><text fill="#000000" font-family="sans-serif" font-size="14" lengthAdjust="spacing" text-decoration="underline" textLength="57" x="42.5" y="253.3613">projectile</text><ellipse cx="33.5" cy="263.4375" fill="none" rx="3" ry="3" style="stroke:#038048;stroke-width:1.0;"/><text fill="#000000" font-family="sans-serif" font-size="14" lengthAdjust="spacing" text-decoration="underline" textLength="49" x="42.5" y="270.9707">heatbar</text><line style="stroke:#181818;stroke-width:0.5;" x1="23.5" x2="148.5" y1="278.0469" y2="278.0469"/></g></a><!--MD5=[e1d1e35cbe993f7cdb5596ceeae21108]
class com.javafwp.game.ownTypes.gameState--><a href="ownTypes.gameState.html" target="_top" title="ownTypes.gameState.html" xlink:actuate="onRequest" xlink:href="ownTypes.gameState.html" xlink:show="new" xlink:title="ownTypes.gameState.html" xlink:type="simple"><g id="elem_com.javafwp.game.ownTypes.gameState"><rect codeLine="13" fill="#F1F1F1" height="136.0469" id="com.javafwp.game.ownTypes.gameState" rx="2.5" ry="2.5" style="stroke:#181818;stroke-width:0.5;" width="168" x="185" y="150"/><ellipse cx="200" cy="166" fill="#EB937F" rx="11" ry="11" style="stroke:#181818;stroke-width:1.0;"/><path d="M198.8594,166.7969 L198.8594,169.2969 L203.1875,169.2969 L203.1875,168.375 Q203.1875,167.7656 203.4219,167.5 Q203.6719,167.2344 204.0469,167.2344 Q204.4219,167.2344 204.6563,167.5 Q204.8906,167.7656 204.8906,168.375 L204.8906,171 L196.8906,171 Q196.2656,171 196,170.7656 Q195.75,170.5313 195.75,170.1406 Q195.75,169.7656 196.0156,169.5313 Q196.2813,169.2969 196.8906,169.2969 L197.1563,169.2969 L197.1563,162.6406 L196.8906,162.6406 Q196.2656,162.6406 196,162.4063 Q195.75,162.1719 195.75,161.7813 Q195.75,161.4063 196,161.1719 Q196.2656,160.9375 196.8906,160.9375 L204.5156,160.9375 L204.5156,163.5313 Q204.5156,164.1406 204.2813,164.4063 Q204.0625,164.6563 203.6719,164.6563 Q203.2969,164.6563 203.0625,164.4063 Q202.8281,164.1406 202.8281,163.5313 L202.8281,162.6406 L198.8594,162.6406 L198.8594,165.0938 L200.3438,165.0938 Q200.3438,164.4375 200.4688,164.25 Q200.7344,163.8438 201.2031,163.8438 Q201.5781,163.8438 201.8125,164.1094 Q202.0469,164.3594 202.0469,164.9688 L202.0469,166.9375 Q202.0469,167.4844 201.9219,167.6719 Q201.6563,168.0625 201.2031,168.0625 Q200.7344,168.0625 200.4688,167.6563 Q200.3438,167.4688 200.3438,166.7969 L198.8594,166.7969 Z " fill="#000000"/><text fill="#000000" font-family="sans-serif" font-size="14" lengthAdjust="spacing" textLength="136" x="214" y="171.7285">ownTypes.gameState</text><line style="stroke:#181818;stroke-width:0.5;" x1="186" x2="352" y1="182" y2="182"/><ellipse cx="196" cy="193" fill="none" rx="3" ry="3" style="stroke:#038048;stroke-width:1.0;"/><text fill="#000000" font-family="sans-serif" font-size="14" lengthAdjust="spacing" text-decoration="underline" textLength="45" x="205" y="200.5332">playing</text><ellipse cx="196" cy="210.6094" fill="none" rx="3" ry="3" style="stroke:#038048;stroke-width:1.0;"/><text fill="#000000" font-family="sans-serif" font-size="14" lengthAdjust="spacing" text-decoration="underline" textLength="21" x="205" y="218.1426">exit</text><ellipse cx="196" cy="228.2188" fill="none" rx="3" ry="3" style="stroke:#038048;stroke-width:1.0;"/><text fill="#000000" font-family="sans-serif" font-size="14" lengthAdjust="spacing" text-decoration="underline" textLength="65" x="205" y="235.752">mainMenu</text><ellipse cx="196" cy="245.8281" fill="none" rx="3" ry="3" style="stroke:#038048;stroke-width:1.0;"/><text fill="#000000" font-family="sans-serif" font-size="14" lengthAdjust="spacing" text-decoration="underline" textLength="31" x="205" y="253.3613">shop</text><ellipse cx="196" cy="263.4375" fill="none" rx="3" ry="3" style="stroke:#038048;stroke-width:1.0;"/><text fill="#000000" font-family="sans-serif" font-size="14" lengthAdjust="spacing" text-decoration="underline" textLength="36" x="205" y="270.9707">death</text><line style="stroke:#181818;stroke-width:0.5;" x1="186" x2="352" y1="278.0469" y2="278.0469"/></g></a><!--MD5=[5a7be986edb8b6e9daf78ced986947e2]
reverse link com.javafwp.game.ownTypes to com.javafwp.game.ownTypes.type--><g id="link_com.javafwp.game.ownTypes_com.javafwp.game.ownTypes.type"><path codeLine="21" d="M155.05,103.18 C146.55,117.19 136.53,133.7 126.81,149.74 " fill="none" id="com.javafwp.game.ownTypes-backto-com.javafwp.game.ownTypes.type" style="stroke:#181818;stroke-width:1.0;"/><ellipse cx="158.8294" cy="96.949" fill="#FFFFFF" rx="8" ry="8" style="stroke:#181818;stroke-width:1.0;"/><line style="stroke:#181818;stroke-width:1.0;" x1="154.6787" x2="162.98" y1="103.788" y2="90.11"/><line style="stroke:#181818;stroke-width:1.0;" x1="151.9903" x2="165.6684" y1="92.7984" y2="101.0997"/></g><!--MD5=[03a2e62363b578c86b6b02ab7077b8a7]
reverse link com.javafwp.game.ownTypes to com.javafwp.game.ownTypes.gameState--><g id="link_com.javafwp.game.ownTypes_com.javafwp.game.ownTypes.gameState"><path codeLine="22" d="M199.19,103.18 C207.79,117.19 217.91,133.7 227.74,149.74 " fill="none" id="com.javafwp.game.ownTypes-backto-com.javafwp.game.ownTypes.gameState" style="stroke:#181818;stroke-width:1.0;"/><ellipse cx="195.353" cy="96.9293" fill="#FFFFFF" rx="8" ry="8" style="stroke:#181818;stroke-width:1.0;"/><line style="stroke:#181818;stroke-width:1.0;" x1="199.536" x2="191.17" y1="103.7486" y2="90.11"/><line style="stroke:#181818;stroke-width:1.0;" x1="188.5337" x2="202.1723" y1="101.1123" y2="92.7463"/></g><rect height="12.5781" style="stroke:#00000000;stroke-width:1.0;fill:none;" width="184" x="89" y="308"/><text fill="#888888" font-family="sans-serif" font-size="10" lengthAdjust="spacing" textLength="184" x="89" y="318.3809">UMLDoclet 2.0.17, PlantUML 1.2022.5</text><!--MD5=[9830b2dc40e7313296f32dadc9b3ad44]
@startuml
    namespace com.javafwp.game {

        class ownTypes [[ownTypes.html]]

        enum com.javafwp.game.ownTypes.type [[ownTypes.type.html]] {
            {static} +enemy
            {static} +plattform
            {static} +player
            {static} +projectile
            {static} +heatbar
        }

        enum com.javafwp.game.ownTypes.gameState [[ownTypes.gameState.html]] {
            {static} +playing
            {static} +exit
            {static} +mainMenu
            {static} +shop
            {static} +death
        }

        ownTypes +- - com.javafwp.game.ownTypes.type
        ownTypes +- - com.javafwp.game.ownTypes.gameState
    }

    center footer UMLDoclet 2.0.17, PlantUML 1.2022.5
@enduml

PlantUML version 1.2022.5(Sat Apr 30 12:55:52 CEST 2022)
(APACHE source distribution)
Java Runtime: Java(TM) SE Runtime Environment
JVM: Java HotSpot(TM) 64-Bit Server VM
Default Encoding: UTF-8
Language: de
Country: DE
--></g></svg>