<?xml version="1.0" encoding="UTF-8" standalone="no"?><svg xmlns="http://www.w3.org/2000/svg" xmlns:xlink="http://www.w3.org/1999/xlink" contentStyleType="text/css" height="250px" preserveAspectRatio="none" style="width:363px;height:250px;background:#FFFFFF;" version="1.1" viewBox="0 0 363 250" width="363px" zoomAndPan="magnify"><defs/><g><!--MD5=[ca79aaa1282f122ae0b3da71cb21bd2b]
class com.javafwp.game.gameObjects.enemy--><a href="enemy.html" target="_top" title="enemy.html" xlink:actuate="onRequest" xlink:href="enemy.html" xlink:show="new" xlink:title="enemy.html" xlink:type="simple"><g id="elem_com.javafwp.game.gameObjects.enemy"><rect codeLine="5" fill="#F1F1F1" height="120.2188" id="com.javafwp.game.gameObjects.enemy" rx="2.5" ry="2.5" style="stroke:#181818;stroke-width:0.5;" width="349" x="7" y="105"/><ellipse cx="98.25" cy="124.1328" fill="#ADD1B2" rx="11" ry="11" style="stroke:#181818;stroke-width:1.0;"/><path d="M100.7231,130.2759 Q100.1421,130.5747 99.5029,130.7241 Q98.8638,130.8735 98.1582,130.8735 Q95.6514,130.8735 94.3315,129.2217 Q93.0117,127.5698 93.0117,124.4487 Q93.0117,121.3193 94.3315,119.6675 Q95.6514,118.0156 98.1582,118.0156 Q98.8638,118.0156 99.5112,118.165 Q100.1587,118.3145 100.7231,118.6133 L100.7231,121.3359 Q100.0923,120.7549 99.4988,120.4851 Q98.9053,120.2153 98.2744,120.2153 Q96.9297,120.2153 96.2449,121.282 Q95.5601,122.3486 95.5601,124.4487 Q95.5601,126.5405 96.2449,127.6072 Q96.9297,128.6738 98.2744,128.6738 Q98.9053,128.6738 99.4988,128.4041 Q100.0923,128.1343 100.7231,127.5532 Z " fill="#000000"/><text fill="#000000" font-family="sans-serif" font-size="14" lengthAdjust="spacing" textLength="45" x="175.25" y="123.5352">enemy</text><text fill="#000000" font-family="sans-serif" font-size="10" lengthAdjust="spacing" textLength="158" x="118.75" y="136.1563">com.javafwp.game.gameObjects</text><line style="stroke:#181818;stroke-width:0.5;" x1="8" x2="355" y1="143.2656" y2="143.2656"/><rect fill="none" height="6" style="stroke:#C82930;stroke-width:1.0;" width="6" x="15" y="151.2656"/><text fill="#000000" font-family="sans-serif" font-size="14" lengthAdjust="spacing" textLength="99" x="27" y="160.8008">frames: Paint[]</text><rect fill="none" height="6" style="stroke:#C82930;stroke-width:1.0;" width="6" x="15" y="167.7539"/><text fill="#000000" font-family="sans-serif" font-size="14" lengthAdjust="spacing" textLength="151" x="27" y="177.2891">animationCounter: int</text><line style="stroke:#181818;stroke-width:0.5;" x1="8" x2="355" y1="184.2422" y2="184.2422"/><ellipse cx="18" cy="195.2422" fill="#84BE84" rx="3" ry="3" style="stroke:#038048;stroke-width:1.0;"/><text fill="#000000" font-family="sans-serif" font-size="14" lengthAdjust="spacing" textLength="323" x="27" y="201.7773">enemy(double, double, double, double, Paint[])</text><ellipse cx="18" cy="211.7305" fill="#84BE84" rx="3" ry="3" style="stroke:#038048;stroke-width:1.0;"/><text fill="#000000" font-family="sans-serif" font-size="14" lengthAdjust="spacing" textLength="244" x="27" y="218.2656">update(long, Point2D, double): void</text></g></a><!--MD5=[dd8580933f1f6111db5293a82719d5d7]
class com.javafwp.game.gameObjects.object--><a href="object.html" target="_top" title="object.html" xlink:actuate="onRequest" xlink:href="object.html" xlink:show="new" xlink:title="object.html" xlink:type="simple"><g id="elem_com.javafwp.game.gameObjects.object"><rect codeLine="12" fill="#F1F1F1" height="38.2656" id="com.javafwp.game.gameObjects.object" rx="2.5" ry="2.5" style="stroke:#181818;stroke-width:0.5;" width="190" x="86.5" y="7"/><ellipse cx="101.5" cy="26.1328" fill="#ADD1B2" rx="11" ry="11" style="stroke:#181818;stroke-width:1.0;"/><path d="M103.9731,32.2759 Q103.3921,32.5747 102.7529,32.7241 Q102.1138,32.8735 101.4082,32.8735 Q98.9014,32.8735 97.5815,31.2217 Q96.2617,29.5698 96.2617,26.4487 Q96.2617,23.3193 97.5815,21.6675 Q98.9014,20.0156 101.4082,20.0156 Q102.1138,20.0156 102.7612,20.165 Q103.4087,20.3145 103.9731,20.6133 L103.9731,23.3359 Q103.3423,22.7549 102.7488,22.4851 Q102.1553,22.2153 101.5244,22.2153 Q100.1797,22.2153 99.4949,23.282 Q98.8101,24.3486 98.8101,26.4487 Q98.8101,28.5405 99.4949,29.6072 Q100.1797,30.6738 101.5244,30.6738 Q102.1553,30.6738 102.7488,30.4041 Q103.3423,30.1343 103.9731,29.5532 Z " fill="#000000"/><text fill="#000000" font-family="sans-serif" font-size="14" lengthAdjust="spacing" textLength="42" x="173.5" y="25.5352">object</text><text fill="#000000" font-family="sans-serif" font-size="10" lengthAdjust="spacing" textLength="158" x="115.5" y="38.1563">com.javafwp.game.gameObjects</text></g></a><!--MD5=[3cf209fab41f469536c55954326f5ce9]
reverse link com.javafwp.game.gameObjects.object to com.javafwp.game.gameObjects.enemy--><g id="link_com.javafwp.game.gameObjects.object_com.javafwp.game.gameObjects.enemy"><path codeLine="14" d="M181.5,65.53 C181.5,77.7 181.5,91.44 181.5,104.71 " fill="none" id="com.javafwp.game.gameObjects.object-backto-com.javafwp.game.gameObjects.enemy" style="stroke:#181818;stroke-width:1.0;"/><polygon fill="none" points="174.5,65.19,181.5,45.19,188.5,65.19,174.5,65.19" style="stroke:#181818;stroke-width:1.0;"/></g><rect height="11.7773" style="stroke:#00000000;stroke-width:1.0;fill:none;" width="182" x="83.5" y="231.2188"/><text fill="#888888" font-family="sans-serif" font-size="10" lengthAdjust="spacing" textLength="182" x="83.5" y="240.8867">UMLDoclet 2.0.17, PlantUML 1.2022.5</text><!--MD5=[321c2ef1b9fe07130be0e82de7b41859]
@startuml
    set namespaceSeparator none
    hide empty fields
    hide empty methods

    class "<size:14>enemy\n<size:10>com.javafwp.game.gameObjects" as com.javafwp.game.gameObjects.enemy [[enemy.html]] {
        -frames: Paint[]
        -animationCounter: int
        +enemy(double, double, double, double, Paint[])
        +update(long, Point2D, double): void
    }

    class "<size:14>object\n<size:10>com.javafwp.game.gameObjects" as com.javafwp.game.gameObjects.object [[object.html]]

    com.javafwp.game.gameObjects.object <|- - com.javafwp.game.gameObjects.enemy

    center footer UMLDoclet 2.0.17, PlantUML 1.2022.5
@enduml

PlantUML version 1.2022.5(Sat Apr 30 12:55:52 CEST 2022)
(APACHE source distribution)
Java Runtime: OpenJDK Runtime Environment
JVM: OpenJDK 64-Bit Server VM
Default Encoding: UTF-8
Language: en
Country: DE
--></g></svg>