<?xml version="1.0" encoding="UTF-8" standalone="no"?><svg xmlns="http://www.w3.org/2000/svg" xmlns:xlink="http://www.w3.org/1999/xlink" contentStyleType="text/css" height="260px" preserveAspectRatio="none" style="width:336px;height:260px;background:#FFFFFF;" version="1.1" viewBox="0 0 336 260" width="336px" zoomAndPan="magnify"><defs/><g><!--MD5=[ca79aaa1282f122ae0b3da71cb21bd2b]
class com.javafwp.game.gameObjects.enemy--><a href="enemy.html" target="_top" title="enemy.html" xlink:actuate="onRequest" xlink:href="enemy.html" xlink:show="new" xlink:title="enemy.html" xlink:type="simple"><g id="elem_com.javafwp.game.gameObjects.enemy"><rect codeLine="5" fill="#F1F1F1" height="126.625" id="com.javafwp.game.gameObjects.enemy" rx="2.5" ry="2.5" style="stroke:#181818;stroke-width:0.5;" width="322" x="7" y="107"/><ellipse cx="85.75" cy="127.0938" fill="#ADD1B2" rx="11" ry="11" style="stroke:#181818;stroke-width:1.0;"/><path d="M88.5156,122.9688 Q88.6719,122.75 88.8594,122.6406 Q89.0469,122.5313 89.2656,122.5313 Q89.6406,122.5313 89.875,122.7969 Q90.1094,123.0469 90.1094,123.6563 L90.1094,125.1094 Q90.1094,125.7188 89.875,125.9844 Q89.6406,126.25 89.2656,126.25 Q88.9219,126.25 88.7188,126.0469 Q88.5156,125.8594 88.4063,125.3438 Q88.3594,124.9844 88.1719,124.7969 Q87.8438,124.4219 87.2344,124.2031 Q86.625,123.9844 86,123.9844 Q85.2344,123.9844 84.5938,124.3125 Q83.9688,124.6406 83.4688,125.3906 Q82.9844,126.1406 82.9844,127.1719 L82.9844,128.2656 Q82.9844,129.5 83.875,130.3281 Q84.7656,131.1406 86.3594,131.1406 Q87.2969,131.1406 87.9531,130.8906 Q88.3438,130.7344 88.7656,130.2969 Q89.0313,130.0313 89.1719,129.9531 Q89.3281,129.875 89.5313,129.875 Q89.8594,129.875 90.1094,130.1406 Q90.375,130.3906 90.375,130.7344 Q90.375,131.0781 90.0313,131.4844 Q89.5313,132.0625 88.7344,132.3906 Q87.6563,132.8438 86.3594,132.8438 Q84.8438,132.8438 83.6406,132.2188 Q82.6563,131.7188 81.9688,130.6563 Q81.2813,129.5781 81.2813,128.2969 L81.2813,127.1406 Q81.2813,125.8125 81.8906,124.6719 Q82.5156,123.5156 83.6094,122.9063 Q84.7031,122.2813 85.9375,122.2813 Q86.6719,122.2813 87.3125,122.4531 Q87.9688,122.6094 88.5156,122.9688 Z " fill="#000000"/><text fill="#000000" font-family="sans-serif" font-size="14" lengthAdjust="spacing" textLength="42" x="163.25" y="126.5332">enemy</text><text fill="#000000" font-family="sans-serif" font-size="10" lengthAdjust="spacing" textLength="156" x="106.25" y="139.9902">com.javafwp.game.gameObjects</text><line style="stroke:#181818;stroke-width:0.5;" x1="8" x2="328" y1="147.1875" y2="147.1875"/><rect fill="none" height="6" style="stroke:#C82930;stroke-width:1.0;" width="6" x="15" y="155.1875"/><text fill="#000000" font-family="sans-serif" font-size="14" lengthAdjust="spacing" textLength="91" x="27" y="165.7207">frames: Paint[]</text><rect fill="none" height="6" style="stroke:#C82930;stroke-width:1.0;" width="6" x="15" y="172.7969"/><text fill="#000000" font-family="sans-serif" font-size="14" lengthAdjust="spacing" textLength="135" x="27" y="183.3301">animationCounter: int</text><line style="stroke:#181818;stroke-width:0.5;" x1="8" x2="328" y1="190.4063" y2="190.4063"/><ellipse cx="18" cy="201.4063" fill="#84BE84" rx="3" ry="3" style="stroke:#038048;stroke-width:1.0;"/><text fill="#000000" font-family="sans-serif" font-size="14" lengthAdjust="spacing" textLength="296" x="27" y="208.9395">enemy(double, double, double, double, Paint[])</text><ellipse cx="18" cy="219.0156" fill="#84BE84" rx="3" ry="3" style="stroke:#038048;stroke-width:1.0;"/><text fill="#000000" font-family="sans-serif" font-size="14" lengthAdjust="spacing" textLength="224" x="27" y="226.5488">update(long, Point2D, double): void</text></g></a><!--MD5=[dd8580933f1f6111db5293a82719d5d7]
class com.javafwp.game.gameObjects.object--><a href="object.html" target="_top" title="object.html" xlink:actuate="onRequest" xlink:href="object.html" xlink:show="new" xlink:title="object.html" xlink:type="simple"><g id="elem_com.javafwp.game.gameObjects.object"><rect codeLine="12" fill="#F1F1F1" height="40.1875" id="com.javafwp.game.gameObjects.object" rx="2.5" ry="2.5" style="stroke:#181818;stroke-width:0.5;" width="188" x="74" y="7"/><ellipse cx="89" cy="27.0938" fill="#ADD1B2" rx="11" ry="11" style="stroke:#181818;stroke-width:1.0;"/><path d="M91.7656,22.9688 Q91.9219,22.75 92.1094,22.6406 Q92.2969,22.5313 92.5156,22.5313 Q92.8906,22.5313 93.125,22.7969 Q93.3594,23.0469 93.3594,23.6563 L93.3594,25.1094 Q93.3594,25.7188 93.125,25.9844 Q92.8906,26.25 92.5156,26.25 Q92.1719,26.25 91.9688,26.0469 Q91.7656,25.8594 91.6563,25.3438 Q91.6094,24.9844 91.4219,24.7969 Q91.0938,24.4219 90.4844,24.2031 Q89.875,23.9844 89.25,23.9844 Q88.4844,23.9844 87.8438,24.3125 Q87.2188,24.6406 86.7188,25.3906 Q86.2344,26.1406 86.2344,27.1719 L86.2344,28.2656 Q86.2344,29.5 87.125,30.3281 Q88.0156,31.1406 89.6094,31.1406 Q90.5469,31.1406 91.2031,30.8906 Q91.5938,30.7344 92.0156,30.2969 Q92.2813,30.0313 92.4219,29.9531 Q92.5781,29.875 92.7813,29.875 Q93.1094,29.875 93.3594,30.1406 Q93.625,30.3906 93.625,30.7344 Q93.625,31.0781 93.2813,31.4844 Q92.7813,32.0625 91.9844,32.3906 Q90.9063,32.8438 89.6094,32.8438 Q88.0938,32.8438 86.8906,32.2188 Q85.9063,31.7188 85.2188,30.6563 Q84.5313,29.5781 84.5313,28.2969 L84.5313,27.1406 Q84.5313,25.8125 85.1406,24.6719 Q85.7656,23.5156 86.8594,22.9063 Q87.9531,22.2813 89.1875,22.2813 Q89.9219,22.2813 90.5625,22.4531 Q91.2188,22.6094 91.7656,22.9688 Z " fill="#000000"/><text fill="#000000" font-family="sans-serif" font-size="14" lengthAdjust="spacing" textLength="38" x="162" y="26.5332">object</text><text fill="#000000" font-family="sans-serif" font-size="10" lengthAdjust="spacing" textLength="156" x="103" y="39.9902">com.javafwp.game.gameObjects</text></g></a><!--MD5=[3cf209fab41f469536c55954326f5ce9]
reverse link com.javafwp.game.gameObjects.object to com.javafwp.game.gameObjects.enemy--><g id="link_com.javafwp.game.gameObjects.object_com.javafwp.game.gameObjects.enemy"><path codeLine="14" d="M168,67.1 C168,79.43 168,93.38 168,106.92 " fill="none" id="com.javafwp.game.gameObjects.object-backto-com.javafwp.game.gameObjects.enemy" style="stroke:#181818;stroke-width:1.0;"/><polygon fill="none" points="161,67.08,168,47.08,175,67.08,161,67.08" style="stroke:#181818;stroke-width:1.0;"/></g><rect height="12.5781" style="stroke:#00000000;stroke-width:1.0;fill:none;" width="184" x="69" y="239.625"/><text fill="#888888" font-family="sans-serif" font-size="10" lengthAdjust="spacing" textLength="184" x="69" y="250.0059">UMLDoclet 2.0.17, PlantUML 1.2022.5</text><!--MD5=[0745ecac18c8245fc9a413f0e9c34598]
@startuml
    set namespaceSeparator none
    hide empty fields
    hide empty methods

    class "<size:14>enemy\n<size:10>com.javafwp.game.gameObjects" as com.javafwp.game.gameObjects.enemy [[enemy.html]] {
        -frames: Paint[]
        -animationCounter: int
        +enemy(double, double, double, double, Paint[])
        +update(long, Point2D, double): void
    }

    class "<size:14>object\n<size:10>com.javafwp.game.gameObjects" as com.javafwp.game.gameObjects.object [[object.html]]

    com.javafwp.game.gameObjects.object <|- - com.javafwp.game.gameObjects.enemy

    center footer UMLDoclet 2.0.17, PlantUML 1.2022.5
@enduml

PlantUML version 1.2022.5(Sat Apr 30 12:55:52 CEST 2022)
(APACHE source distribution)
Java Runtime: Java(TM) SE Runtime Environment
JVM: Java HotSpot(TM) 64-Bit Server VM
Default Encoding: UTF-8
Language: de
Country: DE
--></g></svg>