<?xml version="1.0" encoding="UTF-8" standalone="no"?><svg xmlns="http://www.w3.org/2000/svg" xmlns:xlink="http://www.w3.org/1999/xlink" contentStyleType="text/css" height="330px" preserveAspectRatio="none" style="width:380px;height:330px;background:#FFFFFF;" version="1.1" viewBox="0 0 380 330" width="380px" zoomAndPan="magnify"><defs/><g><!--MD5=[36f375faf5f4e536bf66284629f927d2]
class com.javafwp.game.gameObjects.Heatbar--><a href="heatbar.html" target="_top" title="heatbar.html" xlink:actuate="onRequest" xlink:href="heatbar.html" xlink:show="new" xlink:title="heatbar.html" xlink:type="simple"><g id="elem_com.javafwp.game.gameObjects.Heatbar"><rect codeLine="5" fill="#F1F1F1" height="197.0625" id="com.javafwp.game.gameObjects.Heatbar" rx="2.5" ry="2.5" style="stroke:#181818;stroke-width:0.5;" width="366" x="7" y="107"/><ellipse cx="107.75" cy="127.0938" fill="#ADD1B2" rx="11" ry="11" style="stroke:#181818;stroke-width:1.0;"/><path d="M110.5156,122.9688 Q110.6719,122.75 110.8594,122.6406 Q111.0469,122.5313 111.2656,122.5313 Q111.6406,122.5313 111.875,122.7969 Q112.1094,123.0469 112.1094,123.6563 L112.1094,125.1094 Q112.1094,125.7188 111.875,125.9844 Q111.6406,126.25 111.2656,126.25 Q110.9219,126.25 110.7188,126.0469 Q110.5156,125.8594 110.4063,125.3438 Q110.3594,124.9844 110.1719,124.7969 Q109.8438,124.4219 109.2344,124.2031 Q108.625,123.9844 108,123.9844 Q107.2344,123.9844 106.5938,124.3125 Q105.9688,124.6406 105.4688,125.3906 Q104.9844,126.1406 104.9844,127.1719 L104.9844,128.2656 Q104.9844,129.5 105.875,130.3281 Q106.7656,131.1406 108.3594,131.1406 Q109.2969,131.1406 109.9531,130.8906 Q110.3438,130.7344 110.7656,130.2969 Q111.0313,130.0313 111.1719,129.9531 Q111.3281,129.875 111.5313,129.875 Q111.8594,129.875 112.1094,130.1406 Q112.375,130.3906 112.375,130.7344 Q112.375,131.0781 112.0313,131.4844 Q111.5313,132.0625 110.7344,132.3906 Q109.6563,132.8438 108.3594,132.8438 Q106.8438,132.8438 105.6406,132.2188 Q104.6563,131.7188 103.9688,130.6563 Q103.2813,129.5781 103.2813,128.2969 L103.2813,127.1406 Q103.2813,125.8125 103.8906,124.6719 Q104.5156,123.5156 105.6094,122.9063 Q106.7031,122.2813 107.9375,122.2813 Q108.6719,122.2813 109.3125,122.4531 Q109.9688,122.6094 110.5156,122.9688 Z " fill="#000000"/><text fill="#000000" font-family="sans-serif" font-size="14" lengthAdjust="spacing" textLength="50" x="181.25" y="126.5332">Heatbar</text><text fill="#000000" font-family="sans-serif" font-size="10" lengthAdjust="spacing" textLength="156" x="128.25" y="139.9902">com.javafwp.game.gameObjects</text><line style="stroke:#181818;stroke-width:0.5;" x1="8" x2="372" y1="147.1875" y2="147.1875"/><rect fill="none" height="6" style="stroke:#C82930;stroke-width:1.0;" width="6" x="15" y="155.1875"/><text fill="#000000" font-family="sans-serif" font-size="14" lengthAdjust="spacing" textLength="104" x="27" y="165.7207">heatColor: Color</text><rect fill="none" height="6" style="stroke:#C82930;stroke-width:1.0;" width="6" x="15" y="172.7969"/><text fill="#000000" font-family="sans-serif" font-size="14" lengthAdjust="spacing" textLength="100" x="27" y="183.3301">heat: Rectangle</text><rect fill="none" height="6" style="stroke:#C82930;stroke-width:1.0;" width="6" x="15" y="190.4063"/><text fill="#000000" font-family="sans-serif" font-size="14" lengthAdjust="spacing" textLength="97" x="27" y="200.9395">currentHeat: int</text><line style="stroke:#181818;stroke-width:0.5;" x1="8" x2="372" y1="208.0156" y2="208.0156"/><ellipse cx="18" cy="219.0156" fill="#84BE84" rx="3" ry="3" style="stroke:#038048;stroke-width:1.0;"/><text fill="#000000" font-family="sans-serif" font-size="14" lengthAdjust="spacing" textLength="340" x="27" y="226.5488">Heatbar(double, double, double, double, Color, Color)</text><ellipse cx="18" cy="236.625" fill="#84BE84" rx="3" ry="3" style="stroke:#038048;stroke-width:1.0;"/><text fill="#000000" font-family="sans-serif" font-size="14" lengthAdjust="spacing" textLength="131" x="27" y="244.1582">update(double): void</text><ellipse cx="18" cy="254.2344" fill="#84BE84" rx="3" ry="3" style="stroke:#038048;stroke-width:1.0;"/><text fill="#000000" font-family="sans-serif" font-size="14" lengthAdjust="spacing" textLength="137" x="27" y="261.7676">addHeat(int): boolean</text><ellipse cx="18" cy="271.8438" fill="#84BE84" rx="3" ry="3" style="stroke:#038048;stroke-width:1.0;"/><text fill="#000000" font-family="sans-serif" font-size="14" lengthAdjust="spacing" textLength="76" x="27" y="279.377">reset(): void</text><ellipse cx="18" cy="289.4531" fill="#84BE84" rx="3" ry="3" style="stroke:#038048;stroke-width:1.0;"/><text fill="#000000" font-family="sans-serif" font-size="14" lengthAdjust="spacing" textLength="125" x="27" y="296.9863">getEntities(): Node[]</text></g></a><!--MD5=[b02cf880865a9d0ac01b799707008f51]
class com.javafwp.game.gameObjects.Object--><a href="object.html" target="_top" title="object.html" xlink:actuate="onRequest" xlink:href="object.html" xlink:show="new" xlink:title="object.html" xlink:type="simple"><g id="elem_com.javafwp.game.gameObjects.Object"><rect codeLine="16" fill="#F1F1F1" height="40.1875" id="com.javafwp.game.gameObjects.Object" rx="2.5" ry="2.5" style="stroke:#181818;stroke-width:0.5;" width="188" x="96" y="7"/><ellipse cx="111" cy="27.0938" fill="#ADD1B2" rx="11" ry="11" style="stroke:#181818;stroke-width:1.0;"/><path d="M113.7656,22.9688 Q113.9219,22.75 114.1094,22.6406 Q114.2969,22.5313 114.5156,22.5313 Q114.8906,22.5313 115.125,22.7969 Q115.3594,23.0469 115.3594,23.6563 L115.3594,25.1094 Q115.3594,25.7188 115.125,25.9844 Q114.8906,26.25 114.5156,26.25 Q114.1719,26.25 113.9688,26.0469 Q113.7656,25.8594 113.6563,25.3438 Q113.6094,24.9844 113.4219,24.7969 Q113.0938,24.4219 112.4844,24.2031 Q111.875,23.9844 111.25,23.9844 Q110.4844,23.9844 109.8438,24.3125 Q109.2188,24.6406 108.7188,25.3906 Q108.2344,26.1406 108.2344,27.1719 L108.2344,28.2656 Q108.2344,29.5 109.125,30.3281 Q110.0156,31.1406 111.6094,31.1406 Q112.5469,31.1406 113.2031,30.8906 Q113.5938,30.7344 114.0156,30.2969 Q114.2813,30.0313 114.4219,29.9531 Q114.5781,29.875 114.7813,29.875 Q115.1094,29.875 115.3594,30.1406 Q115.625,30.3906 115.625,30.7344 Q115.625,31.0781 115.2813,31.4844 Q114.7813,32.0625 113.9844,32.3906 Q112.9063,32.8438 111.6094,32.8438 Q110.0938,32.8438 108.8906,32.2188 Q107.9063,31.7188 107.2188,30.6563 Q106.5313,29.5781 106.5313,28.2969 L106.5313,27.1406 Q106.5313,25.8125 107.1406,24.6719 Q107.7656,23.5156 108.8594,22.9063 Q109.9531,22.2813 111.1875,22.2813 Q111.9219,22.2813 112.5625,22.4531 Q113.2188,22.6094 113.7656,22.9688 Z " fill="#000000"/><text fill="#000000" font-family="sans-serif" font-size="14" lengthAdjust="spacing" textLength="41" x="182.5" y="26.5332">Object</text><text fill="#000000" font-family="sans-serif" font-size="10" lengthAdjust="spacing" textLength="156" x="125" y="39.9902">com.javafwp.game.gameObjects</text></g></a><!--MD5=[20294effb70a0e7a92d4ab3794c13fea]
reverse link com.javafwp.game.gameObjects.Object to com.javafwp.game.gameObjects.Heatbar--><g id="link_com.javafwp.game.gameObjects.Object_com.javafwp.game.gameObjects.Heatbar"><path codeLine="18" d="M190,67.55 C190,79.4 190,92.96 190,106.83 " fill="none" id="com.javafwp.game.gameObjects.Object-backto-com.javafwp.game.gameObjects.Heatbar" style="stroke:#181818;stroke-width:1.0;"/><polygon fill="none" points="183,67.22,190,47.22,197,67.22,183,67.22" style="stroke:#181818;stroke-width:1.0;"/></g><rect height="12.5781" style="stroke:#00000000;stroke-width:1.0;fill:none;" width="184" x="91" y="310.0625"/><text fill="#888888" font-family="sans-serif" font-size="10" lengthAdjust="spacing" textLength="184" x="91" y="320.4434">UMLDoclet 2.0.17, PlantUML 1.2022.5</text><!--MD5=[4361818e5fff09ec507f7e7bbf7560f7]
@startuml
    set namespaceSeparator none
    hide empty fields
    hide empty methods

    class "<size:14>Heatbar\n<size:10>com.javafwp.game.gameObjects" as com.javafwp.game.gameObjects.Heatbar [[heatbar.html]] {
        -heatColor: Color
        -heat: Rectangle
        -currentHeat: int
        +Heatbar(double, double, double, double, Color, Color)
        +update(double): void
        +addHeat(int): boolean
        +reset(): void
        +getEntities(): Node[]
    }

    class "<size:14>Object\n<size:10>com.javafwp.game.gameObjects" as com.javafwp.game.gameObjects.Object [[object.html]]

    com.javafwp.game.gameObjects.Object <|- - com.javafwp.game.gameObjects.Heatbar

    center footer UMLDoclet 2.0.17, PlantUML 1.2022.5
@enduml

PlantUML version 1.2022.5(Sat Apr 30 12:55:52 CEST 2022)
(APACHE source distribution)
Java Runtime: Java(TM) SE Runtime Environment
JVM: Java HotSpot(TM) 64-Bit Server VM
Default Encoding: UTF-8
Language: de
Country: DE
--></g></svg>