<?xml version="1.0" encoding="UTF-8" standalone="no"?><svg xmlns="http://www.w3.org/2000/svg" xmlns:xlink="http://www.w3.org/1999/xlink" contentStyleType="text/css" height="330px" preserveAspectRatio="none" style="width:379px;height:330px;background:#FFFFFF;" version="1.1" viewBox="0 0 379 330" width="379px" zoomAndPan="magnify"><defs/><g><!--MD5=[00ebd38ac1984bd02f36e925e74b275e]
class com.javafwp.game.gameObjects.heatbar--><a href="heatbar.html" target="_top" title="heatbar.html" xlink:actuate="onRequest" xlink:href="heatbar.html" xlink:show="new" xlink:title="heatbar.html" xlink:type="simple"><g id="elem_com.javafwp.game.gameObjects.heatbar"><rect codeLine="5" fill="#F1F1F1" height="197.0625" id="com.javafwp.game.gameObjects.heatbar" rx="2.5" ry="2.5" style="stroke:#181818;stroke-width:0.5;" width="365" x="7" y="107"/><ellipse cx="107.25" cy="127.0938" fill="#ADD1B2" rx="11" ry="11" style="stroke:#181818;stroke-width:1.0;"/><path d="M110.0156,122.9688 Q110.1719,122.75 110.3594,122.6406 Q110.5469,122.5313 110.7656,122.5313 Q111.1406,122.5313 111.375,122.7969 Q111.6094,123.0469 111.6094,123.6563 L111.6094,125.1094 Q111.6094,125.7188 111.375,125.9844 Q111.1406,126.25 110.7656,126.25 Q110.4219,126.25 110.2188,126.0469 Q110.0156,125.8594 109.9063,125.3438 Q109.8594,124.9844 109.6719,124.7969 Q109.3438,124.4219 108.7344,124.2031 Q108.125,123.9844 107.5,123.9844 Q106.7344,123.9844 106.0938,124.3125 Q105.4688,124.6406 104.9688,125.3906 Q104.4844,126.1406 104.4844,127.1719 L104.4844,128.2656 Q104.4844,129.5 105.375,130.3281 Q106.2656,131.1406 107.8594,131.1406 Q108.7969,131.1406 109.4531,130.8906 Q109.8438,130.7344 110.2656,130.2969 Q110.5313,130.0313 110.6719,129.9531 Q110.8281,129.875 111.0313,129.875 Q111.3594,129.875 111.6094,130.1406 Q111.875,130.3906 111.875,130.7344 Q111.875,131.0781 111.5313,131.4844 Q111.0313,132.0625 110.2344,132.3906 Q109.1563,132.8438 107.8594,132.8438 Q106.3438,132.8438 105.1406,132.2188 Q104.1563,131.7188 103.4688,130.6563 Q102.7813,129.5781 102.7813,128.2969 L102.7813,127.1406 Q102.7813,125.8125 103.3906,124.6719 Q104.0156,123.5156 105.1094,122.9063 Q106.2031,122.2813 107.4375,122.2813 Q108.1719,122.2813 108.8125,122.4531 Q109.4688,122.6094 110.0156,122.9688 Z " fill="#000000"/><text fill="#000000" font-family="sans-serif" font-size="14" lengthAdjust="spacing" textLength="49" x="181.25" y="126.5332">heatbar</text><text fill="#000000" font-family="sans-serif" font-size="10" lengthAdjust="spacing" textLength="156" x="127.75" y="139.9902">com.javafwp.game.gameObjects</text><line style="stroke:#181818;stroke-width:0.5;" x1="8" x2="371" y1="147.1875" y2="147.1875"/><rect fill="none" height="6" style="stroke:#C82930;stroke-width:1.0;" width="6" x="15" y="155.1875"/><text fill="#000000" font-family="sans-serif" font-size="14" lengthAdjust="spacing" textLength="104" x="27" y="165.7207">heatColor: Color</text><rect fill="none" height="6" style="stroke:#C82930;stroke-width:1.0;" width="6" x="15" y="172.7969"/><text fill="#000000" font-family="sans-serif" font-size="14" lengthAdjust="spacing" textLength="100" x="27" y="183.3301">heat: Rectangle</text><rect fill="none" height="6" style="stroke:#C82930;stroke-width:1.0;" width="6" x="15" y="190.4063"/><text fill="#000000" font-family="sans-serif" font-size="14" lengthAdjust="spacing" textLength="97" x="27" y="200.9395">currentHeat: int</text><line style="stroke:#181818;stroke-width:0.5;" x1="8" x2="371" y1="208.0156" y2="208.0156"/><ellipse cx="18" cy="219.0156" fill="#84BE84" rx="3" ry="3" style="stroke:#038048;stroke-width:1.0;"/><text fill="#000000" font-family="sans-serif" font-size="14" lengthAdjust="spacing" textLength="339" x="27" y="226.5488">heatbar(double, double, double, double, Color, Color)</text><ellipse cx="18" cy="236.625" fill="#84BE84" rx="3" ry="3" style="stroke:#038048;stroke-width:1.0;"/><text fill="#000000" font-family="sans-serif" font-size="14" lengthAdjust="spacing" textLength="131" x="27" y="244.1582">update(double): void</text><ellipse cx="18" cy="254.2344" fill="#84BE84" rx="3" ry="3" style="stroke:#038048;stroke-width:1.0;"/><text fill="#000000" font-family="sans-serif" font-size="14" lengthAdjust="spacing" textLength="137" x="27" y="261.7676">addHeat(int): boolean</text><ellipse cx="18" cy="271.8438" fill="#84BE84" rx="3" ry="3" style="stroke:#038048;stroke-width:1.0;"/><text fill="#000000" font-family="sans-serif" font-size="14" lengthAdjust="spacing" textLength="76" x="27" y="279.377">reset(): void</text><ellipse cx="18" cy="289.4531" fill="#84BE84" rx="3" ry="3" style="stroke:#038048;stroke-width:1.0;"/><text fill="#000000" font-family="sans-serif" font-size="14" lengthAdjust="spacing" textLength="125" x="27" y="296.9863">getEntities(): Node[]</text></g></a><!--MD5=[dd8580933f1f6111db5293a82719d5d7]
class com.javafwp.game.gameObjects.object--><a href="object.html" target="_top" title="object.html" xlink:actuate="onRequest" xlink:href="object.html" xlink:show="new" xlink:title="object.html" xlink:type="simple"><g id="elem_com.javafwp.game.gameObjects.object"><rect codeLine="16" fill="#F1F1F1" height="40.1875" id="com.javafwp.game.gameObjects.object" rx="2.5" ry="2.5" style="stroke:#181818;stroke-width:0.5;" width="188" x="95.5" y="7"/><ellipse cx="110.5" cy="27.0938" fill="#ADD1B2" rx="11" ry="11" style="stroke:#181818;stroke-width:1.0;"/><path d="M113.2656,22.9688 Q113.4219,22.75 113.6094,22.6406 Q113.7969,22.5313 114.0156,22.5313 Q114.3906,22.5313 114.625,22.7969 Q114.8594,23.0469 114.8594,23.6563 L114.8594,25.1094 Q114.8594,25.7188 114.625,25.9844 Q114.3906,26.25 114.0156,26.25 Q113.6719,26.25 113.4688,26.0469 Q113.2656,25.8594 113.1563,25.3438 Q113.1094,24.9844 112.9219,24.7969 Q112.5938,24.4219 111.9844,24.2031 Q111.375,23.9844 110.75,23.9844 Q109.9844,23.9844 109.3438,24.3125 Q108.7188,24.6406 108.2188,25.3906 Q107.7344,26.1406 107.7344,27.1719 L107.7344,28.2656 Q107.7344,29.5 108.625,30.3281 Q109.5156,31.1406 111.1094,31.1406 Q112.0469,31.1406 112.7031,30.8906 Q113.0938,30.7344 113.5156,30.2969 Q113.7813,30.0313 113.9219,29.9531 Q114.0781,29.875 114.2813,29.875 Q114.6094,29.875 114.8594,30.1406 Q115.125,30.3906 115.125,30.7344 Q115.125,31.0781 114.7813,31.4844 Q114.2813,32.0625 113.4844,32.3906 Q112.4063,32.8438 111.1094,32.8438 Q109.5938,32.8438 108.3906,32.2188 Q107.4063,31.7188 106.7188,30.6563 Q106.0313,29.5781 106.0313,28.2969 L106.0313,27.1406 Q106.0313,25.8125 106.6406,24.6719 Q107.2656,23.5156 108.3594,22.9063 Q109.4531,22.2813 110.6875,22.2813 Q111.4219,22.2813 112.0625,22.4531 Q112.7188,22.6094 113.2656,22.9688 Z " fill="#000000"/><text fill="#000000" font-family="sans-serif" font-size="14" lengthAdjust="spacing" textLength="38" x="183.5" y="26.5332">object</text><text fill="#000000" font-family="sans-serif" font-size="10" lengthAdjust="spacing" textLength="156" x="124.5" y="39.9902">com.javafwp.game.gameObjects</text></g></a><!--MD5=[e15601706c4a5da89e2b4b0254838363]
reverse link com.javafwp.game.gameObjects.object to com.javafwp.game.gameObjects.heatbar--><g id="link_com.javafwp.game.gameObjects.object_com.javafwp.game.gameObjects.heatbar"><path codeLine="18" d="M189.5,67.55 C189.5,79.4 189.5,92.96 189.5,106.83 " fill="none" id="com.javafwp.game.gameObjects.object-backto-com.javafwp.game.gameObjects.heatbar" style="stroke:#181818;stroke-width:1.0;"/><polygon fill="none" points="182.5,67.22,189.5,47.22,196.5,67.22,182.5,67.22" style="stroke:#181818;stroke-width:1.0;"/></g><rect height="12.5781" style="stroke:#00000000;stroke-width:1.0;fill:none;" width="184" x="90.5" y="310.0625"/><text fill="#888888" font-family="sans-serif" font-size="10" lengthAdjust="spacing" textLength="184" x="90.5" y="320.4434">UMLDoclet 2.0.17, PlantUML 1.2022.5</text><!--MD5=[dd2424a30f6a3debe72b9d5cf57ece76]
@startuml
    set namespaceSeparator none
    hide empty fields
    hide empty methods

    class "<size:14>heatbar\n<size:10>com.javafwp.game.gameObjects" as com.javafwp.game.gameObjects.heatbar [[heatbar.html]] {
        -heatColor: Color
        -heat: Rectangle
        -currentHeat: int
        +heatbar(double, double, double, double, Color, Color)
        +update(double): void
        +addHeat(int): boolean
        +reset(): void
        +getEntities(): Node[]
    }

    class "<size:14>object\n<size:10>com.javafwp.game.gameObjects" as com.javafwp.game.gameObjects.object [[object.html]]

    com.javafwp.game.gameObjects.object <|- - com.javafwp.game.gameObjects.heatbar

    center footer UMLDoclet 2.0.17, PlantUML 1.2022.5
@enduml

PlantUML version 1.2022.5(Sat Apr 30 12:55:52 CEST 2022)
(APACHE source distribution)
Java Runtime: Java(TM) SE Runtime Environment
JVM: Java HotSpot(TM) 64-Bit Server VM
Default Encoding: UTF-8
Language: de
Country: DE
--></g></svg>