<?xml version="1.0" encoding="UTF-8" standalone="no"?><svg xmlns="http://www.w3.org/2000/svg" xmlns:xlink="http://www.w3.org/1999/xlink" contentStyleType="text/css" height="316px" preserveAspectRatio="none" style="width:411px;height:316px;background:#FFFFFF;" version="1.1" viewBox="0 0 411 316" width="411px" zoomAndPan="magnify"><defs/><g><!--MD5=[00ebd38ac1984bd02f36e925e74b275e]
class com.javafwp.game.gameObjects.heatbar--><a href="heatbar.html" target="_top" title="heatbar.html" xlink:actuate="onRequest" xlink:href="heatbar.html" xlink:show="new" xlink:title="heatbar.html" xlink:type="simple"><g id="elem_com.javafwp.game.gameObjects.heatbar"><rect codeLine="5" fill="#F1F1F1" height="186.1719" id="com.javafwp.game.gameObjects.heatbar" rx="2.5" ry="2.5" style="stroke:#181818;stroke-width:0.5;" width="397" x="7" y="105"/><ellipse cx="122.25" cy="124.1328" fill="#ADD1B2" rx="11" ry="11" style="stroke:#181818;stroke-width:1.0;"/><path d="M124.7231,130.2759 Q124.1421,130.5747 123.5029,130.7241 Q122.8638,130.8735 122.1582,130.8735 Q119.6514,130.8735 118.3315,129.2217 Q117.0117,127.5698 117.0117,124.4487 Q117.0117,121.3193 118.3315,119.6675 Q119.6514,118.0156 122.1582,118.0156 Q122.8638,118.0156 123.5112,118.165 Q124.1587,118.3145 124.7231,118.6133 L124.7231,121.3359 Q124.0923,120.7549 123.4988,120.4851 Q122.9053,120.2153 122.2744,120.2153 Q120.9297,120.2153 120.2449,121.282 Q119.5601,122.3486 119.5601,124.4487 Q119.5601,126.5405 120.2449,127.6072 Q120.9297,128.6738 122.2744,128.6738 Q122.9053,128.6738 123.4988,128.4041 Q124.0923,128.1343 124.7231,127.5532 Z " fill="#000000"/><text fill="#000000" font-family="sans-serif" font-size="14" lengthAdjust="spacing" textLength="53" x="195.25" y="123.5352">heatbar</text><text fill="#000000" font-family="sans-serif" font-size="10" lengthAdjust="spacing" textLength="158" x="142.75" y="136.1563">com.javafwp.game.gameObjects</text><line style="stroke:#181818;stroke-width:0.5;" x1="8" x2="403" y1="143.2656" y2="143.2656"/><rect fill="none" height="6" style="stroke:#C82930;stroke-width:1.0;" width="6" x="15" y="151.2656"/><text fill="#000000" font-family="sans-serif" font-size="14" lengthAdjust="spacing" textLength="114" x="27" y="160.8008">heatColor: Color</text><rect fill="none" height="6" style="stroke:#C82930;stroke-width:1.0;" width="6" x="15" y="167.7539"/><text fill="#000000" font-family="sans-serif" font-size="14" lengthAdjust="spacing" textLength="105" x="27" y="177.2891">heat: Rectangle</text><rect fill="none" height="6" style="stroke:#C82930;stroke-width:1.0;" width="6" x="15" y="184.2422"/><text fill="#000000" font-family="sans-serif" font-size="14" lengthAdjust="spacing" textLength="107" x="27" y="193.7773">currentHeat: int</text><line style="stroke:#181818;stroke-width:0.5;" x1="8" x2="403" y1="200.7305" y2="200.7305"/><ellipse cx="18" cy="211.7305" fill="#84BE84" rx="3" ry="3" style="stroke:#038048;stroke-width:1.0;"/><text fill="#000000" font-family="sans-serif" font-size="14" lengthAdjust="spacing" textLength="371" x="27" y="218.2656">heatbar(double, double, double, double, Color, Color)</text><ellipse cx="18" cy="228.2188" fill="#84BE84" rx="3" ry="3" style="stroke:#038048;stroke-width:1.0;"/><text fill="#000000" font-family="sans-serif" font-size="14" lengthAdjust="spacing" textLength="143" x="27" y="234.7539">update(double): void</text><ellipse cx="18" cy="244.707" fill="#84BE84" rx="3" ry="3" style="stroke:#038048;stroke-width:1.0;"/><text fill="#000000" font-family="sans-serif" font-size="14" lengthAdjust="spacing" textLength="149" x="27" y="251.2422">addHeat(int): boolean</text><ellipse cx="18" cy="261.1953" fill="#84BE84" rx="3" ry="3" style="stroke:#038048;stroke-width:1.0;"/><text fill="#000000" font-family="sans-serif" font-size="14" lengthAdjust="spacing" textLength="81" x="27" y="267.7305">reset(): void</text><ellipse cx="18" cy="277.6836" fill="#84BE84" rx="3" ry="3" style="stroke:#038048;stroke-width:1.0;"/><text fill="#000000" font-family="sans-serif" font-size="14" lengthAdjust="spacing" textLength="136" x="27" y="284.2188">getEntities(): Node[]</text></g></a><!--MD5=[dd8580933f1f6111db5293a82719d5d7]
class com.javafwp.game.gameObjects.object--><a href="object.html" target="_top" title="object.html" xlink:actuate="onRequest" xlink:href="object.html" xlink:show="new" xlink:title="object.html" xlink:type="simple"><g id="elem_com.javafwp.game.gameObjects.object"><rect codeLine="16" fill="#F1F1F1" height="38.2656" id="com.javafwp.game.gameObjects.object" rx="2.5" ry="2.5" style="stroke:#181818;stroke-width:0.5;" width="190" x="110.5" y="7"/><ellipse cx="125.5" cy="26.1328" fill="#ADD1B2" rx="11" ry="11" style="stroke:#181818;stroke-width:1.0;"/><path d="M127.9731,32.2759 Q127.3921,32.5747 126.7529,32.7241 Q126.1138,32.8735 125.4082,32.8735 Q122.9014,32.8735 121.5815,31.2217 Q120.2617,29.5698 120.2617,26.4487 Q120.2617,23.3193 121.5815,21.6675 Q122.9014,20.0156 125.4082,20.0156 Q126.1138,20.0156 126.7612,20.165 Q127.4087,20.3145 127.9731,20.6133 L127.9731,23.3359 Q127.3423,22.7549 126.7488,22.4851 Q126.1553,22.2153 125.5244,22.2153 Q124.1797,22.2153 123.4949,23.282 Q122.8101,24.3486 122.8101,26.4487 Q122.8101,28.5405 123.4949,29.6072 Q124.1797,30.6738 125.5244,30.6738 Q126.1553,30.6738 126.7488,30.4041 Q127.3423,30.1343 127.9731,29.5532 Z " fill="#000000"/><text fill="#000000" font-family="sans-serif" font-size="14" lengthAdjust="spacing" textLength="42" x="197.5" y="25.5352">object</text><text fill="#000000" font-family="sans-serif" font-size="10" lengthAdjust="spacing" textLength="158" x="139.5" y="38.1563">com.javafwp.game.gameObjects</text></g></a><!--MD5=[e15601706c4a5da89e2b4b0254838363]
reverse link com.javafwp.game.gameObjects.object to com.javafwp.game.gameObjects.heatbar--><g id="link_com.javafwp.game.gameObjects.object_com.javafwp.game.gameObjects.heatbar"><path codeLine="18" d="M205.5,65.51 C205.5,77.41 205.5,91.06 205.5,104.96 " fill="none" id="com.javafwp.game.gameObjects.object-backto-com.javafwp.game.gameObjects.heatbar" style="stroke:#181818;stroke-width:1.0;"/><polygon fill="none" points="198.5,65.19,205.5,45.19,212.5,65.19,198.5,65.19" style="stroke:#181818;stroke-width:1.0;"/></g><rect height="11.7773" style="stroke:#00000000;stroke-width:1.0;fill:none;" width="182" x="107.5" y="297.1719"/><text fill="#888888" font-family="sans-serif" font-size="10" lengthAdjust="spacing" textLength="182" x="107.5" y="306.8398">UMLDoclet 2.0.17, PlantUML 1.2022.5</text><!--MD5=[0b55262bf86dcd2c85952aa5510138c0]
@startuml
    set namespaceSeparator none
    hide empty fields
    hide empty methods

    class "<size:14>heatbar\n<size:10>com.javafwp.game.gameObjects" as com.javafwp.game.gameObjects.heatbar [[heatbar.html]] {
        -heatColor: Color
        -heat: Rectangle
        -currentHeat: int
        +heatbar(double, double, double, double, Color, Color)
        +update(double): void
        +addHeat(int): boolean
        +reset(): void
        +getEntities(): Node[]
    }

    class "<size:14>object\n<size:10>com.javafwp.game.gameObjects" as com.javafwp.game.gameObjects.object [[object.html]]

    com.javafwp.game.gameObjects.object <|- - com.javafwp.game.gameObjects.heatbar

    center footer UMLDoclet 2.0.17, PlantUML 1.2022.5
@enduml

PlantUML version 1.2022.5(Sat Apr 30 12:55:52 CEST 2022)
(APACHE source distribution)
Java Runtime: OpenJDK Runtime Environment
JVM: OpenJDK 64-Bit Server VM
Default Encoding: UTF-8
Language: en
Country: DE
--></g></svg>