<?xml version="1.0" encoding="UTF-8" standalone="no"?><svg xmlns="http://www.w3.org/2000/svg" xmlns:xlink="http://www.w3.org/1999/xlink" contentStyleType="text/css" height="605px" preserveAspectRatio="none" style="width:352px;height:605px;background:#FFFFFF;" version="1.1" viewBox="0 0 352 605" width="352px" zoomAndPan="magnify"><defs/><g><!--MD5=[dd8580933f1f6111db5293a82719d5d7]
class com.javafwp.game.gameObjects.object--><a href="object.html" target="_top" title="object.html" xlink:actuate="onRequest" xlink:href="object.html" xlink:show="new" xlink:title="object.html" xlink:type="simple"><g id="elem_com.javafwp.game.gameObjects.object"><rect codeLine="5" fill="#F1F1F1" height="285.1016" id="com.javafwp.game.gameObjects.object" rx="2.5" ry="2.5" style="stroke:#181818;stroke-width:0.5;" width="336" x="9" y="295"/><ellipse cx="93.75" cy="314.1328" fill="#ADD1B2" rx="11" ry="11" style="stroke:#181818;stroke-width:1.0;"/><path d="M96.2231,320.2759 Q95.6421,320.5747 95.0029,320.7241 Q94.3638,320.8735 93.6582,320.8735 Q91.1514,320.8735 89.8315,319.2217 Q88.5117,317.5698 88.5117,314.4487 Q88.5117,311.3193 89.8315,309.6675 Q91.1514,308.0156 93.6582,308.0156 Q94.3638,308.0156 95.0112,308.165 Q95.6587,308.3145 96.2231,308.6133 L96.2231,311.3359 Q95.5923,310.7549 94.9988,310.4851 Q94.4053,310.2153 93.7744,310.2153 Q92.4297,310.2153 91.7449,311.282 Q91.0601,312.3486 91.0601,314.4487 Q91.0601,316.5405 91.7449,317.6072 Q92.4297,318.6738 93.7744,318.6738 Q94.4053,318.6738 94.9988,318.4041 Q95.5923,318.1343 96.2231,317.5532 Z " fill="#000000"/><text fill="#000000" font-family="sans-serif" font-size="14" lengthAdjust="spacing" textLength="42" x="172.25" y="313.5352">object</text><text fill="#000000" font-family="sans-serif" font-size="10" lengthAdjust="spacing" textLength="158" x="114.25" y="326.1563">com.javafwp.game.gameObjects</text><line style="stroke:#181818;stroke-width:0.5;" x1="10" x2="344" y1="333.2656" y2="333.2656"/><polygon fill="none" points="20,339.2656,24,343.2656,20,347.2656,16,343.2656" style="stroke:#B38D22;stroke-width:1.0;"/><text fill="#000000" font-family="sans-serif" font-size="14" lengthAdjust="spacing" textLength="66" x="29" y="350.8008">type: type</text><polygon fill="none" points="20,355.7539,24,359.7539,20,363.7539,16,359.7539" style="stroke:#B38D22;stroke-width:1.0;"/><text fill="#000000" font-family="sans-serif" font-size="14" lengthAdjust="spacing" textLength="113" x="29" y="367.2891">entity: Rectangle</text><line style="stroke:#181818;stroke-width:0.5;" x1="10" x2="344" y1="374.2422" y2="374.2422"/><ellipse cx="20" cy="385.2422" fill="#84BE84" rx="3" ry="3" style="stroke:#038048;stroke-width:1.0;"/><text fill="#000000" font-family="sans-serif" font-size="14" lengthAdjust="spacing" textLength="310" x="29" y="391.7773">object(double, double, double, double, Paint)</text><ellipse cx="20" cy="401.7305" fill="#84BE84" rx="3" ry="3" style="stroke:#038048;stroke-width:1.0;"/><text fill="#000000" font-family="sans-serif" font-size="14" lengthAdjust="spacing" textLength="114" x="29" y="408.2656">getEntity(): Node</text><ellipse cx="20" cy="418.2188" fill="#84BE84" rx="3" ry="3" style="stroke:#038048;stroke-width:1.0;"/><text fill="#000000" font-family="sans-serif" font-size="14" lengthAdjust="spacing" textLength="127" x="29" y="424.7539">getWidth(): double</text><ellipse cx="20" cy="434.707" fill="#84BE84" rx="3" ry="3" style="stroke:#038048;stroke-width:1.0;"/><text fill="#000000" font-family="sans-serif" font-size="14" lengthAdjust="spacing" textLength="133" x="29" y="441.2422">getHeight(): double</text><ellipse cx="20" cy="451.1953" fill="#84BE84" rx="3" ry="3" style="stroke:#038048;stroke-width:1.0;"/><text fill="#000000" font-family="sans-serif" font-size="14" lengthAdjust="spacing" textLength="102" x="29" y="457.7305">getType(): type</text><ellipse cx="20" cy="467.6836" fill="#84BE84" rx="3" ry="3" style="stroke:#038048;stroke-width:1.0;"/><text fill="#000000" font-family="sans-serif" font-size="14" lengthAdjust="spacing" textLength="97" x="29" y="474.2188">getX(): double</text><ellipse cx="20" cy="484.1719" fill="#84BE84" rx="3" ry="3" style="stroke:#038048;stroke-width:1.0;"/><text fill="#000000" font-family="sans-serif" font-size="14" lengthAdjust="spacing" textLength="97" x="29" y="490.707">getY(): double</text><ellipse cx="20" cy="500.6602" fill="#84BE84" rx="3" ry="3" style="stroke:#038048;stroke-width:1.0;"/><text fill="#000000" font-family="sans-serif" font-size="14" lengthAdjust="spacing" textLength="121" x="29" y="507.1953">setFill(Paint): void</text><ellipse cx="20" cy="517.1484" fill="#84BE84" rx="3" ry="3" style="stroke:#038048;stroke-width:1.0;"/><text fill="#000000" font-family="sans-serif" font-size="14" lengthAdjust="spacing" textLength="124" x="29" y="523.6836">setX(double): void</text><ellipse cx="20" cy="533.6367" fill="#84BE84" rx="3" ry="3" style="stroke:#038048;stroke-width:1.0;"/><text fill="#000000" font-family="sans-serif" font-size="14" lengthAdjust="spacing" textLength="124" x="29" y="540.1719">setY(double): void</text><ellipse cx="20" cy="550.125" fill="#84BE84" rx="3" ry="3" style="stroke:#038048;stroke-width:1.0;"/><text fill="#000000" font-family="sans-serif" font-size="14" lengthAdjust="spacing" textLength="130" x="29" y="556.6602">addX(double): void</text><ellipse cx="20" cy="566.6133" fill="#84BE84" rx="3" ry="3" style="stroke:#038048;stroke-width:1.0;"/><text fill="#000000" font-family="sans-serif" font-size="14" lengthAdjust="spacing" textLength="130" x="29" y="573.1484">addY(double): void</text></g></a><!--MD5=[73d90fc1f5d79c2bd45a568fa986ce7a]
class com.javafwp.game.gameObjects.objectInterface--><a href="objectInterface.html" target="_top" title="objectInterface.html" xlink:actuate="onRequest" xlink:href="objectInterface.html" xlink:show="new" xlink:title="objectInterface.html" xlink:type="simple"><g id="elem_com.javafwp.game.gameObjects.objectInterface"><rect codeLine="22" fill="#F1F1F1" height="227.6367" id="com.javafwp.game.gameObjects.objectInterface" rx="2.5" ry="2.5" style="stroke:#181818;stroke-width:0.5;" width="190" x="82" y="7"/><ellipse cx="97" cy="26.1328" fill="#B4A7E5" rx="11" ry="11" style="stroke:#181818;stroke-width:1.0;"/><path d="M93.4277,22.3979 L93.4277,20.2397 L100.8071,20.2397 L100.8071,22.3979 L98.3418,22.3979 L98.3418,30.4746 L100.8071,30.4746 L100.8071,32.6328 L93.4277,32.6328 L93.4277,30.4746 L95.8931,30.4746 L95.8931,22.3979 Z " fill="#000000"/><text fill="#000000" font-family="sans-serif" font-size="14" font-style="italic" lengthAdjust="spacing" textLength="102" x="139" y="25.5352">objectInterface</text><text fill="#000000" font-family="sans-serif" font-size="10" font-style="italic" lengthAdjust="spacing" textLength="158" x="111" y="38.1563">com.javafwp.game.gameObjects</text><line style="stroke:#181818;stroke-width:0.5;" x1="83" x2="271" y1="45.2656" y2="45.2656"/><ellipse cx="93" cy="56.2656" fill="#84BE84" rx="3" ry="3" style="stroke:#038048;stroke-width:1.0;"/><text fill="#000000" font-family="sans-serif" font-size="14" font-style="italic" lengthAdjust="spacing" textLength="114" x="102" y="62.8008">getEntity(): Node</text><ellipse cx="93" cy="72.7539" fill="#84BE84" rx="3" ry="3" style="stroke:#038048;stroke-width:1.0;"/><text fill="#000000" font-family="sans-serif" font-size="14" font-style="italic" lengthAdjust="spacing" textLength="127" x="102" y="79.2891">getWidth(): double</text><ellipse cx="93" cy="89.2422" fill="#84BE84" rx="3" ry="3" style="stroke:#038048;stroke-width:1.0;"/><text fill="#000000" font-family="sans-serif" font-size="14" font-style="italic" lengthAdjust="spacing" textLength="133" x="102" y="95.7773">getHeight(): double</text><ellipse cx="93" cy="105.7305" fill="#84BE84" rx="3" ry="3" style="stroke:#038048;stroke-width:1.0;"/><text fill="#000000" font-family="sans-serif" font-size="14" font-style="italic" lengthAdjust="spacing" textLength="97" x="102" y="112.2656">getX(): double</text><ellipse cx="93" cy="122.2188" fill="#84BE84" rx="3" ry="3" style="stroke:#038048;stroke-width:1.0;"/><text fill="#000000" font-family="sans-serif" font-size="14" font-style="italic" lengthAdjust="spacing" textLength="97" x="102" y="128.7539">getY(): double</text><ellipse cx="93" cy="138.707" fill="#84BE84" rx="3" ry="3" style="stroke:#038048;stroke-width:1.0;"/><text fill="#000000" font-family="sans-serif" font-size="14" font-style="italic" lengthAdjust="spacing" textLength="102" x="102" y="145.2422">getType(): type</text><ellipse cx="93" cy="155.1953" fill="#84BE84" rx="3" ry="3" style="stroke:#038048;stroke-width:1.0;"/><text fill="#000000" font-family="sans-serif" font-size="14" font-style="italic" lengthAdjust="spacing" textLength="121" x="102" y="161.7305">setFill(Paint): void</text><ellipse cx="93" cy="171.6836" fill="#84BE84" rx="3" ry="3" style="stroke:#038048;stroke-width:1.0;"/><text fill="#000000" font-family="sans-serif" font-size="14" font-style="italic" lengthAdjust="spacing" textLength="124" x="102" y="178.2188">setX(double): void</text><ellipse cx="93" cy="188.1719" fill="#84BE84" rx="3" ry="3" style="stroke:#038048;stroke-width:1.0;"/><text fill="#000000" font-family="sans-serif" font-size="14" font-style="italic" lengthAdjust="spacing" textLength="124" x="102" y="194.707">setY(double): void</text><ellipse cx="93" cy="204.6602" fill="#84BE84" rx="3" ry="3" style="stroke:#038048;stroke-width:1.0;"/><text fill="#000000" font-family="sans-serif" font-size="14" font-style="italic" lengthAdjust="spacing" textLength="130" x="102" y="211.1953">addX(double): void</text><ellipse cx="93" cy="221.1484" fill="#84BE84" rx="3" ry="3" style="stroke:#038048;stroke-width:1.0;"/><text fill="#000000" font-family="sans-serif" font-size="14" font-style="italic" lengthAdjust="spacing" textLength="130" x="102" y="227.6836">addY(double): void</text></g></a><!--MD5=[e8afdeacdc610b8a5c367652b00091f1]
reverse link com.javafwp.game.gameObjects.objectInterface to com.javafwp.game.gameObjects.object--><g id="link_com.javafwp.game.gameObjects.objectInterface_com.javafwp.game.gameObjects.object"><path codeLine="36" d="M177,255.37 C177,268.41 177,281.69 177,294.82 " fill="none" id="com.javafwp.game.gameObjects.objectInterface-backto-com.javafwp.game.gameObjects.object" style="stroke:#181818;stroke-width:1.0;stroke-dasharray:7.0,7.0;"/><polygon fill="none" points="170,255.1,177,235.1,184,255.1,170,255.1" style="stroke:#181818;stroke-width:1.0;"/></g><rect height="11.7773" style="stroke:#00000000;stroke-width:1.0;fill:none;" width="182" x="78" y="586.1016"/><text fill="#888888" font-family="sans-serif" font-size="10" lengthAdjust="spacing" textLength="182" x="78" y="595.7695">UMLDoclet 2.0.17, PlantUML 1.2022.5</text><!--MD5=[48c5f9d58578250d97ed3eed2852bf12]
@startuml
    set namespaceSeparator none
    hide empty fields
    hide empty methods

    class "<size:14>object\n<size:10>com.javafwp.game.gameObjects" as com.javafwp.game.gameObjects.object [[object.html]] {
        #type: type
        #entity: Rectangle
        +object(double, double, double, double, Paint)
        +getEntity(): Node
        +getWidth(): double
        +getHeight(): double
        +getType(): type
        +getX(): double
        +getY(): double
        +setFill(Paint): void
        +setX(double): void
        +setY(double): void
        +addX(double): void
        +addY(double): void
    }

    interface "<size:14>objectInterface\n<size:10>com.javafwp.game.gameObjects" as com.javafwp.game.gameObjects.objectInterface [[objectInterface.html]] {
        {abstract} +getEntity(): Node
        {abstract} +getWidth(): double
        {abstract} +getHeight(): double
        {abstract} +getX(): double
        {abstract} +getY(): double
        {abstract} +getType(): type
        {abstract} +setFill(Paint): void
        {abstract} +setX(double): void
        {abstract} +setY(double): void
        {abstract} +addX(double): void
        {abstract} +addY(double): void
    }

    com.javafwp.game.gameObjects.objectInterface <|.. com.javafwp.game.gameObjects.object

    center footer UMLDoclet 2.0.17, PlantUML 1.2022.5
@enduml

PlantUML version 1.2022.5(Sat Apr 30 12:55:52 CEST 2022)
(APACHE source distribution)
Java Runtime: OpenJDK Runtime Environment
JVM: OpenJDK 64-Bit Server VM
Default Encoding: UTF-8
Language: en
Country: DE
--></g></svg>