<?xml version="1.0" encoding="UTF-8" standalone="no"?><svg xmlns="http://www.w3.org/2000/svg" xmlns:xlink="http://www.w3.org/1999/xlink" contentStyleType="text/css" height="638px" preserveAspectRatio="none" style="width:326px;height:638px;background:#FFFFFF;" version="1.1" viewBox="0 0 326 638" width="326px" zoomAndPan="magnify"><defs/><g><!--MD5=[dd8580933f1f6111db5293a82719d5d7]
class com.javafwp.game.gameObjects.object--><a href="object.html" target="_top" title="object.html" xlink:actuate="onRequest" xlink:href="object.html" xlink:show="new" xlink:title="object.html" xlink:type="simple"><g id="elem_com.javafwp.game.gameObjects.object"><rect codeLine="5" fill="#F1F1F1" height="302.7188" id="com.javafwp.game.gameObjects.object" rx="2.5" ry="2.5" style="stroke:#181818;stroke-width:0.5;" width="310" x="9" y="309"/><ellipse cx="81.75" cy="329.0938" fill="#ADD1B2" rx="11" ry="11" style="stroke:#181818;stroke-width:1.0;"/><path d="M84.5156,324.9688 Q84.6719,324.75 84.8594,324.6406 Q85.0469,324.5313 85.2656,324.5313 Q85.6406,324.5313 85.875,324.7969 Q86.1094,325.0469 86.1094,325.6563 L86.1094,327.1094 Q86.1094,327.7188 85.875,327.9844 Q85.6406,328.25 85.2656,328.25 Q84.9219,328.25 84.7188,328.0469 Q84.5156,327.8594 84.4063,327.3438 Q84.3594,326.9844 84.1719,326.7969 Q83.8438,326.4219 83.2344,326.2031 Q82.625,325.9844 82,325.9844 Q81.2344,325.9844 80.5938,326.3125 Q79.9688,326.6406 79.4688,327.3906 Q78.9844,328.1406 78.9844,329.1719 L78.9844,330.2656 Q78.9844,331.5 79.875,332.3281 Q80.7656,333.1406 82.3594,333.1406 Q83.2969,333.1406 83.9531,332.8906 Q84.3438,332.7344 84.7656,332.2969 Q85.0313,332.0313 85.1719,331.9531 Q85.3281,331.875 85.5313,331.875 Q85.8594,331.875 86.1094,332.1406 Q86.375,332.3906 86.375,332.7344 Q86.375,333.0781 86.0313,333.4844 Q85.5313,334.0625 84.7344,334.3906 Q83.6563,334.8438 82.3594,334.8438 Q80.8438,334.8438 79.6406,334.2188 Q78.6563,333.7188 77.9688,332.6563 Q77.2813,331.5781 77.2813,330.2969 L77.2813,329.1406 Q77.2813,327.8125 77.8906,326.6719 Q78.5156,325.5156 79.6094,324.9063 Q80.7031,324.2813 81.9375,324.2813 Q82.6719,324.2813 83.3125,324.4531 Q83.9688,324.6094 84.5156,324.9688 Z " fill="#000000"/><text fill="#000000" font-family="sans-serif" font-size="14" lengthAdjust="spacing" textLength="38" x="161.25" y="328.5332">object</text><text fill="#000000" font-family="sans-serif" font-size="10" lengthAdjust="spacing" textLength="156" x="102.25" y="341.9902">com.javafwp.game.gameObjects</text><line style="stroke:#181818;stroke-width:0.5;" x1="10" x2="318" y1="349.1875" y2="349.1875"/><polygon fill="none" points="20,355.1875,24,359.1875,20,363.1875,16,359.1875" style="stroke:#B38D22;stroke-width:1.0;"/><text fill="#000000" font-family="sans-serif" font-size="14" lengthAdjust="spacing" textLength="62" x="29" y="367.7207">type: type</text><polygon fill="none" points="20,372.7969,24,376.7969,20,380.7969,16,376.7969" style="stroke:#B38D22;stroke-width:1.0;"/><text fill="#000000" font-family="sans-serif" font-size="14" lengthAdjust="spacing" textLength="106" x="29" y="385.3301">entity: Rectangle</text><line style="stroke:#181818;stroke-width:0.5;" x1="10" x2="318" y1="392.4063" y2="392.4063"/><ellipse cx="20" cy="403.4063" fill="#84BE84" rx="3" ry="3" style="stroke:#038048;stroke-width:1.0;"/><text fill="#000000" font-family="sans-serif" font-size="14" lengthAdjust="spacing" textLength="284" x="29" y="410.9395">object(double, double, double, double, Paint)</text><ellipse cx="20" cy="421.0156" fill="#84BE84" rx="3" ry="3" style="stroke:#038048;stroke-width:1.0;"/><text fill="#000000" font-family="sans-serif" font-size="14" lengthAdjust="spacing" textLength="106" x="29" y="428.5488">getEntity(): Node</text><ellipse cx="20" cy="438.625" fill="#84BE84" rx="3" ry="3" style="stroke:#038048;stroke-width:1.0;"/><text fill="#000000" font-family="sans-serif" font-size="14" lengthAdjust="spacing" textLength="117" x="29" y="446.1582">getWidth(): double</text><ellipse cx="20" cy="456.2344" fill="#84BE84" rx="3" ry="3" style="stroke:#038048;stroke-width:1.0;"/><text fill="#000000" font-family="sans-serif" font-size="14" lengthAdjust="spacing" textLength="121" x="29" y="463.7676">getHeight(): double</text><ellipse cx="20" cy="473.8438" fill="#84BE84" rx="3" ry="3" style="stroke:#038048;stroke-width:1.0;"/><text fill="#000000" font-family="sans-serif" font-size="14" lengthAdjust="spacing" textLength="97" x="29" y="481.377">getType(): type</text><ellipse cx="20" cy="491.4531" fill="#84BE84" rx="3" ry="3" style="stroke:#038048;stroke-width:1.0;"/><text fill="#000000" font-family="sans-serif" font-size="14" lengthAdjust="spacing" textLength="89" x="29" y="498.9863">getX(): double</text><ellipse cx="20" cy="509.0625" fill="#84BE84" rx="3" ry="3" style="stroke:#038048;stroke-width:1.0;"/><text fill="#000000" font-family="sans-serif" font-size="14" lengthAdjust="spacing" textLength="90" x="29" y="516.5957">getY(): double</text><ellipse cx="20" cy="526.6719" fill="#84BE84" rx="3" ry="3" style="stroke:#038048;stroke-width:1.0;"/><text fill="#000000" font-family="sans-serif" font-size="14" lengthAdjust="spacing" textLength="113" x="29" y="534.2051">setFill(Paint): void</text><ellipse cx="20" cy="544.2813" fill="#84BE84" rx="3" ry="3" style="stroke:#038048;stroke-width:1.0;"/><text fill="#000000" font-family="sans-serif" font-size="14" lengthAdjust="spacing" textLength="114" x="29" y="551.8145">setX(double): void</text><ellipse cx="20" cy="561.8906" fill="#84BE84" rx="3" ry="3" style="stroke:#038048;stroke-width:1.0;"/><text fill="#000000" font-family="sans-serif" font-size="14" lengthAdjust="spacing" textLength="115" x="29" y="569.4238">setY(double): void</text><ellipse cx="20" cy="579.5" fill="#84BE84" rx="3" ry="3" style="stroke:#038048;stroke-width:1.0;"/><text fill="#000000" font-family="sans-serif" font-size="14" lengthAdjust="spacing" textLength="119" x="29" y="587.0332">addX(double): void</text><ellipse cx="20" cy="597.1094" fill="#84BE84" rx="3" ry="3" style="stroke:#038048;stroke-width:1.0;"/><text fill="#000000" font-family="sans-serif" font-size="14" lengthAdjust="spacing" textLength="120" x="29" y="604.6426">addY(double): void</text></g></a><!--MD5=[73d90fc1f5d79c2bd45a568fa986ce7a]
class com.javafwp.game.gameObjects.objectInterface--><a href="objectInterface.html" target="_top" title="objectInterface.html" xlink:actuate="onRequest" xlink:href="objectInterface.html" xlink:show="new" xlink:title="objectInterface.html" xlink:type="simple"><g id="elem_com.javafwp.game.gameObjects.objectInterface"><rect codeLine="22" fill="#F1F1F1" height="241.8906" id="com.javafwp.game.gameObjects.objectInterface" rx="2.5" ry="2.5" style="stroke:#181818;stroke-width:0.5;" width="180" x="74" y="7"/><ellipse cx="89" cy="27.0938" fill="#B4A7E5" rx="11" ry="11" style="stroke:#181818;stroke-width:1.0;"/><path d="M89.9531,23.7344 L89.9531,30.3906 L91.6719,30.3906 Q92.2813,30.3906 92.5469,30.625 Q92.8125,30.8594 92.8125,31.25 Q92.8125,31.625 92.5469,31.8594 Q92.2813,32.0938 91.6719,32.0938 L86.5313,32.0938 Q85.9219,32.0938 85.6563,31.8594 Q85.3906,31.625 85.3906,31.2344 Q85.3906,30.8594 85.6563,30.625 Q85.9219,30.3906 86.5313,30.3906 L88.25,30.3906 L88.25,23.7344 L86.5313,23.7344 Q85.9219,23.7344 85.6563,23.5 Q85.3906,23.2656 85.3906,22.875 Q85.3906,22.5 85.6563,22.2656 Q85.9219,22.0313 86.5313,22.0313 L91.6719,22.0313 Q92.2813,22.0313 92.5469,22.2656 Q92.8125,22.5 92.8125,22.875 Q92.8125,23.2656 92.5469,23.5 Q92.2813,23.7344 91.6719,23.7344 L89.9531,23.7344 Z " fill="#000000"/><text fill="#000000" font-family="sans-serif" font-size="14" font-style="italic" lengthAdjust="spacing" textLength="94" x="130" y="26.5332">objectInterface</text><text fill="#000000" font-family="sans-serif" font-size="10" font-style="italic" lengthAdjust="spacing" textLength="148" x="103" y="39.9902">com.javafwp.game.gameObjects</text><line style="stroke:#181818;stroke-width:0.5;" x1="75" x2="253" y1="47.1875" y2="47.1875"/><ellipse cx="85" cy="58.1875" fill="#84BE84" rx="3" ry="3" style="stroke:#038048;stroke-width:1.0;"/><text fill="#000000" font-family="sans-serif" font-size="14" font-style="italic" lengthAdjust="spacing" textLength="107" x="94" y="65.7207">getEntity(): Node</text><ellipse cx="85" cy="75.7969" fill="#84BE84" rx="3" ry="3" style="stroke:#038048;stroke-width:1.0;"/><text fill="#000000" font-family="sans-serif" font-size="14" font-style="italic" lengthAdjust="spacing" textLength="118" x="94" y="83.3301">getWidth(): double</text><ellipse cx="85" cy="93.4063" fill="#84BE84" rx="3" ry="3" style="stroke:#038048;stroke-width:1.0;"/><text fill="#000000" font-family="sans-serif" font-size="14" font-style="italic" lengthAdjust="spacing" textLength="122" x="94" y="100.9395">getHeight(): double</text><ellipse cx="85" cy="111.0156" fill="#84BE84" rx="3" ry="3" style="stroke:#038048;stroke-width:1.0;"/><text fill="#000000" font-family="sans-serif" font-size="14" font-style="italic" lengthAdjust="spacing" textLength="90" x="94" y="118.5488">getX(): double</text><ellipse cx="85" cy="128.625" fill="#84BE84" rx="3" ry="3" style="stroke:#038048;stroke-width:1.0;"/><text fill="#000000" font-family="sans-serif" font-size="14" font-style="italic" lengthAdjust="spacing" textLength="90" x="94" y="136.1582">getY(): double</text><ellipse cx="85" cy="146.2344" fill="#84BE84" rx="3" ry="3" style="stroke:#038048;stroke-width:1.0;"/><text fill="#000000" font-family="sans-serif" font-size="14" font-style="italic" lengthAdjust="spacing" textLength="97" x="94" y="153.7676">getType(): type</text><ellipse cx="85" cy="163.8438" fill="#84BE84" rx="3" ry="3" style="stroke:#038048;stroke-width:1.0;"/><text fill="#000000" font-family="sans-serif" font-size="14" font-style="italic" lengthAdjust="spacing" textLength="112" x="94" y="171.377">setFill(Paint): void</text><ellipse cx="85" cy="181.4531" fill="#84BE84" rx="3" ry="3" style="stroke:#038048;stroke-width:1.0;"/><text fill="#000000" font-family="sans-serif" font-size="14" font-style="italic" lengthAdjust="spacing" textLength="114" x="94" y="188.9863">setX(double): void</text><ellipse cx="85" cy="199.0625" fill="#84BE84" rx="3" ry="3" style="stroke:#038048;stroke-width:1.0;"/><text fill="#000000" font-family="sans-serif" font-size="14" font-style="italic" lengthAdjust="spacing" textLength="114" x="94" y="206.5957">setY(double): void</text><ellipse cx="85" cy="216.6719" fill="#84BE84" rx="3" ry="3" style="stroke:#038048;stroke-width:1.0;"/><text fill="#000000" font-family="sans-serif" font-size="14" font-style="italic" lengthAdjust="spacing" textLength="119" x="94" y="224.2051">addX(double): void</text><ellipse cx="85" cy="234.2813" fill="#84BE84" rx="3" ry="3" style="stroke:#038048;stroke-width:1.0;"/><text fill="#000000" font-family="sans-serif" font-size="14" font-style="italic" lengthAdjust="spacing" textLength="119" x="94" y="241.8145">addY(double): void</text></g></a><!--MD5=[e8afdeacdc610b8a5c367652b00091f1]
reverse link com.javafwp.game.gameObjects.objectInterface to com.javafwp.game.gameObjects.object--><g id="link_com.javafwp.game.gameObjects.objectInterface_com.javafwp.game.gameObjects.object"><path codeLine="36" d="M164,269.51 C164,282.54 164,295.78 164,308.89 " fill="none" id="com.javafwp.game.gameObjects.objectInterface-backto-com.javafwp.game.gameObjects.object" style="stroke:#181818;stroke-width:1.0;stroke-dasharray:7.0,7.0;"/><polygon fill="none" points="157,269.25,164,249.25,171,269.25,157,269.25" style="stroke:#181818;stroke-width:1.0;"/></g><rect height="12.5781" style="stroke:#00000000;stroke-width:1.0;fill:none;" width="184" x="64" y="617.7188"/><text fill="#888888" font-family="sans-serif" font-size="10" lengthAdjust="spacing" textLength="184" x="64" y="628.0996">UMLDoclet 2.0.17, PlantUML 1.2022.5</text><!--MD5=[0418b1afdd78f9aeffbd32bcd021044e]
@startuml
    set namespaceSeparator none
    hide empty fields
    hide empty methods

    class "<size:14>object\n<size:10>com.javafwp.game.gameObjects" as com.javafwp.game.gameObjects.object [[object.html]] {
        #type: type
        #entity: Rectangle
        +object(double, double, double, double, Paint)
        +getEntity(): Node
        +getWidth(): double
        +getHeight(): double
        +getType(): type
        +getX(): double
        +getY(): double
        +setFill(Paint): void
        +setX(double): void
        +setY(double): void
        +addX(double): void
        +addY(double): void
    }

    interface "<size:14>objectInterface\n<size:10>com.javafwp.game.gameObjects" as com.javafwp.game.gameObjects.objectInterface [[objectInterface.html]] {
        {abstract} +getEntity(): Node
        {abstract} +getWidth(): double
        {abstract} +getHeight(): double
        {abstract} +getX(): double
        {abstract} +getY(): double
        {abstract} +getType(): type
        {abstract} +setFill(Paint): void
        {abstract} +setX(double): void
        {abstract} +setY(double): void
        {abstract} +addX(double): void
        {abstract} +addY(double): void
    }

    com.javafwp.game.gameObjects.objectInterface <|.. com.javafwp.game.gameObjects.object

    center footer UMLDoclet 2.0.17, PlantUML 1.2022.5
@enduml

PlantUML version 1.2022.5(Sat Apr 30 12:55:52 CEST 2022)
(APACHE source distribution)
Java Runtime: Java(TM) SE Runtime Environment
JVM: Java HotSpot(TM) 64-Bit Server VM
Default Encoding: UTF-8
Language: de
Country: DE
--></g></svg>