<?xml version="1.0" encoding="UTF-8" standalone="no"?><svg xmlns="http://www.w3.org/2000/svg" xmlns:xlink="http://www.w3.org/1999/xlink" contentStyleType="text/css" height="638px" preserveAspectRatio="none" style="width:329px;height:638px;background:#FFFFFF;" version="1.1" viewBox="0 0 329 638" width="329px" zoomAndPan="magnify"><defs/><g><!--MD5=[b02cf880865a9d0ac01b799707008f51]
class com.javafwp.game.gameObjects.Object--><a href="object.html" target="_top" title="object.html" xlink:actuate="onRequest" xlink:href="object.html" xlink:show="new" xlink:title="object.html" xlink:type="simple"><g id="elem_com.javafwp.game.gameObjects.Object"><rect codeLine="5" fill="#F1F1F1" height="302.7188" id="com.javafwp.game.gameObjects.Object" rx="2.5" ry="2.5" style="stroke:#181818;stroke-width:0.5;" width="313" x="9" y="309"/><ellipse cx="83.25" cy="329.0938" fill="#ADD1B2" rx="11" ry="11" style="stroke:#181818;stroke-width:1.0;"/><path d="M86.0156,324.9688 Q86.1719,324.75 86.3594,324.6406 Q86.5469,324.5313 86.7656,324.5313 Q87.1406,324.5313 87.375,324.7969 Q87.6094,325.0469 87.6094,325.6563 L87.6094,327.1094 Q87.6094,327.7188 87.375,327.9844 Q87.1406,328.25 86.7656,328.25 Q86.4219,328.25 86.2188,328.0469 Q86.0156,327.8594 85.9063,327.3438 Q85.8594,326.9844 85.6719,326.7969 Q85.3438,326.4219 84.7344,326.2031 Q84.125,325.9844 83.5,325.9844 Q82.7344,325.9844 82.0938,326.3125 Q81.4688,326.6406 80.9688,327.3906 Q80.4844,328.1406 80.4844,329.1719 L80.4844,330.2656 Q80.4844,331.5 81.375,332.3281 Q82.2656,333.1406 83.8594,333.1406 Q84.7969,333.1406 85.4531,332.8906 Q85.8438,332.7344 86.2656,332.2969 Q86.5313,332.0313 86.6719,331.9531 Q86.8281,331.875 87.0313,331.875 Q87.3594,331.875 87.6094,332.1406 Q87.875,332.3906 87.875,332.7344 Q87.875,333.0781 87.5313,333.4844 Q87.0313,334.0625 86.2344,334.3906 Q85.1563,334.8438 83.8594,334.8438 Q82.3438,334.8438 81.1406,334.2188 Q80.1563,333.7188 79.4688,332.6563 Q78.7813,331.5781 78.7813,330.2969 L78.7813,329.1406 Q78.7813,327.8125 79.3906,326.6719 Q80.0156,325.5156 81.1094,324.9063 Q82.2031,324.2813 83.4375,324.2813 Q84.1719,324.2813 84.8125,324.4531 Q85.4688,324.6094 86.0156,324.9688 Z " fill="#000000"/><text fill="#000000" font-family="sans-serif" font-size="14" lengthAdjust="spacing" textLength="41" x="161.25" y="328.5332">Object</text><text fill="#000000" font-family="sans-serif" font-size="10" lengthAdjust="spacing" textLength="156" x="103.75" y="341.9902">com.javafwp.game.gameObjects</text><line style="stroke:#181818;stroke-width:0.5;" x1="10" x2="321" y1="349.1875" y2="349.1875"/><polygon fill="none" points="20,355.1875,24,359.1875,20,363.1875,16,359.1875" style="stroke:#B38D22;stroke-width:1.0;"/><text fill="#000000" font-family="sans-serif" font-size="14" lengthAdjust="spacing" textLength="62" x="29" y="367.7207">type: type</text><polygon fill="none" points="20,372.7969,24,376.7969,20,380.7969,16,376.7969" style="stroke:#B38D22;stroke-width:1.0;"/><text fill="#000000" font-family="sans-serif" font-size="14" lengthAdjust="spacing" textLength="106" x="29" y="385.3301">entity: Rectangle</text><line style="stroke:#181818;stroke-width:0.5;" x1="10" x2="321" y1="392.4063" y2="392.4063"/><ellipse cx="20" cy="403.4063" fill="#84BE84" rx="3" ry="3" style="stroke:#038048;stroke-width:1.0;"/><text fill="#000000" font-family="sans-serif" font-size="14" lengthAdjust="spacing" textLength="287" x="29" y="410.9395">Object(double, double, double, double, Paint)</text><ellipse cx="20" cy="421.0156" fill="#84BE84" rx="3" ry="3" style="stroke:#038048;stroke-width:1.0;"/><text fill="#000000" font-family="sans-serif" font-size="14" lengthAdjust="spacing" textLength="106" x="29" y="428.5488">getEntity(): Node</text><ellipse cx="20" cy="438.625" fill="#84BE84" rx="3" ry="3" style="stroke:#038048;stroke-width:1.0;"/><text fill="#000000" font-family="sans-serif" font-size="14" lengthAdjust="spacing" textLength="117" x="29" y="446.1582">getWidth(): double</text><ellipse cx="20" cy="456.2344" fill="#84BE84" rx="3" ry="3" style="stroke:#038048;stroke-width:1.0;"/><text fill="#000000" font-family="sans-serif" font-size="14" lengthAdjust="spacing" textLength="121" x="29" y="463.7676">getHeight(): double</text><ellipse cx="20" cy="473.8438" fill="#84BE84" rx="3" ry="3" style="stroke:#038048;stroke-width:1.0;"/><text fill="#000000" font-family="sans-serif" font-size="14" lengthAdjust="spacing" textLength="97" x="29" y="481.377">getType(): type</text><ellipse cx="20" cy="491.4531" fill="#84BE84" rx="3" ry="3" style="stroke:#038048;stroke-width:1.0;"/><text fill="#000000" font-family="sans-serif" font-size="14" lengthAdjust="spacing" textLength="89" x="29" y="498.9863">getX(): double</text><ellipse cx="20" cy="509.0625" fill="#84BE84" rx="3" ry="3" style="stroke:#038048;stroke-width:1.0;"/><text fill="#000000" font-family="sans-serif" font-size="14" lengthAdjust="spacing" textLength="90" x="29" y="516.5957">getY(): double</text><ellipse cx="20" cy="526.6719" fill="#84BE84" rx="3" ry="3" style="stroke:#038048;stroke-width:1.0;"/><text fill="#000000" font-family="sans-serif" font-size="14" lengthAdjust="spacing" textLength="113" x="29" y="534.2051">setFill(Paint): void</text><ellipse cx="20" cy="544.2813" fill="#84BE84" rx="3" ry="3" style="stroke:#038048;stroke-width:1.0;"/><text fill="#000000" font-family="sans-serif" font-size="14" lengthAdjust="spacing" textLength="114" x="29" y="551.8145">setX(double): void</text><ellipse cx="20" cy="561.8906" fill="#84BE84" rx="3" ry="3" style="stroke:#038048;stroke-width:1.0;"/><text fill="#000000" font-family="sans-serif" font-size="14" lengthAdjust="spacing" textLength="115" x="29" y="569.4238">setY(double): void</text><ellipse cx="20" cy="579.5" fill="#84BE84" rx="3" ry="3" style="stroke:#038048;stroke-width:1.0;"/><text fill="#000000" font-family="sans-serif" font-size="14" lengthAdjust="spacing" textLength="119" x="29" y="587.0332">addX(double): void</text><ellipse cx="20" cy="597.1094" fill="#84BE84" rx="3" ry="3" style="stroke:#038048;stroke-width:1.0;"/><text fill="#000000" font-family="sans-serif" font-size="14" lengthAdjust="spacing" textLength="120" x="29" y="604.6426">addY(double): void</text></g></a><!--MD5=[4dd35be41eed362d9ba6518687f85199]
class com.javafwp.game.gameObjects.ObjectInterface--><a href="objectInterface.html" target="_top" title="objectInterface.html" xlink:actuate="onRequest" xlink:href="objectInterface.html" xlink:show="new" xlink:title="objectInterface.html" xlink:type="simple"><g id="elem_com.javafwp.game.gameObjects.ObjectInterface"><rect codeLine="22" fill="#F1F1F1" height="241.8906" id="com.javafwp.game.gameObjects.ObjectInterface" rx="2.5" ry="2.5" style="stroke:#181818;stroke-width:0.5;" width="180" x="75.5" y="7"/><ellipse cx="90.5" cy="27.0938" fill="#B4A7E5" rx="11" ry="11" style="stroke:#181818;stroke-width:1.0;"/><path d="M91.4531,23.7344 L91.4531,30.3906 L93.1719,30.3906 Q93.7813,30.3906 94.0469,30.625 Q94.3125,30.8594 94.3125,31.25 Q94.3125,31.625 94.0469,31.8594 Q93.7813,32.0938 93.1719,32.0938 L88.0313,32.0938 Q87.4219,32.0938 87.1563,31.8594 Q86.8906,31.625 86.8906,31.2344 Q86.8906,30.8594 87.1563,30.625 Q87.4219,30.3906 88.0313,30.3906 L89.75,30.3906 L89.75,23.7344 L88.0313,23.7344 Q87.4219,23.7344 87.1563,23.5 Q86.8906,23.2656 86.8906,22.875 Q86.8906,22.5 87.1563,22.2656 Q87.4219,22.0313 88.0313,22.0313 L93.1719,22.0313 Q93.7813,22.0313 94.0469,22.2656 Q94.3125,22.5 94.3125,22.875 Q94.3125,23.2656 94.0469,23.5 Q93.7813,23.7344 93.1719,23.7344 L91.4531,23.7344 Z " fill="#000000"/><text fill="#000000" font-family="sans-serif" font-size="14" font-style="italic" lengthAdjust="spacing" textLength="97" x="130" y="26.5332">ObjectInterface</text><text fill="#000000" font-family="sans-serif" font-size="10" font-style="italic" lengthAdjust="spacing" textLength="148" x="104.5" y="39.9902">com.javafwp.game.gameObjects</text><line style="stroke:#181818;stroke-width:0.5;" x1="76.5" x2="254.5" y1="47.1875" y2="47.1875"/><ellipse cx="86.5" cy="58.1875" fill="#84BE84" rx="3" ry="3" style="stroke:#038048;stroke-width:1.0;"/><text fill="#000000" font-family="sans-serif" font-size="14" font-style="italic" lengthAdjust="spacing" textLength="107" x="95.5" y="65.7207">getEntity(): Node</text><ellipse cx="86.5" cy="75.7969" fill="#84BE84" rx="3" ry="3" style="stroke:#038048;stroke-width:1.0;"/><text fill="#000000" font-family="sans-serif" font-size="14" font-style="italic" lengthAdjust="spacing" textLength="118" x="95.5" y="83.3301">getWidth(): double</text><ellipse cx="86.5" cy="93.4063" fill="#84BE84" rx="3" ry="3" style="stroke:#038048;stroke-width:1.0;"/><text fill="#000000" font-family="sans-serif" font-size="14" font-style="italic" lengthAdjust="spacing" textLength="122" x="95.5" y="100.9395">getHeight(): double</text><ellipse cx="86.5" cy="111.0156" fill="#84BE84" rx="3" ry="3" style="stroke:#038048;stroke-width:1.0;"/><text fill="#000000" font-family="sans-serif" font-size="14" font-style="italic" lengthAdjust="spacing" textLength="90" x="95.5" y="118.5488">getX(): double</text><ellipse cx="86.5" cy="128.625" fill="#84BE84" rx="3" ry="3" style="stroke:#038048;stroke-width:1.0;"/><text fill="#000000" font-family="sans-serif" font-size="14" font-style="italic" lengthAdjust="spacing" textLength="90" x="95.5" y="136.1582">getY(): double</text><ellipse cx="86.5" cy="146.2344" fill="#84BE84" rx="3" ry="3" style="stroke:#038048;stroke-width:1.0;"/><text fill="#000000" font-family="sans-serif" font-size="14" font-style="italic" lengthAdjust="spacing" textLength="97" x="95.5" y="153.7676">getType(): type</text><ellipse cx="86.5" cy="163.8438" fill="#84BE84" rx="3" ry="3" style="stroke:#038048;stroke-width:1.0;"/><text fill="#000000" font-family="sans-serif" font-size="14" font-style="italic" lengthAdjust="spacing" textLength="112" x="95.5" y="171.377">setFill(Paint): void</text><ellipse cx="86.5" cy="181.4531" fill="#84BE84" rx="3" ry="3" style="stroke:#038048;stroke-width:1.0;"/><text fill="#000000" font-family="sans-serif" font-size="14" font-style="italic" lengthAdjust="spacing" textLength="114" x="95.5" y="188.9863">setX(double): void</text><ellipse cx="86.5" cy="199.0625" fill="#84BE84" rx="3" ry="3" style="stroke:#038048;stroke-width:1.0;"/><text fill="#000000" font-family="sans-serif" font-size="14" font-style="italic" lengthAdjust="spacing" textLength="114" x="95.5" y="206.5957">setY(double): void</text><ellipse cx="86.5" cy="216.6719" fill="#84BE84" rx="3" ry="3" style="stroke:#038048;stroke-width:1.0;"/><text fill="#000000" font-family="sans-serif" font-size="14" font-style="italic" lengthAdjust="spacing" textLength="119" x="95.5" y="224.2051">addX(double): void</text><ellipse cx="86.5" cy="234.2813" fill="#84BE84" rx="3" ry="3" style="stroke:#038048;stroke-width:1.0;"/><text fill="#000000" font-family="sans-serif" font-size="14" font-style="italic" lengthAdjust="spacing" textLength="119" x="95.5" y="241.8145">addY(double): void</text></g></a><!--MD5=[3414bd43514165e394628f8f9158bb69]
reverse link com.javafwp.game.gameObjects.ObjectInterface to com.javafwp.game.gameObjects.Object--><g id="link_com.javafwp.game.gameObjects.ObjectInterface_com.javafwp.game.gameObjects.Object"><path codeLine="36" d="M165.5,269.51 C165.5,282.54 165.5,295.78 165.5,308.89 " fill="none" id="com.javafwp.game.gameObjects.ObjectInterface-backto-com.javafwp.game.gameObjects.Object" style="stroke:#181818;stroke-width:1.0;stroke-dasharray:7.0,7.0;"/><polygon fill="none" points="158.5,269.25,165.5,249.25,172.5,269.25,158.5,269.25" style="stroke:#181818;stroke-width:1.0;"/></g><rect height="12.5781" style="stroke:#00000000;stroke-width:1.0;fill:none;" width="184" x="65.5" y="617.7188"/><text fill="#888888" font-family="sans-serif" font-size="10" lengthAdjust="spacing" textLength="184" x="65.5" y="628.0996">UMLDoclet 2.0.17, PlantUML 1.2022.5</text><!--MD5=[62add4aa289a03db302d780e5581c5a3]
@startuml
    set namespaceSeparator none
    hide empty fields
    hide empty methods

    class "<size:14>Object\n<size:10>com.javafwp.game.gameObjects" as com.javafwp.game.gameObjects.Object [[object.html]] {
        #type: type
        #entity: Rectangle
        +Object(double, double, double, double, Paint)
        +getEntity(): Node
        +getWidth(): double
        +getHeight(): double
        +getType(): type
        +getX(): double
        +getY(): double
        +setFill(Paint): void
        +setX(double): void
        +setY(double): void
        +addX(double): void
        +addY(double): void
    }

    interface "<size:14>ObjectInterface\n<size:10>com.javafwp.game.gameObjects" as com.javafwp.game.gameObjects.ObjectInterface [[objectInterface.html]] {
        {abstract} +getEntity(): Node
        {abstract} +getWidth(): double
        {abstract} +getHeight(): double
        {abstract} +getX(): double
        {abstract} +getY(): double
        {abstract} +getType(): type
        {abstract} +setFill(Paint): void
        {abstract} +setX(double): void
        {abstract} +setY(double): void
        {abstract} +addX(double): void
        {abstract} +addY(double): void
    }

    com.javafwp.game.gameObjects.ObjectInterface <|.. com.javafwp.game.gameObjects.Object

    center footer UMLDoclet 2.0.17, PlantUML 1.2022.5
@enduml

PlantUML version 1.2022.5(Sat Apr 30 12:55:52 CEST 2022)
(APACHE source distribution)
Java Runtime: Java(TM) SE Runtime Environment
JVM: Java HotSpot(TM) 64-Bit Server VM
Default Encoding: UTF-8
Language: de
Country: DE
--></g></svg>