<?xml version="1.0" encoding="UTF-8" standalone="no"?><svg xmlns="http://www.w3.org/2000/svg" xmlns:xlink="http://www.w3.org/1999/xlink" contentStyleType="text/css" height="1036px" preserveAspectRatio="none" style="width:2011px;height:1036px;background:#FFFFFF;" version="1.1" viewBox="0 0 2011 1036" width="2011px" zoomAndPan="magnify"><defs/><g><!--MD5=[9dc71cace5eb178512d6261137bc0b93]
cluster com.javafwp.game.gameObjects--><g id="cluster_com.javafwp.game.gameObjects"><path d="M8.5,6 L234.5,6 A3.75,3.75 0 0 1 237,8.5 L244,29.6094 L2001.5,29.6094 A2.5,2.5 0 0 1 2004,32.1094 L2004,1007.5 A2.5,2.5 0 0 1 2001.5,1010 L8.5,1010 A2.5,2.5 0 0 1 6,1007.5 L6,8.5 A2.5,2.5 0 0 1 8.5,6 " style="stroke:#000000;stroke-width:1.5;fill:none;"/><line style="stroke:#000000;stroke-width:1.5;fill:none;" x1="6" x2="244" y1="29.6094" y2="29.6094"/><text fill="#000000" font-family="sans-serif" font-size="14" font-weight="bold" lengthAdjust="spacing" textLength="225" x="10" y="22.5332">com.javafwp.game.gameObjects</text></g><!--MD5=[d6a9bff99be029b2dc0d9820b2cd4198]
class com.javafwp.game.gameObjects.Enemy--><a href="enemy.html" target="_top" title="enemy.html" xlink:actuate="onRequest" xlink:href="enemy.html" xlink:show="new" xlink:title="enemy.html" xlink:type="simple"><g id="elem_com.javafwp.game.gameObjects.Enemy"><rect codeLine="3" fill="#F1F1F1" height="118.4375" id="com.javafwp.game.gameObjects.Enemy" rx="2.5" ry="2.5" style="stroke:#181818;stroke-width:0.5;" width="323" x="22.5" y="787.5"/><ellipse cx="158.25" cy="803.5" fill="#ADD1B2" rx="11" ry="11" style="stroke:#181818;stroke-width:1.0;"/><path d="M161.0156,799.375 Q161.1719,799.1563 161.3594,799.0469 Q161.5469,798.9375 161.7656,798.9375 Q162.1406,798.9375 162.375,799.2031 Q162.6094,799.4531 162.6094,800.0625 L162.6094,801.5156 Q162.6094,802.125 162.375,802.3906 Q162.1406,802.6563 161.7656,802.6563 Q161.4219,802.6563 161.2188,802.4531 Q161.0156,802.2656 160.9063,801.75 Q160.8594,801.3906 160.6719,801.2031 Q160.3438,800.8281 159.7344,800.6094 Q159.125,800.3906 158.5,800.3906 Q157.7344,800.3906 157.0938,800.7188 Q156.4688,801.0469 155.9688,801.7969 Q155.4844,802.5469 155.4844,803.5781 L155.4844,804.6719 Q155.4844,805.9063 156.375,806.7344 Q157.2656,807.5469 158.8594,807.5469 Q159.7969,807.5469 160.4531,807.2969 Q160.8438,807.1406 161.2656,806.7031 Q161.5313,806.4375 161.6719,806.3594 Q161.8281,806.2813 162.0313,806.2813 Q162.3594,806.2813 162.6094,806.5469 Q162.875,806.7969 162.875,807.1406 Q162.875,807.4844 162.5313,807.8906 Q162.0313,808.4688 161.2344,808.7969 Q160.1563,809.25 158.8594,809.25 Q157.3438,809.25 156.1406,808.625 Q155.1563,808.125 154.4688,807.0625 Q153.7813,805.9844 153.7813,804.7031 L153.7813,803.5469 Q153.7813,802.2188 154.3906,801.0781 Q155.0156,799.9219 156.1094,799.3125 Q157.2031,798.6875 158.4375,798.6875 Q159.1719,798.6875 159.8125,798.8594 Q160.4688,799.0156 161.0156,799.375 Z " fill="#000000"/><text fill="#000000" font-family="sans-serif" font-size="14" lengthAdjust="spacing" textLength="43" x="178.75" y="809.2285">Enemy</text><line style="stroke:#181818;stroke-width:0.5;" x1="23.5" x2="344.5" y1="819.5" y2="819.5"/><rect fill="none" height="6" style="stroke:#C82930;stroke-width:1.0;" width="6" x="30.5" y="827.5"/><text fill="#000000" font-family="sans-serif" font-size="14" lengthAdjust="spacing" textLength="91" x="42.5" y="838.0332">frames: Paint[]</text><rect fill="none" height="6" style="stroke:#C82930;stroke-width:1.0;" width="6" x="30.5" y="845.1094"/><text fill="#000000" font-family="sans-serif" font-size="14" lengthAdjust="spacing" textLength="135" x="42.5" y="855.6426">animationCounter: int</text><line style="stroke:#181818;stroke-width:0.5;" x1="23.5" x2="344.5" y1="862.7188" y2="862.7188"/><ellipse cx="33.5" cy="873.7188" fill="#84BE84" rx="3" ry="3" style="stroke:#038048;stroke-width:1.0;"/><text fill="#000000" font-family="sans-serif" font-size="14" lengthAdjust="spacing" textLength="297" x="42.5" y="881.252">Enemy(double, double, double, double, Paint[])</text><ellipse cx="33.5" cy="891.3281" fill="#84BE84" rx="3" ry="3" style="stroke:#038048;stroke-width:1.0;"/><text fill="#000000" font-family="sans-serif" font-size="14" lengthAdjust="spacing" textLength="224" x="42.5" y="898.8613">update(long, Point2D, double): void</text></g></a><!--MD5=[36f375faf5f4e536bf66284629f927d2]
class com.javafwp.game.gameObjects.Heatbar--><a href="heatbar.html" target="_top" title="heatbar.html" xlink:actuate="onRequest" xlink:href="heatbar.html" xlink:show="new" xlink:title="heatbar.html" xlink:type="simple"><g id="elem_com.javafwp.game.gameObjects.Heatbar"><rect codeLine="10" fill="#F1F1F1" height="188.875" id="com.javafwp.game.gameObjects.Heatbar" rx="2.5" ry="2.5" style="stroke:#181818;stroke-width:0.5;" width="366" x="381" y="752"/><ellipse cx="534.75" cy="768" fill="#ADD1B2" rx="11" ry="11" style="stroke:#181818;stroke-width:1.0;"/><path d="M537.5156,763.875 Q537.6719,763.6563 537.8594,763.5469 Q538.0469,763.4375 538.2656,763.4375 Q538.6406,763.4375 538.875,763.7031 Q539.1094,763.9531 539.1094,764.5625 L539.1094,766.0156 Q539.1094,766.625 538.875,766.8906 Q538.6406,767.1563 538.2656,767.1563 Q537.9219,767.1563 537.7188,766.9531 Q537.5156,766.7656 537.4063,766.25 Q537.3594,765.8906 537.1719,765.7031 Q536.8438,765.3281 536.2344,765.1094 Q535.625,764.8906 535,764.8906 Q534.2344,764.8906 533.5938,765.2188 Q532.9688,765.5469 532.4688,766.2969 Q531.9844,767.0469 531.9844,768.0781 L531.9844,769.1719 Q531.9844,770.4063 532.875,771.2344 Q533.7656,772.0469 535.3594,772.0469 Q536.2969,772.0469 536.9531,771.7969 Q537.3438,771.6406 537.7656,771.2031 Q538.0313,770.9375 538.1719,770.8594 Q538.3281,770.7813 538.5313,770.7813 Q538.8594,770.7813 539.1094,771.0469 Q539.375,771.2969 539.375,771.6406 Q539.375,771.9844 539.0313,772.3906 Q538.5313,772.9688 537.7344,773.2969 Q536.6563,773.75 535.3594,773.75 Q533.8438,773.75 532.6406,773.125 Q531.6563,772.625 530.9688,771.5625 Q530.2813,770.4844 530.2813,769.2031 L530.2813,768.0469 Q530.2813,766.7188 530.8906,765.5781 Q531.5156,764.4219 532.6094,763.8125 Q533.7031,763.1875 534.9375,763.1875 Q535.6719,763.1875 536.3125,763.3594 Q536.9688,763.5156 537.5156,763.875 Z " fill="#000000"/><text fill="#000000" font-family="sans-serif" font-size="14" lengthAdjust="spacing" textLength="50" x="555.25" y="773.7285">Heatbar</text><line style="stroke:#181818;stroke-width:0.5;" x1="382" x2="746" y1="784" y2="784"/><rect fill="none" height="6" style="stroke:#C82930;stroke-width:1.0;" width="6" x="389" y="792"/><text fill="#000000" font-family="sans-serif" font-size="14" lengthAdjust="spacing" textLength="104" x="401" y="802.5332">heatColor: Color</text><rect fill="none" height="6" style="stroke:#C82930;stroke-width:1.0;" width="6" x="389" y="809.6094"/><text fill="#000000" font-family="sans-serif" font-size="14" lengthAdjust="spacing" textLength="100" x="401" y="820.1426">heat: Rectangle</text><rect fill="none" height="6" style="stroke:#C82930;stroke-width:1.0;" width="6" x="389" y="827.2188"/><text fill="#000000" font-family="sans-serif" font-size="14" lengthAdjust="spacing" textLength="97" x="401" y="837.752">currentHeat: int</text><line style="stroke:#181818;stroke-width:0.5;" x1="382" x2="746" y1="844.8281" y2="844.8281"/><ellipse cx="392" cy="855.8281" fill="#84BE84" rx="3" ry="3" style="stroke:#038048;stroke-width:1.0;"/><text fill="#000000" font-family="sans-serif" font-size="14" lengthAdjust="spacing" textLength="340" x="401" y="863.3613">Heatbar(double, double, double, double, Color, Color)</text><ellipse cx="392" cy="873.4375" fill="#84BE84" rx="3" ry="3" style="stroke:#038048;stroke-width:1.0;"/><text fill="#000000" font-family="sans-serif" font-size="14" lengthAdjust="spacing" textLength="131" x="401" y="880.9707">update(double): void</text><ellipse cx="392" cy="891.0469" fill="#84BE84" rx="3" ry="3" style="stroke:#038048;stroke-width:1.0;"/><text fill="#000000" font-family="sans-serif" font-size="14" lengthAdjust="spacing" textLength="137" x="401" y="898.5801">addHeat(int): boolean</text><ellipse cx="392" cy="908.6563" fill="#84BE84" rx="3" ry="3" style="stroke:#038048;stroke-width:1.0;"/><text fill="#000000" font-family="sans-serif" font-size="14" lengthAdjust="spacing" textLength="76" x="401" y="916.1895">reset(): void</text><ellipse cx="392" cy="926.2656" fill="#84BE84" rx="3" ry="3" style="stroke:#038048;stroke-width:1.0;"/><text fill="#000000" font-family="sans-serif" font-size="14" lengthAdjust="spacing" textLength="125" x="401" y="933.7988">getEntities(): Node[]</text></g></a><!--MD5=[b02cf880865a9d0ac01b799707008f51]
class com.javafwp.game.gameObjects.Object--><a href="object.html" target="_top" title="object.html" xlink:actuate="onRequest" xlink:href="object.html" xlink:show="new" xlink:title="object.html" xlink:type="simple"><g id="elem_com.javafwp.game.gameObjects.Object"><rect codeLine="21" fill="#F1F1F1" height="294.5313" id="com.javafwp.game.gameObjects.Object" rx="2.5" ry="2.5" style="stroke:#181818;stroke-width:0.5;" width="313" x="789.5" y="344"/><ellipse cx="921.25" cy="360" fill="#ADD1B2" rx="11" ry="11" style="stroke:#181818;stroke-width:1.0;"/><path d="M924.0156,355.875 Q924.1719,355.6563 924.3594,355.5469 Q924.5469,355.4375 924.7656,355.4375 Q925.1406,355.4375 925.375,355.7031 Q925.6094,355.9531 925.6094,356.5625 L925.6094,358.0156 Q925.6094,358.625 925.375,358.8906 Q925.1406,359.1563 924.7656,359.1563 Q924.4219,359.1563 924.2188,358.9531 Q924.0156,358.7656 923.9063,358.25 Q923.8594,357.8906 923.6719,357.7031 Q923.3438,357.3281 922.7344,357.1094 Q922.125,356.8906 921.5,356.8906 Q920.7344,356.8906 920.0938,357.2188 Q919.4688,357.5469 918.9688,358.2969 Q918.4844,359.0469 918.4844,360.0781 L918.4844,361.1719 Q918.4844,362.4063 919.375,363.2344 Q920.2656,364.0469 921.8594,364.0469 Q922.7969,364.0469 923.4531,363.7969 Q923.8438,363.6406 924.2656,363.2031 Q924.5313,362.9375 924.6719,362.8594 Q924.8281,362.7813 925.0313,362.7813 Q925.3594,362.7813 925.6094,363.0469 Q925.875,363.2969 925.875,363.6406 Q925.875,363.9844 925.5313,364.3906 Q925.0313,364.9688 924.2344,365.2969 Q923.1563,365.75 921.8594,365.75 Q920.3438,365.75 919.1406,365.125 Q918.1563,364.625 917.4688,363.5625 Q916.7813,362.4844 916.7813,361.2031 L916.7813,360.0469 Q916.7813,358.7188 917.3906,357.5781 Q918.0156,356.4219 919.1094,355.8125 Q920.2031,355.1875 921.4375,355.1875 Q922.1719,355.1875 922.8125,355.3594 Q923.4688,355.5156 924.0156,355.875 Z " fill="#000000"/><text fill="#000000" font-family="sans-serif" font-size="14" lengthAdjust="spacing" textLength="41" x="941.75" y="365.7285">Object</text><line style="stroke:#181818;stroke-width:0.5;" x1="790.5" x2="1101.5" y1="376" y2="376"/><polygon fill="none" points="800.5,382,804.5,386,800.5,390,796.5,386" style="stroke:#B38D22;stroke-width:1.0;"/><text fill="#000000" font-family="sans-serif" font-size="14" lengthAdjust="spacing" textLength="62" x="809.5" y="394.5332">type: type</text><polygon fill="none" points="800.5,399.6094,804.5,403.6094,800.5,407.6094,796.5,403.6094" style="stroke:#B38D22;stroke-width:1.0;"/><text fill="#000000" font-family="sans-serif" font-size="14" lengthAdjust="spacing" textLength="106" x="809.5" y="412.1426">entity: Rectangle</text><line style="stroke:#181818;stroke-width:0.5;" x1="790.5" x2="1101.5" y1="419.2188" y2="419.2188"/><ellipse cx="800.5" cy="430.2188" fill="#84BE84" rx="3" ry="3" style="stroke:#038048;stroke-width:1.0;"/><text fill="#000000" font-family="sans-serif" font-size="14" lengthAdjust="spacing" textLength="287" x="809.5" y="437.752">Object(double, double, double, double, Paint)</text><ellipse cx="800.5" cy="447.8281" fill="#84BE84" rx="3" ry="3" style="stroke:#038048;stroke-width:1.0;"/><text fill="#000000" font-family="sans-serif" font-size="14" lengthAdjust="spacing" textLength="106" x="809.5" y="455.3613">getEntity(): Node</text><ellipse cx="800.5" cy="465.4375" fill="#84BE84" rx="3" ry="3" style="stroke:#038048;stroke-width:1.0;"/><text fill="#000000" font-family="sans-serif" font-size="14" lengthAdjust="spacing" textLength="117" x="809.5" y="472.9707">getWidth(): double</text><ellipse cx="800.5" cy="483.0469" fill="#84BE84" rx="3" ry="3" style="stroke:#038048;stroke-width:1.0;"/><text fill="#000000" font-family="sans-serif" font-size="14" lengthAdjust="spacing" textLength="121" x="809.5" y="490.5801">getHeight(): double</text><ellipse cx="800.5" cy="500.6563" fill="#84BE84" rx="3" ry="3" style="stroke:#038048;stroke-width:1.0;"/><text fill="#000000" font-family="sans-serif" font-size="14" lengthAdjust="spacing" textLength="97" x="809.5" y="508.1895">getType(): type</text><ellipse cx="800.5" cy="518.2656" fill="#84BE84" rx="3" ry="3" style="stroke:#038048;stroke-width:1.0;"/><text fill="#000000" font-family="sans-serif" font-size="14" lengthAdjust="spacing" textLength="89" x="809.5" y="525.7988">getX(): double</text><ellipse cx="800.5" cy="535.875" fill="#84BE84" rx="3" ry="3" style="stroke:#038048;stroke-width:1.0;"/><text fill="#000000" font-family="sans-serif" font-size="14" lengthAdjust="spacing" textLength="90" x="809.5" y="543.4082">getY(): double</text><ellipse cx="800.5" cy="553.4844" fill="#84BE84" rx="3" ry="3" style="stroke:#038048;stroke-width:1.0;"/><text fill="#000000" font-family="sans-serif" font-size="14" lengthAdjust="spacing" textLength="113" x="809.5" y="561.0176">setFill(Paint): void</text><ellipse cx="800.5" cy="571.0938" fill="#84BE84" rx="3" ry="3" style="stroke:#038048;stroke-width:1.0;"/><text fill="#000000" font-family="sans-serif" font-size="14" lengthAdjust="spacing" textLength="114" x="809.5" y="578.627">setX(double): void</text><ellipse cx="800.5" cy="588.7031" fill="#84BE84" rx="3" ry="3" style="stroke:#038048;stroke-width:1.0;"/><text fill="#000000" font-family="sans-serif" font-size="14" lengthAdjust="spacing" textLength="115" x="809.5" y="596.2363">setY(double): void</text><ellipse cx="800.5" cy="606.3125" fill="#84BE84" rx="3" ry="3" style="stroke:#038048;stroke-width:1.0;"/><text fill="#000000" font-family="sans-serif" font-size="14" lengthAdjust="spacing" textLength="119" x="809.5" y="613.8457">addX(double): void</text><ellipse cx="800.5" cy="623.9219" fill="#84BE84" rx="3" ry="3" style="stroke:#038048;stroke-width:1.0;"/><text fill="#000000" font-family="sans-serif" font-size="14" lengthAdjust="spacing" textLength="120" x="809.5" y="631.4551">addY(double): void</text></g></a><!--MD5=[4dd35be41eed362d9ba6518687f85199]
class com.javafwp.game.gameObjects.ObjectInterface--><a href="objectInterface.html" target="_top" title="objectInterface.html" xlink:actuate="onRequest" xlink:href="objectInterface.html" xlink:show="new" xlink:title="objectInterface.html" xlink:type="simple"><g id="elem_com.javafwp.game.gameObjects.ObjectInterface"><rect codeLine="38" fill="#F1F1F1" height="241.7031" id="com.javafwp.game.gameObjects.ObjectInterface" rx="2.5" ry="2.5" style="stroke:#181818;stroke-width:0.5;" width="148" x="872" y="42"/><ellipse cx="895.55" cy="58" fill="#B4A7E5" rx="11" ry="11" style="stroke:#181818;stroke-width:1.0;"/><path d="M896.5031,54.6406 L896.5031,61.2969 L898.2219,61.2969 Q898.8313,61.2969 899.0969,61.5313 Q899.3625,61.7656 899.3625,62.1563 Q899.3625,62.5313 899.0969,62.7656 Q898.8313,63 898.2219,63 L893.0813,63 Q892.4719,63 892.2063,62.7656 Q891.9406,62.5313 891.9406,62.1406 Q891.9406,61.7656 892.2063,61.5313 Q892.4719,61.2969 893.0813,61.2969 L894.8,61.2969 L894.8,54.6406 L893.0813,54.6406 Q892.4719,54.6406 892.2063,54.4063 Q891.9406,54.1719 891.9406,53.7813 Q891.9406,53.4063 892.2063,53.1719 Q892.4719,52.9375 893.0813,52.9375 L898.2219,52.9375 Q898.8313,52.9375 899.0969,53.1719 Q899.3625,53.4063 899.3625,53.7813 Q899.3625,54.1719 899.0969,54.4063 Q898.8313,54.6406 898.2219,54.6406 L896.5031,54.6406 Z " fill="#000000"/><text fill="#000000" font-family="sans-serif" font-size="14" font-style="italic" lengthAdjust="spacing" textLength="97" x="911.45" y="63.7285">ObjectInterface</text><line style="stroke:#181818;stroke-width:0.5;" x1="873" x2="1019" y1="74" y2="74"/><line style="stroke:#181818;stroke-width:0.5;" x1="873" x2="1019" y1="82" y2="82"/><ellipse cx="883" cy="93" fill="#84BE84" rx="3" ry="3" style="stroke:#038048;stroke-width:1.0;"/><text fill="#000000" font-family="sans-serif" font-size="14" font-style="italic" lengthAdjust="spacing" textLength="107" x="892" y="100.5332">getEntity(): Node</text><ellipse cx="883" cy="110.6094" fill="#84BE84" rx="3" ry="3" style="stroke:#038048;stroke-width:1.0;"/><text fill="#000000" font-family="sans-serif" font-size="14" font-style="italic" lengthAdjust="spacing" textLength="118" x="892" y="118.1426">getWidth(): double</text><ellipse cx="883" cy="128.2188" fill="#84BE84" rx="3" ry="3" style="stroke:#038048;stroke-width:1.0;"/><text fill="#000000" font-family="sans-serif" font-size="14" font-style="italic" lengthAdjust="spacing" textLength="122" x="892" y="135.752">getHeight(): double</text><ellipse cx="883" cy="145.8281" fill="#84BE84" rx="3" ry="3" style="stroke:#038048;stroke-width:1.0;"/><text fill="#000000" font-family="sans-serif" font-size="14" font-style="italic" lengthAdjust="spacing" textLength="90" x="892" y="153.3613">getX(): double</text><ellipse cx="883" cy="163.4375" fill="#84BE84" rx="3" ry="3" style="stroke:#038048;stroke-width:1.0;"/><text fill="#000000" font-family="sans-serif" font-size="14" font-style="italic" lengthAdjust="spacing" textLength="90" x="892" y="170.9707">getY(): double</text><ellipse cx="883" cy="181.0469" fill="#84BE84" rx="3" ry="3" style="stroke:#038048;stroke-width:1.0;"/><text fill="#000000" font-family="sans-serif" font-size="14" font-style="italic" lengthAdjust="spacing" textLength="97" x="892" y="188.5801">getType(): type</text><ellipse cx="883" cy="198.6563" fill="#84BE84" rx="3" ry="3" style="stroke:#038048;stroke-width:1.0;"/><text fill="#000000" font-family="sans-serif" font-size="14" font-style="italic" lengthAdjust="spacing" textLength="112" x="892" y="206.1895">setFill(Paint): void</text><ellipse cx="883" cy="216.2656" fill="#84BE84" rx="3" ry="3" style="stroke:#038048;stroke-width:1.0;"/><text fill="#000000" font-family="sans-serif" font-size="14" font-style="italic" lengthAdjust="spacing" textLength="114" x="892" y="223.7988">setX(double): void</text><ellipse cx="883" cy="233.875" fill="#84BE84" rx="3" ry="3" style="stroke:#038048;stroke-width:1.0;"/><text fill="#000000" font-family="sans-serif" font-size="14" font-style="italic" lengthAdjust="spacing" textLength="114" x="892" y="241.4082">setY(double): void</text><ellipse cx="883" cy="251.4844" fill="#84BE84" rx="3" ry="3" style="stroke:#038048;stroke-width:1.0;"/><text fill="#000000" font-family="sans-serif" font-size="14" font-style="italic" lengthAdjust="spacing" textLength="119" x="892" y="259.0176">addX(double): void</text><ellipse cx="883" cy="269.0938" fill="#84BE84" rx="3" ry="3" style="stroke:#038048;stroke-width:1.0;"/><text fill="#000000" font-family="sans-serif" font-size="14" font-style="italic" lengthAdjust="spacing" textLength="119" x="892" y="276.627">addY(double): void</text></g></a><!--MD5=[e4e261e68d1dd5a1c58b982183532505]
class com.javafwp.game.gameObjects.Plattform--><a href="plattform.html" target="_top" title="plattform.html" xlink:actuate="onRequest" xlink:href="plattform.html" xlink:show="new" xlink:title="plattform.html" xlink:type="simple"><g id="elem_com.javafwp.game.gameObjects.Plattform"><rect codeLine="52" fill="#F1F1F1" height="83.2188" id="com.javafwp.game.gameObjects.Plattform" rx="2.5" ry="2.5" style="stroke:#181818;stroke-width:0.5;" width="328" x="782" y="805"/><ellipse cx="913.75" cy="821" fill="#ADD1B2" rx="11" ry="11" style="stroke:#181818;stroke-width:1.0;"/><path d="M916.5156,816.875 Q916.6719,816.6563 916.8594,816.5469 Q917.0469,816.4375 917.2656,816.4375 Q917.6406,816.4375 917.875,816.7031 Q918.1094,816.9531 918.1094,817.5625 L918.1094,819.0156 Q918.1094,819.625 917.875,819.8906 Q917.6406,820.1563 917.2656,820.1563 Q916.9219,820.1563 916.7188,819.9531 Q916.5156,819.7656 916.4063,819.25 Q916.3594,818.8906 916.1719,818.7031 Q915.8438,818.3281 915.2344,818.1094 Q914.625,817.8906 914,817.8906 Q913.2344,817.8906 912.5938,818.2188 Q911.9688,818.5469 911.4688,819.2969 Q910.9844,820.0469 910.9844,821.0781 L910.9844,822.1719 Q910.9844,823.4063 911.875,824.2344 Q912.7656,825.0469 914.3594,825.0469 Q915.2969,825.0469 915.9531,824.7969 Q916.3438,824.6406 916.7656,824.2031 Q917.0313,823.9375 917.1719,823.8594 Q917.3281,823.7813 917.5313,823.7813 Q917.8594,823.7813 918.1094,824.0469 Q918.375,824.2969 918.375,824.6406 Q918.375,824.9844 918.0313,825.3906 Q917.5313,825.9688 916.7344,826.2969 Q915.6563,826.75 914.3594,826.75 Q912.8438,826.75 911.6406,826.125 Q910.6563,825.625 909.9688,824.5625 Q909.2813,823.4844 909.2813,822.2031 L909.2813,821.0469 Q909.2813,819.7188 909.8906,818.5781 Q910.5156,817.4219 911.6094,816.8125 Q912.7031,816.1875 913.9375,816.1875 Q914.6719,816.1875 915.3125,816.3594 Q915.9688,816.5156 916.5156,816.875 Z " fill="#000000"/><text fill="#000000" font-family="sans-serif" font-size="14" lengthAdjust="spacing" textLength="56" x="934.25" y="826.7285">Plattform</text><line style="stroke:#181818;stroke-width:0.5;" x1="783" x2="1109" y1="837" y2="837"/><line style="stroke:#181818;stroke-width:0.5;" x1="783" x2="1109" y1="845" y2="845"/><ellipse cx="793" cy="856" fill="#84BE84" rx="3" ry="3" style="stroke:#038048;stroke-width:1.0;"/><text fill="#000000" font-family="sans-serif" font-size="14" lengthAdjust="spacing" textLength="302" x="802" y="863.5332">Plattform(double, double, double, double, Paint)</text><ellipse cx="793" cy="873.6094" fill="#84BE84" rx="3" ry="3" style="stroke:#038048;stroke-width:1.0;"/><text fill="#000000" font-family="sans-serif" font-size="14" lengthAdjust="spacing" textLength="131" x="802" y="881.1426">update(double): void</text></g></a><!--MD5=[c4ebfa943329a97e93bfd2c417e230d8]
class com.javafwp.game.gameObjects.Player--><a href="player.html" target="_top" title="player.html" xlink:actuate="onRequest" xlink:href="player.html" xlink:show="new" xlink:title="player.html" xlink:type="simple"><g id="elem_com.javafwp.game.gameObjects.Player"><rect codeLine="57" fill="#F1F1F1" height="294.5313" id="com.javafwp.game.gameObjects.Player" rx="2.5" ry="2.5" style="stroke:#181818;stroke-width:0.5;" width="419" x="1145.5" y="699"/><ellipse cx="1330.75" cy="715" fill="#ADD1B2" rx="11" ry="11" style="stroke:#181818;stroke-width:1.0;"/><path d="M1333.5156,710.875 Q1333.6719,710.6563 1333.8594,710.5469 Q1334.0469,710.4375 1334.2656,710.4375 Q1334.6406,710.4375 1334.875,710.7031 Q1335.1094,710.9531 1335.1094,711.5625 L1335.1094,713.0156 Q1335.1094,713.625 1334.875,713.8906 Q1334.6406,714.1563 1334.2656,714.1563 Q1333.9219,714.1563 1333.7188,713.9531 Q1333.5156,713.7656 1333.4063,713.25 Q1333.3594,712.8906 1333.1719,712.7031 Q1332.8438,712.3281 1332.2344,712.1094 Q1331.625,711.8906 1331,711.8906 Q1330.2344,711.8906 1329.5938,712.2188 Q1328.9688,712.5469 1328.4688,713.2969 Q1327.9844,714.0469 1327.9844,715.0781 L1327.9844,716.1719 Q1327.9844,717.4063 1328.875,718.2344 Q1329.7656,719.0469 1331.3594,719.0469 Q1332.2969,719.0469 1332.9531,718.7969 Q1333.3438,718.6406 1333.7656,718.2031 Q1334.0313,717.9375 1334.1719,717.8594 Q1334.3281,717.7813 1334.5313,717.7813 Q1334.8594,717.7813 1335.1094,718.0469 Q1335.375,718.2969 1335.375,718.6406 Q1335.375,718.9844 1335.0313,719.3906 Q1334.5313,719.9688 1333.7344,720.2969 Q1332.6563,720.75 1331.3594,720.75 Q1329.8438,720.75 1328.6406,720.125 Q1327.6563,719.625 1326.9688,718.5625 Q1326.2813,717.4844 1326.2813,716.2031 L1326.2813,715.0469 Q1326.2813,713.7188 1326.8906,712.5781 Q1327.5156,711.4219 1328.6094,710.8125 Q1329.7031,710.1875 1330.9375,710.1875 Q1331.6719,710.1875 1332.3125,710.3594 Q1332.9688,710.5156 1333.5156,710.875 Z " fill="#000000"/><text fill="#000000" font-family="sans-serif" font-size="14" lengthAdjust="spacing" textLength="40" x="1351.25" y="720.7285">Player</text><line style="stroke:#181818;stroke-width:0.5;" x1="1146.5" x2="1563.5" y1="731" y2="731"/><polygon fill="none" points="1156.5,738,1152.5,744,1160.5,744" style="stroke:#1963A0;stroke-width:1.0;"/><text fill="#000000" font-family="sans-serif" font-size="14" lengthAdjust="spacing" textLength="115" x="1165.5" y="749.5332">canJump: boolean</text><polygon fill="none" points="1156.5,755.6094,1152.5,761.6094,1160.5,761.6094" style="stroke:#1963A0;stroke-width:1.0;"/><text fill="#000000" font-family="sans-serif" font-size="14" lengthAdjust="spacing" textLength="76" x="1165.5" y="767.1426">vel: Point2D</text><polygon fill="none" points="1156.5,773.2188,1152.5,779.2188,1160.5,779.2188" style="stroke:#1963A0;stroke-width:1.0;"/><text fill="#000000" font-family="sans-serif" font-size="14" lengthAdjust="spacing" textLength="73" x="1165.5" y="784.752">acc: double</text><polygon fill="none" points="1156.5,790.8281,1152.5,796.8281,1160.5,796.8281" style="stroke:#1963A0;stroke-width:1.0;"/><text fill="#000000" font-family="sans-serif" font-size="14" lengthAdjust="spacing" textLength="118" x="1165.5" y="802.3613">idleFrames: Paint[]</text><polygon fill="none" points="1156.5,808.4375,1152.5,814.4375,1160.5,814.4375" style="stroke:#1963A0;stroke-width:1.0;"/><text fill="#000000" font-family="sans-serif" font-size="14" lengthAdjust="spacing" textLength="144" x="1165.5" y="819.9707">runningFrames: Paint[]</text><polygon fill="none" points="1156.5,826.0469,1152.5,832.0469,1160.5,832.0469" style="stroke:#1963A0;stroke-width:1.0;"/><text fill="#000000" font-family="sans-serif" font-size="14" lengthAdjust="spacing" textLength="176" x="1165.5" y="837.5801">animationFrameCounter: int</text><polygon fill="none" points="1156.5,843.6563,1152.5,849.6563,1160.5,849.6563" style="stroke:#1963A0;stroke-width:1.0;"/><text fill="#000000" font-family="sans-serif" font-size="14" lengthAdjust="spacing" textLength="163" x="1165.5" y="855.1895">jumpSfx: ParalellSfxPlayer</text><line style="stroke:#181818;stroke-width:0.5;" x1="1146.5" x2="1563.5" y1="862.2656" y2="862.2656"/><ellipse cx="1156.5" cy="873.2656" fill="#84BE84" rx="3" ry="3" style="stroke:#038048;stroke-width:1.0;"/><text fill="#000000" font-family="sans-serif" font-size="14" lengthAdjust="spacing" textLength="393" x="1165.5" y="880.7988">Player(double, double, double, double, double, Paint[], Paint[])</text><ellipse cx="1156.5" cy="890.875" fill="#84BE84" rx="3" ry="3" style="stroke:#038048;stroke-width:1.0;"/><text fill="#000000" font-family="sans-serif" font-size="14" lengthAdjust="spacing" textLength="302" x="1165.5" y="898.4082">update(long, ArrayList&lt;Plattform&gt;, double): void</text><ellipse cx="1156.5" cy="908.4844" fill="#84BE84" rx="3" ry="3" style="stroke:#038048;stroke-width:1.0;"/><text fill="#000000" font-family="sans-serif" font-size="14" lengthAdjust="spacing" textLength="108" x="1165.5" y="916.0176">getVel(): Point2D</text><ellipse cx="1156.5" cy="926.0938" fill="#84BE84" rx="3" ry="3" style="stroke:#038048;stroke-width:1.0;"/><text fill="#000000" font-family="sans-serif" font-size="14" lengthAdjust="spacing" textLength="128" x="1165.5" y="933.627">move(Point2D): void</text><ellipse cx="1156.5" cy="943.7031" fill="#84BE84" rx="3" ry="3" style="stroke:#038048;stroke-width:1.0;"/><text fill="#000000" font-family="sans-serif" font-size="14" lengthAdjust="spacing" textLength="117" x="1165.5" y="951.2363">jump(double): void</text><ellipse cx="1156.5" cy="961.3125" fill="#84BE84" rx="3" ry="3" style="stroke:#038048;stroke-width:1.0;"/><text fill="#000000" font-family="sans-serif" font-size="14" lengthAdjust="spacing" textLength="174" x="1165.5" y="968.8457">death(double, double): void</text><ellipse cx="1156.5" cy="978.9219" fill="#84BE84" rx="3" ry="3" style="stroke:#038048;stroke-width:1.0;"/><text fill="#000000" font-family="sans-serif" font-size="14" lengthAdjust="spacing" textLength="148" x="1165.5" y="986.4551">getCanJump(): boolean</text></g></a><!--MD5=[d1e200dcedeb391c48b0ce80acfb25ea]
class com.javafwp.game.gameObjects.Projectile--><a href="projectile.html" target="_top" title="projectile.html" xlink:actuate="onRequest" xlink:href="projectile.html" xlink:show="new" xlink:title="projectile.html" xlink:type="simple"><g id="elem_com.javafwp.game.gameObjects.Projectile"><rect codeLine="74" fill="#F1F1F1" height="100.8281" id="com.javafwp.game.gameObjects.Projectile" rx="2.5" ry="2.5" style="stroke:#181818;stroke-width:0.5;" width="388" x="1600" y="796"/><ellipse cx="1760.75" cy="812" fill="#ADD1B2" rx="11" ry="11" style="stroke:#181818;stroke-width:1.0;"/><path d="M1763.5156,807.875 Q1763.6719,807.6563 1763.8594,807.5469 Q1764.0469,807.4375 1764.2656,807.4375 Q1764.6406,807.4375 1764.875,807.7031 Q1765.1094,807.9531 1765.1094,808.5625 L1765.1094,810.0156 Q1765.1094,810.625 1764.875,810.8906 Q1764.6406,811.1563 1764.2656,811.1563 Q1763.9219,811.1563 1763.7188,810.9531 Q1763.5156,810.7656 1763.4063,810.25 Q1763.3594,809.8906 1763.1719,809.7031 Q1762.8438,809.3281 1762.2344,809.1094 Q1761.625,808.8906 1761,808.8906 Q1760.2344,808.8906 1759.5938,809.2188 Q1758.9688,809.5469 1758.4688,810.2969 Q1757.9844,811.0469 1757.9844,812.0781 L1757.9844,813.1719 Q1757.9844,814.4063 1758.875,815.2344 Q1759.7656,816.0469 1761.3594,816.0469 Q1762.2969,816.0469 1762.9531,815.7969 Q1763.3438,815.6406 1763.7656,815.2031 Q1764.0313,814.9375 1764.1719,814.8594 Q1764.3281,814.7813 1764.5313,814.7813 Q1764.8594,814.7813 1765.1094,815.0469 Q1765.375,815.2969 1765.375,815.6406 Q1765.375,815.9844 1765.0313,816.3906 Q1764.5313,816.9688 1763.7344,817.2969 Q1762.6563,817.75 1761.3594,817.75 Q1759.8438,817.75 1758.6406,817.125 Q1757.6563,816.625 1756.9688,815.5625 Q1756.2813,814.4844 1756.2813,813.2031 L1756.2813,812.0469 Q1756.2813,810.7188 1756.8906,809.5781 Q1757.5156,808.4219 1758.6094,807.8125 Q1759.7031,807.1875 1760.9375,807.1875 Q1761.6719,807.1875 1762.3125,807.3594 Q1762.9688,807.5156 1763.5156,807.875 Z " fill="#000000"/><text fill="#000000" font-family="sans-serif" font-size="14" lengthAdjust="spacing" textLength="58" x="1781.25" y="817.7285">Projectile</text><line style="stroke:#181818;stroke-width:0.5;" x1="1601" x2="1987" y1="828" y2="828"/><polygon fill="none" points="1611,835,1607,841,1615,841" style="stroke:#1963A0;stroke-width:1.0;"/><text fill="#000000" font-family="sans-serif" font-size="14" lengthAdjust="spacing" textLength="74" x="1620" y="846.5332">dir: Point2D</text><line style="stroke:#181818;stroke-width:0.5;" x1="1601" x2="1987" y1="853.6094" y2="853.6094"/><ellipse cx="1611" cy="864.6094" fill="#84BE84" rx="3" ry="3" style="stroke:#038048;stroke-width:1.0;"/><text fill="#000000" font-family="sans-serif" font-size="14" lengthAdjust="spacing" textLength="362" x="1620" y="872.1426">Projectile(double, double, double, double, Point2D, Paint)</text><ellipse cx="1611" cy="882.2188" fill="#84BE84" rx="3" ry="3" style="stroke:#038048;stroke-width:1.0;"/><text fill="#000000" font-family="sans-serif" font-size="14" lengthAdjust="spacing" textLength="131" x="1620" y="889.752">update(double): void</text></g></a><!--MD5=[d981af656efc89fe8dc4166b25880440]
reverse link com.javafwp.game.gameObjects.Object to com.javafwp.game.gameObjects.Enemy--><g id="link_com.javafwp.game.gameObjects.Object_com.javafwp.game.gameObjects.Enemy"><path codeLine="80" d="M769.87,537.87 C650.81,572.58 492.48,626.78 364,699 C320.97,723.18 277.91,757.77 244.69,787.26 " fill="none" id="com.javafwp.game.gameObjects.Object-backto-com.javafwp.game.gameObjects.Enemy" style="stroke:#181818;stroke-width:1.0;"/><polygon fill="none" points="768.22,531.06,789.38,532.25,772.1,544.51,768.22,531.06" style="stroke:#181818;stroke-width:1.0;"/></g><!--MD5=[20294effb70a0e7a92d4ab3794c13fea]
reverse link com.javafwp.game.gameObjects.Object to com.javafwp.game.gameObjects.Heatbar--><g id="link_com.javafwp.game.gameObjects.Object_com.javafwp.game.gameObjects.Heatbar"><path codeLine="81" d="M774.47,651.01 C737.2,685.44 698.94,720.81 665.42,751.78 " fill="none" id="com.javafwp.game.gameObjects.Object-backto-com.javafwp.game.gameObjects.Heatbar" style="stroke:#181818;stroke-width:1.0;"/><polygon fill="none" points="769.81,645.78,789.25,637.35,779.31,656.07,769.81,645.78" style="stroke:#181818;stroke-width:1.0;"/></g><!--MD5=[3414bd43514165e394628f8f9158bb69]
reverse link com.javafwp.game.gameObjects.ObjectInterface to com.javafwp.game.gameObjects.Object--><g id="link_com.javafwp.game.gameObjects.ObjectInterface_com.javafwp.game.gameObjects.Object"><path codeLine="82" d="M946,304.51 C946,317.58 946,330.85 946,343.97 " fill="none" id="com.javafwp.game.gameObjects.ObjectInterface-backto-com.javafwp.game.gameObjects.Object" style="stroke:#181818;stroke-width:1.0;stroke-dasharray:7.0,7.0;"/><polygon fill="none" points="939,304.19,946,284.19,953,304.19,939,304.19" style="stroke:#181818;stroke-width:1.0;"/></g><!--MD5=[0f67c69eba9583a795741fa2b1f34ce5]
reverse link com.javafwp.game.gameObjects.Object to com.javafwp.game.gameObjects.Plattform--><g id="link_com.javafwp.game.gameObjects.Object_com.javafwp.game.gameObjects.Plattform"><path codeLine="83" d="M946,659.33 C946,713.31 946,768.51 946,804.63 " fill="none" id="com.javafwp.game.gameObjects.Object-backto-com.javafwp.game.gameObjects.Plattform" style="stroke:#181818;stroke-width:1.0;"/><polygon fill="none" points="939,659.14,946,639.14,953,659.14,939,659.14" style="stroke:#181818;stroke-width:1.0;"/></g><!--MD5=[e77bac4e69c0e5ffb5da0094aec0aa93]
reverse link com.javafwp.game.gameObjects.Object to com.javafwp.game.gameObjects.Player--><g id="link_com.javafwp.game.gameObjects.Object_com.javafwp.game.gameObjects.Player"><path codeLine="84" d="M1117.93,640.89 C1140.11,660.04 1162.82,679.64 1184.98,698.75 " fill="none" id="com.javafwp.game.gameObjects.Object-backto-com.javafwp.game.gameObjects.Player" style="stroke:#181818;stroke-width:1.0;"/><polygon fill="none" points="1113.24,646.08,1102.67,627.72,1122.38,635.49,1113.24,646.08" style="stroke:#181818;stroke-width:1.0;"/></g><!--MD5=[961030cd557c91f8d14761c9bf4d7b74]
reverse link com.javafwp.game.gameObjects.Object to com.javafwp.game.gameObjects.Projectile--><g id="link_com.javafwp.game.gameObjects.Object_com.javafwp.game.gameObjects.Projectile"><path codeLine="85" d="M1122.27,534.9 C1253.01,569.85 1433.53,625.57 1582,699 C1635.94,725.68 1691.72,764.76 1732.52,795.85 " fill="none" id="com.javafwp.game.gameObjects.Object-backto-com.javafwp.game.gameObjects.Projectile" style="stroke:#181818;stroke-width:1.0;"/><polygon fill="none" points="1120.09,541.57,1102.54,529.69,1123.66,528.03,1120.09,541.57" style="stroke:#181818;stroke-width:1.0;"/></g><rect height="12.5781" style="stroke:#00000000;stroke-width:1.0;fill:none;" width="184" x="906.5" y="1016"/><text fill="#888888" font-family="sans-serif" font-size="10" lengthAdjust="spacing" textLength="184" x="906.5" y="1026.3809">UMLDoclet 2.0.17, PlantUML 1.2022.5</text><!--MD5=[e132d067d2fe23fe8508eb4e80a56dc5]
@startuml
    namespace com.javafwp.game.gameObjects {

        class Enemy [[enemy.html]] {
            -frames: Paint[]
            -animationCounter: int
            +Enemy(double, double, double, double, Paint[])
            +update(long, Point2D, double): void
        }

        class Heatbar [[heatbar.html]] {
            -heatColor: Color
            -heat: Rectangle
            -currentHeat: int
            +Heatbar(double, double, double, double, Color, Color)
            +update(double): void
            +addHeat(int): boolean
            +reset(): void
            +getEntities(): Node[]
        }

        class Object [[object.html]] {
            #type: type
            #entity: Rectangle
            +Object(double, double, double, double, Paint)
            +getEntity(): Node
            +getWidth(): double
            +getHeight(): double
            +getType(): type
            +getX(): double
            +getY(): double
            +setFill(Paint): void
            +setX(double): void
            +setY(double): void
            +addX(double): void
            +addY(double): void
        }

        interface ObjectInterface [[objectInterface.html]] {
            {abstract} +getEntity(): Node
            {abstract} +getWidth(): double
            {abstract} +getHeight(): double
            {abstract} +getX(): double
            {abstract} +getY(): double
            {abstract} +getType(): type
            {abstract} +setFill(Paint): void
            {abstract} +setX(double): void
            {abstract} +setY(double): void
            {abstract} +addX(double): void
            {abstract} +addY(double): void
        }

        class Plattform [[plattform.html]] {
            +Plattform(double, double, double, double, Paint)
            +update(double): void
        }

        class Player [[player.html]] {
            ~canJump: boolean
            ~vel: Point2D
            ~acc: double
            ~idleFrames: Paint[]
            ~runningFrames: Paint[]
            ~animationFrameCounter: int
            ~jumpSfx: ParalellSfxPlayer
            +Player(double, double, double, double, double, Paint[], Paint[])
            +update(long, ArrayList<Plattform>, double): void
            +getVel(): Point2D
            +move(Point2D): void
            +jump(double): void
            +death(double, double): void
            +getCanJump(): boolean
        }

        class Projectile [[projectile.html]] {
            ~dir: Point2D
            +Projectile(double, double, double, double, Point2D, Paint)
            +update(double): void
        }

        Object <|- - Enemy
        Object <|- - Heatbar
        ObjectInterface <|.. Object
        Object <|- - Plattform
        Object <|- - Player
        Object <|- - Projectile
    }

    center footer UMLDoclet 2.0.17, PlantUML 1.2022.5
@enduml

PlantUML version 1.2022.5(Sat Apr 30 12:55:52 CEST 2022)
(APACHE source distribution)
Java Runtime: Java(TM) SE Runtime Environment
JVM: Java HotSpot(TM) 64-Bit Server VM
Default Encoding: UTF-8
Language: de
Country: DE
--></g></svg>