<?xml version="1.0" encoding="UTF-8" standalone="no"?><svg xmlns="http://www.w3.org/2000/svg" xmlns:xlink="http://www.w3.org/1999/xlink" contentStyleType="text/css" height="989px" preserveAspectRatio="none" style="width:2165px;height:989px;background:#FFFFFF;" version="1.1" viewBox="0 0 2165 989" width="2165px" zoomAndPan="magnify"><defs/><g><!--MD5=[9dc71cace5eb178512d6261137bc0b93]
cluster com.javafwp.game.gameObjects--><g id="cluster_com.javafwp.game.gameObjects"><path d="M8.5,6 L237.5,6 A3.75,3.75 0 0 1 240,8.5 L247,28.4883 L2155.5,28.4883 A2.5,2.5 0 0 1 2158,30.9883 L2158,961.5 A2.5,2.5 0 0 1 2155.5,964 L8.5,964 A2.5,2.5 0 0 1 6,961.5 L6,8.5 A2.5,2.5 0 0 1 8.5,6 " style="stroke:#000000;stroke-width:1.5;fill:none;"/><line style="stroke:#000000;stroke-width:1.5;fill:none;" x1="6" x2="247" y1="28.4883" y2="28.4883"/><text fill="#000000" font-family="sans-serif" font-size="14" font-weight="bold" lengthAdjust="spacing" textLength="228" x="10" y="21.5352">com.javafwp.game.gameObjects</text></g><!--MD5=[ca79aaa1282f122ae0b3da71cb21bd2b]
class com.javafwp.game.gameObjects.enemy--><a href="enemy.html" target="_top" title="enemy.html" xlink:actuate="onRequest" xlink:href="enemy.html" xlink:show="new" xlink:title="enemy.html" xlink:type="simple"><g id="elem_com.javafwp.game.gameObjects.enemy"><rect codeLine="3" fill="#F1F1F1" height="113.9531" id="com.javafwp.game.gameObjects.enemy" rx="2.5" ry="2.5" style="stroke:#181818;stroke-width:0.5;" width="349" x="22.5" y="751.5"/><ellipse cx="170.25" cy="767.5" fill="#ADD1B2" rx="11" ry="11" style="stroke:#181818;stroke-width:1.0;"/><path d="M172.7231,773.6431 Q172.1421,773.9419 171.5029,774.0913 Q170.8638,774.2407 170.1582,774.2407 Q167.6514,774.2407 166.3315,772.5889 Q165.0117,770.937 165.0117,767.8159 Q165.0117,764.6865 166.3315,763.0347 Q167.6514,761.3828 170.1582,761.3828 Q170.8638,761.3828 171.5112,761.5322 Q172.1587,761.6816 172.7231,761.9805 L172.7231,764.7031 Q172.0923,764.1221 171.4988,763.8523 Q170.9053,763.5825 170.2744,763.5825 Q168.9297,763.5825 168.2449,764.6492 Q167.5601,765.7158 167.5601,767.8159 Q167.5601,769.9077 168.2449,770.9744 Q168.9297,772.041 170.2744,772.041 Q170.9053,772.041 171.4988,771.7712 Q172.0923,771.5015 172.7231,770.9204 Z " fill="#000000"/><text fill="#000000" font-family="sans-serif" font-size="14" lengthAdjust="spacing" textLength="45" x="190.75" y="772.791">enemy</text><line style="stroke:#181818;stroke-width:0.5;" x1="23.5" x2="370.5" y1="783.5" y2="783.5"/><rect fill="none" height="6" style="stroke:#C82930;stroke-width:1.0;" width="6" x="30.5" y="791.5"/><text fill="#000000" font-family="sans-serif" font-size="14" lengthAdjust="spacing" textLength="99" x="42.5" y="801.0352">frames: Paint[]</text><rect fill="none" height="6" style="stroke:#C82930;stroke-width:1.0;" width="6" x="30.5" y="807.9883"/><text fill="#000000" font-family="sans-serif" font-size="14" lengthAdjust="spacing" textLength="151" x="42.5" y="817.5234">animationCounter: int</text><line style="stroke:#181818;stroke-width:0.5;" x1="23.5" x2="370.5" y1="824.4766" y2="824.4766"/><ellipse cx="33.5" cy="835.4766" fill="#84BE84" rx="3" ry="3" style="stroke:#038048;stroke-width:1.0;"/><text fill="#000000" font-family="sans-serif" font-size="14" lengthAdjust="spacing" textLength="323" x="42.5" y="842.0117">enemy(double, double, double, double, Paint[])</text><ellipse cx="33.5" cy="851.9648" fill="#84BE84" rx="3" ry="3" style="stroke:#038048;stroke-width:1.0;"/><text fill="#000000" font-family="sans-serif" font-size="14" lengthAdjust="spacing" textLength="244" x="42.5" y="858.5">update(long, Point2D, double): void</text></g></a><!--MD5=[dd8580933f1f6111db5293a82719d5d7]
class com.javafwp.game.gameObjects.object--><a href="object.html" target="_top" title="object.html" xlink:actuate="onRequest" xlink:href="object.html" xlink:show="new" xlink:title="object.html" xlink:type="simple"><g id="elem_com.javafwp.game.gameObjects.object"><rect codeLine="10" fill="#F1F1F1" height="278.8359" id="com.javafwp.game.gameObjects.object" rx="2.5" ry="2.5" style="stroke:#181818;stroke-width:0.5;" width="336" x="921" y="330"/><ellipse cx="1063.75" cy="346" fill="#ADD1B2" rx="11" ry="11" style="stroke:#181818;stroke-width:1.0;"/><path d="M1066.2231,352.1431 Q1065.6421,352.4419 1065.0029,352.5913 Q1064.3638,352.7407 1063.6582,352.7407 Q1061.1514,352.7407 1059.8315,351.0889 Q1058.5117,349.437 1058.5117,346.3159 Q1058.5117,343.1865 1059.8315,341.5347 Q1061.1514,339.8828 1063.6582,339.8828 Q1064.3638,339.8828 1065.0112,340.0322 Q1065.6587,340.1816 1066.2231,340.4805 L1066.2231,343.2031 Q1065.5923,342.6221 1064.9988,342.3523 Q1064.4053,342.0825 1063.7744,342.0825 Q1062.4297,342.0825 1061.7449,343.1492 Q1061.0601,344.2158 1061.0601,346.3159 Q1061.0601,348.4077 1061.7449,349.4744 Q1062.4297,350.541 1063.7744,350.541 Q1064.4053,350.541 1064.9988,350.2712 Q1065.5923,350.0015 1066.2231,349.4204 Z " fill="#000000"/><text fill="#000000" font-family="sans-serif" font-size="14" lengthAdjust="spacing" textLength="42" x="1084.25" y="351.291">object</text><line style="stroke:#181818;stroke-width:0.5;" x1="922" x2="1256" y1="362" y2="362"/><polygon fill="none" points="932,368,936,372,932,376,928,372" style="stroke:#B38D22;stroke-width:1.0;"/><text fill="#000000" font-family="sans-serif" font-size="14" lengthAdjust="spacing" textLength="66" x="941" y="379.5352">type: type</text><polygon fill="none" points="932,384.4883,936,388.4883,932,392.4883,928,388.4883" style="stroke:#B38D22;stroke-width:1.0;"/><text fill="#000000" font-family="sans-serif" font-size="14" lengthAdjust="spacing" textLength="113" x="941" y="396.0234">entity: Rectangle</text><line style="stroke:#181818;stroke-width:0.5;" x1="922" x2="1256" y1="402.9766" y2="402.9766"/><ellipse cx="932" cy="413.9766" fill="#84BE84" rx="3" ry="3" style="stroke:#038048;stroke-width:1.0;"/><text fill="#000000" font-family="sans-serif" font-size="14" lengthAdjust="spacing" textLength="310" x="941" y="420.5117">object(double, double, double, double, Paint)</text><ellipse cx="932" cy="430.4648" fill="#84BE84" rx="3" ry="3" style="stroke:#038048;stroke-width:1.0;"/><text fill="#000000" font-family="sans-serif" font-size="14" lengthAdjust="spacing" textLength="114" x="941" y="437">getEntity(): Node</text><ellipse cx="932" cy="446.9531" fill="#84BE84" rx="3" ry="3" style="stroke:#038048;stroke-width:1.0;"/><text fill="#000000" font-family="sans-serif" font-size="14" lengthAdjust="spacing" textLength="127" x="941" y="453.4883">getWidth(): double</text><ellipse cx="932" cy="463.4414" fill="#84BE84" rx="3" ry="3" style="stroke:#038048;stroke-width:1.0;"/><text fill="#000000" font-family="sans-serif" font-size="14" lengthAdjust="spacing" textLength="133" x="941" y="469.9766">getHeight(): double</text><ellipse cx="932" cy="479.9297" fill="#84BE84" rx="3" ry="3" style="stroke:#038048;stroke-width:1.0;"/><text fill="#000000" font-family="sans-serif" font-size="14" lengthAdjust="spacing" textLength="102" x="941" y="486.4648">getType(): type</text><ellipse cx="932" cy="496.418" fill="#84BE84" rx="3" ry="3" style="stroke:#038048;stroke-width:1.0;"/><text fill="#000000" font-family="sans-serif" font-size="14" lengthAdjust="spacing" textLength="97" x="941" y="502.9531">getX(): double</text><ellipse cx="932" cy="512.9063" fill="#84BE84" rx="3" ry="3" style="stroke:#038048;stroke-width:1.0;"/><text fill="#000000" font-family="sans-serif" font-size="14" lengthAdjust="spacing" textLength="97" x="941" y="519.4414">getY(): double</text><ellipse cx="932" cy="529.3945" fill="#84BE84" rx="3" ry="3" style="stroke:#038048;stroke-width:1.0;"/><text fill="#000000" font-family="sans-serif" font-size="14" lengthAdjust="spacing" textLength="121" x="941" y="535.9297">setFill(Paint): void</text><ellipse cx="932" cy="545.8828" fill="#84BE84" rx="3" ry="3" style="stroke:#038048;stroke-width:1.0;"/><text fill="#000000" font-family="sans-serif" font-size="14" lengthAdjust="spacing" textLength="124" x="941" y="552.418">setX(double): void</text><ellipse cx="932" cy="562.3711" fill="#84BE84" rx="3" ry="3" style="stroke:#038048;stroke-width:1.0;"/><text fill="#000000" font-family="sans-serif" font-size="14" lengthAdjust="spacing" textLength="124" x="941" y="568.9063">setY(double): void</text><ellipse cx="932" cy="578.8594" fill="#84BE84" rx="3" ry="3" style="stroke:#038048;stroke-width:1.0;"/><text fill="#000000" font-family="sans-serif" font-size="14" lengthAdjust="spacing" textLength="130" x="941" y="585.3945">addX(double): void</text><ellipse cx="932" cy="595.3477" fill="#84BE84" rx="3" ry="3" style="stroke:#038048;stroke-width:1.0;"/><text fill="#000000" font-family="sans-serif" font-size="14" lengthAdjust="spacing" textLength="130" x="941" y="601.8828">addY(double): void</text></g></a><!--MD5=[a15015684656681cad16b83804c39725]
class com.javafwp.game.gameObjects.projectile--><a href="projectile.html" target="_top" title="projectile.html" xlink:actuate="onRequest" xlink:href="projectile.html" xlink:show="new" xlink:title="projectile.html" xlink:type="simple"><g id="elem_com.javafwp.game.gameObjects.projectile"><rect codeLine="27" fill="#F1F1F1" height="97.4648" id="com.javafwp.game.gameObjects.projectile" rx="2.5" ry="2.5" style="stroke:#181818;stroke-width:0.5;" width="420" x="407" y="760"/><ellipse cx="580.75" cy="776" fill="#ADD1B2" rx="11" ry="11" style="stroke:#181818;stroke-width:1.0;"/><path d="M583.2231,782.1431 Q582.6421,782.4419 582.0029,782.5913 Q581.3638,782.7407 580.6582,782.7407 Q578.1514,782.7407 576.8315,781.0889 Q575.5117,779.437 575.5117,776.3159 Q575.5117,773.1865 576.8315,771.5347 Q578.1514,769.8828 580.6582,769.8828 Q581.3638,769.8828 582.0112,770.0322 Q582.6587,770.1816 583.2231,770.4805 L583.2231,773.2031 Q582.5923,772.6221 581.9988,772.3523 Q581.4053,772.0825 580.7744,772.0825 Q579.4297,772.0825 578.7449,773.1492 Q578.0601,774.2158 578.0601,776.3159 Q578.0601,778.4077 578.7449,779.4744 Q579.4297,780.541 580.7744,780.541 Q581.4053,780.541 581.9988,780.2712 Q582.5923,780.0015 583.2231,779.4204 Z " fill="#000000"/><text fill="#000000" font-family="sans-serif" font-size="14" lengthAdjust="spacing" textLength="64" x="601.25" y="781.291">projectile</text><line style="stroke:#181818;stroke-width:0.5;" x1="408" x2="826" y1="792" y2="792"/><polygon fill="none" points="418,799,414,805,422,805" style="stroke:#1963A0;stroke-width:1.0;"/><text fill="#000000" font-family="sans-serif" font-size="14" lengthAdjust="spacing" textLength="81" x="427" y="809.5352">dir: Point2D</text><line style="stroke:#181818;stroke-width:0.5;" x1="408" x2="826" y1="816.4883" y2="816.4883"/><ellipse cx="418" cy="827.4883" fill="#84BE84" rx="3" ry="3" style="stroke:#038048;stroke-width:1.0;"/><text fill="#000000" font-family="sans-serif" font-size="14" lengthAdjust="spacing" textLength="394" x="427" y="834.0234">projectile(double, double, double, double, Point2D, Paint)</text><ellipse cx="418" cy="843.9766" fill="#84BE84" rx="3" ry="3" style="stroke:#038048;stroke-width:1.0;"/><text fill="#000000" font-family="sans-serif" font-size="14" lengthAdjust="spacing" textLength="143" x="427" y="850.5117">update(double): void</text></g></a><!--MD5=[6e83f3b61432f22817038b98e522e442]
class com.javafwp.game.gameObjects.player--><a href="player.html" target="_top" title="player.html" xlink:actuate="onRequest" xlink:href="player.html" xlink:show="new" xlink:title="player.html" xlink:type="simple"><g id="elem_com.javafwp.game.gameObjects.player"><rect codeLine="33" fill="#F1F1F1" height="278.8359" id="com.javafwp.game.gameObjects.player" rx="2.5" ry="2.5" style="stroke:#181818;stroke-width:0.5;" width="454" x="862" y="669"/><ellipse cx="1063.75" cy="685" fill="#ADD1B2" rx="11" ry="11" style="stroke:#181818;stroke-width:1.0;"/><path d="M1066.2231,691.1431 Q1065.6421,691.4419 1065.0029,691.5913 Q1064.3638,691.7407 1063.6582,691.7407 Q1061.1514,691.7407 1059.8315,690.0889 Q1058.5117,688.437 1058.5117,685.3159 Q1058.5117,682.1865 1059.8315,680.5347 Q1061.1514,678.8828 1063.6582,678.8828 Q1064.3638,678.8828 1065.0112,679.0322 Q1065.6587,679.1816 1066.2231,679.4805 L1066.2231,682.2031 Q1065.5923,681.6221 1064.9988,681.3523 Q1064.4053,681.0825 1063.7744,681.0825 Q1062.4297,681.0825 1061.7449,682.1492 Q1061.0601,683.2158 1061.0601,685.3159 Q1061.0601,687.4077 1061.7449,688.4744 Q1062.4297,689.541 1063.7744,689.541 Q1064.4053,689.541 1064.9988,689.2712 Q1065.5923,689.0015 1066.2231,688.4204 Z " fill="#000000"/><text fill="#000000" font-family="sans-serif" font-size="14" lengthAdjust="spacing" textLength="42" x="1084.25" y="690.291">player</text><line style="stroke:#181818;stroke-width:0.5;" x1="863" x2="1315" y1="701" y2="701"/><polygon fill="none" points="873,708,869,714,877,714" style="stroke:#1963A0;stroke-width:1.0;"/><text fill="#000000" font-family="sans-serif" font-size="14" lengthAdjust="spacing" textLength="123" x="882" y="718.5352">canJump: boolean</text><polygon fill="none" points="873,724.4883,869,730.4883,877,730.4883" style="stroke:#1963A0;stroke-width:1.0;"/><text fill="#000000" font-family="sans-serif" font-size="14" lengthAdjust="spacing" textLength="81" x="882" y="735.0234">vel: Point2D</text><polygon fill="none" points="873,740.9766,869,746.9766,877,746.9766" style="stroke:#1963A0;stroke-width:1.0;"/><text fill="#000000" font-family="sans-serif" font-size="14" lengthAdjust="spacing" textLength="78" x="882" y="751.5117">acc: double</text><polygon fill="none" points="873,757.4648,869,763.4648,877,763.4648" style="stroke:#1963A0;stroke-width:1.0;"/><text fill="#000000" font-family="sans-serif" font-size="14" lengthAdjust="spacing" textLength="127" x="882" y="768">idleFrames: Paint[]</text><polygon fill="none" points="873,773.9531,869,779.9531,877,779.9531" style="stroke:#1963A0;stroke-width:1.0;"/><text fill="#000000" font-family="sans-serif" font-size="14" lengthAdjust="spacing" textLength="157" x="882" y="784.4883">runningFrames: Paint[]</text><polygon fill="none" points="873,790.4414,869,796.4414,877,796.4414" style="stroke:#1963A0;stroke-width:1.0;"/><text fill="#000000" font-family="sans-serif" font-size="14" lengthAdjust="spacing" textLength="194" x="882" y="800.9766">animationFrameCounter: int</text><polygon fill="none" points="873,806.9297,869,812.9297,877,812.9297" style="stroke:#1963A0;stroke-width:1.0;"/><text fill="#000000" font-family="sans-serif" font-size="14" lengthAdjust="spacing" textLength="179" x="882" y="817.4648">jumpSfx: paralellSfxPlayer</text><line style="stroke:#181818;stroke-width:0.5;" x1="863" x2="1315" y1="824.418" y2="824.418"/><ellipse cx="873" cy="835.418" fill="#84BE84" rx="3" ry="3" style="stroke:#038048;stroke-width:1.0;"/><text fill="#000000" font-family="sans-serif" font-size="14" lengthAdjust="spacing" textLength="428" x="882" y="841.9531">player(double, double, double, double, double, Paint[], Paint[])</text><ellipse cx="873" cy="851.9063" fill="#84BE84" rx="3" ry="3" style="stroke:#038048;stroke-width:1.0;"/><text fill="#000000" font-family="sans-serif" font-size="14" lengthAdjust="spacing" textLength="336" x="882" y="858.4414">update(long, ArrayList&lt;plattform&gt;, double): void</text><ellipse cx="873" cy="868.3945" fill="#84BE84" rx="3" ry="3" style="stroke:#038048;stroke-width:1.0;"/><text fill="#000000" font-family="sans-serif" font-size="14" lengthAdjust="spacing" textLength="115" x="882" y="874.9297">getVel(): Point2D</text><ellipse cx="873" cy="884.8828" fill="#84BE84" rx="3" ry="3" style="stroke:#038048;stroke-width:1.0;"/><text fill="#000000" font-family="sans-serif" font-size="14" lengthAdjust="spacing" textLength="138" x="882" y="891.418">move(Point2D): void</text><ellipse cx="873" cy="901.3711" fill="#84BE84" rx="3" ry="3" style="stroke:#038048;stroke-width:1.0;"/><text fill="#000000" font-family="sans-serif" font-size="14" lengthAdjust="spacing" textLength="130" x="882" y="907.9063">jump(double): void</text><ellipse cx="873" cy="917.8594" fill="#84BE84" rx="3" ry="3" style="stroke:#038048;stroke-width:1.0;"/><text fill="#000000" font-family="sans-serif" font-size="14" lengthAdjust="spacing" textLength="190" x="882" y="924.3945">death(double, double): void</text><ellipse cx="873" cy="934.3477" fill="#84BE84" rx="3" ry="3" style="stroke:#038048;stroke-width:1.0;"/><text fill="#000000" font-family="sans-serif" font-size="14" lengthAdjust="spacing" textLength="158" x="882" y="940.8828">getCanJump(): boolean</text></g></a><!--MD5=[ff3c9a2fbe5f52536b275a35435d707b]
class com.javafwp.game.gameObjects.plattform--><a href="plattform.html" target="_top" title="plattform.html" xlink:actuate="onRequest" xlink:href="plattform.html" xlink:show="new" xlink:title="plattform.html" xlink:type="simple"><g id="elem_com.javafwp.game.gameObjects.plattform"><rect codeLine="50" fill="#F1F1F1" height="80.9766" id="com.javafwp.game.gameObjects.plattform" rx="2.5" ry="2.5" style="stroke:#181818;stroke-width:0.5;" width="358" x="1351" y="768"/><ellipse cx="1493.75" cy="784" fill="#ADD1B2" rx="11" ry="11" style="stroke:#181818;stroke-width:1.0;"/><path d="M1496.2231,790.1431 Q1495.6421,790.4419 1495.0029,790.5913 Q1494.3638,790.7407 1493.6582,790.7407 Q1491.1514,790.7407 1489.8315,789.0889 Q1488.5117,787.437 1488.5117,784.3159 Q1488.5117,781.1865 1489.8315,779.5347 Q1491.1514,777.8828 1493.6582,777.8828 Q1494.3638,777.8828 1495.0112,778.0322 Q1495.6587,778.1816 1496.2231,778.4805 L1496.2231,781.2031 Q1495.5923,780.6221 1494.9988,780.3523 Q1494.4053,780.0825 1493.7744,780.0825 Q1492.4297,780.0825 1491.7449,781.1492 Q1491.0601,782.2158 1491.0601,784.3159 Q1491.0601,786.4077 1491.7449,787.4744 Q1492.4297,788.541 1493.7744,788.541 Q1494.4053,788.541 1494.9988,788.2712 Q1495.5923,788.0015 1496.2231,787.4204 Z " fill="#000000"/><text fill="#000000" font-family="sans-serif" font-size="14" lengthAdjust="spacing" textLength="64" x="1514.25" y="789.291">plattform</text><line style="stroke:#181818;stroke-width:0.5;" x1="1352" x2="1708" y1="800" y2="800"/><line style="stroke:#181818;stroke-width:0.5;" x1="1352" x2="1708" y1="808" y2="808"/><ellipse cx="1362" cy="819" fill="#84BE84" rx="3" ry="3" style="stroke:#038048;stroke-width:1.0;"/><text fill="#000000" font-family="sans-serif" font-size="14" lengthAdjust="spacing" textLength="332" x="1371" y="825.5352">plattform(double, double, double, double, Paint)</text><ellipse cx="1362" cy="835.4883" fill="#84BE84" rx="3" ry="3" style="stroke:#038048;stroke-width:1.0;"/><text fill="#000000" font-family="sans-serif" font-size="14" lengthAdjust="spacing" textLength="143" x="1371" y="842.0234">update(double): void</text></g></a><!--MD5=[73d90fc1f5d79c2bd45a568fa986ce7a]
class com.javafwp.game.gameObjects.objectInterface--><a href="objectInterface.html" target="_top" title="objectInterface.html" xlink:actuate="onRequest" xlink:href="objectInterface.html" xlink:show="new" xlink:title="objectInterface.html" xlink:type="simple"><g id="elem_com.javafwp.game.gameObjects.objectInterface"><rect codeLine="55" fill="#F1F1F1" height="229.3711" id="com.javafwp.game.gameObjects.objectInterface" rx="2.5" ry="2.5" style="stroke:#181818;stroke-width:0.5;" width="159" x="1009.5" y="41"/><ellipse cx="1035.75" cy="57" fill="#B4A7E5" rx="11" ry="11" style="stroke:#181818;stroke-width:1.0;"/><path d="M1032.1777,53.2651 L1032.1777,51.1069 L1039.5571,51.1069 L1039.5571,53.2651 L1037.0918,53.2651 L1037.0918,61.3418 L1039.5571,61.3418 L1039.5571,63.5 L1032.1777,63.5 L1032.1777,61.3418 L1034.6431,61.3418 L1034.6431,53.2651 Z " fill="#000000"/><text fill="#000000" font-family="sans-serif" font-size="14" font-style="italic" lengthAdjust="spacing" textLength="102" x="1052.25" y="62.291">objectInterface</text><line style="stroke:#181818;stroke-width:0.5;" x1="1010.5" x2="1167.5" y1="73" y2="73"/><line style="stroke:#181818;stroke-width:0.5;" x1="1010.5" x2="1167.5" y1="81" y2="81"/><ellipse cx="1020.5" cy="92" fill="#84BE84" rx="3" ry="3" style="stroke:#038048;stroke-width:1.0;"/><text fill="#000000" font-family="sans-serif" font-size="14" font-style="italic" lengthAdjust="spacing" textLength="114" x="1029.5" y="98.5352">getEntity(): Node</text><ellipse cx="1020.5" cy="108.4883" fill="#84BE84" rx="3" ry="3" style="stroke:#038048;stroke-width:1.0;"/><text fill="#000000" font-family="sans-serif" font-size="14" font-style="italic" lengthAdjust="spacing" textLength="127" x="1029.5" y="115.0234">getWidth(): double</text><ellipse cx="1020.5" cy="124.9766" fill="#84BE84" rx="3" ry="3" style="stroke:#038048;stroke-width:1.0;"/><text fill="#000000" font-family="sans-serif" font-size="14" font-style="italic" lengthAdjust="spacing" textLength="133" x="1029.5" y="131.5117">getHeight(): double</text><ellipse cx="1020.5" cy="141.4648" fill="#84BE84" rx="3" ry="3" style="stroke:#038048;stroke-width:1.0;"/><text fill="#000000" font-family="sans-serif" font-size="14" font-style="italic" lengthAdjust="spacing" textLength="97" x="1029.5" y="148">getX(): double</text><ellipse cx="1020.5" cy="157.9531" fill="#84BE84" rx="3" ry="3" style="stroke:#038048;stroke-width:1.0;"/><text fill="#000000" font-family="sans-serif" font-size="14" font-style="italic" lengthAdjust="spacing" textLength="97" x="1029.5" y="164.4883">getY(): double</text><ellipse cx="1020.5" cy="174.4414" fill="#84BE84" rx="3" ry="3" style="stroke:#038048;stroke-width:1.0;"/><text fill="#000000" font-family="sans-serif" font-size="14" font-style="italic" lengthAdjust="spacing" textLength="102" x="1029.5" y="180.9766">getType(): type</text><ellipse cx="1020.5" cy="190.9297" fill="#84BE84" rx="3" ry="3" style="stroke:#038048;stroke-width:1.0;"/><text fill="#000000" font-family="sans-serif" font-size="14" font-style="italic" lengthAdjust="spacing" textLength="121" x="1029.5" y="197.4648">setFill(Paint): void</text><ellipse cx="1020.5" cy="207.418" fill="#84BE84" rx="3" ry="3" style="stroke:#038048;stroke-width:1.0;"/><text fill="#000000" font-family="sans-serif" font-size="14" font-style="italic" lengthAdjust="spacing" textLength="124" x="1029.5" y="213.9531">setX(double): void</text><ellipse cx="1020.5" cy="223.9063" fill="#84BE84" rx="3" ry="3" style="stroke:#038048;stroke-width:1.0;"/><text fill="#000000" font-family="sans-serif" font-size="14" font-style="italic" lengthAdjust="spacing" textLength="124" x="1029.5" y="230.4414">setY(double): void</text><ellipse cx="1020.5" cy="240.3945" fill="#84BE84" rx="3" ry="3" style="stroke:#038048;stroke-width:1.0;"/><text fill="#000000" font-family="sans-serif" font-size="14" font-style="italic" lengthAdjust="spacing" textLength="130" x="1029.5" y="246.9297">addX(double): void</text><ellipse cx="1020.5" cy="256.8828" fill="#84BE84" rx="3" ry="3" style="stroke:#038048;stroke-width:1.0;"/><text fill="#000000" font-family="sans-serif" font-size="14" font-style="italic" lengthAdjust="spacing" textLength="130" x="1029.5" y="263.418">addY(double): void</text></g></a><!--MD5=[00ebd38ac1984bd02f36e925e74b275e]
class com.javafwp.game.gameObjects.heatbar--><a href="heatbar.html" target="_top" title="heatbar.html" xlink:actuate="onRequest" xlink:href="heatbar.html" xlink:show="new" xlink:title="heatbar.html" xlink:type="simple"><g id="elem_com.javafwp.game.gameObjects.heatbar"><rect codeLine="69" fill="#F1F1F1" height="179.9063" id="com.javafwp.game.gameObjects.heatbar" rx="2.5" ry="2.5" style="stroke:#181818;stroke-width:0.5;" width="397" x="1744.5" y="718.5"/><ellipse cx="1912.25" cy="734.5" fill="#ADD1B2" rx="11" ry="11" style="stroke:#181818;stroke-width:1.0;"/><path d="M1914.7231,740.6431 Q1914.1421,740.9419 1913.5029,741.0913 Q1912.8638,741.2407 1912.1582,741.2407 Q1909.6514,741.2407 1908.3315,739.5889 Q1907.0117,737.937 1907.0117,734.8159 Q1907.0117,731.6865 1908.3315,730.0347 Q1909.6514,728.3828 1912.1582,728.3828 Q1912.8638,728.3828 1913.5112,728.5322 Q1914.1587,728.6816 1914.7231,728.9805 L1914.7231,731.7031 Q1914.0923,731.1221 1913.4988,730.8523 Q1912.9053,730.5825 1912.2744,730.5825 Q1910.9297,730.5825 1910.2449,731.6492 Q1909.5601,732.7158 1909.5601,734.8159 Q1909.5601,736.9077 1910.2449,737.9744 Q1910.9297,739.041 1912.2744,739.041 Q1912.9053,739.041 1913.4988,738.7712 Q1914.0923,738.5015 1914.7231,737.9204 Z " fill="#000000"/><text fill="#000000" font-family="sans-serif" font-size="14" lengthAdjust="spacing" textLength="53" x="1932.75" y="739.791">heatbar</text><line style="stroke:#181818;stroke-width:0.5;" x1="1745.5" x2="2140.5" y1="750.5" y2="750.5"/><rect fill="none" height="6" style="stroke:#C82930;stroke-width:1.0;" width="6" x="1752.5" y="758.5"/><text fill="#000000" font-family="sans-serif" font-size="14" lengthAdjust="spacing" textLength="114" x="1764.5" y="768.0352">heatColor: Color</text><rect fill="none" height="6" style="stroke:#C82930;stroke-width:1.0;" width="6" x="1752.5" y="774.9883"/><text fill="#000000" font-family="sans-serif" font-size="14" lengthAdjust="spacing" textLength="105" x="1764.5" y="784.5234">heat: Rectangle</text><rect fill="none" height="6" style="stroke:#C82930;stroke-width:1.0;" width="6" x="1752.5" y="791.4766"/><text fill="#000000" font-family="sans-serif" font-size="14" lengthAdjust="spacing" textLength="107" x="1764.5" y="801.0117">currentHeat: int</text><line style="stroke:#181818;stroke-width:0.5;" x1="1745.5" x2="2140.5" y1="807.9648" y2="807.9648"/><ellipse cx="1755.5" cy="818.9648" fill="#84BE84" rx="3" ry="3" style="stroke:#038048;stroke-width:1.0;"/><text fill="#000000" font-family="sans-serif" font-size="14" lengthAdjust="spacing" textLength="371" x="1764.5" y="825.5">heatbar(double, double, double, double, Color, Color)</text><ellipse cx="1755.5" cy="835.4531" fill="#84BE84" rx="3" ry="3" style="stroke:#038048;stroke-width:1.0;"/><text fill="#000000" font-family="sans-serif" font-size="14" lengthAdjust="spacing" textLength="143" x="1764.5" y="841.9883">update(double): void</text><ellipse cx="1755.5" cy="851.9414" fill="#84BE84" rx="3" ry="3" style="stroke:#038048;stroke-width:1.0;"/><text fill="#000000" font-family="sans-serif" font-size="14" lengthAdjust="spacing" textLength="149" x="1764.5" y="858.4766">addHeat(int): boolean</text><ellipse cx="1755.5" cy="868.4297" fill="#84BE84" rx="3" ry="3" style="stroke:#038048;stroke-width:1.0;"/><text fill="#000000" font-family="sans-serif" font-size="14" lengthAdjust="spacing" textLength="81" x="1764.5" y="874.9648">reset(): void</text><ellipse cx="1755.5" cy="884.918" fill="#84BE84" rx="3" ry="3" style="stroke:#038048;stroke-width:1.0;"/><text fill="#000000" font-family="sans-serif" font-size="14" lengthAdjust="spacing" textLength="136" x="1764.5" y="891.4531">getEntities(): Node[]</text></g></a><!--MD5=[3cf209fab41f469536c55954326f5ce9]
reverse link com.javafwp.game.gameObjects.object to com.javafwp.game.gameObjects.enemy--><g id="link_com.javafwp.game.gameObjects.object_com.javafwp.game.gameObjects.enemy"><path codeLine="80" d="M900.72,505.46 C756.26,536.61 554.4,589.67 390,669 C344.68,690.87 298.73,723.35 263.03,751.36 " fill="none" id="com.javafwp.game.gameObjects.object-backto-com.javafwp.game.gameObjects.enemy" style="stroke:#181818;stroke-width:1.0;"/><polygon fill="none" points="899.7,498.52,920.71,501.21,902.61,512.21,899.7,498.52" style="stroke:#181818;stroke-width:1.0;"/></g><!--MD5=[e8afdeacdc610b8a5c367652b00091f1]
reverse link com.javafwp.game.gameObjects.objectInterface to com.javafwp.game.gameObjects.object--><g id="link_com.javafwp.game.gameObjects.objectInterface_com.javafwp.game.gameObjects.object"><path codeLine="81" d="M1089,290.34 C1089,303.41 1089,316.7 1089,329.82 " fill="none" id="com.javafwp.game.gameObjects.objectInterface-backto-com.javafwp.game.gameObjects.object" style="stroke:#181818;stroke-width:1.0;stroke-dasharray:7.0,7.0;"/><polygon fill="none" points="1082,290.02,1089,270.02,1096,290.02,1082,290.02" style="stroke:#181818;stroke-width:1.0;"/></g><!--MD5=[4e193daae36b3661200bef98b9522fe3]
reverse link com.javafwp.game.gameObjects.object to com.javafwp.game.gameObjects.projectile--><g id="link_com.javafwp.game.gameObjects.object_com.javafwp.game.gameObjects.projectile"><path codeLine="82" d="M904.45,602.26 C826.62,657.83 740.94,719.01 683.55,759.98 " fill="none" id="com.javafwp.game.gameObjects.object-backto-com.javafwp.game.gameObjects.projectile" style="stroke:#181818;stroke-width:1.0;"/><polygon fill="none" points="900.58,596.42,920.93,590.5,908.72,607.82,900.58,596.42" style="stroke:#181818;stroke-width:1.0;"/></g><!--MD5=[648f7bb283d4935ddc956ce067c9e4e4]
reverse link com.javafwp.game.gameObjects.object to com.javafwp.game.gameObjects.player--><g id="link_com.javafwp.game.gameObjects.object_com.javafwp.game.gameObjects.player"><path codeLine="83" d="M1089,629.12 C1089,642.43 1089,655.82 1089,668.96 " fill="none" id="com.javafwp.game.gameObjects.object-backto-com.javafwp.game.gameObjects.player" style="stroke:#181818;stroke-width:1.0;"/><polygon fill="none" points="1082,629.03,1089,609.03,1096,629.03,1082,629.03" style="stroke:#181818;stroke-width:1.0;"/></g><!--MD5=[111bfedb90dddab59753dbb5360658b5]
reverse link com.javafwp.game.gameObjects.object to com.javafwp.game.gameObjects.plattform--><g id="link_com.javafwp.game.gameObjects.object_com.javafwp.game.gameObjects.plattform"><path codeLine="84" d="M1273.53,611.51 C1347.75,668.23 1427.55,729.21 1478.08,767.82 " fill="none" id="com.javafwp.game.gameObjects.object-backto-com.javafwp.game.gameObjects.plattform" style="stroke:#181818;stroke-width:1.0;"/><polygon fill="none" points="1268.94,616.81,1257.3,599.11,1277.44,605.69,1268.94,616.81" style="stroke:#181818;stroke-width:1.0;"/></g><!--MD5=[e15601706c4a5da89e2b4b0254838363]
reverse link com.javafwp.game.gameObjects.object to com.javafwp.game.gameObjects.heatbar--><g id="link_com.javafwp.game.gameObjects.object_com.javafwp.game.gameObjects.heatbar"><path codeLine="85" d="M1276.75,514.68 C1406.53,548.62 1581.35,601.16 1727,669 C1757.08,683.01 1787.95,700.6 1816.6,718.49 " fill="none" id="com.javafwp.game.gameObjects.object-backto-com.javafwp.game.gameObjects.heatbar" style="stroke:#181818;stroke-width:1.0;"/><polygon fill="none" points="1274.74,521.39,1257.13,509.6,1278.25,507.84,1274.74,521.39" style="stroke:#181818;stroke-width:1.0;"/></g><rect height="11.7773" style="stroke:#00000000;stroke-width:1.0;fill:none;" width="182" x="984.5" y="970"/><text fill="#888888" font-family="sans-serif" font-size="10" lengthAdjust="spacing" textLength="182" x="984.5" y="979.668">UMLDoclet 2.0.17, PlantUML 1.2022.5</text><!--MD5=[83d12c91b2a67e7f8f964991c4675aa4]
@startuml
    namespace com.javafwp.game.gameObjects {

        class enemy [[enemy.html]] {
            -frames: Paint[]
            -animationCounter: int
            +enemy(double, double, double, double, Paint[])
            +update(long, Point2D, double): void
        }

        class object [[object.html]] {
            #type: type
            #entity: Rectangle
            +object(double, double, double, double, Paint)
            +getEntity(): Node
            +getWidth(): double
            +getHeight(): double
            +getType(): type
            +getX(): double
            +getY(): double
            +setFill(Paint): void
            +setX(double): void
            +setY(double): void
            +addX(double): void
            +addY(double): void
        }

        class projectile [[projectile.html]] {
            ~dir: Point2D
            +projectile(double, double, double, double, Point2D, Paint)
            +update(double): void
        }

        class player [[player.html]] {
            ~canJump: boolean
            ~vel: Point2D
            ~acc: double
            ~idleFrames: Paint[]
            ~runningFrames: Paint[]
            ~animationFrameCounter: int
            ~jumpSfx: paralellSfxPlayer
            +player(double, double, double, double, double, Paint[], Paint[])
            +update(long, ArrayList<plattform>, double): void
            +getVel(): Point2D
            +move(Point2D): void
            +jump(double): void
            +death(double, double): void
            +getCanJump(): boolean
        }

        class plattform [[plattform.html]] {
            +plattform(double, double, double, double, Paint)
            +update(double): void
        }

        interface objectInterface [[objectInterface.html]] {
            {abstract} +getEntity(): Node
            {abstract} +getWidth(): double
            {abstract} +getHeight(): double
            {abstract} +getX(): double
            {abstract} +getY(): double
            {abstract} +getType(): type
            {abstract} +setFill(Paint): void
            {abstract} +setX(double): void
            {abstract} +setY(double): void
            {abstract} +addX(double): void
            {abstract} +addY(double): void
        }

        class heatbar [[heatbar.html]] {
            -heatColor: Color
            -heat: Rectangle
            -currentHeat: int
            +heatbar(double, double, double, double, Color, Color)
            +update(double): void
            +addHeat(int): boolean
            +reset(): void
            +getEntities(): Node[]
        }

        object <|- - enemy
        objectInterface <|.. object
        object <|- - projectile
        object <|- - player
        object <|- - plattform
        object <|- - heatbar
    }

    center footer UMLDoclet 2.0.17, PlantUML 1.2022.5
@enduml

PlantUML version 1.2022.5(Sat Apr 30 12:55:52 CEST 2022)
(APACHE source distribution)
Java Runtime: OpenJDK Runtime Environment
JVM: OpenJDK 64-Bit Server VM
Default Encoding: UTF-8
Language: en
Country: DE
--></g></svg>