<?xml version="1.0" encoding="UTF-8" standalone="no"?><svg xmlns="http://www.w3.org/2000/svg" xmlns:xlink="http://www.w3.org/1999/xlink" contentStyleType="text/css" height="1036px" preserveAspectRatio="none" style="width:2006px;height:1036px;background:#FFFFFF;" version="1.1" viewBox="0 0 2006 1036" width="2006px" zoomAndPan="magnify"><defs/><g><!--MD5=[9dc71cace5eb178512d6261137bc0b93]
cluster com.javafwp.game.gameObjects--><g id="cluster_com.javafwp.game.gameObjects"><path d="M8.5,6 L234.5,6 A3.75,3.75 0 0 1 237,8.5 L244,29.6094 L1996.5,29.6094 A2.5,2.5 0 0 1 1999,32.1094 L1999,1007.5 A2.5,2.5 0 0 1 1996.5,1010 L8.5,1010 A2.5,2.5 0 0 1 6,1007.5 L6,8.5 A2.5,2.5 0 0 1 8.5,6 " style="stroke:#000000;stroke-width:1.5;fill:none;"/><line style="stroke:#000000;stroke-width:1.5;fill:none;" x1="6" x2="244" y1="29.6094" y2="29.6094"/><text fill="#000000" font-family="sans-serif" font-size="14" font-weight="bold" lengthAdjust="spacing" textLength="225" x="10" y="22.5332">com.javafwp.game.gameObjects</text></g><!--MD5=[ca79aaa1282f122ae0b3da71cb21bd2b]
class com.javafwp.game.gameObjects.enemy--><a href="enemy.html" target="_top" title="enemy.html" xlink:actuate="onRequest" xlink:href="enemy.html" xlink:show="new" xlink:title="enemy.html" xlink:type="simple"><g id="elem_com.javafwp.game.gameObjects.enemy"><rect codeLine="3" fill="#F1F1F1" height="118.4375" id="com.javafwp.game.gameObjects.enemy" rx="2.5" ry="2.5" style="stroke:#181818;stroke-width:0.5;" width="322" x="22" y="787.5"/><ellipse cx="157.75" cy="803.5" fill="#ADD1B2" rx="11" ry="11" style="stroke:#181818;stroke-width:1.0;"/><path d="M160.5156,799.375 Q160.6719,799.1563 160.8594,799.0469 Q161.0469,798.9375 161.2656,798.9375 Q161.6406,798.9375 161.875,799.2031 Q162.1094,799.4531 162.1094,800.0625 L162.1094,801.5156 Q162.1094,802.125 161.875,802.3906 Q161.6406,802.6563 161.2656,802.6563 Q160.9219,802.6563 160.7188,802.4531 Q160.5156,802.2656 160.4063,801.75 Q160.3594,801.3906 160.1719,801.2031 Q159.8438,800.8281 159.2344,800.6094 Q158.625,800.3906 158,800.3906 Q157.2344,800.3906 156.5938,800.7188 Q155.9688,801.0469 155.4688,801.7969 Q154.9844,802.5469 154.9844,803.5781 L154.9844,804.6719 Q154.9844,805.9063 155.875,806.7344 Q156.7656,807.5469 158.3594,807.5469 Q159.2969,807.5469 159.9531,807.2969 Q160.3438,807.1406 160.7656,806.7031 Q161.0313,806.4375 161.1719,806.3594 Q161.3281,806.2813 161.5313,806.2813 Q161.8594,806.2813 162.1094,806.5469 Q162.375,806.7969 162.375,807.1406 Q162.375,807.4844 162.0313,807.8906 Q161.5313,808.4688 160.7344,808.7969 Q159.6563,809.25 158.3594,809.25 Q156.8438,809.25 155.6406,808.625 Q154.6563,808.125 153.9688,807.0625 Q153.2813,805.9844 153.2813,804.7031 L153.2813,803.5469 Q153.2813,802.2188 153.8906,801.0781 Q154.5156,799.9219 155.6094,799.3125 Q156.7031,798.6875 157.9375,798.6875 Q158.6719,798.6875 159.3125,798.8594 Q159.9688,799.0156 160.5156,799.375 Z " fill="#000000"/><text fill="#000000" font-family="sans-serif" font-size="14" lengthAdjust="spacing" textLength="42" x="178.25" y="809.2285">enemy</text><line style="stroke:#181818;stroke-width:0.5;" x1="23" x2="343" y1="819.5" y2="819.5"/><rect fill="none" height="6" style="stroke:#C82930;stroke-width:1.0;" width="6" x="30" y="827.5"/><text fill="#000000" font-family="sans-serif" font-size="14" lengthAdjust="spacing" textLength="91" x="42" y="838.0332">frames: Paint[]</text><rect fill="none" height="6" style="stroke:#C82930;stroke-width:1.0;" width="6" x="30" y="845.1094"/><text fill="#000000" font-family="sans-serif" font-size="14" lengthAdjust="spacing" textLength="135" x="42" y="855.6426">animationCounter: int</text><line style="stroke:#181818;stroke-width:0.5;" x1="23" x2="343" y1="862.7188" y2="862.7188"/><ellipse cx="33" cy="873.7188" fill="#84BE84" rx="3" ry="3" style="stroke:#038048;stroke-width:1.0;"/><text fill="#000000" font-family="sans-serif" font-size="14" lengthAdjust="spacing" textLength="296" x="42" y="881.252">enemy(double, double, double, double, Paint[])</text><ellipse cx="33" cy="891.3281" fill="#84BE84" rx="3" ry="3" style="stroke:#038048;stroke-width:1.0;"/><text fill="#000000" font-family="sans-serif" font-size="14" lengthAdjust="spacing" textLength="224" x="42" y="898.8613">update(long, Point2D, double): void</text></g></a><!--MD5=[00ebd38ac1984bd02f36e925e74b275e]
class com.javafwp.game.gameObjects.heatbar--><a href="heatbar.html" target="_top" title="heatbar.html" xlink:actuate="onRequest" xlink:href="heatbar.html" xlink:show="new" xlink:title="heatbar.html" xlink:type="simple"><g id="elem_com.javafwp.game.gameObjects.heatbar"><rect codeLine="10" fill="#F1F1F1" height="188.875" id="com.javafwp.game.gameObjects.heatbar" rx="2.5" ry="2.5" style="stroke:#181818;stroke-width:0.5;" width="365" x="379.5" y="752"/><ellipse cx="533.25" cy="768" fill="#ADD1B2" rx="11" ry="11" style="stroke:#181818;stroke-width:1.0;"/><path d="M536.0156,763.875 Q536.1719,763.6563 536.3594,763.5469 Q536.5469,763.4375 536.7656,763.4375 Q537.1406,763.4375 537.375,763.7031 Q537.6094,763.9531 537.6094,764.5625 L537.6094,766.0156 Q537.6094,766.625 537.375,766.8906 Q537.1406,767.1563 536.7656,767.1563 Q536.4219,767.1563 536.2188,766.9531 Q536.0156,766.7656 535.9063,766.25 Q535.8594,765.8906 535.6719,765.7031 Q535.3438,765.3281 534.7344,765.1094 Q534.125,764.8906 533.5,764.8906 Q532.7344,764.8906 532.0938,765.2188 Q531.4688,765.5469 530.9688,766.2969 Q530.4844,767.0469 530.4844,768.0781 L530.4844,769.1719 Q530.4844,770.4063 531.375,771.2344 Q532.2656,772.0469 533.8594,772.0469 Q534.7969,772.0469 535.4531,771.7969 Q535.8438,771.6406 536.2656,771.2031 Q536.5313,770.9375 536.6719,770.8594 Q536.8281,770.7813 537.0313,770.7813 Q537.3594,770.7813 537.6094,771.0469 Q537.875,771.2969 537.875,771.6406 Q537.875,771.9844 537.5313,772.3906 Q537.0313,772.9688 536.2344,773.2969 Q535.1563,773.75 533.8594,773.75 Q532.3438,773.75 531.1406,773.125 Q530.1563,772.625 529.4688,771.5625 Q528.7813,770.4844 528.7813,769.2031 L528.7813,768.0469 Q528.7813,766.7188 529.3906,765.5781 Q530.0156,764.4219 531.1094,763.8125 Q532.2031,763.1875 533.4375,763.1875 Q534.1719,763.1875 534.8125,763.3594 Q535.4688,763.5156 536.0156,763.875 Z " fill="#000000"/><text fill="#000000" font-family="sans-serif" font-size="14" lengthAdjust="spacing" textLength="49" x="553.75" y="773.7285">heatbar</text><line style="stroke:#181818;stroke-width:0.5;" x1="380.5" x2="743.5" y1="784" y2="784"/><rect fill="none" height="6" style="stroke:#C82930;stroke-width:1.0;" width="6" x="387.5" y="792"/><text fill="#000000" font-family="sans-serif" font-size="14" lengthAdjust="spacing" textLength="104" x="399.5" y="802.5332">heatColor: Color</text><rect fill="none" height="6" style="stroke:#C82930;stroke-width:1.0;" width="6" x="387.5" y="809.6094"/><text fill="#000000" font-family="sans-serif" font-size="14" lengthAdjust="spacing" textLength="100" x="399.5" y="820.1426">heat: Rectangle</text><rect fill="none" height="6" style="stroke:#C82930;stroke-width:1.0;" width="6" x="387.5" y="827.2188"/><text fill="#000000" font-family="sans-serif" font-size="14" lengthAdjust="spacing" textLength="97" x="399.5" y="837.752">currentHeat: int</text><line style="stroke:#181818;stroke-width:0.5;" x1="380.5" x2="743.5" y1="844.8281" y2="844.8281"/><ellipse cx="390.5" cy="855.8281" fill="#84BE84" rx="3" ry="3" style="stroke:#038048;stroke-width:1.0;"/><text fill="#000000" font-family="sans-serif" font-size="14" lengthAdjust="spacing" textLength="339" x="399.5" y="863.3613">heatbar(double, double, double, double, Color, Color)</text><ellipse cx="390.5" cy="873.4375" fill="#84BE84" rx="3" ry="3" style="stroke:#038048;stroke-width:1.0;"/><text fill="#000000" font-family="sans-serif" font-size="14" lengthAdjust="spacing" textLength="131" x="399.5" y="880.9707">update(double): void</text><ellipse cx="390.5" cy="891.0469" fill="#84BE84" rx="3" ry="3" style="stroke:#038048;stroke-width:1.0;"/><text fill="#000000" font-family="sans-serif" font-size="14" lengthAdjust="spacing" textLength="137" x="399.5" y="898.5801">addHeat(int): boolean</text><ellipse cx="390.5" cy="908.6563" fill="#84BE84" rx="3" ry="3" style="stroke:#038048;stroke-width:1.0;"/><text fill="#000000" font-family="sans-serif" font-size="14" lengthAdjust="spacing" textLength="76" x="399.5" y="916.1895">reset(): void</text><ellipse cx="390.5" cy="926.2656" fill="#84BE84" rx="3" ry="3" style="stroke:#038048;stroke-width:1.0;"/><text fill="#000000" font-family="sans-serif" font-size="14" lengthAdjust="spacing" textLength="125" x="399.5" y="933.7988">getEntities(): Node[]</text></g></a><!--MD5=[dd8580933f1f6111db5293a82719d5d7]
class com.javafwp.game.gameObjects.object--><a href="object.html" target="_top" title="object.html" xlink:actuate="onRequest" xlink:href="object.html" xlink:show="new" xlink:title="object.html" xlink:type="simple"><g id="elem_com.javafwp.game.gameObjects.object"><rect codeLine="21" fill="#F1F1F1" height="294.5313" id="com.javafwp.game.gameObjects.object" rx="2.5" ry="2.5" style="stroke:#181818;stroke-width:0.5;" width="310" x="788" y="344"/><ellipse cx="919.75" cy="360" fill="#ADD1B2" rx="11" ry="11" style="stroke:#181818;stroke-width:1.0;"/><path d="M922.5156,355.875 Q922.6719,355.6563 922.8594,355.5469 Q923.0469,355.4375 923.2656,355.4375 Q923.6406,355.4375 923.875,355.7031 Q924.1094,355.9531 924.1094,356.5625 L924.1094,358.0156 Q924.1094,358.625 923.875,358.8906 Q923.6406,359.1563 923.2656,359.1563 Q922.9219,359.1563 922.7188,358.9531 Q922.5156,358.7656 922.4063,358.25 Q922.3594,357.8906 922.1719,357.7031 Q921.8438,357.3281 921.2344,357.1094 Q920.625,356.8906 920,356.8906 Q919.2344,356.8906 918.5938,357.2188 Q917.9688,357.5469 917.4688,358.2969 Q916.9844,359.0469 916.9844,360.0781 L916.9844,361.1719 Q916.9844,362.4063 917.875,363.2344 Q918.7656,364.0469 920.3594,364.0469 Q921.2969,364.0469 921.9531,363.7969 Q922.3438,363.6406 922.7656,363.2031 Q923.0313,362.9375 923.1719,362.8594 Q923.3281,362.7813 923.5313,362.7813 Q923.8594,362.7813 924.1094,363.0469 Q924.375,363.2969 924.375,363.6406 Q924.375,363.9844 924.0313,364.3906 Q923.5313,364.9688 922.7344,365.2969 Q921.6563,365.75 920.3594,365.75 Q918.8438,365.75 917.6406,365.125 Q916.6563,364.625 915.9688,363.5625 Q915.2813,362.4844 915.2813,361.2031 L915.2813,360.0469 Q915.2813,358.7188 915.8906,357.5781 Q916.5156,356.4219 917.6094,355.8125 Q918.7031,355.1875 919.9375,355.1875 Q920.6719,355.1875 921.3125,355.3594 Q921.9688,355.5156 922.5156,355.875 Z " fill="#000000"/><text fill="#000000" font-family="sans-serif" font-size="14" lengthAdjust="spacing" textLength="38" x="940.25" y="365.7285">object</text><line style="stroke:#181818;stroke-width:0.5;" x1="789" x2="1097" y1="376" y2="376"/><polygon fill="none" points="799,382,803,386,799,390,795,386" style="stroke:#B38D22;stroke-width:1.0;"/><text fill="#000000" font-family="sans-serif" font-size="14" lengthAdjust="spacing" textLength="62" x="808" y="394.5332">type: type</text><polygon fill="none" points="799,399.6094,803,403.6094,799,407.6094,795,403.6094" style="stroke:#B38D22;stroke-width:1.0;"/><text fill="#000000" font-family="sans-serif" font-size="14" lengthAdjust="spacing" textLength="106" x="808" y="412.1426">entity: Rectangle</text><line style="stroke:#181818;stroke-width:0.5;" x1="789" x2="1097" y1="419.2188" y2="419.2188"/><ellipse cx="799" cy="430.2188" fill="#84BE84" rx="3" ry="3" style="stroke:#038048;stroke-width:1.0;"/><text fill="#000000" font-family="sans-serif" font-size="14" lengthAdjust="spacing" textLength="284" x="808" y="437.752">object(double, double, double, double, Paint)</text><ellipse cx="799" cy="447.8281" fill="#84BE84" rx="3" ry="3" style="stroke:#038048;stroke-width:1.0;"/><text fill="#000000" font-family="sans-serif" font-size="14" lengthAdjust="spacing" textLength="106" x="808" y="455.3613">getEntity(): Node</text><ellipse cx="799" cy="465.4375" fill="#84BE84" rx="3" ry="3" style="stroke:#038048;stroke-width:1.0;"/><text fill="#000000" font-family="sans-serif" font-size="14" lengthAdjust="spacing" textLength="117" x="808" y="472.9707">getWidth(): double</text><ellipse cx="799" cy="483.0469" fill="#84BE84" rx="3" ry="3" style="stroke:#038048;stroke-width:1.0;"/><text fill="#000000" font-family="sans-serif" font-size="14" lengthAdjust="spacing" textLength="121" x="808" y="490.5801">getHeight(): double</text><ellipse cx="799" cy="500.6563" fill="#84BE84" rx="3" ry="3" style="stroke:#038048;stroke-width:1.0;"/><text fill="#000000" font-family="sans-serif" font-size="14" lengthAdjust="spacing" textLength="97" x="808" y="508.1895">getType(): type</text><ellipse cx="799" cy="518.2656" fill="#84BE84" rx="3" ry="3" style="stroke:#038048;stroke-width:1.0;"/><text fill="#000000" font-family="sans-serif" font-size="14" lengthAdjust="spacing" textLength="89" x="808" y="525.7988">getX(): double</text><ellipse cx="799" cy="535.875" fill="#84BE84" rx="3" ry="3" style="stroke:#038048;stroke-width:1.0;"/><text fill="#000000" font-family="sans-serif" font-size="14" lengthAdjust="spacing" textLength="90" x="808" y="543.4082">getY(): double</text><ellipse cx="799" cy="553.4844" fill="#84BE84" rx="3" ry="3" style="stroke:#038048;stroke-width:1.0;"/><text fill="#000000" font-family="sans-serif" font-size="14" lengthAdjust="spacing" textLength="113" x="808" y="561.0176">setFill(Paint): void</text><ellipse cx="799" cy="571.0938" fill="#84BE84" rx="3" ry="3" style="stroke:#038048;stroke-width:1.0;"/><text fill="#000000" font-family="sans-serif" font-size="14" lengthAdjust="spacing" textLength="114" x="808" y="578.627">setX(double): void</text><ellipse cx="799" cy="588.7031" fill="#84BE84" rx="3" ry="3" style="stroke:#038048;stroke-width:1.0;"/><text fill="#000000" font-family="sans-serif" font-size="14" lengthAdjust="spacing" textLength="115" x="808" y="596.2363">setY(double): void</text><ellipse cx="799" cy="606.3125" fill="#84BE84" rx="3" ry="3" style="stroke:#038048;stroke-width:1.0;"/><text fill="#000000" font-family="sans-serif" font-size="14" lengthAdjust="spacing" textLength="119" x="808" y="613.8457">addX(double): void</text><ellipse cx="799" cy="623.9219" fill="#84BE84" rx="3" ry="3" style="stroke:#038048;stroke-width:1.0;"/><text fill="#000000" font-family="sans-serif" font-size="14" lengthAdjust="spacing" textLength="120" x="808" y="631.4551">addY(double): void</text></g></a><!--MD5=[73d90fc1f5d79c2bd45a568fa986ce7a]
class com.javafwp.game.gameObjects.objectInterface--><a href="objectInterface.html" target="_top" title="objectInterface.html" xlink:actuate="onRequest" xlink:href="objectInterface.html" xlink:show="new" xlink:title="objectInterface.html" xlink:type="simple"><g id="elem_com.javafwp.game.gameObjects.objectInterface"><rect codeLine="38" fill="#F1F1F1" height="241.7031" id="com.javafwp.game.gameObjects.objectInterface" rx="2.5" ry="2.5" style="stroke:#181818;stroke-width:0.5;" width="148" x="869" y="42"/><ellipse cx="893.9" cy="58" fill="#B4A7E5" rx="11" ry="11" style="stroke:#181818;stroke-width:1.0;"/><path d="M894.8531,54.6406 L894.8531,61.2969 L896.5719,61.2969 Q897.1813,61.2969 897.4469,61.5313 Q897.7125,61.7656 897.7125,62.1563 Q897.7125,62.5313 897.4469,62.7656 Q897.1813,63 896.5719,63 L891.4313,63 Q890.8219,63 890.5563,62.7656 Q890.2906,62.5313 890.2906,62.1406 Q890.2906,61.7656 890.5563,61.5313 Q890.8219,61.2969 891.4313,61.2969 L893.15,61.2969 L893.15,54.6406 L891.4313,54.6406 Q890.8219,54.6406 890.5563,54.4063 Q890.2906,54.1719 890.2906,53.7813 Q890.2906,53.4063 890.5563,53.1719 Q890.8219,52.9375 891.4313,52.9375 L896.5719,52.9375 Q897.1813,52.9375 897.4469,53.1719 Q897.7125,53.4063 897.7125,53.7813 Q897.7125,54.1719 897.4469,54.4063 Q897.1813,54.6406 896.5719,54.6406 L894.8531,54.6406 Z " fill="#000000"/><text fill="#000000" font-family="sans-serif" font-size="14" font-style="italic" lengthAdjust="spacing" textLength="94" x="910.1" y="63.7285">objectInterface</text><line style="stroke:#181818;stroke-width:0.5;" x1="870" x2="1016" y1="74" y2="74"/><line style="stroke:#181818;stroke-width:0.5;" x1="870" x2="1016" y1="82" y2="82"/><ellipse cx="880" cy="93" fill="#84BE84" rx="3" ry="3" style="stroke:#038048;stroke-width:1.0;"/><text fill="#000000" font-family="sans-serif" font-size="14" font-style="italic" lengthAdjust="spacing" textLength="107" x="889" y="100.5332">getEntity(): Node</text><ellipse cx="880" cy="110.6094" fill="#84BE84" rx="3" ry="3" style="stroke:#038048;stroke-width:1.0;"/><text fill="#000000" font-family="sans-serif" font-size="14" font-style="italic" lengthAdjust="spacing" textLength="118" x="889" y="118.1426">getWidth(): double</text><ellipse cx="880" cy="128.2188" fill="#84BE84" rx="3" ry="3" style="stroke:#038048;stroke-width:1.0;"/><text fill="#000000" font-family="sans-serif" font-size="14" font-style="italic" lengthAdjust="spacing" textLength="122" x="889" y="135.752">getHeight(): double</text><ellipse cx="880" cy="145.8281" fill="#84BE84" rx="3" ry="3" style="stroke:#038048;stroke-width:1.0;"/><text fill="#000000" font-family="sans-serif" font-size="14" font-style="italic" lengthAdjust="spacing" textLength="90" x="889" y="153.3613">getX(): double</text><ellipse cx="880" cy="163.4375" fill="#84BE84" rx="3" ry="3" style="stroke:#038048;stroke-width:1.0;"/><text fill="#000000" font-family="sans-serif" font-size="14" font-style="italic" lengthAdjust="spacing" textLength="90" x="889" y="170.9707">getY(): double</text><ellipse cx="880" cy="181.0469" fill="#84BE84" rx="3" ry="3" style="stroke:#038048;stroke-width:1.0;"/><text fill="#000000" font-family="sans-serif" font-size="14" font-style="italic" lengthAdjust="spacing" textLength="97" x="889" y="188.5801">getType(): type</text><ellipse cx="880" cy="198.6563" fill="#84BE84" rx="3" ry="3" style="stroke:#038048;stroke-width:1.0;"/><text fill="#000000" font-family="sans-serif" font-size="14" font-style="italic" lengthAdjust="spacing" textLength="112" x="889" y="206.1895">setFill(Paint): void</text><ellipse cx="880" cy="216.2656" fill="#84BE84" rx="3" ry="3" style="stroke:#038048;stroke-width:1.0;"/><text fill="#000000" font-family="sans-serif" font-size="14" font-style="italic" lengthAdjust="spacing" textLength="114" x="889" y="223.7988">setX(double): void</text><ellipse cx="880" cy="233.875" fill="#84BE84" rx="3" ry="3" style="stroke:#038048;stroke-width:1.0;"/><text fill="#000000" font-family="sans-serif" font-size="14" font-style="italic" lengthAdjust="spacing" textLength="114" x="889" y="241.4082">setY(double): void</text><ellipse cx="880" cy="251.4844" fill="#84BE84" rx="3" ry="3" style="stroke:#038048;stroke-width:1.0;"/><text fill="#000000" font-family="sans-serif" font-size="14" font-style="italic" lengthAdjust="spacing" textLength="119" x="889" y="259.0176">addX(double): void</text><ellipse cx="880" cy="269.0938" fill="#84BE84" rx="3" ry="3" style="stroke:#038048;stroke-width:1.0;"/><text fill="#000000" font-family="sans-serif" font-size="14" font-style="italic" lengthAdjust="spacing" textLength="119" x="889" y="276.627">addY(double): void</text></g></a><!--MD5=[ff3c9a2fbe5f52536b275a35435d707b]
class com.javafwp.game.gameObjects.plattform--><a href="plattform.html" target="_top" title="plattform.html" xlink:actuate="onRequest" xlink:href="plattform.html" xlink:show="new" xlink:title="plattform.html" xlink:type="simple"><g id="elem_com.javafwp.game.gameObjects.plattform"><rect codeLine="52" fill="#F1F1F1" height="83.2188" id="com.javafwp.game.gameObjects.plattform" rx="2.5" ry="2.5" style="stroke:#181818;stroke-width:0.5;" width="327" x="779.5" y="805"/><ellipse cx="911.25" cy="821" fill="#ADD1B2" rx="11" ry="11" style="stroke:#181818;stroke-width:1.0;"/><path d="M914.0156,816.875 Q914.1719,816.6563 914.3594,816.5469 Q914.5469,816.4375 914.7656,816.4375 Q915.1406,816.4375 915.375,816.7031 Q915.6094,816.9531 915.6094,817.5625 L915.6094,819.0156 Q915.6094,819.625 915.375,819.8906 Q915.1406,820.1563 914.7656,820.1563 Q914.4219,820.1563 914.2188,819.9531 Q914.0156,819.7656 913.9063,819.25 Q913.8594,818.8906 913.6719,818.7031 Q913.3438,818.3281 912.7344,818.1094 Q912.125,817.8906 911.5,817.8906 Q910.7344,817.8906 910.0938,818.2188 Q909.4688,818.5469 908.9688,819.2969 Q908.4844,820.0469 908.4844,821.0781 L908.4844,822.1719 Q908.4844,823.4063 909.375,824.2344 Q910.2656,825.0469 911.8594,825.0469 Q912.7969,825.0469 913.4531,824.7969 Q913.8438,824.6406 914.2656,824.2031 Q914.5313,823.9375 914.6719,823.8594 Q914.8281,823.7813 915.0313,823.7813 Q915.3594,823.7813 915.6094,824.0469 Q915.875,824.2969 915.875,824.6406 Q915.875,824.9844 915.5313,825.3906 Q915.0313,825.9688 914.2344,826.2969 Q913.1563,826.75 911.8594,826.75 Q910.3438,826.75 909.1406,826.125 Q908.1563,825.625 907.4688,824.5625 Q906.7813,823.4844 906.7813,822.2031 L906.7813,821.0469 Q906.7813,819.7188 907.3906,818.5781 Q908.0156,817.4219 909.1094,816.8125 Q910.2031,816.1875 911.4375,816.1875 Q912.1719,816.1875 912.8125,816.3594 Q913.4688,816.5156 914.0156,816.875 Z " fill="#000000"/><text fill="#000000" font-family="sans-serif" font-size="14" lengthAdjust="spacing" textLength="55" x="931.75" y="826.7285">plattform</text><line style="stroke:#181818;stroke-width:0.5;" x1="780.5" x2="1105.5" y1="837" y2="837"/><line style="stroke:#181818;stroke-width:0.5;" x1="780.5" x2="1105.5" y1="845" y2="845"/><ellipse cx="790.5" cy="856" fill="#84BE84" rx="3" ry="3" style="stroke:#038048;stroke-width:1.0;"/><text fill="#000000" font-family="sans-serif" font-size="14" lengthAdjust="spacing" textLength="301" x="799.5" y="863.5332">plattform(double, double, double, double, Paint)</text><ellipse cx="790.5" cy="873.6094" fill="#84BE84" rx="3" ry="3" style="stroke:#038048;stroke-width:1.0;"/><text fill="#000000" font-family="sans-serif" font-size="14" lengthAdjust="spacing" textLength="131" x="799.5" y="881.1426">update(double): void</text></g></a><!--MD5=[6e83f3b61432f22817038b98e522e442]
class com.javafwp.game.gameObjects.player--><a href="player.html" target="_top" title="player.html" xlink:actuate="onRequest" xlink:href="player.html" xlink:show="new" xlink:title="player.html" xlink:type="simple"><g id="elem_com.javafwp.game.gameObjects.player"><rect codeLine="57" fill="#F1F1F1" height="294.5313" id="com.javafwp.game.gameObjects.player" rx="2.5" ry="2.5" style="stroke:#181818;stroke-width:0.5;" width="418" x="1142" y="699"/><ellipse cx="1327.25" cy="715" fill="#ADD1B2" rx="11" ry="11" style="stroke:#181818;stroke-width:1.0;"/><path d="M1330.0156,710.875 Q1330.1719,710.6563 1330.3594,710.5469 Q1330.5469,710.4375 1330.7656,710.4375 Q1331.1406,710.4375 1331.375,710.7031 Q1331.6094,710.9531 1331.6094,711.5625 L1331.6094,713.0156 Q1331.6094,713.625 1331.375,713.8906 Q1331.1406,714.1563 1330.7656,714.1563 Q1330.4219,714.1563 1330.2188,713.9531 Q1330.0156,713.7656 1329.9063,713.25 Q1329.8594,712.8906 1329.6719,712.7031 Q1329.3438,712.3281 1328.7344,712.1094 Q1328.125,711.8906 1327.5,711.8906 Q1326.7344,711.8906 1326.0938,712.2188 Q1325.4688,712.5469 1324.9688,713.2969 Q1324.4844,714.0469 1324.4844,715.0781 L1324.4844,716.1719 Q1324.4844,717.4063 1325.375,718.2344 Q1326.2656,719.0469 1327.8594,719.0469 Q1328.7969,719.0469 1329.4531,718.7969 Q1329.8438,718.6406 1330.2656,718.2031 Q1330.5313,717.9375 1330.6719,717.8594 Q1330.8281,717.7813 1331.0313,717.7813 Q1331.3594,717.7813 1331.6094,718.0469 Q1331.875,718.2969 1331.875,718.6406 Q1331.875,718.9844 1331.5313,719.3906 Q1331.0313,719.9688 1330.2344,720.2969 Q1329.1563,720.75 1327.8594,720.75 Q1326.3438,720.75 1325.1406,720.125 Q1324.1563,719.625 1323.4688,718.5625 Q1322.7813,717.4844 1322.7813,716.2031 L1322.7813,715.0469 Q1322.7813,713.7188 1323.3906,712.5781 Q1324.0156,711.4219 1325.1094,710.8125 Q1326.2031,710.1875 1327.4375,710.1875 Q1328.1719,710.1875 1328.8125,710.3594 Q1329.4688,710.5156 1330.0156,710.875 Z " fill="#000000"/><text fill="#000000" font-family="sans-serif" font-size="14" lengthAdjust="spacing" textLength="39" x="1347.75" y="720.7285">player</text><line style="stroke:#181818;stroke-width:0.5;" x1="1143" x2="1559" y1="731" y2="731"/><polygon fill="none" points="1153,738,1149,744,1157,744" style="stroke:#1963A0;stroke-width:1.0;"/><text fill="#000000" font-family="sans-serif" font-size="14" lengthAdjust="spacing" textLength="115" x="1162" y="749.5332">canJump: boolean</text><polygon fill="none" points="1153,755.6094,1149,761.6094,1157,761.6094" style="stroke:#1963A0;stroke-width:1.0;"/><text fill="#000000" font-family="sans-serif" font-size="14" lengthAdjust="spacing" textLength="76" x="1162" y="767.1426">vel: Point2D</text><polygon fill="none" points="1153,773.2188,1149,779.2188,1157,779.2188" style="stroke:#1963A0;stroke-width:1.0;"/><text fill="#000000" font-family="sans-serif" font-size="14" lengthAdjust="spacing" textLength="73" x="1162" y="784.752">acc: double</text><polygon fill="none" points="1153,790.8281,1149,796.8281,1157,796.8281" style="stroke:#1963A0;stroke-width:1.0;"/><text fill="#000000" font-family="sans-serif" font-size="14" lengthAdjust="spacing" textLength="118" x="1162" y="802.3613">idleFrames: Paint[]</text><polygon fill="none" points="1153,808.4375,1149,814.4375,1157,814.4375" style="stroke:#1963A0;stroke-width:1.0;"/><text fill="#000000" font-family="sans-serif" font-size="14" lengthAdjust="spacing" textLength="144" x="1162" y="819.9707">runningFrames: Paint[]</text><polygon fill="none" points="1153,826.0469,1149,832.0469,1157,832.0469" style="stroke:#1963A0;stroke-width:1.0;"/><text fill="#000000" font-family="sans-serif" font-size="14" lengthAdjust="spacing" textLength="176" x="1162" y="837.5801">animationFrameCounter: int</text><polygon fill="none" points="1153,843.6563,1149,849.6563,1157,849.6563" style="stroke:#1963A0;stroke-width:1.0;"/><text fill="#000000" font-family="sans-serif" font-size="14" lengthAdjust="spacing" textLength="162" x="1162" y="855.1895">jumpSfx: paralellSfxPlayer</text><line style="stroke:#181818;stroke-width:0.5;" x1="1143" x2="1559" y1="862.2656" y2="862.2656"/><ellipse cx="1153" cy="873.2656" fill="#84BE84" rx="3" ry="3" style="stroke:#038048;stroke-width:1.0;"/><text fill="#000000" font-family="sans-serif" font-size="14" lengthAdjust="spacing" textLength="392" x="1162" y="880.7988">player(double, double, double, double, double, Paint[], Paint[])</text><ellipse cx="1153" cy="890.875" fill="#84BE84" rx="3" ry="3" style="stroke:#038048;stroke-width:1.0;"/><text fill="#000000" font-family="sans-serif" font-size="14" lengthAdjust="spacing" textLength="301" x="1162" y="898.4082">update(long, ArrayList&lt;plattform&gt;, double): void</text><ellipse cx="1153" cy="908.4844" fill="#84BE84" rx="3" ry="3" style="stroke:#038048;stroke-width:1.0;"/><text fill="#000000" font-family="sans-serif" font-size="14" lengthAdjust="spacing" textLength="108" x="1162" y="916.0176">getVel(): Point2D</text><ellipse cx="1153" cy="926.0938" fill="#84BE84" rx="3" ry="3" style="stroke:#038048;stroke-width:1.0;"/><text fill="#000000" font-family="sans-serif" font-size="14" lengthAdjust="spacing" textLength="128" x="1162" y="933.627">move(Point2D): void</text><ellipse cx="1153" cy="943.7031" fill="#84BE84" rx="3" ry="3" style="stroke:#038048;stroke-width:1.0;"/><text fill="#000000" font-family="sans-serif" font-size="14" lengthAdjust="spacing" textLength="117" x="1162" y="951.2363">jump(double): void</text><ellipse cx="1153" cy="961.3125" fill="#84BE84" rx="3" ry="3" style="stroke:#038048;stroke-width:1.0;"/><text fill="#000000" font-family="sans-serif" font-size="14" lengthAdjust="spacing" textLength="174" x="1162" y="968.8457">death(double, double): void</text><ellipse cx="1153" cy="978.9219" fill="#84BE84" rx="3" ry="3" style="stroke:#038048;stroke-width:1.0;"/><text fill="#000000" font-family="sans-serif" font-size="14" lengthAdjust="spacing" textLength="148" x="1162" y="986.4551">getCanJump(): boolean</text></g></a><!--MD5=[a15015684656681cad16b83804c39725]
class com.javafwp.game.gameObjects.projectile--><a href="projectile.html" target="_top" title="projectile.html" xlink:actuate="onRequest" xlink:href="projectile.html" xlink:show="new" xlink:title="projectile.html" xlink:type="simple"><g id="elem_com.javafwp.game.gameObjects.projectile"><rect codeLine="74" fill="#F1F1F1" height="100.8281" id="com.javafwp.game.gameObjects.projectile" rx="2.5" ry="2.5" style="stroke:#181818;stroke-width:0.5;" width="387" x="1595.5" y="796"/><ellipse cx="1756.25" cy="812" fill="#ADD1B2" rx="11" ry="11" style="stroke:#181818;stroke-width:1.0;"/><path d="M1759.0156,807.875 Q1759.1719,807.6563 1759.3594,807.5469 Q1759.5469,807.4375 1759.7656,807.4375 Q1760.1406,807.4375 1760.375,807.7031 Q1760.6094,807.9531 1760.6094,808.5625 L1760.6094,810.0156 Q1760.6094,810.625 1760.375,810.8906 Q1760.1406,811.1563 1759.7656,811.1563 Q1759.4219,811.1563 1759.2188,810.9531 Q1759.0156,810.7656 1758.9063,810.25 Q1758.8594,809.8906 1758.6719,809.7031 Q1758.3438,809.3281 1757.7344,809.1094 Q1757.125,808.8906 1756.5,808.8906 Q1755.7344,808.8906 1755.0938,809.2188 Q1754.4688,809.5469 1753.9688,810.2969 Q1753.4844,811.0469 1753.4844,812.0781 L1753.4844,813.1719 Q1753.4844,814.4063 1754.375,815.2344 Q1755.2656,816.0469 1756.8594,816.0469 Q1757.7969,816.0469 1758.4531,815.7969 Q1758.8438,815.6406 1759.2656,815.2031 Q1759.5313,814.9375 1759.6719,814.8594 Q1759.8281,814.7813 1760.0313,814.7813 Q1760.3594,814.7813 1760.6094,815.0469 Q1760.875,815.2969 1760.875,815.6406 Q1760.875,815.9844 1760.5313,816.3906 Q1760.0313,816.9688 1759.2344,817.2969 Q1758.1563,817.75 1756.8594,817.75 Q1755.3438,817.75 1754.1406,817.125 Q1753.1563,816.625 1752.4688,815.5625 Q1751.7813,814.4844 1751.7813,813.2031 L1751.7813,812.0469 Q1751.7813,810.7188 1752.3906,809.5781 Q1753.0156,808.4219 1754.1094,807.8125 Q1755.2031,807.1875 1756.4375,807.1875 Q1757.1719,807.1875 1757.8125,807.3594 Q1758.4688,807.5156 1759.0156,807.875 Z " fill="#000000"/><text fill="#000000" font-family="sans-serif" font-size="14" lengthAdjust="spacing" textLength="57" x="1776.75" y="817.7285">projectile</text><line style="stroke:#181818;stroke-width:0.5;" x1="1596.5" x2="1981.5" y1="828" y2="828"/><polygon fill="none" points="1606.5,835,1602.5,841,1610.5,841" style="stroke:#1963A0;stroke-width:1.0;"/><text fill="#000000" font-family="sans-serif" font-size="14" lengthAdjust="spacing" textLength="74" x="1615.5" y="846.5332">dir: Point2D</text><line style="stroke:#181818;stroke-width:0.5;" x1="1596.5" x2="1981.5" y1="853.6094" y2="853.6094"/><ellipse cx="1606.5" cy="864.6094" fill="#84BE84" rx="3" ry="3" style="stroke:#038048;stroke-width:1.0;"/><text fill="#000000" font-family="sans-serif" font-size="14" lengthAdjust="spacing" textLength="361" x="1615.5" y="872.1426">projectile(double, double, double, double, Point2D, Paint)</text><ellipse cx="1606.5" cy="882.2188" fill="#84BE84" rx="3" ry="3" style="stroke:#038048;stroke-width:1.0;"/><text fill="#000000" font-family="sans-serif" font-size="14" lengthAdjust="spacing" textLength="131" x="1615.5" y="889.752">update(double): void</text></g></a><!--MD5=[3cf209fab41f469536c55954326f5ce9]
reverse link com.javafwp.game.gameObjects.object to com.javafwp.game.gameObjects.enemy--><g id="link_com.javafwp.game.gameObjects.object_com.javafwp.game.gameObjects.enemy"><path codeLine="80" d="M768.34,537.45 C649.32,572.11 490.61,626.44 362,699 C319.16,723.17 276.33,757.76 243.31,787.25 " fill="none" id="com.javafwp.game.gameObjects.object-backto-com.javafwp.game.gameObjects.enemy" style="stroke:#181818;stroke-width:1.0;"/><polygon fill="none" points="766.68,530.64,787.84,531.84,770.55,544.09,766.68,530.64" style="stroke:#181818;stroke-width:1.0;"/></g><!--MD5=[e15601706c4a5da89e2b4b0254838363]
reverse link com.javafwp.game.gameObjects.object to com.javafwp.game.gameObjects.heatbar--><g id="link_com.javafwp.game.gameObjects.object_com.javafwp.game.gameObjects.heatbar"><path codeLine="81" d="M772.87,650.13 C735.31,684.92 696.69,720.71 662.92,752 " fill="none" id="com.javafwp.game.gameObjects.object-backto-com.javafwp.game.gameObjects.heatbar" style="stroke:#181818;stroke-width:1.0;"/><polygon fill="none" points="768.33,644.79,787.76,636.33,777.84,655.06,768.33,644.79" style="stroke:#181818;stroke-width:1.0;"/></g><!--MD5=[e8afdeacdc610b8a5c367652b00091f1]
reverse link com.javafwp.game.gameObjects.objectInterface to com.javafwp.game.gameObjects.object--><g id="link_com.javafwp.game.gameObjects.objectInterface_com.javafwp.game.gameObjects.object"><path codeLine="82" d="M943,304.51 C943,317.58 943,330.85 943,343.97 " fill="none" id="com.javafwp.game.gameObjects.objectInterface-backto-com.javafwp.game.gameObjects.object" style="stroke:#181818;stroke-width:1.0;stroke-dasharray:7.0,7.0;"/><polygon fill="none" points="936,304.19,943,284.19,950,304.19,936,304.19" style="stroke:#181818;stroke-width:1.0;"/></g><!--MD5=[111bfedb90dddab59753dbb5360658b5]
reverse link com.javafwp.game.gameObjects.object to com.javafwp.game.gameObjects.plattform--><g id="link_com.javafwp.game.gameObjects.object_com.javafwp.game.gameObjects.plattform"><path codeLine="83" d="M943,659.33 C943,713.31 943,768.51 943,804.63 " fill="none" id="com.javafwp.game.gameObjects.object-backto-com.javafwp.game.gameObjects.plattform" style="stroke:#181818;stroke-width:1.0;"/><polygon fill="none" points="936,659.14,943,639.14,950,659.14,936,659.14" style="stroke:#181818;stroke-width:1.0;"/></g><!--MD5=[648f7bb283d4935ddc956ce067c9e4e4]
reverse link com.javafwp.game.gameObjects.object to com.javafwp.game.gameObjects.player--><g id="link_com.javafwp.game.gameObjects.object_com.javafwp.game.gameObjects.player"><path codeLine="84" d="M1113.25,639.8 C1135.82,659.33 1158.96,679.34 1181.51,698.86 " fill="none" id="com.javafwp.game.gameObjects.object-backto-com.javafwp.game.gameObjects.player" style="stroke:#181818;stroke-width:1.0;"/><polygon fill="none" points="1108.66,645.09,1098.12,626.71,1117.82,634.5,1108.66,645.09" style="stroke:#181818;stroke-width:1.0;"/></g><!--MD5=[4e193daae36b3661200bef98b9522fe3]
reverse link com.javafwp.game.gameObjects.object to com.javafwp.game.gameObjects.projectile--><g id="link_com.javafwp.game.gameObjects.object_com.javafwp.game.gameObjects.projectile"><path codeLine="85" d="M1117.73,534.5 C1248.39,569.39 1429.35,625.23 1578,699 C1631.73,725.66 1687.24,764.75 1727.84,795.84 " fill="none" id="com.javafwp.game.gameObjects.object-backto-com.javafwp.game.gameObjects.projectile" style="stroke:#181818;stroke-width:1.0;"/><polygon fill="none" points="1115.57,541.17,1098.02,529.29,1119.14,527.63,1115.57,541.17" style="stroke:#181818;stroke-width:1.0;"/></g><rect height="12.5781" style="stroke:#00000000;stroke-width:1.0;fill:none;" width="184" x="904" y="1016"/><text fill="#888888" font-family="sans-serif" font-size="10" lengthAdjust="spacing" textLength="184" x="904" y="1026.3809">UMLDoclet 2.0.17, PlantUML 1.2022.5</text><!--MD5=[64babd5bb127d56327e560cb46aa6991]
@startuml
    namespace com.javafwp.game.gameObjects {

        class enemy [[enemy.html]] {
            -frames: Paint[]
            -animationCounter: int
            +enemy(double, double, double, double, Paint[])
            +update(long, Point2D, double): void
        }

        class heatbar [[heatbar.html]] {
            -heatColor: Color
            -heat: Rectangle
            -currentHeat: int
            +heatbar(double, double, double, double, Color, Color)
            +update(double): void
            +addHeat(int): boolean
            +reset(): void
            +getEntities(): Node[]
        }

        class object [[object.html]] {
            #type: type
            #entity: Rectangle
            +object(double, double, double, double, Paint)
            +getEntity(): Node
            +getWidth(): double
            +getHeight(): double
            +getType(): type
            +getX(): double
            +getY(): double
            +setFill(Paint): void
            +setX(double): void
            +setY(double): void
            +addX(double): void
            +addY(double): void
        }

        interface objectInterface [[objectInterface.html]] {
            {abstract} +getEntity(): Node
            {abstract} +getWidth(): double
            {abstract} +getHeight(): double
            {abstract} +getX(): double
            {abstract} +getY(): double
            {abstract} +getType(): type
            {abstract} +setFill(Paint): void
            {abstract} +setX(double): void
            {abstract} +setY(double): void
            {abstract} +addX(double): void
            {abstract} +addY(double): void
        }

        class plattform [[plattform.html]] {
            +plattform(double, double, double, double, Paint)
            +update(double): void
        }

        class player [[player.html]] {
            ~canJump: boolean
            ~vel: Point2D
            ~acc: double
            ~idleFrames: Paint[]
            ~runningFrames: Paint[]
            ~animationFrameCounter: int
            ~jumpSfx: paralellSfxPlayer
            +player(double, double, double, double, double, Paint[], Paint[])
            +update(long, ArrayList<plattform>, double): void
            +getVel(): Point2D
            +move(Point2D): void
            +jump(double): void
            +death(double, double): void
            +getCanJump(): boolean
        }

        class projectile [[projectile.html]] {
            ~dir: Point2D
            +projectile(double, double, double, double, Point2D, Paint)
            +update(double): void
        }

        object <|- - enemy
        object <|- - heatbar
        objectInterface <|.. object
        object <|- - plattform
        object <|- - player
        object <|- - projectile
    }

    center footer UMLDoclet 2.0.17, PlantUML 1.2022.5
@enduml

PlantUML version 1.2022.5(Sat Apr 30 12:55:52 CEST 2022)
(APACHE source distribution)
Java Runtime: Java(TM) SE Runtime Environment
JVM: Java HotSpot(TM) 64-Bit Server VM
Default Encoding: UTF-8
Language: de
Country: DE
--></g></svg>