<?xml version="1.0" encoding="UTF-8" standalone="no"?><svg xmlns="http://www.w3.org/2000/svg" xmlns:xlink="http://www.w3.org/1999/xlink" contentStyleType="text/css" height="216px" preserveAspectRatio="none" style="width:341px;height:216px;background:#FFFFFF;" version="1.1" viewBox="0 0 341 216" width="341px" zoomAndPan="magnify"><defs/><g><!--MD5=[ff3c9a2fbe5f52536b275a35435d707b]
class com.javafwp.game.gameObjects.plattform--><a href="plattform.html" target="_top" title="plattform.html" xlink:actuate="onRequest" xlink:href="plattform.html" xlink:show="new" xlink:title="plattform.html" xlink:type="simple"><g id="elem_com.javafwp.game.gameObjects.plattform"><rect codeLine="5" fill="#F1F1F1" height="83.4063" id="com.javafwp.game.gameObjects.plattform" rx="2.5" ry="2.5" style="stroke:#181818;stroke-width:0.5;" width="327" x="7" y="107"/><ellipse cx="88.25" cy="127.0938" fill="#ADD1B2" rx="11" ry="11" style="stroke:#181818;stroke-width:1.0;"/><path d="M91.0156,122.9688 Q91.1719,122.75 91.3594,122.6406 Q91.5469,122.5313 91.7656,122.5313 Q92.1406,122.5313 92.375,122.7969 Q92.6094,123.0469 92.6094,123.6563 L92.6094,125.1094 Q92.6094,125.7188 92.375,125.9844 Q92.1406,126.25 91.7656,126.25 Q91.4219,126.25 91.2188,126.0469 Q91.0156,125.8594 90.9063,125.3438 Q90.8594,124.9844 90.6719,124.7969 Q90.3438,124.4219 89.7344,124.2031 Q89.125,123.9844 88.5,123.9844 Q87.7344,123.9844 87.0938,124.3125 Q86.4688,124.6406 85.9688,125.3906 Q85.4844,126.1406 85.4844,127.1719 L85.4844,128.2656 Q85.4844,129.5 86.375,130.3281 Q87.2656,131.1406 88.8594,131.1406 Q89.7969,131.1406 90.4531,130.8906 Q90.8438,130.7344 91.2656,130.2969 Q91.5313,130.0313 91.6719,129.9531 Q91.8281,129.875 92.0313,129.875 Q92.3594,129.875 92.6094,130.1406 Q92.875,130.3906 92.875,130.7344 Q92.875,131.0781 92.5313,131.4844 Q92.0313,132.0625 91.2344,132.3906 Q90.1563,132.8438 88.8594,132.8438 Q87.3438,132.8438 86.1406,132.2188 Q85.1563,131.7188 84.4688,130.6563 Q83.7813,129.5781 83.7813,128.2969 L83.7813,127.1406 Q83.7813,125.8125 84.3906,124.6719 Q85.0156,123.5156 86.1094,122.9063 Q87.2031,122.2813 88.4375,122.2813 Q89.1719,122.2813 89.8125,122.4531 Q90.4688,122.6094 91.0156,122.9688 Z " fill="#000000"/><text fill="#000000" font-family="sans-serif" font-size="14" lengthAdjust="spacing" textLength="55" x="159.25" y="126.5332">plattform</text><text fill="#000000" font-family="sans-serif" font-size="10" lengthAdjust="spacing" textLength="156" x="108.75" y="139.9902">com.javafwp.game.gameObjects</text><line style="stroke:#181818;stroke-width:0.5;" x1="8" x2="333" y1="147.1875" y2="147.1875"/><ellipse cx="18" cy="158.1875" fill="#84BE84" rx="3" ry="3" style="stroke:#038048;stroke-width:1.0;"/><text fill="#000000" font-family="sans-serif" font-size="14" lengthAdjust="spacing" textLength="301" x="27" y="165.7207">plattform(double, double, double, double, Paint)</text><ellipse cx="18" cy="175.7969" fill="#84BE84" rx="3" ry="3" style="stroke:#038048;stroke-width:1.0;"/><text fill="#000000" font-family="sans-serif" font-size="14" lengthAdjust="spacing" textLength="131" x="27" y="183.3301">update(double): void</text></g></a><!--MD5=[dd8580933f1f6111db5293a82719d5d7]
class com.javafwp.game.gameObjects.object--><a href="object.html" target="_top" title="object.html" xlink:actuate="onRequest" xlink:href="object.html" xlink:show="new" xlink:title="object.html" xlink:type="simple"><g id="elem_com.javafwp.game.gameObjects.object"><rect codeLine="10" fill="#F1F1F1" height="40.1875" id="com.javafwp.game.gameObjects.object" rx="2.5" ry="2.5" style="stroke:#181818;stroke-width:0.5;" width="188" x="76.5" y="7"/><ellipse cx="91.5" cy="27.0938" fill="#ADD1B2" rx="11" ry="11" style="stroke:#181818;stroke-width:1.0;"/><path d="M94.2656,22.9688 Q94.4219,22.75 94.6094,22.6406 Q94.7969,22.5313 95.0156,22.5313 Q95.3906,22.5313 95.625,22.7969 Q95.8594,23.0469 95.8594,23.6563 L95.8594,25.1094 Q95.8594,25.7188 95.625,25.9844 Q95.3906,26.25 95.0156,26.25 Q94.6719,26.25 94.4688,26.0469 Q94.2656,25.8594 94.1563,25.3438 Q94.1094,24.9844 93.9219,24.7969 Q93.5938,24.4219 92.9844,24.2031 Q92.375,23.9844 91.75,23.9844 Q90.9844,23.9844 90.3438,24.3125 Q89.7188,24.6406 89.2188,25.3906 Q88.7344,26.1406 88.7344,27.1719 L88.7344,28.2656 Q88.7344,29.5 89.625,30.3281 Q90.5156,31.1406 92.1094,31.1406 Q93.0469,31.1406 93.7031,30.8906 Q94.0938,30.7344 94.5156,30.2969 Q94.7813,30.0313 94.9219,29.9531 Q95.0781,29.875 95.2813,29.875 Q95.6094,29.875 95.8594,30.1406 Q96.125,30.3906 96.125,30.7344 Q96.125,31.0781 95.7813,31.4844 Q95.2813,32.0625 94.4844,32.3906 Q93.4063,32.8438 92.1094,32.8438 Q90.5938,32.8438 89.3906,32.2188 Q88.4063,31.7188 87.7188,30.6563 Q87.0313,29.5781 87.0313,28.2969 L87.0313,27.1406 Q87.0313,25.8125 87.6406,24.6719 Q88.2656,23.5156 89.3594,22.9063 Q90.4531,22.2813 91.6875,22.2813 Q92.4219,22.2813 93.0625,22.4531 Q93.7188,22.6094 94.2656,22.9688 Z " fill="#000000"/><text fill="#000000" font-family="sans-serif" font-size="14" lengthAdjust="spacing" textLength="38" x="164.5" y="26.5332">object</text><text fill="#000000" font-family="sans-serif" font-size="10" lengthAdjust="spacing" textLength="156" x="105.5" y="39.9902">com.javafwp.game.gameObjects</text></g></a><!--MD5=[111bfedb90dddab59753dbb5360658b5]
reverse link com.javafwp.game.gameObjects.object to com.javafwp.game.gameObjects.plattform--><g id="link_com.javafwp.game.gameObjects.object_com.javafwp.game.gameObjects.plattform"><path codeLine="12" d="M170.5,67.23 C170.5,79.84 170.5,93.83 170.5,106.56 " fill="none" id="com.javafwp.game.gameObjects.object-backto-com.javafwp.game.gameObjects.plattform" style="stroke:#181818;stroke-width:1.0;"/><polygon fill="none" points="163.5,67.2,170.5,47.2,177.5,67.2,163.5,67.2" style="stroke:#181818;stroke-width:1.0;"/></g><rect height="12.5781" style="stroke:#00000000;stroke-width:1.0;fill:none;" width="184" x="71.5" y="196.4063"/><text fill="#888888" font-family="sans-serif" font-size="10" lengthAdjust="spacing" textLength="184" x="71.5" y="206.7871">UMLDoclet 2.0.17, PlantUML 1.2022.5</text><!--MD5=[4cba3dbba2b03130cdaeba143e14aa62]
@startuml
    set namespaceSeparator none
    hide empty fields
    hide empty methods

    class "<size:14>plattform\n<size:10>com.javafwp.game.gameObjects" as com.javafwp.game.gameObjects.plattform [[plattform.html]] {
        +plattform(double, double, double, double, Paint)
        +update(double): void
    }

    class "<size:14>object\n<size:10>com.javafwp.game.gameObjects" as com.javafwp.game.gameObjects.object [[object.html]]

    com.javafwp.game.gameObjects.object <|- - com.javafwp.game.gameObjects.plattform

    center footer UMLDoclet 2.0.17, PlantUML 1.2022.5
@enduml

PlantUML version 1.2022.5(Sat Apr 30 12:55:52 CEST 2022)
(APACHE source distribution)
Java Runtime: Java(TM) SE Runtime Environment
JVM: Java HotSpot(TM) 64-Bit Server VM
Default Encoding: UTF-8
Language: de
Country: DE
--></g></svg>