<?xml version="1.0" encoding="UTF-8" standalone="no"?><svg xmlns="http://www.w3.org/2000/svg" xmlns:xlink="http://www.w3.org/1999/xlink" contentStyleType="text/css" height="210px" preserveAspectRatio="none" style="width:372px;height:210px;background:#FFFFFF;" version="1.1" viewBox="0 0 372 210" width="372px" zoomAndPan="magnify"><defs/><g><!--MD5=[ff3c9a2fbe5f52536b275a35435d707b]
class com.javafwp.game.gameObjects.plattform--><a href="plattform.html" target="_top" title="plattform.html" xlink:actuate="onRequest" xlink:href="plattform.html" xlink:show="new" xlink:title="plattform.html" xlink:type="simple"><g id="elem_com.javafwp.game.gameObjects.plattform"><rect codeLine="5" fill="#F1F1F1" height="79.2422" id="com.javafwp.game.gameObjects.plattform" rx="2.5" ry="2.5" style="stroke:#181818;stroke-width:0.5;" width="358" x="7" y="105"/><ellipse cx="102.75" cy="124.1328" fill="#ADD1B2" rx="11" ry="11" style="stroke:#181818;stroke-width:1.0;"/><path d="M105.2231,130.2759 Q104.6421,130.5747 104.0029,130.7241 Q103.3638,130.8735 102.6582,130.8735 Q100.1514,130.8735 98.8315,129.2217 Q97.5117,127.5698 97.5117,124.4487 Q97.5117,121.3193 98.8315,119.6675 Q100.1514,118.0156 102.6582,118.0156 Q103.3638,118.0156 104.0112,118.165 Q104.6587,118.3145 105.2231,118.6133 L105.2231,121.3359 Q104.5923,120.7549 103.9988,120.4851 Q103.4053,120.2153 102.7744,120.2153 Q101.4297,120.2153 100.7449,121.282 Q100.0601,122.3486 100.0601,124.4487 Q100.0601,126.5405 100.7449,127.6072 Q101.4297,128.6738 102.7744,128.6738 Q103.4053,128.6738 103.9988,128.4041 Q104.5923,128.1343 105.2231,127.5532 Z " fill="#000000"/><text fill="#000000" font-family="sans-serif" font-size="14" lengthAdjust="spacing" textLength="64" x="170.25" y="123.5352">plattform</text><text fill="#000000" font-family="sans-serif" font-size="10" lengthAdjust="spacing" textLength="158" x="123.25" y="136.1563">com.javafwp.game.gameObjects</text><line style="stroke:#181818;stroke-width:0.5;" x1="8" x2="364" y1="143.2656" y2="143.2656"/><ellipse cx="18" cy="154.2656" fill="#84BE84" rx="3" ry="3" style="stroke:#038048;stroke-width:1.0;"/><text fill="#000000" font-family="sans-serif" font-size="14" lengthAdjust="spacing" textLength="332" x="27" y="160.8008">plattform(double, double, double, double, Paint)</text><ellipse cx="18" cy="170.7539" fill="#84BE84" rx="3" ry="3" style="stroke:#038048;stroke-width:1.0;"/><text fill="#000000" font-family="sans-serif" font-size="14" lengthAdjust="spacing" textLength="143" x="27" y="177.2891">update(double): void</text></g></a><!--MD5=[dd8580933f1f6111db5293a82719d5d7]
class com.javafwp.game.gameObjects.object--><a href="object.html" target="_top" title="object.html" xlink:actuate="onRequest" xlink:href="object.html" xlink:show="new" xlink:title="object.html" xlink:type="simple"><g id="elem_com.javafwp.game.gameObjects.object"><rect codeLine="10" fill="#F1F1F1" height="38.2656" id="com.javafwp.game.gameObjects.object" rx="2.5" ry="2.5" style="stroke:#181818;stroke-width:0.5;" width="190" x="91" y="7"/><ellipse cx="106" cy="26.1328" fill="#ADD1B2" rx="11" ry="11" style="stroke:#181818;stroke-width:1.0;"/><path d="M108.4731,32.2759 Q107.8921,32.5747 107.2529,32.7241 Q106.6138,32.8735 105.9082,32.8735 Q103.4014,32.8735 102.0815,31.2217 Q100.7617,29.5698 100.7617,26.4487 Q100.7617,23.3193 102.0815,21.6675 Q103.4014,20.0156 105.9082,20.0156 Q106.6138,20.0156 107.2612,20.165 Q107.9087,20.3145 108.4731,20.6133 L108.4731,23.3359 Q107.8423,22.7549 107.2488,22.4851 Q106.6553,22.2153 106.0244,22.2153 Q104.6797,22.2153 103.9949,23.282 Q103.3101,24.3486 103.3101,26.4487 Q103.3101,28.5405 103.9949,29.6072 Q104.6797,30.6738 106.0244,30.6738 Q106.6553,30.6738 107.2488,30.4041 Q107.8423,30.1343 108.4731,29.5532 Z " fill="#000000"/><text fill="#000000" font-family="sans-serif" font-size="14" lengthAdjust="spacing" textLength="42" x="178" y="25.5352">object</text><text fill="#000000" font-family="sans-serif" font-size="10" lengthAdjust="spacing" textLength="158" x="120" y="38.1563">com.javafwp.game.gameObjects</text></g></a><!--MD5=[111bfedb90dddab59753dbb5360658b5]
reverse link com.javafwp.game.gameObjects.object to com.javafwp.game.gameObjects.plattform--><g id="link_com.javafwp.game.gameObjects.object_com.javafwp.game.gameObjects.plattform"><path codeLine="12" d="M186,65.24 C186,77.9 186,92 186,104.71 " fill="none" id="com.javafwp.game.gameObjects.object-backto-com.javafwp.game.gameObjects.plattform" style="stroke:#181818;stroke-width:1.0;"/><polygon fill="none" points="179,65.2,186,45.2,193,65.2,179,65.2" style="stroke:#181818;stroke-width:1.0;"/></g><rect height="11.7773" style="stroke:#00000000;stroke-width:1.0;fill:none;" width="182" x="88" y="190.2422"/><text fill="#888888" font-family="sans-serif" font-size="10" lengthAdjust="spacing" textLength="182" x="88" y="199.9102">UMLDoclet 2.0.17, PlantUML 1.2022.5</text><!--MD5=[0d861e217fe81cbb607bfe910f8d36a0]
@startuml
    set namespaceSeparator none
    hide empty fields
    hide empty methods

    class "<size:14>plattform\n<size:10>com.javafwp.game.gameObjects" as com.javafwp.game.gameObjects.plattform [[plattform.html]] {
        +plattform(double, double, double, double, Paint)
        +update(double): void
    }

    class "<size:14>object\n<size:10>com.javafwp.game.gameObjects" as com.javafwp.game.gameObjects.object [[object.html]]

    com.javafwp.game.gameObjects.object <|- - com.javafwp.game.gameObjects.plattform

    center footer UMLDoclet 2.0.17, PlantUML 1.2022.5
@enduml

PlantUML version 1.2022.5(Sat Apr 30 12:55:52 CEST 2022)
(APACHE source distribution)
Java Runtime: OpenJDK Runtime Environment
JVM: OpenJDK 64-Bit Server VM
Default Encoding: UTF-8
Language: en
Country: DE
--></g></svg>