<?xml version="1.0" encoding="UTF-8" standalone="no"?><svg xmlns="http://www.w3.org/2000/svg" xmlns:xlink="http://www.w3.org/1999/xlink" contentStyleType="text/css" height="216px" preserveAspectRatio="none" style="width:342px;height:216px;background:#FFFFFF;" version="1.1" viewBox="0 0 342 216" width="342px" zoomAndPan="magnify"><defs/><g><!--MD5=[e4e261e68d1dd5a1c58b982183532505]
class com.javafwp.game.gameObjects.Plattform--><a href="plattform.html" target="_top" title="plattform.html" xlink:actuate="onRequest" xlink:href="plattform.html" xlink:show="new" xlink:title="plattform.html" xlink:type="simple"><g id="elem_com.javafwp.game.gameObjects.Plattform"><rect codeLine="5" fill="#F1F1F1" height="83.4063" id="com.javafwp.game.gameObjects.Plattform" rx="2.5" ry="2.5" style="stroke:#181818;stroke-width:0.5;" width="328" x="7" y="107"/><ellipse cx="88.75" cy="127.0938" fill="#ADD1B2" rx="11" ry="11" style="stroke:#181818;stroke-width:1.0;"/><path d="M91.5156,122.9688 Q91.6719,122.75 91.8594,122.6406 Q92.0469,122.5313 92.2656,122.5313 Q92.6406,122.5313 92.875,122.7969 Q93.1094,123.0469 93.1094,123.6563 L93.1094,125.1094 Q93.1094,125.7188 92.875,125.9844 Q92.6406,126.25 92.2656,126.25 Q91.9219,126.25 91.7188,126.0469 Q91.5156,125.8594 91.4063,125.3438 Q91.3594,124.9844 91.1719,124.7969 Q90.8438,124.4219 90.2344,124.2031 Q89.625,123.9844 89,123.9844 Q88.2344,123.9844 87.5938,124.3125 Q86.9688,124.6406 86.4688,125.3906 Q85.9844,126.1406 85.9844,127.1719 L85.9844,128.2656 Q85.9844,129.5 86.875,130.3281 Q87.7656,131.1406 89.3594,131.1406 Q90.2969,131.1406 90.9531,130.8906 Q91.3438,130.7344 91.7656,130.2969 Q92.0313,130.0313 92.1719,129.9531 Q92.3281,129.875 92.5313,129.875 Q92.8594,129.875 93.1094,130.1406 Q93.375,130.3906 93.375,130.7344 Q93.375,131.0781 93.0313,131.4844 Q92.5313,132.0625 91.7344,132.3906 Q90.6563,132.8438 89.3594,132.8438 Q87.8438,132.8438 86.6406,132.2188 Q85.6563,131.7188 84.9688,130.6563 Q84.2813,129.5781 84.2813,128.2969 L84.2813,127.1406 Q84.2813,125.8125 84.8906,124.6719 Q85.5156,123.5156 86.6094,122.9063 Q87.7031,122.2813 88.9375,122.2813 Q89.6719,122.2813 90.3125,122.4531 Q90.9688,122.6094 91.5156,122.9688 Z " fill="#000000"/><text fill="#000000" font-family="sans-serif" font-size="14" lengthAdjust="spacing" textLength="56" x="159.25" y="126.5332">Plattform</text><text fill="#000000" font-family="sans-serif" font-size="10" lengthAdjust="spacing" textLength="156" x="109.25" y="139.9902">com.javafwp.game.gameObjects</text><line style="stroke:#181818;stroke-width:0.5;" x1="8" x2="334" y1="147.1875" y2="147.1875"/><ellipse cx="18" cy="158.1875" fill="#84BE84" rx="3" ry="3" style="stroke:#038048;stroke-width:1.0;"/><text fill="#000000" font-family="sans-serif" font-size="14" lengthAdjust="spacing" textLength="302" x="27" y="165.7207">Plattform(double, double, double, double, Paint)</text><ellipse cx="18" cy="175.7969" fill="#84BE84" rx="3" ry="3" style="stroke:#038048;stroke-width:1.0;"/><text fill="#000000" font-family="sans-serif" font-size="14" lengthAdjust="spacing" textLength="131" x="27" y="183.3301">update(double): void</text></g></a><!--MD5=[b02cf880865a9d0ac01b799707008f51]
class com.javafwp.game.gameObjects.Object--><a href="object.html" target="_top" title="object.html" xlink:actuate="onRequest" xlink:href="object.html" xlink:show="new" xlink:title="object.html" xlink:type="simple"><g id="elem_com.javafwp.game.gameObjects.Object"><rect codeLine="10" fill="#F1F1F1" height="40.1875" id="com.javafwp.game.gameObjects.Object" rx="2.5" ry="2.5" style="stroke:#181818;stroke-width:0.5;" width="188" x="77" y="7"/><ellipse cx="92" cy="27.0938" fill="#ADD1B2" rx="11" ry="11" style="stroke:#181818;stroke-width:1.0;"/><path d="M94.7656,22.9688 Q94.9219,22.75 95.1094,22.6406 Q95.2969,22.5313 95.5156,22.5313 Q95.8906,22.5313 96.125,22.7969 Q96.3594,23.0469 96.3594,23.6563 L96.3594,25.1094 Q96.3594,25.7188 96.125,25.9844 Q95.8906,26.25 95.5156,26.25 Q95.1719,26.25 94.9688,26.0469 Q94.7656,25.8594 94.6563,25.3438 Q94.6094,24.9844 94.4219,24.7969 Q94.0938,24.4219 93.4844,24.2031 Q92.875,23.9844 92.25,23.9844 Q91.4844,23.9844 90.8438,24.3125 Q90.2188,24.6406 89.7188,25.3906 Q89.2344,26.1406 89.2344,27.1719 L89.2344,28.2656 Q89.2344,29.5 90.125,30.3281 Q91.0156,31.1406 92.6094,31.1406 Q93.5469,31.1406 94.2031,30.8906 Q94.5938,30.7344 95.0156,30.2969 Q95.2813,30.0313 95.4219,29.9531 Q95.5781,29.875 95.7813,29.875 Q96.1094,29.875 96.3594,30.1406 Q96.625,30.3906 96.625,30.7344 Q96.625,31.0781 96.2813,31.4844 Q95.7813,32.0625 94.9844,32.3906 Q93.9063,32.8438 92.6094,32.8438 Q91.0938,32.8438 89.8906,32.2188 Q88.9063,31.7188 88.2188,30.6563 Q87.5313,29.5781 87.5313,28.2969 L87.5313,27.1406 Q87.5313,25.8125 88.1406,24.6719 Q88.7656,23.5156 89.8594,22.9063 Q90.9531,22.2813 92.1875,22.2813 Q92.9219,22.2813 93.5625,22.4531 Q94.2188,22.6094 94.7656,22.9688 Z " fill="#000000"/><text fill="#000000" font-family="sans-serif" font-size="14" lengthAdjust="spacing" textLength="41" x="163.5" y="26.5332">Object</text><text fill="#000000" font-family="sans-serif" font-size="10" lengthAdjust="spacing" textLength="156" x="106" y="39.9902">com.javafwp.game.gameObjects</text></g></a><!--MD5=[0f67c69eba9583a795741fa2b1f34ce5]
reverse link com.javafwp.game.gameObjects.Object to com.javafwp.game.gameObjects.Plattform--><g id="link_com.javafwp.game.gameObjects.Object_com.javafwp.game.gameObjects.Plattform"><path codeLine="12" d="M171,67.23 C171,79.84 171,93.83 171,106.56 " fill="none" id="com.javafwp.game.gameObjects.Object-backto-com.javafwp.game.gameObjects.Plattform" style="stroke:#181818;stroke-width:1.0;"/><polygon fill="none" points="164,67.2,171,47.2,178,67.2,164,67.2" style="stroke:#181818;stroke-width:1.0;"/></g><rect height="12.5781" style="stroke:#00000000;stroke-width:1.0;fill:none;" width="184" x="72" y="196.4063"/><text fill="#888888" font-family="sans-serif" font-size="10" lengthAdjust="spacing" textLength="184" x="72" y="206.7871">UMLDoclet 2.0.17, PlantUML 1.2022.5</text><!--MD5=[83d71a0e626f923ac23fd73987bef88b]
@startuml
    set namespaceSeparator none
    hide empty fields
    hide empty methods

    class "<size:14>Plattform\n<size:10>com.javafwp.game.gameObjects" as com.javafwp.game.gameObjects.Plattform [[plattform.html]] {
        +Plattform(double, double, double, double, Paint)
        +update(double): void
    }

    class "<size:14>Object\n<size:10>com.javafwp.game.gameObjects" as com.javafwp.game.gameObjects.Object [[object.html]]

    com.javafwp.game.gameObjects.Object <|- - com.javafwp.game.gameObjects.Plattform

    center footer UMLDoclet 2.0.17, PlantUML 1.2022.5
@enduml

PlantUML version 1.2022.5(Sat Apr 30 12:55:52 CEST 2022)
(APACHE source distribution)
Java Runtime: Java(TM) SE Runtime Environment
JVM: Java HotSpot(TM) 64-Bit Server VM
Default Encoding: UTF-8
Language: de
Country: DE
--></g></svg>