<?xml version="1.0" encoding="UTF-8" standalone="no"?><svg xmlns="http://www.w3.org/2000/svg" xmlns:xlink="http://www.w3.org/1999/xlink" contentStyleType="text/css" height="436px" preserveAspectRatio="none" style="width:434px;height:436px;background:#FFFFFF;" version="1.1" viewBox="0 0 434 436" width="434px" zoomAndPan="magnify"><defs/><g><!--MD5=[6e83f3b61432f22817038b98e522e442]
class com.javafwp.game.gameObjects.player--><a href="player.html" target="_top" title="player.html" xlink:actuate="onRequest" xlink:href="player.html" xlink:show="new" xlink:title="player.html" xlink:type="simple"><g id="elem_com.javafwp.game.gameObjects.player"><rect codeLine="5" fill="#F1F1F1" height="302.7188" id="com.javafwp.game.gameObjects.player" rx="2.5" ry="2.5" style="stroke:#181818;stroke-width:0.5;" width="418" x="9" y="107"/><ellipse cx="135.75" cy="127.0938" fill="#ADD1B2" rx="11" ry="11" style="stroke:#181818;stroke-width:1.0;"/><path d="M138.5156,122.9688 Q138.6719,122.75 138.8594,122.6406 Q139.0469,122.5313 139.2656,122.5313 Q139.6406,122.5313 139.875,122.7969 Q140.1094,123.0469 140.1094,123.6563 L140.1094,125.1094 Q140.1094,125.7188 139.875,125.9844 Q139.6406,126.25 139.2656,126.25 Q138.9219,126.25 138.7188,126.0469 Q138.5156,125.8594 138.4063,125.3438 Q138.3594,124.9844 138.1719,124.7969 Q137.8438,124.4219 137.2344,124.2031 Q136.625,123.9844 136,123.9844 Q135.2344,123.9844 134.5938,124.3125 Q133.9688,124.6406 133.4688,125.3906 Q132.9844,126.1406 132.9844,127.1719 L132.9844,128.2656 Q132.9844,129.5 133.875,130.3281 Q134.7656,131.1406 136.3594,131.1406 Q137.2969,131.1406 137.9531,130.8906 Q138.3438,130.7344 138.7656,130.2969 Q139.0313,130.0313 139.1719,129.9531 Q139.3281,129.875 139.5313,129.875 Q139.8594,129.875 140.1094,130.1406 Q140.375,130.3906 140.375,130.7344 Q140.375,131.0781 140.0313,131.4844 Q139.5313,132.0625 138.7344,132.3906 Q137.6563,132.8438 136.3594,132.8438 Q134.8438,132.8438 133.6406,132.2188 Q132.6563,131.7188 131.9688,130.6563 Q131.2813,129.5781 131.2813,128.2969 L131.2813,127.1406 Q131.2813,125.8125 131.8906,124.6719 Q132.5156,123.5156 133.6094,122.9063 Q134.7031,122.2813 135.9375,122.2813 Q136.6719,122.2813 137.3125,122.4531 Q137.9688,122.6094 138.5156,122.9688 Z " fill="#000000"/><text fill="#000000" font-family="sans-serif" font-size="14" lengthAdjust="spacing" textLength="39" x="214.75" y="126.5332">player</text><text fill="#000000" font-family="sans-serif" font-size="10" lengthAdjust="spacing" textLength="156" x="156.25" y="139.9902">com.javafwp.game.gameObjects</text><line style="stroke:#181818;stroke-width:0.5;" x1="10" x2="426" y1="147.1875" y2="147.1875"/><polygon fill="none" points="20,154.1875,16,160.1875,24,160.1875" style="stroke:#1963A0;stroke-width:1.0;"/><text fill="#000000" font-family="sans-serif" font-size="14" lengthAdjust="spacing" textLength="115" x="29" y="165.7207">canJump: boolean</text><polygon fill="none" points="20,171.7969,16,177.7969,24,177.7969" style="stroke:#1963A0;stroke-width:1.0;"/><text fill="#000000" font-family="sans-serif" font-size="14" lengthAdjust="spacing" textLength="76" x="29" y="183.3301">vel: Point2D</text><polygon fill="none" points="20,189.4063,16,195.4063,24,195.4063" style="stroke:#1963A0;stroke-width:1.0;"/><text fill="#000000" font-family="sans-serif" font-size="14" lengthAdjust="spacing" textLength="73" x="29" y="200.9395">acc: double</text><polygon fill="none" points="20,207.0156,16,213.0156,24,213.0156" style="stroke:#1963A0;stroke-width:1.0;"/><text fill="#000000" font-family="sans-serif" font-size="14" lengthAdjust="spacing" textLength="118" x="29" y="218.5488">idleFrames: Paint[]</text><polygon fill="none" points="20,224.625,16,230.625,24,230.625" style="stroke:#1963A0;stroke-width:1.0;"/><text fill="#000000" font-family="sans-serif" font-size="14" lengthAdjust="spacing" textLength="144" x="29" y="236.1582">runningFrames: Paint[]</text><polygon fill="none" points="20,242.2344,16,248.2344,24,248.2344" style="stroke:#1963A0;stroke-width:1.0;"/><text fill="#000000" font-family="sans-serif" font-size="14" lengthAdjust="spacing" textLength="176" x="29" y="253.7676">animationFrameCounter: int</text><polygon fill="none" points="20,259.8438,16,265.8438,24,265.8438" style="stroke:#1963A0;stroke-width:1.0;"/><text fill="#000000" font-family="sans-serif" font-size="14" lengthAdjust="spacing" textLength="162" x="29" y="271.377">jumpSfx: paralellSfxPlayer</text><line style="stroke:#181818;stroke-width:0.5;" x1="10" x2="426" y1="278.4531" y2="278.4531"/><ellipse cx="20" cy="289.4531" fill="#84BE84" rx="3" ry="3" style="stroke:#038048;stroke-width:1.0;"/><text fill="#000000" font-family="sans-serif" font-size="14" lengthAdjust="spacing" textLength="392" x="29" y="296.9863">player(double, double, double, double, double, Paint[], Paint[])</text><ellipse cx="20" cy="307.0625" fill="#84BE84" rx="3" ry="3" style="stroke:#038048;stroke-width:1.0;"/><text fill="#000000" font-family="sans-serif" font-size="14" lengthAdjust="spacing" textLength="301" x="29" y="314.5957">update(long, ArrayList&lt;plattform&gt;, double): void</text><ellipse cx="20" cy="324.6719" fill="#84BE84" rx="3" ry="3" style="stroke:#038048;stroke-width:1.0;"/><text fill="#000000" font-family="sans-serif" font-size="14" lengthAdjust="spacing" textLength="108" x="29" y="332.2051">getVel(): Point2D</text><ellipse cx="20" cy="342.2813" fill="#84BE84" rx="3" ry="3" style="stroke:#038048;stroke-width:1.0;"/><text fill="#000000" font-family="sans-serif" font-size="14" lengthAdjust="spacing" textLength="128" x="29" y="349.8145">move(Point2D): void</text><ellipse cx="20" cy="359.8906" fill="#84BE84" rx="3" ry="3" style="stroke:#038048;stroke-width:1.0;"/><text fill="#000000" font-family="sans-serif" font-size="14" lengthAdjust="spacing" textLength="117" x="29" y="367.4238">jump(double): void</text><ellipse cx="20" cy="377.5" fill="#84BE84" rx="3" ry="3" style="stroke:#038048;stroke-width:1.0;"/><text fill="#000000" font-family="sans-serif" font-size="14" lengthAdjust="spacing" textLength="174" x="29" y="385.0332">death(double, double): void</text><ellipse cx="20" cy="395.1094" fill="#84BE84" rx="3" ry="3" style="stroke:#038048;stroke-width:1.0;"/><text fill="#000000" font-family="sans-serif" font-size="14" lengthAdjust="spacing" textLength="148" x="29" y="402.6426">getCanJump(): boolean</text></g></a><!--MD5=[dd8580933f1f6111db5293a82719d5d7]
class com.javafwp.game.gameObjects.object--><a href="object.html" target="_top" title="object.html" xlink:actuate="onRequest" xlink:href="object.html" xlink:show="new" xlink:title="object.html" xlink:type="simple"><g id="elem_com.javafwp.game.gameObjects.object"><rect codeLine="22" fill="#F1F1F1" height="40.1875" id="com.javafwp.game.gameObjects.object" rx="2.5" ry="2.5" style="stroke:#181818;stroke-width:0.5;" width="188" x="124" y="7"/><ellipse cx="139" cy="27.0938" fill="#ADD1B2" rx="11" ry="11" style="stroke:#181818;stroke-width:1.0;"/><path d="M141.7656,22.9688 Q141.9219,22.75 142.1094,22.6406 Q142.2969,22.5313 142.5156,22.5313 Q142.8906,22.5313 143.125,22.7969 Q143.3594,23.0469 143.3594,23.6563 L143.3594,25.1094 Q143.3594,25.7188 143.125,25.9844 Q142.8906,26.25 142.5156,26.25 Q142.1719,26.25 141.9688,26.0469 Q141.7656,25.8594 141.6563,25.3438 Q141.6094,24.9844 141.4219,24.7969 Q141.0938,24.4219 140.4844,24.2031 Q139.875,23.9844 139.25,23.9844 Q138.4844,23.9844 137.8438,24.3125 Q137.2188,24.6406 136.7188,25.3906 Q136.2344,26.1406 136.2344,27.1719 L136.2344,28.2656 Q136.2344,29.5 137.125,30.3281 Q138.0156,31.1406 139.6094,31.1406 Q140.5469,31.1406 141.2031,30.8906 Q141.5938,30.7344 142.0156,30.2969 Q142.2813,30.0313 142.4219,29.9531 Q142.5781,29.875 142.7813,29.875 Q143.1094,29.875 143.3594,30.1406 Q143.625,30.3906 143.625,30.7344 Q143.625,31.0781 143.2813,31.4844 Q142.7813,32.0625 141.9844,32.3906 Q140.9063,32.8438 139.6094,32.8438 Q138.0938,32.8438 136.8906,32.2188 Q135.9063,31.7188 135.2188,30.6563 Q134.5313,29.5781 134.5313,28.2969 L134.5313,27.1406 Q134.5313,25.8125 135.1406,24.6719 Q135.7656,23.5156 136.8594,22.9063 Q137.9531,22.2813 139.1875,22.2813 Q139.9219,22.2813 140.5625,22.4531 Q141.2188,22.6094 141.7656,22.9688 Z " fill="#000000"/><text fill="#000000" font-family="sans-serif" font-size="14" lengthAdjust="spacing" textLength="38" x="212" y="26.5332">object</text><text fill="#000000" font-family="sans-serif" font-size="10" lengthAdjust="spacing" textLength="156" x="153" y="39.9902">com.javafwp.game.gameObjects</text></g></a><!--MD5=[648f7bb283d4935ddc956ce067c9e4e4]
reverse link com.javafwp.game.gameObjects.object to com.javafwp.game.gameObjects.player--><g id="link_com.javafwp.game.gameObjects.object_com.javafwp.game.gameObjects.player"><path codeLine="24" d="M218,67.57 C218,79.21 218,92.68 218,106.98 " fill="none" id="com.javafwp.game.gameObjects.object-backto-com.javafwp.game.gameObjects.player" style="stroke:#181818;stroke-width:1.0;"/><polygon fill="none" points="211,67.17,218,47.17,225,67.17,211,67.17" style="stroke:#181818;stroke-width:1.0;"/></g><rect height="12.5781" style="stroke:#00000000;stroke-width:1.0;fill:none;" width="184" x="118" y="415.7188"/><text fill="#888888" font-family="sans-serif" font-size="10" lengthAdjust="spacing" textLength="184" x="118" y="426.0996">UMLDoclet 2.0.17, PlantUML 1.2022.5</text><!--MD5=[8699554040b9ad9237d998311b901295]
@startuml
    set namespaceSeparator none
    hide empty fields
    hide empty methods

    class "<size:14>player\n<size:10>com.javafwp.game.gameObjects" as com.javafwp.game.gameObjects.player [[player.html]] {
        ~canJump: boolean
        ~vel: Point2D
        ~acc: double
        ~idleFrames: Paint[]
        ~runningFrames: Paint[]
        ~animationFrameCounter: int
        ~jumpSfx: paralellSfxPlayer
        +player(double, double, double, double, double, Paint[], Paint[])
        +update(long, ArrayList<plattform>, double): void
        +getVel(): Point2D
        +move(Point2D): void
        +jump(double): void
        +death(double, double): void
        +getCanJump(): boolean
    }

    class "<size:14>object\n<size:10>com.javafwp.game.gameObjects" as com.javafwp.game.gameObjects.object [[object.html]]

    com.javafwp.game.gameObjects.object <|- - com.javafwp.game.gameObjects.player

    center footer UMLDoclet 2.0.17, PlantUML 1.2022.5
@enduml

PlantUML version 1.2022.5(Sat Apr 30 12:55:52 CEST 2022)
(APACHE source distribution)
Java Runtime: Java(TM) SE Runtime Environment
JVM: Java HotSpot(TM) 64-Bit Server VM
Default Encoding: UTF-8
Language: de
Country: DE
--></g></svg>