<?xml version="1.0" encoding="UTF-8" standalone="no"?><svg xmlns="http://www.w3.org/2000/svg" xmlns:xlink="http://www.w3.org/1999/xlink" contentStyleType="text/css" height="436px" preserveAspectRatio="none" style="width:435px;height:436px;background:#FFFFFF;" version="1.1" viewBox="0 0 435 436" width="435px" zoomAndPan="magnify"><defs/><g><!--MD5=[c4ebfa943329a97e93bfd2c417e230d8]
class com.javafwp.game.gameObjects.Player--><a href="player.html" target="_top" title="player.html" xlink:actuate="onRequest" xlink:href="player.html" xlink:show="new" xlink:title="player.html" xlink:type="simple"><g id="elem_com.javafwp.game.gameObjects.Player"><rect codeLine="5" fill="#F1F1F1" height="302.7188" id="com.javafwp.game.gameObjects.Player" rx="2.5" ry="2.5" style="stroke:#181818;stroke-width:0.5;" width="419" x="9" y="107"/><ellipse cx="136.25" cy="127.0938" fill="#ADD1B2" rx="11" ry="11" style="stroke:#181818;stroke-width:1.0;"/><path d="M139.0156,122.9688 Q139.1719,122.75 139.3594,122.6406 Q139.5469,122.5313 139.7656,122.5313 Q140.1406,122.5313 140.375,122.7969 Q140.6094,123.0469 140.6094,123.6563 L140.6094,125.1094 Q140.6094,125.7188 140.375,125.9844 Q140.1406,126.25 139.7656,126.25 Q139.4219,126.25 139.2188,126.0469 Q139.0156,125.8594 138.9063,125.3438 Q138.8594,124.9844 138.6719,124.7969 Q138.3438,124.4219 137.7344,124.2031 Q137.125,123.9844 136.5,123.9844 Q135.7344,123.9844 135.0938,124.3125 Q134.4688,124.6406 133.9688,125.3906 Q133.4844,126.1406 133.4844,127.1719 L133.4844,128.2656 Q133.4844,129.5 134.375,130.3281 Q135.2656,131.1406 136.8594,131.1406 Q137.7969,131.1406 138.4531,130.8906 Q138.8438,130.7344 139.2656,130.2969 Q139.5313,130.0313 139.6719,129.9531 Q139.8281,129.875 140.0313,129.875 Q140.3594,129.875 140.6094,130.1406 Q140.875,130.3906 140.875,130.7344 Q140.875,131.0781 140.5313,131.4844 Q140.0313,132.0625 139.2344,132.3906 Q138.1563,132.8438 136.8594,132.8438 Q135.3438,132.8438 134.1406,132.2188 Q133.1563,131.7188 132.4688,130.6563 Q131.7813,129.5781 131.7813,128.2969 L131.7813,127.1406 Q131.7813,125.8125 132.3906,124.6719 Q133.0156,123.5156 134.1094,122.9063 Q135.2031,122.2813 136.4375,122.2813 Q137.1719,122.2813 137.8125,122.4531 Q138.4688,122.6094 139.0156,122.9688 Z " fill="#000000"/><text fill="#000000" font-family="sans-serif" font-size="14" lengthAdjust="spacing" textLength="40" x="214.75" y="126.5332">Player</text><text fill="#000000" font-family="sans-serif" font-size="10" lengthAdjust="spacing" textLength="156" x="156.75" y="139.9902">com.javafwp.game.gameObjects</text><line style="stroke:#181818;stroke-width:0.5;" x1="10" x2="427" y1="147.1875" y2="147.1875"/><polygon fill="none" points="20,154.1875,16,160.1875,24,160.1875" style="stroke:#1963A0;stroke-width:1.0;"/><text fill="#000000" font-family="sans-serif" font-size="14" lengthAdjust="spacing" textLength="115" x="29" y="165.7207">canJump: boolean</text><polygon fill="none" points="20,171.7969,16,177.7969,24,177.7969" style="stroke:#1963A0;stroke-width:1.0;"/><text fill="#000000" font-family="sans-serif" font-size="14" lengthAdjust="spacing" textLength="76" x="29" y="183.3301">vel: Point2D</text><polygon fill="none" points="20,189.4063,16,195.4063,24,195.4063" style="stroke:#1963A0;stroke-width:1.0;"/><text fill="#000000" font-family="sans-serif" font-size="14" lengthAdjust="spacing" textLength="73" x="29" y="200.9395">acc: double</text><polygon fill="none" points="20,207.0156,16,213.0156,24,213.0156" style="stroke:#1963A0;stroke-width:1.0;"/><text fill="#000000" font-family="sans-serif" font-size="14" lengthAdjust="spacing" textLength="118" x="29" y="218.5488">idleFrames: Paint[]</text><polygon fill="none" points="20,224.625,16,230.625,24,230.625" style="stroke:#1963A0;stroke-width:1.0;"/><text fill="#000000" font-family="sans-serif" font-size="14" lengthAdjust="spacing" textLength="144" x="29" y="236.1582">runningFrames: Paint[]</text><polygon fill="none" points="20,242.2344,16,248.2344,24,248.2344" style="stroke:#1963A0;stroke-width:1.0;"/><text fill="#000000" font-family="sans-serif" font-size="14" lengthAdjust="spacing" textLength="176" x="29" y="253.7676">animationFrameCounter: int</text><polygon fill="none" points="20,259.8438,16,265.8438,24,265.8438" style="stroke:#1963A0;stroke-width:1.0;"/><text fill="#000000" font-family="sans-serif" font-size="14" lengthAdjust="spacing" textLength="163" x="29" y="271.377">jumpSfx: ParalellSfxPlayer</text><line style="stroke:#181818;stroke-width:0.5;" x1="10" x2="427" y1="278.4531" y2="278.4531"/><ellipse cx="20" cy="289.4531" fill="#84BE84" rx="3" ry="3" style="stroke:#038048;stroke-width:1.0;"/><text fill="#000000" font-family="sans-serif" font-size="14" lengthAdjust="spacing" textLength="393" x="29" y="296.9863">Player(double, double, double, double, double, Paint[], Paint[])</text><ellipse cx="20" cy="307.0625" fill="#84BE84" rx="3" ry="3" style="stroke:#038048;stroke-width:1.0;"/><text fill="#000000" font-family="sans-serif" font-size="14" lengthAdjust="spacing" textLength="302" x="29" y="314.5957">update(long, ArrayList&lt;Plattform&gt;, double): void</text><ellipse cx="20" cy="324.6719" fill="#84BE84" rx="3" ry="3" style="stroke:#038048;stroke-width:1.0;"/><text fill="#000000" font-family="sans-serif" font-size="14" lengthAdjust="spacing" textLength="108" x="29" y="332.2051">getVel(): Point2D</text><ellipse cx="20" cy="342.2813" fill="#84BE84" rx="3" ry="3" style="stroke:#038048;stroke-width:1.0;"/><text fill="#000000" font-family="sans-serif" font-size="14" lengthAdjust="spacing" textLength="128" x="29" y="349.8145">move(Point2D): void</text><ellipse cx="20" cy="359.8906" fill="#84BE84" rx="3" ry="3" style="stroke:#038048;stroke-width:1.0;"/><text fill="#000000" font-family="sans-serif" font-size="14" lengthAdjust="spacing" textLength="117" x="29" y="367.4238">jump(double): void</text><ellipse cx="20" cy="377.5" fill="#84BE84" rx="3" ry="3" style="stroke:#038048;stroke-width:1.0;"/><text fill="#000000" font-family="sans-serif" font-size="14" lengthAdjust="spacing" textLength="174" x="29" y="385.0332">death(double, double): void</text><ellipse cx="20" cy="395.1094" fill="#84BE84" rx="3" ry="3" style="stroke:#038048;stroke-width:1.0;"/><text fill="#000000" font-family="sans-serif" font-size="14" lengthAdjust="spacing" textLength="148" x="29" y="402.6426">getCanJump(): boolean</text></g></a><!--MD5=[b02cf880865a9d0ac01b799707008f51]
class com.javafwp.game.gameObjects.Object--><a href="object.html" target="_top" title="object.html" xlink:actuate="onRequest" xlink:href="object.html" xlink:show="new" xlink:title="object.html" xlink:type="simple"><g id="elem_com.javafwp.game.gameObjects.Object"><rect codeLine="22" fill="#F1F1F1" height="40.1875" id="com.javafwp.game.gameObjects.Object" rx="2.5" ry="2.5" style="stroke:#181818;stroke-width:0.5;" width="188" x="124.5" y="7"/><ellipse cx="139.5" cy="27.0938" fill="#ADD1B2" rx="11" ry="11" style="stroke:#181818;stroke-width:1.0;"/><path d="M142.2656,22.9688 Q142.4219,22.75 142.6094,22.6406 Q142.7969,22.5313 143.0156,22.5313 Q143.3906,22.5313 143.625,22.7969 Q143.8594,23.0469 143.8594,23.6563 L143.8594,25.1094 Q143.8594,25.7188 143.625,25.9844 Q143.3906,26.25 143.0156,26.25 Q142.6719,26.25 142.4688,26.0469 Q142.2656,25.8594 142.1563,25.3438 Q142.1094,24.9844 141.9219,24.7969 Q141.5938,24.4219 140.9844,24.2031 Q140.375,23.9844 139.75,23.9844 Q138.9844,23.9844 138.3438,24.3125 Q137.7188,24.6406 137.2188,25.3906 Q136.7344,26.1406 136.7344,27.1719 L136.7344,28.2656 Q136.7344,29.5 137.625,30.3281 Q138.5156,31.1406 140.1094,31.1406 Q141.0469,31.1406 141.7031,30.8906 Q142.0938,30.7344 142.5156,30.2969 Q142.7813,30.0313 142.9219,29.9531 Q143.0781,29.875 143.2813,29.875 Q143.6094,29.875 143.8594,30.1406 Q144.125,30.3906 144.125,30.7344 Q144.125,31.0781 143.7813,31.4844 Q143.2813,32.0625 142.4844,32.3906 Q141.4063,32.8438 140.1094,32.8438 Q138.5938,32.8438 137.3906,32.2188 Q136.4063,31.7188 135.7188,30.6563 Q135.0313,29.5781 135.0313,28.2969 L135.0313,27.1406 Q135.0313,25.8125 135.6406,24.6719 Q136.2656,23.5156 137.3594,22.9063 Q138.4531,22.2813 139.6875,22.2813 Q140.4219,22.2813 141.0625,22.4531 Q141.7188,22.6094 142.2656,22.9688 Z " fill="#000000"/><text fill="#000000" font-family="sans-serif" font-size="14" lengthAdjust="spacing" textLength="41" x="211" y="26.5332">Object</text><text fill="#000000" font-family="sans-serif" font-size="10" lengthAdjust="spacing" textLength="156" x="153.5" y="39.9902">com.javafwp.game.gameObjects</text></g></a><!--MD5=[e77bac4e69c0e5ffb5da0094aec0aa93]
reverse link com.javafwp.game.gameObjects.Object to com.javafwp.game.gameObjects.Player--><g id="link_com.javafwp.game.gameObjects.Object_com.javafwp.game.gameObjects.Player"><path codeLine="24" d="M218.5,67.57 C218.5,79.21 218.5,92.68 218.5,106.98 " fill="none" id="com.javafwp.game.gameObjects.Object-backto-com.javafwp.game.gameObjects.Player" style="stroke:#181818;stroke-width:1.0;"/><polygon fill="none" points="211.5,67.17,218.5,47.17,225.5,67.17,211.5,67.17" style="stroke:#181818;stroke-width:1.0;"/></g><rect height="12.5781" style="stroke:#00000000;stroke-width:1.0;fill:none;" width="184" x="118.5" y="415.7188"/><text fill="#888888" font-family="sans-serif" font-size="10" lengthAdjust="spacing" textLength="184" x="118.5" y="426.0996">UMLDoclet 2.0.17, PlantUML 1.2022.5</text><!--MD5=[aba9cbdca7dcb1977929485156a21b80]
@startuml
    set namespaceSeparator none
    hide empty fields
    hide empty methods

    class "<size:14>Player\n<size:10>com.javafwp.game.gameObjects" as com.javafwp.game.gameObjects.Player [[player.html]] {
        ~canJump: boolean
        ~vel: Point2D
        ~acc: double
        ~idleFrames: Paint[]
        ~runningFrames: Paint[]
        ~animationFrameCounter: int
        ~jumpSfx: ParalellSfxPlayer
        +Player(double, double, double, double, double, Paint[], Paint[])
        +update(long, ArrayList<Plattform>, double): void
        +getVel(): Point2D
        +move(Point2D): void
        +jump(double): void
        +death(double, double): void
        +getCanJump(): boolean
    }

    class "<size:14>Object\n<size:10>com.javafwp.game.gameObjects" as com.javafwp.game.gameObjects.Object [[object.html]]

    com.javafwp.game.gameObjects.Object <|- - com.javafwp.game.gameObjects.Player

    center footer UMLDoclet 2.0.17, PlantUML 1.2022.5
@enduml

PlantUML version 1.2022.5(Sat Apr 30 12:55:52 CEST 2022)
(APACHE source distribution)
Java Runtime: Java(TM) SE Runtime Environment
JVM: Java HotSpot(TM) 64-Bit Server VM
Default Encoding: UTF-8
Language: de
Country: DE
--></g></svg>