<?xml version="1.0" encoding="UTF-8" standalone="no"?><svg xmlns="http://www.w3.org/2000/svg" xmlns:xlink="http://www.w3.org/1999/xlink" contentStyleType="text/css" height="415px" preserveAspectRatio="none" style="width:470px;height:415px;background:#FFFFFF;" version="1.1" viewBox="0 0 470 415" width="470px" zoomAndPan="magnify"><defs/><g><!--MD5=[6e83f3b61432f22817038b98e522e442]
class com.javafwp.game.gameObjects.player--><a href="player.html" target="_top" title="player.html" xlink:actuate="onRequest" xlink:href="player.html" xlink:show="new" xlink:title="player.html" xlink:type="simple"><g id="elem_com.javafwp.game.gameObjects.player"><rect codeLine="5" fill="#F1F1F1" height="285.1016" id="com.javafwp.game.gameObjects.player" rx="2.5" ry="2.5" style="stroke:#181818;stroke-width:0.5;" width="454" x="9" y="105"/><ellipse cx="152.75" cy="124.1328" fill="#ADD1B2" rx="11" ry="11" style="stroke:#181818;stroke-width:1.0;"/><path d="M155.2231,130.2759 Q154.6421,130.5747 154.0029,130.7241 Q153.3638,130.8735 152.6582,130.8735 Q150.1514,130.8735 148.8315,129.2217 Q147.5117,127.5698 147.5117,124.4487 Q147.5117,121.3193 148.8315,119.6675 Q150.1514,118.0156 152.6582,118.0156 Q153.3638,118.0156 154.0112,118.165 Q154.6587,118.3145 155.2231,118.6133 L155.2231,121.3359 Q154.5923,120.7549 153.9988,120.4851 Q153.4053,120.2153 152.7744,120.2153 Q151.4297,120.2153 150.7449,121.282 Q150.0601,122.3486 150.0601,124.4487 Q150.0601,126.5405 150.7449,127.6072 Q151.4297,128.6738 152.7744,128.6738 Q153.4053,128.6738 153.9988,128.4041 Q154.5923,128.1343 155.2231,127.5532 Z " fill="#000000"/><text fill="#000000" font-family="sans-serif" font-size="14" lengthAdjust="spacing" textLength="42" x="231.25" y="123.5352">player</text><text fill="#000000" font-family="sans-serif" font-size="10" lengthAdjust="spacing" textLength="158" x="173.25" y="136.1563">com.javafwp.game.gameObjects</text><line style="stroke:#181818;stroke-width:0.5;" x1="10" x2="462" y1="143.2656" y2="143.2656"/><polygon fill="none" points="20,150.2656,16,156.2656,24,156.2656" style="stroke:#1963A0;stroke-width:1.0;"/><text fill="#000000" font-family="sans-serif" font-size="14" lengthAdjust="spacing" textLength="123" x="29" y="160.8008">canJump: boolean</text><polygon fill="none" points="20,166.7539,16,172.7539,24,172.7539" style="stroke:#1963A0;stroke-width:1.0;"/><text fill="#000000" font-family="sans-serif" font-size="14" lengthAdjust="spacing" textLength="81" x="29" y="177.2891">vel: Point2D</text><polygon fill="none" points="20,183.2422,16,189.2422,24,189.2422" style="stroke:#1963A0;stroke-width:1.0;"/><text fill="#000000" font-family="sans-serif" font-size="14" lengthAdjust="spacing" textLength="78" x="29" y="193.7773">acc: double</text><polygon fill="none" points="20,199.7305,16,205.7305,24,205.7305" style="stroke:#1963A0;stroke-width:1.0;"/><text fill="#000000" font-family="sans-serif" font-size="14" lengthAdjust="spacing" textLength="127" x="29" y="210.2656">idleFrames: Paint[]</text><polygon fill="none" points="20,216.2188,16,222.2188,24,222.2188" style="stroke:#1963A0;stroke-width:1.0;"/><text fill="#000000" font-family="sans-serif" font-size="14" lengthAdjust="spacing" textLength="157" x="29" y="226.7539">runningFrames: Paint[]</text><polygon fill="none" points="20,232.707,16,238.707,24,238.707" style="stroke:#1963A0;stroke-width:1.0;"/><text fill="#000000" font-family="sans-serif" font-size="14" lengthAdjust="spacing" textLength="194" x="29" y="243.2422">animationFrameCounter: int</text><polygon fill="none" points="20,249.1953,16,255.1953,24,255.1953" style="stroke:#1963A0;stroke-width:1.0;"/><text fill="#000000" font-family="sans-serif" font-size="14" lengthAdjust="spacing" textLength="179" x="29" y="259.7305">jumpSfx: paralellSfxPlayer</text><line style="stroke:#181818;stroke-width:0.5;" x1="10" x2="462" y1="266.6836" y2="266.6836"/><ellipse cx="20" cy="277.6836" fill="#84BE84" rx="3" ry="3" style="stroke:#038048;stroke-width:1.0;"/><text fill="#000000" font-family="sans-serif" font-size="14" lengthAdjust="spacing" textLength="428" x="29" y="284.2188">player(double, double, double, double, double, Paint[], Paint[])</text><ellipse cx="20" cy="294.1719" fill="#84BE84" rx="3" ry="3" style="stroke:#038048;stroke-width:1.0;"/><text fill="#000000" font-family="sans-serif" font-size="14" lengthAdjust="spacing" textLength="336" x="29" y="300.707">update(long, ArrayList&lt;plattform&gt;, double): void</text><ellipse cx="20" cy="310.6602" fill="#84BE84" rx="3" ry="3" style="stroke:#038048;stroke-width:1.0;"/><text fill="#000000" font-family="sans-serif" font-size="14" lengthAdjust="spacing" textLength="115" x="29" y="317.1953">getVel(): Point2D</text><ellipse cx="20" cy="327.1484" fill="#84BE84" rx="3" ry="3" style="stroke:#038048;stroke-width:1.0;"/><text fill="#000000" font-family="sans-serif" font-size="14" lengthAdjust="spacing" textLength="138" x="29" y="333.6836">move(Point2D): void</text><ellipse cx="20" cy="343.6367" fill="#84BE84" rx="3" ry="3" style="stroke:#038048;stroke-width:1.0;"/><text fill="#000000" font-family="sans-serif" font-size="14" lengthAdjust="spacing" textLength="130" x="29" y="350.1719">jump(double): void</text><ellipse cx="20" cy="360.125" fill="#84BE84" rx="3" ry="3" style="stroke:#038048;stroke-width:1.0;"/><text fill="#000000" font-family="sans-serif" font-size="14" lengthAdjust="spacing" textLength="190" x="29" y="366.6602">death(double, double): void</text><ellipse cx="20" cy="376.6133" fill="#84BE84" rx="3" ry="3" style="stroke:#038048;stroke-width:1.0;"/><text fill="#000000" font-family="sans-serif" font-size="14" lengthAdjust="spacing" textLength="158" x="29" y="383.1484">getCanJump(): boolean</text></g></a><!--MD5=[dd8580933f1f6111db5293a82719d5d7]
class com.javafwp.game.gameObjects.object--><a href="object.html" target="_top" title="object.html" xlink:actuate="onRequest" xlink:href="object.html" xlink:show="new" xlink:title="object.html" xlink:type="simple"><g id="elem_com.javafwp.game.gameObjects.object"><rect codeLine="22" fill="#F1F1F1" height="38.2656" id="com.javafwp.game.gameObjects.object" rx="2.5" ry="2.5" style="stroke:#181818;stroke-width:0.5;" width="190" x="141" y="7"/><ellipse cx="156" cy="26.1328" fill="#ADD1B2" rx="11" ry="11" style="stroke:#181818;stroke-width:1.0;"/><path d="M158.4731,32.2759 Q157.8921,32.5747 157.2529,32.7241 Q156.6138,32.8735 155.9082,32.8735 Q153.4014,32.8735 152.0815,31.2217 Q150.7617,29.5698 150.7617,26.4487 Q150.7617,23.3193 152.0815,21.6675 Q153.4014,20.0156 155.9082,20.0156 Q156.6138,20.0156 157.2612,20.165 Q157.9087,20.3145 158.4731,20.6133 L158.4731,23.3359 Q157.8423,22.7549 157.2488,22.4851 Q156.6553,22.2153 156.0244,22.2153 Q154.6797,22.2153 153.9949,23.282 Q153.3101,24.3486 153.3101,26.4487 Q153.3101,28.5405 153.9949,29.6072 Q154.6797,30.6738 156.0244,30.6738 Q156.6553,30.6738 157.2488,30.4041 Q157.8423,30.1343 158.4731,29.5532 Z " fill="#000000"/><text fill="#000000" font-family="sans-serif" font-size="14" lengthAdjust="spacing" textLength="42" x="228" y="25.5352">object</text><text fill="#000000" font-family="sans-serif" font-size="10" lengthAdjust="spacing" textLength="158" x="170" y="38.1563">com.javafwp.game.gameObjects</text></g></a><!--MD5=[648f7bb283d4935ddc956ce067c9e4e4]
reverse link com.javafwp.game.gameObjects.object to com.javafwp.game.gameObjects.player--><g id="link_com.javafwp.game.gameObjects.object_com.javafwp.game.gameObjects.player"><path codeLine="24" d="M236,65.59 C236,77.17 236,90.6 236,104.82 " fill="none" id="com.javafwp.game.gameObjects.object-backto-com.javafwp.game.gameObjects.player" style="stroke:#181818;stroke-width:1.0;"/><polygon fill="none" points="229,65.34,236,45.34,243,65.34,229,65.34" style="stroke:#181818;stroke-width:1.0;"/></g><rect height="11.7773" style="stroke:#00000000;stroke-width:1.0;fill:none;" width="182" x="137" y="396.1016"/><text fill="#888888" font-family="sans-serif" font-size="10" lengthAdjust="spacing" textLength="182" x="137" y="405.7695">UMLDoclet 2.0.17, PlantUML 1.2022.5</text><!--MD5=[d3fc9bf4b57693f35634e158521d7df8]
@startuml
    set namespaceSeparator none
    hide empty fields
    hide empty methods

    class "<size:14>player\n<size:10>com.javafwp.game.gameObjects" as com.javafwp.game.gameObjects.player [[player.html]] {
        ~canJump: boolean
        ~vel: Point2D
        ~acc: double
        ~idleFrames: Paint[]
        ~runningFrames: Paint[]
        ~animationFrameCounter: int
        ~jumpSfx: paralellSfxPlayer
        +player(double, double, double, double, double, Paint[], Paint[])
        +update(long, ArrayList<plattform>, double): void
        +getVel(): Point2D
        +move(Point2D): void
        +jump(double): void
        +death(double, double): void
        +getCanJump(): boolean
    }

    class "<size:14>object\n<size:10>com.javafwp.game.gameObjects" as com.javafwp.game.gameObjects.object [[object.html]]

    com.javafwp.game.gameObjects.object <|- - com.javafwp.game.gameObjects.player

    center footer UMLDoclet 2.0.17, PlantUML 1.2022.5
@enduml

PlantUML version 1.2022.5(Sat Apr 30 12:55:52 CEST 2022)
(APACHE source distribution)
Java Runtime: OpenJDK Runtime Environment
JVM: OpenJDK 64-Bit Server VM
Default Encoding: UTF-8
Language: en
Country: DE
--></g></svg>