<?xml version="1.0" encoding="UTF-8" standalone="no"?><svg xmlns="http://www.w3.org/2000/svg" xmlns:xlink="http://www.w3.org/1999/xlink" contentStyleType="text/css" height="234px" preserveAspectRatio="none" style="width:436px;height:234px;background:#FFFFFF;" version="1.1" viewBox="0 0 436 234" width="436px" zoomAndPan="magnify"><defs/><g><!--MD5=[a15015684656681cad16b83804c39725]
class com.javafwp.game.gameObjects.projectile--><a href="projectile.html" target="_top" title="projectile.html" xlink:actuate="onRequest" xlink:href="projectile.html" xlink:show="new" xlink:title="projectile.html" xlink:type="simple"><g id="elem_com.javafwp.game.gameObjects.projectile"><rect codeLine="5" fill="#F1F1F1" height="103.7305" id="com.javafwp.game.gameObjects.projectile" rx="2.5" ry="2.5" style="stroke:#181818;stroke-width:0.5;" width="420" x="9" y="105"/><ellipse cx="135.75" cy="124.1328" fill="#ADD1B2" rx="11" ry="11" style="stroke:#181818;stroke-width:1.0;"/><path d="M138.2231,130.2759 Q137.6421,130.5747 137.0029,130.7241 Q136.3638,130.8735 135.6582,130.8735 Q133.1514,130.8735 131.8315,129.2217 Q130.5117,127.5698 130.5117,124.4487 Q130.5117,121.3193 131.8315,119.6675 Q133.1514,118.0156 135.6582,118.0156 Q136.3638,118.0156 137.0112,118.165 Q137.6587,118.3145 138.2231,118.6133 L138.2231,121.3359 Q137.5923,120.7549 136.9988,120.4851 Q136.4053,120.2153 135.7744,120.2153 Q134.4297,120.2153 133.7449,121.282 Q133.0601,122.3486 133.0601,124.4487 Q133.0601,126.5405 133.7449,127.6072 Q134.4297,128.6738 135.7744,128.6738 Q136.4053,128.6738 136.9988,128.4041 Q137.5923,128.1343 138.2231,127.5532 Z " fill="#000000"/><text fill="#000000" font-family="sans-serif" font-size="14" lengthAdjust="spacing" textLength="64" x="203.25" y="123.5352">projectile</text><text fill="#000000" font-family="sans-serif" font-size="10" lengthAdjust="spacing" textLength="158" x="156.25" y="136.1563">com.javafwp.game.gameObjects</text><line style="stroke:#181818;stroke-width:0.5;" x1="10" x2="428" y1="143.2656" y2="143.2656"/><polygon fill="none" points="20,150.2656,16,156.2656,24,156.2656" style="stroke:#1963A0;stroke-width:1.0;"/><text fill="#000000" font-family="sans-serif" font-size="14" lengthAdjust="spacing" textLength="81" x="29" y="160.8008">dir: Point2D</text><line style="stroke:#181818;stroke-width:0.5;" x1="10" x2="428" y1="167.7539" y2="167.7539"/><ellipse cx="20" cy="178.7539" fill="#84BE84" rx="3" ry="3" style="stroke:#038048;stroke-width:1.0;"/><text fill="#000000" font-family="sans-serif" font-size="14" lengthAdjust="spacing" textLength="394" x="29" y="185.2891">projectile(double, double, double, double, Point2D, Paint)</text><ellipse cx="20" cy="195.2422" fill="#84BE84" rx="3" ry="3" style="stroke:#038048;stroke-width:1.0;"/><text fill="#000000" font-family="sans-serif" font-size="14" lengthAdjust="spacing" textLength="143" x="29" y="201.7773">update(double): void</text></g></a><!--MD5=[dd8580933f1f6111db5293a82719d5d7]
class com.javafwp.game.gameObjects.object--><a href="object.html" target="_top" title="object.html" xlink:actuate="onRequest" xlink:href="object.html" xlink:show="new" xlink:title="object.html" xlink:type="simple"><g id="elem_com.javafwp.game.gameObjects.object"><rect codeLine="11" fill="#F1F1F1" height="38.2656" id="com.javafwp.game.gameObjects.object" rx="2.5" ry="2.5" style="stroke:#181818;stroke-width:0.5;" width="190" x="124" y="7"/><ellipse cx="139" cy="26.1328" fill="#ADD1B2" rx="11" ry="11" style="stroke:#181818;stroke-width:1.0;"/><path d="M141.4731,32.2759 Q140.8921,32.5747 140.2529,32.7241 Q139.6138,32.8735 138.9082,32.8735 Q136.4014,32.8735 135.0815,31.2217 Q133.7617,29.5698 133.7617,26.4487 Q133.7617,23.3193 135.0815,21.6675 Q136.4014,20.0156 138.9082,20.0156 Q139.6138,20.0156 140.2612,20.165 Q140.9087,20.3145 141.4731,20.6133 L141.4731,23.3359 Q140.8423,22.7549 140.2488,22.4851 Q139.6553,22.2153 139.0244,22.2153 Q137.6797,22.2153 136.9949,23.282 Q136.3101,24.3486 136.3101,26.4487 Q136.3101,28.5405 136.9949,29.6072 Q137.6797,30.6738 139.0244,30.6738 Q139.6553,30.6738 140.2488,30.4041 Q140.8423,30.1343 141.4731,29.5532 Z " fill="#000000"/><text fill="#000000" font-family="sans-serif" font-size="14" lengthAdjust="spacing" textLength="42" x="211" y="25.5352">object</text><text fill="#000000" font-family="sans-serif" font-size="10" lengthAdjust="spacing" textLength="158" x="153" y="38.1563">com.javafwp.game.gameObjects</text></g></a><!--MD5=[4e193daae36b3661200bef98b9522fe3]
reverse link com.javafwp.game.gameObjects.object to com.javafwp.game.gameObjects.projectile--><g id="link_com.javafwp.game.gameObjects.object_com.javafwp.game.gameObjects.projectile"><path codeLine="13" d="M219,65.31 C219,77.68 219,91.6 219,104.76 " fill="none" id="com.javafwp.game.gameObjects.object-backto-com.javafwp.game.gameObjects.projectile" style="stroke:#181818;stroke-width:1.0;"/><polygon fill="none" points="212,65.21,219,45.21,226,65.21,212,65.21" style="stroke:#181818;stroke-width:1.0;"/></g><rect height="11.7773" style="stroke:#00000000;stroke-width:1.0;fill:none;" width="182" x="120" y="214.7305"/><text fill="#888888" font-family="sans-serif" font-size="10" lengthAdjust="spacing" textLength="182" x="120" y="224.3984">UMLDoclet 2.0.17, PlantUML 1.2022.5</text><!--MD5=[ace82068abb5b978faf1982050672431]
@startuml
    set namespaceSeparator none
    hide empty fields
    hide empty methods

    class "<size:14>projectile\n<size:10>com.javafwp.game.gameObjects" as com.javafwp.game.gameObjects.projectile [[projectile.html]] {
        ~dir: Point2D
        +projectile(double, double, double, double, Point2D, Paint)
        +update(double): void
    }

    class "<size:14>object\n<size:10>com.javafwp.game.gameObjects" as com.javafwp.game.gameObjects.object [[object.html]]

    com.javafwp.game.gameObjects.object <|- - com.javafwp.game.gameObjects.projectile

    center footer UMLDoclet 2.0.17, PlantUML 1.2022.5
@enduml

PlantUML version 1.2022.5(Sat Apr 30 12:55:52 CEST 2022)
(APACHE source distribution)
Java Runtime: OpenJDK Runtime Environment
JVM: OpenJDK 64-Bit Server VM
Default Encoding: UTF-8
Language: en
Country: DE
--></g></svg>