<?xml version="1.0" encoding="UTF-8" standalone="no"?><svg xmlns="http://www.w3.org/2000/svg" xmlns:xlink="http://www.w3.org/1999/xlink" contentStyleType="text/css" height="242px" preserveAspectRatio="none" style="width:404px;height:242px;background:#FFFFFF;" version="1.1" viewBox="0 0 404 242" width="404px" zoomAndPan="magnify"><defs/><g><!--MD5=[d1e200dcedeb391c48b0ce80acfb25ea]
class com.javafwp.game.gameObjects.Projectile--><a href="projectile.html" target="_top" title="projectile.html" xlink:actuate="onRequest" xlink:href="projectile.html" xlink:show="new" xlink:title="projectile.html" xlink:type="simple"><g id="elem_com.javafwp.game.gameObjects.Projectile"><rect codeLine="5" fill="#F1F1F1" height="109.0156" id="com.javafwp.game.gameObjects.Projectile" rx="2.5" ry="2.5" style="stroke:#181818;stroke-width:0.5;" width="388" x="9" y="107"/><ellipse cx="120.75" cy="127.0938" fill="#ADD1B2" rx="11" ry="11" style="stroke:#181818;stroke-width:1.0;"/><path d="M123.5156,122.9688 Q123.6719,122.75 123.8594,122.6406 Q124.0469,122.5313 124.2656,122.5313 Q124.6406,122.5313 124.875,122.7969 Q125.1094,123.0469 125.1094,123.6563 L125.1094,125.1094 Q125.1094,125.7188 124.875,125.9844 Q124.6406,126.25 124.2656,126.25 Q123.9219,126.25 123.7188,126.0469 Q123.5156,125.8594 123.4063,125.3438 Q123.3594,124.9844 123.1719,124.7969 Q122.8438,124.4219 122.2344,124.2031 Q121.625,123.9844 121,123.9844 Q120.2344,123.9844 119.5938,124.3125 Q118.9688,124.6406 118.4688,125.3906 Q117.9844,126.1406 117.9844,127.1719 L117.9844,128.2656 Q117.9844,129.5 118.875,130.3281 Q119.7656,131.1406 121.3594,131.1406 Q122.2969,131.1406 122.9531,130.8906 Q123.3438,130.7344 123.7656,130.2969 Q124.0313,130.0313 124.1719,129.9531 Q124.3281,129.875 124.5313,129.875 Q124.8594,129.875 125.1094,130.1406 Q125.375,130.3906 125.375,130.7344 Q125.375,131.0781 125.0313,131.4844 Q124.5313,132.0625 123.7344,132.3906 Q122.6563,132.8438 121.3594,132.8438 Q119.8438,132.8438 118.6406,132.2188 Q117.6563,131.7188 116.9688,130.6563 Q116.2813,129.5781 116.2813,128.2969 L116.2813,127.1406 Q116.2813,125.8125 116.8906,124.6719 Q117.5156,123.5156 118.6094,122.9063 Q119.7031,122.2813 120.9375,122.2813 Q121.6719,122.2813 122.3125,122.4531 Q122.9688,122.6094 123.5156,122.9688 Z " fill="#000000"/><text fill="#000000" font-family="sans-serif" font-size="14" lengthAdjust="spacing" textLength="58" x="190.25" y="126.5332">Projectile</text><text fill="#000000" font-family="sans-serif" font-size="10" lengthAdjust="spacing" textLength="156" x="141.25" y="139.9902">com.javafwp.game.gameObjects</text><line style="stroke:#181818;stroke-width:0.5;" x1="10" x2="396" y1="147.1875" y2="147.1875"/><polygon fill="none" points="20,154.1875,16,160.1875,24,160.1875" style="stroke:#1963A0;stroke-width:1.0;"/><text fill="#000000" font-family="sans-serif" font-size="14" lengthAdjust="spacing" textLength="74" x="29" y="165.7207">dir: Point2D</text><line style="stroke:#181818;stroke-width:0.5;" x1="10" x2="396" y1="172.7969" y2="172.7969"/><ellipse cx="20" cy="183.7969" fill="#84BE84" rx="3" ry="3" style="stroke:#038048;stroke-width:1.0;"/><text fill="#000000" font-family="sans-serif" font-size="14" lengthAdjust="spacing" textLength="362" x="29" y="191.3301">Projectile(double, double, double, double, Point2D, Paint)</text><ellipse cx="20" cy="201.4063" fill="#84BE84" rx="3" ry="3" style="stroke:#038048;stroke-width:1.0;"/><text fill="#000000" font-family="sans-serif" font-size="14" lengthAdjust="spacing" textLength="131" x="29" y="208.9395">update(double): void</text></g></a><!--MD5=[b02cf880865a9d0ac01b799707008f51]
class com.javafwp.game.gameObjects.Object--><a href="object.html" target="_top" title="object.html" xlink:actuate="onRequest" xlink:href="object.html" xlink:show="new" xlink:title="object.html" xlink:type="simple"><g id="elem_com.javafwp.game.gameObjects.Object"><rect codeLine="11" fill="#F1F1F1" height="40.1875" id="com.javafwp.game.gameObjects.Object" rx="2.5" ry="2.5" style="stroke:#181818;stroke-width:0.5;" width="188" x="109" y="7"/><ellipse cx="124" cy="27.0938" fill="#ADD1B2" rx="11" ry="11" style="stroke:#181818;stroke-width:1.0;"/><path d="M126.7656,22.9688 Q126.9219,22.75 127.1094,22.6406 Q127.2969,22.5313 127.5156,22.5313 Q127.8906,22.5313 128.125,22.7969 Q128.3594,23.0469 128.3594,23.6563 L128.3594,25.1094 Q128.3594,25.7188 128.125,25.9844 Q127.8906,26.25 127.5156,26.25 Q127.1719,26.25 126.9688,26.0469 Q126.7656,25.8594 126.6563,25.3438 Q126.6094,24.9844 126.4219,24.7969 Q126.0938,24.4219 125.4844,24.2031 Q124.875,23.9844 124.25,23.9844 Q123.4844,23.9844 122.8438,24.3125 Q122.2188,24.6406 121.7188,25.3906 Q121.2344,26.1406 121.2344,27.1719 L121.2344,28.2656 Q121.2344,29.5 122.125,30.3281 Q123.0156,31.1406 124.6094,31.1406 Q125.5469,31.1406 126.2031,30.8906 Q126.5938,30.7344 127.0156,30.2969 Q127.2813,30.0313 127.4219,29.9531 Q127.5781,29.875 127.7813,29.875 Q128.1094,29.875 128.3594,30.1406 Q128.625,30.3906 128.625,30.7344 Q128.625,31.0781 128.2813,31.4844 Q127.7813,32.0625 126.9844,32.3906 Q125.9063,32.8438 124.6094,32.8438 Q123.0938,32.8438 121.8906,32.2188 Q120.9063,31.7188 120.2188,30.6563 Q119.5313,29.5781 119.5313,28.2969 L119.5313,27.1406 Q119.5313,25.8125 120.1406,24.6719 Q120.7656,23.5156 121.8594,22.9063 Q122.9531,22.2813 124.1875,22.2813 Q124.9219,22.2813 125.5625,22.4531 Q126.2188,22.6094 126.7656,22.9688 Z " fill="#000000"/><text fill="#000000" font-family="sans-serif" font-size="14" lengthAdjust="spacing" textLength="41" x="195.5" y="26.5332">Object</text><text fill="#000000" font-family="sans-serif" font-size="10" lengthAdjust="spacing" textLength="156" x="138" y="39.9902">com.javafwp.game.gameObjects</text></g></a><!--MD5=[961030cd557c91f8d14761c9bf4d7b74]
reverse link com.javafwp.game.gameObjects.Object to com.javafwp.game.gameObjects.Projectile--><g id="link_com.javafwp.game.gameObjects.Object_com.javafwp.game.gameObjects.Projectile"><path codeLine="13" d="M203,67.44 C203,79.8 203,93.67 203,106.85 " fill="none" id="com.javafwp.game.gameObjects.Object-backto-com.javafwp.game.gameObjects.Projectile" style="stroke:#181818;stroke-width:1.0;"/><polygon fill="none" points="196,67.27,203,47.27,210,67.27,196,67.27" style="stroke:#181818;stroke-width:1.0;"/></g><rect height="12.5781" style="stroke:#00000000;stroke-width:1.0;fill:none;" width="184" x="103" y="222.0156"/><text fill="#888888" font-family="sans-serif" font-size="10" lengthAdjust="spacing" textLength="184" x="103" y="232.3965">UMLDoclet 2.0.17, PlantUML 1.2022.5</text><!--MD5=[edc174d61cc6b8ba9b0a8a7d578908b0]
@startuml
    set namespaceSeparator none
    hide empty fields
    hide empty methods

    class "<size:14>Projectile\n<size:10>com.javafwp.game.gameObjects" as com.javafwp.game.gameObjects.Projectile [[projectile.html]] {
        ~dir: Point2D
        +Projectile(double, double, double, double, Point2D, Paint)
        +update(double): void
    }

    class "<size:14>Object\n<size:10>com.javafwp.game.gameObjects" as com.javafwp.game.gameObjects.Object [[object.html]]

    com.javafwp.game.gameObjects.Object <|- - com.javafwp.game.gameObjects.Projectile

    center footer UMLDoclet 2.0.17, PlantUML 1.2022.5
@enduml

PlantUML version 1.2022.5(Sat Apr 30 12:55:52 CEST 2022)
(APACHE source distribution)
Java Runtime: Java(TM) SE Runtime Environment
JVM: Java HotSpot(TM) 64-Bit Server VM
Default Encoding: UTF-8
Language: de
Country: DE
--></g></svg>