<?xml version="1.0" encoding="UTF-8" standalone="no"?><svg xmlns="http://www.w3.org/2000/svg" xmlns:xlink="http://www.w3.org/1999/xlink" contentStyleType="text/css" height="242px" preserveAspectRatio="none" style="width:403px;height:242px;background:#FFFFFF;" version="1.1" viewBox="0 0 403 242" width="403px" zoomAndPan="magnify"><defs/><g><!--MD5=[a15015684656681cad16b83804c39725]
class com.javafwp.game.gameObjects.projectile--><a href="projectile.html" target="_top" title="projectile.html" xlink:actuate="onRequest" xlink:href="projectile.html" xlink:show="new" xlink:title="projectile.html" xlink:type="simple"><g id="elem_com.javafwp.game.gameObjects.projectile"><rect codeLine="5" fill="#F1F1F1" height="109.0156" id="com.javafwp.game.gameObjects.projectile" rx="2.5" ry="2.5" style="stroke:#181818;stroke-width:0.5;" width="387" x="9" y="107"/><ellipse cx="120.25" cy="127.0938" fill="#ADD1B2" rx="11" ry="11" style="stroke:#181818;stroke-width:1.0;"/><path d="M123.0156,122.9688 Q123.1719,122.75 123.3594,122.6406 Q123.5469,122.5313 123.7656,122.5313 Q124.1406,122.5313 124.375,122.7969 Q124.6094,123.0469 124.6094,123.6563 L124.6094,125.1094 Q124.6094,125.7188 124.375,125.9844 Q124.1406,126.25 123.7656,126.25 Q123.4219,126.25 123.2188,126.0469 Q123.0156,125.8594 122.9063,125.3438 Q122.8594,124.9844 122.6719,124.7969 Q122.3438,124.4219 121.7344,124.2031 Q121.125,123.9844 120.5,123.9844 Q119.7344,123.9844 119.0938,124.3125 Q118.4688,124.6406 117.9688,125.3906 Q117.4844,126.1406 117.4844,127.1719 L117.4844,128.2656 Q117.4844,129.5 118.375,130.3281 Q119.2656,131.1406 120.8594,131.1406 Q121.7969,131.1406 122.4531,130.8906 Q122.8438,130.7344 123.2656,130.2969 Q123.5313,130.0313 123.6719,129.9531 Q123.8281,129.875 124.0313,129.875 Q124.3594,129.875 124.6094,130.1406 Q124.875,130.3906 124.875,130.7344 Q124.875,131.0781 124.5313,131.4844 Q124.0313,132.0625 123.2344,132.3906 Q122.1563,132.8438 120.8594,132.8438 Q119.3438,132.8438 118.1406,132.2188 Q117.1563,131.7188 116.4688,130.6563 Q115.7813,129.5781 115.7813,128.2969 L115.7813,127.1406 Q115.7813,125.8125 116.3906,124.6719 Q117.0156,123.5156 118.1094,122.9063 Q119.2031,122.2813 120.4375,122.2813 Q121.1719,122.2813 121.8125,122.4531 Q122.4688,122.6094 123.0156,122.9688 Z " fill="#000000"/><text fill="#000000" font-family="sans-serif" font-size="14" lengthAdjust="spacing" textLength="57" x="190.25" y="126.5332">projectile</text><text fill="#000000" font-family="sans-serif" font-size="10" lengthAdjust="spacing" textLength="156" x="140.75" y="139.9902">com.javafwp.game.gameObjects</text><line style="stroke:#181818;stroke-width:0.5;" x1="10" x2="395" y1="147.1875" y2="147.1875"/><polygon fill="none" points="20,154.1875,16,160.1875,24,160.1875" style="stroke:#1963A0;stroke-width:1.0;"/><text fill="#000000" font-family="sans-serif" font-size="14" lengthAdjust="spacing" textLength="74" x="29" y="165.7207">dir: Point2D</text><line style="stroke:#181818;stroke-width:0.5;" x1="10" x2="395" y1="172.7969" y2="172.7969"/><ellipse cx="20" cy="183.7969" fill="#84BE84" rx="3" ry="3" style="stroke:#038048;stroke-width:1.0;"/><text fill="#000000" font-family="sans-serif" font-size="14" lengthAdjust="spacing" textLength="361" x="29" y="191.3301">projectile(double, double, double, double, Point2D, Paint)</text><ellipse cx="20" cy="201.4063" fill="#84BE84" rx="3" ry="3" style="stroke:#038048;stroke-width:1.0;"/><text fill="#000000" font-family="sans-serif" font-size="14" lengthAdjust="spacing" textLength="131" x="29" y="208.9395">update(double): void</text></g></a><!--MD5=[dd8580933f1f6111db5293a82719d5d7]
class com.javafwp.game.gameObjects.object--><a href="object.html" target="_top" title="object.html" xlink:actuate="onRequest" xlink:href="object.html" xlink:show="new" xlink:title="object.html" xlink:type="simple"><g id="elem_com.javafwp.game.gameObjects.object"><rect codeLine="11" fill="#F1F1F1" height="40.1875" id="com.javafwp.game.gameObjects.object" rx="2.5" ry="2.5" style="stroke:#181818;stroke-width:0.5;" width="188" x="108.5" y="7"/><ellipse cx="123.5" cy="27.0938" fill="#ADD1B2" rx="11" ry="11" style="stroke:#181818;stroke-width:1.0;"/><path d="M126.2656,22.9688 Q126.4219,22.75 126.6094,22.6406 Q126.7969,22.5313 127.0156,22.5313 Q127.3906,22.5313 127.625,22.7969 Q127.8594,23.0469 127.8594,23.6563 L127.8594,25.1094 Q127.8594,25.7188 127.625,25.9844 Q127.3906,26.25 127.0156,26.25 Q126.6719,26.25 126.4688,26.0469 Q126.2656,25.8594 126.1563,25.3438 Q126.1094,24.9844 125.9219,24.7969 Q125.5938,24.4219 124.9844,24.2031 Q124.375,23.9844 123.75,23.9844 Q122.9844,23.9844 122.3438,24.3125 Q121.7188,24.6406 121.2188,25.3906 Q120.7344,26.1406 120.7344,27.1719 L120.7344,28.2656 Q120.7344,29.5 121.625,30.3281 Q122.5156,31.1406 124.1094,31.1406 Q125.0469,31.1406 125.7031,30.8906 Q126.0938,30.7344 126.5156,30.2969 Q126.7813,30.0313 126.9219,29.9531 Q127.0781,29.875 127.2813,29.875 Q127.6094,29.875 127.8594,30.1406 Q128.125,30.3906 128.125,30.7344 Q128.125,31.0781 127.7813,31.4844 Q127.2813,32.0625 126.4844,32.3906 Q125.4063,32.8438 124.1094,32.8438 Q122.5938,32.8438 121.3906,32.2188 Q120.4063,31.7188 119.7188,30.6563 Q119.0313,29.5781 119.0313,28.2969 L119.0313,27.1406 Q119.0313,25.8125 119.6406,24.6719 Q120.2656,23.5156 121.3594,22.9063 Q122.4531,22.2813 123.6875,22.2813 Q124.4219,22.2813 125.0625,22.4531 Q125.7188,22.6094 126.2656,22.9688 Z " fill="#000000"/><text fill="#000000" font-family="sans-serif" font-size="14" lengthAdjust="spacing" textLength="38" x="196.5" y="26.5332">object</text><text fill="#000000" font-family="sans-serif" font-size="10" lengthAdjust="spacing" textLength="156" x="137.5" y="39.9902">com.javafwp.game.gameObjects</text></g></a><!--MD5=[4e193daae36b3661200bef98b9522fe3]
reverse link com.javafwp.game.gameObjects.object to com.javafwp.game.gameObjects.projectile--><g id="link_com.javafwp.game.gameObjects.object_com.javafwp.game.gameObjects.projectile"><path codeLine="13" d="M202.5,67.44 C202.5,79.8 202.5,93.67 202.5,106.85 " fill="none" id="com.javafwp.game.gameObjects.object-backto-com.javafwp.game.gameObjects.projectile" style="stroke:#181818;stroke-width:1.0;"/><polygon fill="none" points="195.5,67.27,202.5,47.27,209.5,67.27,195.5,67.27" style="stroke:#181818;stroke-width:1.0;"/></g><rect height="12.5781" style="stroke:#00000000;stroke-width:1.0;fill:none;" width="184" x="102.5" y="222.0156"/><text fill="#888888" font-family="sans-serif" font-size="10" lengthAdjust="spacing" textLength="184" x="102.5" y="232.3965">UMLDoclet 2.0.17, PlantUML 1.2022.5</text><!--MD5=[fccffb99a9a5bb9545021220e85dc5f3]
@startuml
    set namespaceSeparator none
    hide empty fields
    hide empty methods

    class "<size:14>projectile\n<size:10>com.javafwp.game.gameObjects" as com.javafwp.game.gameObjects.projectile [[projectile.html]] {
        ~dir: Point2D
        +projectile(double, double, double, double, Point2D, Paint)
        +update(double): void
    }

    class "<size:14>object\n<size:10>com.javafwp.game.gameObjects" as com.javafwp.game.gameObjects.object [[object.html]]

    com.javafwp.game.gameObjects.object <|- - com.javafwp.game.gameObjects.projectile

    center footer UMLDoclet 2.0.17, PlantUML 1.2022.5
@enduml

PlantUML version 1.2022.5(Sat Apr 30 12:55:52 CEST 2022)
(APACHE source distribution)
Java Runtime: Java(TM) SE Runtime Environment
JVM: Java HotSpot(TM) 64-Bit Server VM
Default Encoding: UTF-8
Language: de
Country: DE
--></g></svg>