<?xml version="1.0" encoding="UTF-8" standalone="no"?><svg xmlns="http://www.w3.org/2000/svg" xmlns:xlink="http://www.w3.org/1999/xlink" contentStyleType="text/css" height="290px" preserveAspectRatio="none" style="width:578px;height:290px;background:#FFFFFF;" version="1.1" viewBox="0 0 578 290" width="578px" zoomAndPan="magnify"><defs/><g><!--MD5=[f0d5f4e5cfe3a71dc770f7e5268a4f3c]
cluster com.javafwp.sound--><g id="cluster_com.javafwp.sound"><path d="M8.5,6 L144.5,6 A3.75,3.75 0 0 1 147,8.5 L154,29.6094 L568.5,29.6094 A2.5,2.5 0 0 1 571,32.1094 L571,261.5 A2.5,2.5 0 0 1 568.5,264 L8.5,264 A2.5,2.5 0 0 1 6,261.5 L6,8.5 A2.5,2.5 0 0 1 8.5,6 " style="stroke:#000000;stroke-width:1.5;fill:none;"/><line style="stroke:#000000;stroke-width:1.5;fill:none;" x1="6" x2="154" y1="29.6094" y2="29.6094"/><text fill="#000000" font-family="sans-serif" font-size="14" font-weight="bold" lengthAdjust="spacing" textLength="135" x="10" y="22.5332">com.javafwp.sound</text></g><!--MD5=[749aa54c611025f624e0547669bb6287]
class com.javafwp.sound.musicPlayer--><a href="musicPlayer.html" target="_top" title="musicPlayer.html" xlink:actuate="onRequest" xlink:href="musicPlayer.html" xlink:show="new" xlink:title="musicPlayer.html" xlink:type="simple"><g id="elem_com.javafwp.sound.musicPlayer"><rect codeLine="3" fill="#F1F1F1" height="206.4844" id="com.javafwp.sound.musicPlayer" rx="2.5" ry="2.5" style="stroke:#181818;stroke-width:0.5;" width="246" x="309" y="42"/><ellipse cx="389.75" cy="58" fill="#ADD1B2" rx="11" ry="11" style="stroke:#181818;stroke-width:1.0;"/><path d="M392.5156,53.875 Q392.6719,53.6563 392.8594,53.5469 Q393.0469,53.4375 393.2656,53.4375 Q393.6406,53.4375 393.875,53.7031 Q394.1094,53.9531 394.1094,54.5625 L394.1094,56.0156 Q394.1094,56.625 393.875,56.8906 Q393.6406,57.1563 393.2656,57.1563 Q392.9219,57.1563 392.7188,56.9531 Q392.5156,56.7656 392.4063,56.25 Q392.3594,55.8906 392.1719,55.7031 Q391.8438,55.3281 391.2344,55.1094 Q390.625,54.8906 390,54.8906 Q389.2344,54.8906 388.5938,55.2188 Q387.9688,55.5469 387.4688,56.2969 Q386.9844,57.0469 386.9844,58.0781 L386.9844,59.1719 Q386.9844,60.4063 387.875,61.2344 Q388.7656,62.0469 390.3594,62.0469 Q391.2969,62.0469 391.9531,61.7969 Q392.3438,61.6406 392.7656,61.2031 Q393.0313,60.9375 393.1719,60.8594 Q393.3281,60.7813 393.5313,60.7813 Q393.8594,60.7813 394.1094,61.0469 Q394.375,61.2969 394.375,61.6406 Q394.375,61.9844 394.0313,62.3906 Q393.5313,62.9688 392.7344,63.2969 Q391.6563,63.75 390.3594,63.75 Q388.8438,63.75 387.6406,63.125 Q386.6563,62.625 385.9688,61.5625 Q385.2813,60.4844 385.2813,59.2031 L385.2813,58.0469 Q385.2813,56.7188 385.8906,55.5781 Q386.5156,54.4219 387.6094,53.8125 Q388.7031,53.1875 389.9375,53.1875 Q390.6719,53.1875 391.3125,53.3594 Q391.9688,53.5156 392.5156,53.875 Z " fill="#000000"/><text fill="#000000" font-family="sans-serif" font-size="14" lengthAdjust="spacing" textLength="76" x="410.25" y="63.7285">musicPlayer</text><line style="stroke:#181818;stroke-width:0.5;" x1="310" x2="554" y1="74" y2="74"/><rect fill="none" height="6" style="stroke:#C82930;stroke-width:1.0;" width="6" x="317" y="82"/><text fill="#000000" font-family="sans-serif" font-size="14" lengthAdjust="spacing" textLength="153" x="329" y="92.5332">menuLoop: MediaPlayer</text><rect fill="none" height="6" style="stroke:#C82930;stroke-width:1.0;" width="6" x="317" y="99.6094"/><text fill="#000000" font-family="sans-serif" font-size="14" lengthAdjust="spacing" textLength="114" x="329" y="110.1426">start: MediaPlayer</text><rect fill="none" height="6" style="stroke:#C82930;stroke-width:1.0;" width="6" x="317" y="117.2188"/><text fill="#000000" font-family="sans-serif" font-size="14" lengthAdjust="spacing" textLength="153" x="329" y="127.752">gameLoop: MediaPlayer</text><rect fill="none" height="6" style="stroke:#C82930;stroke-width:1.0;" width="6" x="317" y="134.8281"/><text fill="#000000" font-family="sans-serif" font-size="14" lengthAdjust="spacing" textLength="110" x="329" y="145.3613">end: MediaPlayer</text><rect fill="none" height="6" style="stroke:#C82930;stroke-width:1.0;" width="6" x="317" y="152.4375"/><text fill="#000000" font-family="sans-serif" font-size="14" lengthAdjust="spacing" textLength="141" x="329" y="162.9707">cuedClip: MediaPlayer</text><rect fill="none" height="6" style="stroke:#C82930;stroke-width:1.0;" width="6" x="317" y="170.0469"/><text fill="#000000" font-family="sans-serif" font-size="14" lengthAdjust="spacing" textLength="155" x="329" y="180.5801">currentClip: MediaPlayer</text><rect fill="none" height="6" style="stroke:#C82930;stroke-width:1.0;" width="6" x="317" y="187.6563"/><text fill="#000000" font-family="sans-serif" font-size="14" lengthAdjust="spacing" textLength="167" x="329" y="198.1895">lastGamestate: gameState</text><line style="stroke:#181818;stroke-width:0.5;" x1="310" x2="554" y1="205.2656" y2="205.2656"/><rect fill="#F24D5C" height="6" style="stroke:#C82930;stroke-width:1.0;" width="6" x="317" y="213.2656"/><text fill="#000000" font-family="sans-serif" font-size="14" lengthAdjust="spacing" textLength="220" x="329" y="223.7988">loadAudioClip(String): MediaPlayer</text><ellipse cx="320" cy="233.875" fill="#84BE84" rx="3" ry="3" style="stroke:#038048;stroke-width:1.0;"/><text fill="#000000" font-family="sans-serif" font-size="14" lengthAdjust="spacing" textLength="192" x="329" y="241.4082">updateMusic(gameState): void</text></g></a><!--MD5=[7f4bfa08361df12c7f693779c33c25f2]
class com.javafwp.sound.paralellSfxPlayer--><a href="paralellSfxPlayer.html" target="_top" title="paralellSfxPlayer.html" xlink:actuate="onRequest" xlink:href="paralellSfxPlayer.html" xlink:show="new" xlink:title="paralellSfxPlayer.html" xlink:type="simple"><g id="elem_com.javafwp.sound.paralellSfxPlayer"><rect codeLine="15" fill="#F1F1F1" height="100.8281" id="com.javafwp.sound.paralellSfxPlayer" rx="2.5" ry="2.5" style="stroke:#181818;stroke-width:0.5;" width="252" x="22" y="94.5"/><ellipse cx="91.25" cy="110.5" fill="#ADD1B2" rx="11" ry="11" style="stroke:#181818;stroke-width:1.0;"/><path d="M94.0156,106.375 Q94.1719,106.1563 94.3594,106.0469 Q94.5469,105.9375 94.7656,105.9375 Q95.1406,105.9375 95.375,106.2031 Q95.6094,106.4531 95.6094,107.0625 L95.6094,108.5156 Q95.6094,109.125 95.375,109.3906 Q95.1406,109.6563 94.7656,109.6563 Q94.4219,109.6563 94.2188,109.4531 Q94.0156,109.2656 93.9063,108.75 Q93.8594,108.3906 93.6719,108.2031 Q93.3438,107.8281 92.7344,107.6094 Q92.125,107.3906 91.5,107.3906 Q90.7344,107.3906 90.0938,107.7188 Q89.4688,108.0469 88.9688,108.7969 Q88.4844,109.5469 88.4844,110.5781 L88.4844,111.6719 Q88.4844,112.9063 89.375,113.7344 Q90.2656,114.5469 91.8594,114.5469 Q92.7969,114.5469 93.4531,114.2969 Q93.8438,114.1406 94.2656,113.7031 Q94.5313,113.4375 94.6719,113.3594 Q94.8281,113.2813 95.0313,113.2813 Q95.3594,113.2813 95.6094,113.5469 Q95.875,113.7969 95.875,114.1406 Q95.875,114.4844 95.5313,114.8906 Q95.0313,115.4688 94.2344,115.7969 Q93.1563,116.25 91.8594,116.25 Q90.3438,116.25 89.1406,115.625 Q88.1563,115.125 87.4688,114.0625 Q86.7813,112.9844 86.7813,111.7031 L86.7813,110.5469 Q86.7813,109.2188 87.3906,108.0781 Q88.0156,106.9219 89.1094,106.3125 Q90.2031,105.6875 91.4375,105.6875 Q92.1719,105.6875 92.8125,105.8594 Q93.4688,106.0156 94.0156,106.375 Z " fill="#000000"/><text fill="#000000" font-family="sans-serif" font-size="14" lengthAdjust="spacing" textLength="105" x="111.75" y="116.2285">paralellSfxPlayer</text><line style="stroke:#181818;stroke-width:0.5;" x1="23" x2="273" y1="126.5" y2="126.5"/><rect fill="none" height="6" style="stroke:#C82930;stroke-width:1.0;" width="6" x="30" y="134.5"/><text fill="#000000" font-family="sans-serif" font-size="14" lengthAdjust="spacing" textLength="122" x="42" y="145.0332">clips: MediaPlayer[]</text><line style="stroke:#181818;stroke-width:0.5;" x1="23" x2="273" y1="152.1094" y2="152.1094"/><ellipse cx="33" cy="163.1094" fill="#84BE84" rx="3" ry="3" style="stroke:#038048;stroke-width:1.0;"/><text fill="#000000" font-family="sans-serif" font-size="14" lengthAdjust="spacing" textLength="226" x="42" y="170.6426">paralellSfxPlayer(String, double, int)</text><ellipse cx="33" cy="180.7188" fill="#84BE84" rx="3" ry="3" style="stroke:#038048;stroke-width:1.0;"/><text fill="#000000" font-family="sans-serif" font-size="14" lengthAdjust="spacing" textLength="70" x="42" y="188.252">play(): void</text></g></a><rect height="12.5781" style="stroke:#00000000;stroke-width:1.0;fill:none;" width="184" x="190" y="270"/><text fill="#888888" font-family="sans-serif" font-size="10" lengthAdjust="spacing" textLength="184" x="190" y="280.3809">UMLDoclet 2.0.17, PlantUML 1.2022.5</text><!--MD5=[71ed0ec7737f4c5192d31fc77c5be474]
@startuml
    namespace com.javafwp.sound {

        class musicPlayer [[musicPlayer.html]] {
            -menuLoop: MediaPlayer
            -start: MediaPlayer
            -gameLoop: MediaPlayer
            -end: MediaPlayer
            -cuedClip: MediaPlayer
            -currentClip: MediaPlayer
            -lastGamestate: gameState
            -loadAudioClip(String): MediaPlayer
            +updateMusic(gameState): void
        }

        class paralellSfxPlayer [[paralellSfxPlayer.html]] {
            -clips: MediaPlayer[]
            +paralellSfxPlayer(String, double, int)
            +play(): void
        }

    }

    center footer UMLDoclet 2.0.17, PlantUML 1.2022.5
@enduml

PlantUML version 1.2022.5(Sat Apr 30 12:55:52 CEST 2022)
(APACHE source distribution)
Java Runtime: Java(TM) SE Runtime Environment
JVM: Java HotSpot(TM) 64-Bit Server VM
Default Encoding: UTF-8
Language: de
Country: DE
--></g></svg>