<?xml version="1.0" encoding="UTF-8" standalone="no"?><svg xmlns="http://www.w3.org/2000/svg" xmlns:xlink="http://www.w3.org/1999/xlink" contentStyleType="text/css" height="278px" preserveAspectRatio="none" style="width:619px;height:278px;background:#FFFFFF;" version="1.1" viewBox="0 0 619 278" width="619px" zoomAndPan="magnify"><defs/><g><!--MD5=[f0d5f4e5cfe3a71dc770f7e5268a4f3c]
cluster com.javafwp.sound--><g id="cluster_com.javafwp.sound"><path d="M8.5,6 L145.5,6 A3.75,3.75 0 0 1 148,8.5 L155,28.4883 L609.5,28.4883 A2.5,2.5 0 0 1 612,30.9883 L612,250.5 A2.5,2.5 0 0 1 609.5,253 L8.5,253 A2.5,2.5 0 0 1 6,250.5 L6,8.5 A2.5,2.5 0 0 1 8.5,6 " style="stroke:#000000;stroke-width:1.5;fill:none;"/><line style="stroke:#000000;stroke-width:1.5;fill:none;" x1="6" x2="155" y1="28.4883" y2="28.4883"/><text fill="#000000" font-family="sans-serif" font-size="14" font-weight="bold" lengthAdjust="spacing" textLength="136" x="10" y="21.5352">com.javafwp.sound</text></g><!--MD5=[749aa54c611025f624e0547669bb6287]
class com.javafwp.sound.musicPlayer--><a href="musicPlayer.html" target="_top" title="musicPlayer.html" xlink:actuate="onRequest" xlink:href="musicPlayer.html" xlink:show="new" xlink:title="musicPlayer.html" xlink:type="simple"><g id="elem_com.javafwp.sound.musicPlayer"><rect codeLine="3" fill="#F1F1F1" height="196.3945" id="com.javafwp.sound.musicPlayer" rx="2.5" ry="2.5" style="stroke:#181818;stroke-width:0.5;" width="265" x="330.5" y="41"/><ellipse cx="418.25" cy="57" fill="#ADD1B2" rx="11" ry="11" style="stroke:#181818;stroke-width:1.0;"/><path d="M420.7231,63.1431 Q420.1421,63.4419 419.5029,63.5913 Q418.8638,63.7407 418.1582,63.7407 Q415.6514,63.7407 414.3315,62.0889 Q413.0117,60.437 413.0117,57.3159 Q413.0117,54.1865 414.3315,52.5347 Q415.6514,50.8828 418.1582,50.8828 Q418.8638,50.8828 419.5112,51.0322 Q420.1587,51.1816 420.7231,51.4805 L420.7231,54.2031 Q420.0923,53.6221 419.4988,53.3523 Q418.9053,53.0825 418.2744,53.0825 Q416.9297,53.0825 416.2449,54.1492 Q415.5601,55.2158 415.5601,57.3159 Q415.5601,59.4077 416.2449,60.4744 Q416.9297,61.541 418.2744,61.541 Q418.9053,61.541 419.4988,61.2712 Q420.0923,61.0015 420.7231,60.4204 Z " fill="#000000"/><text fill="#000000" font-family="sans-serif" font-size="14" lengthAdjust="spacing" textLength="81" x="438.75" y="62.291">musicPlayer</text><line style="stroke:#181818;stroke-width:0.5;" x1="331.5" x2="594.5" y1="73" y2="73"/><rect fill="none" height="6" style="stroke:#C82930;stroke-width:1.0;" width="6" x="338.5" y="81"/><text fill="#000000" font-family="sans-serif" font-size="14" lengthAdjust="spacing" textLength="163" x="350.5" y="90.5352">menuLoop: MediaPlayer</text><rect fill="none" height="6" style="stroke:#C82930;stroke-width:1.0;" width="6" x="338.5" y="97.4883"/><text fill="#000000" font-family="sans-serif" font-size="14" lengthAdjust="spacing" textLength="121" x="350.5" y="107.0234">start: MediaPlayer</text><rect fill="none" height="6" style="stroke:#C82930;stroke-width:1.0;" width="6" x="338.5" y="113.9766"/><text fill="#000000" font-family="sans-serif" font-size="14" lengthAdjust="spacing" textLength="162" x="350.5" y="123.5117">gameLoop: MediaPlayer</text><rect fill="none" height="6" style="stroke:#C82930;stroke-width:1.0;" width="6" x="338.5" y="130.4648"/><text fill="#000000" font-family="sans-serif" font-size="14" lengthAdjust="spacing" textLength="116" x="350.5" y="140">end: MediaPlayer</text><rect fill="none" height="6" style="stroke:#C82930;stroke-width:1.0;" width="6" x="338.5" y="146.9531"/><text fill="#000000" font-family="sans-serif" font-size="14" lengthAdjust="spacing" textLength="150" x="350.5" y="156.4883">cuedClip: MediaPlayer</text><rect fill="none" height="6" style="stroke:#C82930;stroke-width:1.0;" width="6" x="338.5" y="163.4414"/><text fill="#000000" font-family="sans-serif" font-size="14" lengthAdjust="spacing" textLength="167" x="350.5" y="172.9766">currentClip: MediaPlayer</text><rect fill="none" height="6" style="stroke:#C82930;stroke-width:1.0;" width="6" x="338.5" y="179.9297"/><text fill="#000000" font-family="sans-serif" font-size="14" lengthAdjust="spacing" textLength="176" x="350.5" y="189.4648">lastGamestate: gameState</text><line style="stroke:#181818;stroke-width:0.5;" x1="331.5" x2="594.5" y1="196.418" y2="196.418"/><rect fill="#F24D5C" height="6" style="stroke:#C82930;stroke-width:1.0;" width="6" x="338.5" y="204.418"/><text fill="#000000" font-family="sans-serif" font-size="14" lengthAdjust="spacing" textLength="239" x="350.5" y="213.9531">loadAudioClip(String): MediaPlayer</text><ellipse cx="341.5" cy="223.9063" fill="#84BE84" rx="3" ry="3" style="stroke:#038048;stroke-width:1.0;"/><text fill="#000000" font-family="sans-serif" font-size="14" lengthAdjust="spacing" textLength="206" x="350.5" y="230.4414">updateMusic(gameState): void</text></g></a><!--MD5=[7f4bfa08361df12c7f693779c33c25f2]
class com.javafwp.sound.paralellSfxPlayer--><a href="paralellSfxPlayer.html" target="_top" title="paralellSfxPlayer.html" xlink:actuate="onRequest" xlink:href="paralellSfxPlayer.html" xlink:show="new" xlink:title="paralellSfxPlayer.html" xlink:type="simple"><g id="elem_com.javafwp.sound.paralellSfxPlayer"><rect codeLine="15" fill="#F1F1F1" height="97.4648" id="com.javafwp.sound.paralellSfxPlayer" rx="2.5" ry="2.5" style="stroke:#181818;stroke-width:0.5;" width="273" x="22.5" y="90.5"/><ellipse cx="97.75" cy="106.5" fill="#ADD1B2" rx="11" ry="11" style="stroke:#181818;stroke-width:1.0;"/><path d="M100.2231,112.6431 Q99.6421,112.9419 99.0029,113.0913 Q98.3638,113.2407 97.6582,113.2407 Q95.1514,113.2407 93.8315,111.5889 Q92.5117,109.937 92.5117,106.8159 Q92.5117,103.6865 93.8315,102.0347 Q95.1514,100.3828 97.6582,100.3828 Q98.3638,100.3828 99.0112,100.5322 Q99.6587,100.6816 100.2231,100.9805 L100.2231,103.7031 Q99.5923,103.1221 98.9988,102.8523 Q98.4053,102.5825 97.7744,102.5825 Q96.4297,102.5825 95.7449,103.6492 Q95.0601,104.7158 95.0601,106.8159 Q95.0601,108.9077 95.7449,109.9744 Q96.4297,111.041 97.7744,111.041 Q98.4053,111.041 98.9988,110.7712 Q99.5923,110.5015 100.2231,109.9204 Z " fill="#000000"/><text fill="#000000" font-family="sans-serif" font-size="14" lengthAdjust="spacing" textLength="114" x="118.25" y="111.791">paralellSfxPlayer</text><line style="stroke:#181818;stroke-width:0.5;" x1="23.5" x2="294.5" y1="122.5" y2="122.5"/><rect fill="none" height="6" style="stroke:#C82930;stroke-width:1.0;" width="6" x="30.5" y="130.5"/><text fill="#000000" font-family="sans-serif" font-size="14" lengthAdjust="spacing" textLength="131" x="42.5" y="140.0352">clips: MediaPlayer[]</text><line style="stroke:#181818;stroke-width:0.5;" x1="23.5" x2="294.5" y1="146.9883" y2="146.9883"/><ellipse cx="33.5" cy="157.9883" fill="#84BE84" rx="3" ry="3" style="stroke:#038048;stroke-width:1.0;"/><text fill="#000000" font-family="sans-serif" font-size="14" lengthAdjust="spacing" textLength="247" x="42.5" y="164.5234">paralellSfxPlayer(String, double, int)</text><ellipse cx="33.5" cy="174.4766" fill="#84BE84" rx="3" ry="3" style="stroke:#038048;stroke-width:1.0;"/><text fill="#000000" font-family="sans-serif" font-size="14" lengthAdjust="spacing" textLength="75" x="42.5" y="181.0117">play(): void</text></g></a><rect height="11.7773" style="stroke:#00000000;stroke-width:1.0;fill:none;" width="182" x="211.5" y="259"/><text fill="#888888" font-family="sans-serif" font-size="10" lengthAdjust="spacing" textLength="182" x="211.5" y="268.668">UMLDoclet 2.0.17, PlantUML 1.2022.5</text><!--MD5=[86dd473f5f6a9d67f6aa3f7e004bd652]
@startuml
    namespace com.javafwp.sound {

        class musicPlayer [[musicPlayer.html]] {
            -menuLoop: MediaPlayer
            -start: MediaPlayer
            -gameLoop: MediaPlayer
            -end: MediaPlayer
            -cuedClip: MediaPlayer
            -currentClip: MediaPlayer
            -lastGamestate: gameState
            -loadAudioClip(String): MediaPlayer
            +updateMusic(gameState): void
        }

        class paralellSfxPlayer [[paralellSfxPlayer.html]] {
            -clips: MediaPlayer[]
            +paralellSfxPlayer(String, double, int)
            +play(): void
        }

    }

    center footer UMLDoclet 2.0.17, PlantUML 1.2022.5
@enduml

PlantUML version 1.2022.5(Sat Apr 30 12:55:52 CEST 2022)
(APACHE source distribution)
Java Runtime: OpenJDK Runtime Environment
JVM: OpenJDK 64-Bit Server VM
Default Encoding: UTF-8
Language: en
Country: DE
--></g></svg>