<?xml version="1.0" encoding="UTF-8" standalone="no"?><svg xmlns="http://www.w3.org/2000/svg" xmlns:xlink="http://www.w3.org/1999/xlink" contentStyleType="text/css" height="290px" preserveAspectRatio="none" style="width:580px;height:290px;background:#FFFFFF;" version="1.1" viewBox="0 0 580 290" width="580px" zoomAndPan="magnify"><defs/><g><!--MD5=[f0d5f4e5cfe3a71dc770f7e5268a4f3c]
cluster com.javafwp.sound--><g id="cluster_com.javafwp.sound"><path d="M8.5,6 L144.5,6 A3.75,3.75 0 0 1 147,8.5 L154,29.6094 L570.5,29.6094 A2.5,2.5 0 0 1 573,32.1094 L573,261.5 A2.5,2.5 0 0 1 570.5,264 L8.5,264 A2.5,2.5 0 0 1 6,261.5 L6,8.5 A2.5,2.5 0 0 1 8.5,6 " style="stroke:#000000;stroke-width:1.5;fill:none;"/><line style="stroke:#000000;stroke-width:1.5;fill:none;" x1="6" x2="154" y1="29.6094" y2="29.6094"/><text fill="#000000" font-family="sans-serif" font-size="14" font-weight="bold" lengthAdjust="spacing" textLength="135" x="10" y="22.5332">com.javafwp.sound</text></g><!--MD5=[306530751ab11bb84a45ead390e9422b]
class com.javafwp.sound.MusicPlayer--><a href="musicPlayer.html" target="_top" title="musicPlayer.html" xlink:actuate="onRequest" xlink:href="musicPlayer.html" xlink:show="new" xlink:title="musicPlayer.html" xlink:type="simple"><g id="elem_com.javafwp.sound.MusicPlayer"><rect codeLine="3" fill="#F1F1F1" height="206.4844" id="com.javafwp.sound.MusicPlayer" rx="2.5" ry="2.5" style="stroke:#181818;stroke-width:0.5;" width="246" x="311" y="42"/><ellipse cx="391.75" cy="58" fill="#ADD1B2" rx="11" ry="11" style="stroke:#181818;stroke-width:1.0;"/><path d="M394.5156,53.875 Q394.6719,53.6563 394.8594,53.5469 Q395.0469,53.4375 395.2656,53.4375 Q395.6406,53.4375 395.875,53.7031 Q396.1094,53.9531 396.1094,54.5625 L396.1094,56.0156 Q396.1094,56.625 395.875,56.8906 Q395.6406,57.1563 395.2656,57.1563 Q394.9219,57.1563 394.7188,56.9531 Q394.5156,56.7656 394.4063,56.25 Q394.3594,55.8906 394.1719,55.7031 Q393.8438,55.3281 393.2344,55.1094 Q392.625,54.8906 392,54.8906 Q391.2344,54.8906 390.5938,55.2188 Q389.9688,55.5469 389.4688,56.2969 Q388.9844,57.0469 388.9844,58.0781 L388.9844,59.1719 Q388.9844,60.4063 389.875,61.2344 Q390.7656,62.0469 392.3594,62.0469 Q393.2969,62.0469 393.9531,61.7969 Q394.3438,61.6406 394.7656,61.2031 Q395.0313,60.9375 395.1719,60.8594 Q395.3281,60.7813 395.5313,60.7813 Q395.8594,60.7813 396.1094,61.0469 Q396.375,61.2969 396.375,61.6406 Q396.375,61.9844 396.0313,62.3906 Q395.5313,62.9688 394.7344,63.2969 Q393.6563,63.75 392.3594,63.75 Q390.8438,63.75 389.6406,63.125 Q388.6563,62.625 387.9688,61.5625 Q387.2813,60.4844 387.2813,59.2031 L387.2813,58.0469 Q387.2813,56.7188 387.8906,55.5781 Q388.5156,54.4219 389.6094,53.8125 Q390.7031,53.1875 391.9375,53.1875 Q392.6719,53.1875 393.3125,53.3594 Q393.9688,53.5156 394.5156,53.875 Z " fill="#000000"/><text fill="#000000" font-family="sans-serif" font-size="14" lengthAdjust="spacing" textLength="76" x="412.25" y="63.7285">MusicPlayer</text><line style="stroke:#181818;stroke-width:0.5;" x1="312" x2="556" y1="74" y2="74"/><rect fill="none" height="6" style="stroke:#C82930;stroke-width:1.0;" width="6" x="319" y="82"/><text fill="#000000" font-family="sans-serif" font-size="14" lengthAdjust="spacing" textLength="153" x="331" y="92.5332">menuLoop: MediaPlayer</text><rect fill="none" height="6" style="stroke:#C82930;stroke-width:1.0;" width="6" x="319" y="99.6094"/><text fill="#000000" font-family="sans-serif" font-size="14" lengthAdjust="spacing" textLength="114" x="331" y="110.1426">start: MediaPlayer</text><rect fill="none" height="6" style="stroke:#C82930;stroke-width:1.0;" width="6" x="319" y="117.2188"/><text fill="#000000" font-family="sans-serif" font-size="14" lengthAdjust="spacing" textLength="153" x="331" y="127.752">gameLoop: MediaPlayer</text><rect fill="none" height="6" style="stroke:#C82930;stroke-width:1.0;" width="6" x="319" y="134.8281"/><text fill="#000000" font-family="sans-serif" font-size="14" lengthAdjust="spacing" textLength="110" x="331" y="145.3613">end: MediaPlayer</text><rect fill="none" height="6" style="stroke:#C82930;stroke-width:1.0;" width="6" x="319" y="152.4375"/><text fill="#000000" font-family="sans-serif" font-size="14" lengthAdjust="spacing" textLength="141" x="331" y="162.9707">cuedClip: MediaPlayer</text><rect fill="none" height="6" style="stroke:#C82930;stroke-width:1.0;" width="6" x="319" y="170.0469"/><text fill="#000000" font-family="sans-serif" font-size="14" lengthAdjust="spacing" textLength="155" x="331" y="180.5801">currentClip: MediaPlayer</text><rect fill="none" height="6" style="stroke:#C82930;stroke-width:1.0;" width="6" x="319" y="187.6563"/><text fill="#000000" font-family="sans-serif" font-size="14" lengthAdjust="spacing" textLength="167" x="331" y="198.1895">lastGamestate: gameState</text><line style="stroke:#181818;stroke-width:0.5;" x1="312" x2="556" y1="205.2656" y2="205.2656"/><rect fill="#F24D5C" height="6" style="stroke:#C82930;stroke-width:1.0;" width="6" x="319" y="213.2656"/><text fill="#000000" font-family="sans-serif" font-size="14" lengthAdjust="spacing" textLength="220" x="331" y="223.7988">loadAudioClip(String): MediaPlayer</text><ellipse cx="322" cy="233.875" fill="#84BE84" rx="3" ry="3" style="stroke:#038048;stroke-width:1.0;"/><text fill="#000000" font-family="sans-serif" font-size="14" lengthAdjust="spacing" textLength="192" x="331" y="241.4082">updateMusic(gameState): void</text></g></a><!--MD5=[283668a4d2f0270040a6e4b8966c070c]
class com.javafwp.sound.ParalellSfxPlayer--><a href="paralellSfxPlayer.html" target="_top" title="paralellSfxPlayer.html" xlink:actuate="onRequest" xlink:href="paralellSfxPlayer.html" xlink:show="new" xlink:title="paralellSfxPlayer.html" xlink:type="simple"><g id="elem_com.javafwp.sound.ParalellSfxPlayer"><rect codeLine="15" fill="#F1F1F1" height="100.8281" id="com.javafwp.sound.ParalellSfxPlayer" rx="2.5" ry="2.5" style="stroke:#181818;stroke-width:0.5;" width="253" x="22.5" y="94.5"/><ellipse cx="91.75" cy="110.5" fill="#ADD1B2" rx="11" ry="11" style="stroke:#181818;stroke-width:1.0;"/><path d="M94.5156,106.375 Q94.6719,106.1563 94.8594,106.0469 Q95.0469,105.9375 95.2656,105.9375 Q95.6406,105.9375 95.875,106.2031 Q96.1094,106.4531 96.1094,107.0625 L96.1094,108.5156 Q96.1094,109.125 95.875,109.3906 Q95.6406,109.6563 95.2656,109.6563 Q94.9219,109.6563 94.7188,109.4531 Q94.5156,109.2656 94.4063,108.75 Q94.3594,108.3906 94.1719,108.2031 Q93.8438,107.8281 93.2344,107.6094 Q92.625,107.3906 92,107.3906 Q91.2344,107.3906 90.5938,107.7188 Q89.9688,108.0469 89.4688,108.7969 Q88.9844,109.5469 88.9844,110.5781 L88.9844,111.6719 Q88.9844,112.9063 89.875,113.7344 Q90.7656,114.5469 92.3594,114.5469 Q93.2969,114.5469 93.9531,114.2969 Q94.3438,114.1406 94.7656,113.7031 Q95.0313,113.4375 95.1719,113.3594 Q95.3281,113.2813 95.5313,113.2813 Q95.8594,113.2813 96.1094,113.5469 Q96.375,113.7969 96.375,114.1406 Q96.375,114.4844 96.0313,114.8906 Q95.5313,115.4688 94.7344,115.7969 Q93.6563,116.25 92.3594,116.25 Q90.8438,116.25 89.6406,115.625 Q88.6563,115.125 87.9688,114.0625 Q87.2813,112.9844 87.2813,111.7031 L87.2813,110.5469 Q87.2813,109.2188 87.8906,108.0781 Q88.5156,106.9219 89.6094,106.3125 Q90.7031,105.6875 91.9375,105.6875 Q92.6719,105.6875 93.3125,105.8594 Q93.9688,106.0156 94.5156,106.375 Z " fill="#000000"/><text fill="#000000" font-family="sans-serif" font-size="14" lengthAdjust="spacing" textLength="106" x="112.25" y="116.2285">ParalellSfxPlayer</text><line style="stroke:#181818;stroke-width:0.5;" x1="23.5" x2="274.5" y1="126.5" y2="126.5"/><rect fill="none" height="6" style="stroke:#C82930;stroke-width:1.0;" width="6" x="30.5" y="134.5"/><text fill="#000000" font-family="sans-serif" font-size="14" lengthAdjust="spacing" textLength="122" x="42.5" y="145.0332">clips: MediaPlayer[]</text><line style="stroke:#181818;stroke-width:0.5;" x1="23.5" x2="274.5" y1="152.1094" y2="152.1094"/><ellipse cx="33.5" cy="163.1094" fill="#84BE84" rx="3" ry="3" style="stroke:#038048;stroke-width:1.0;"/><text fill="#000000" font-family="sans-serif" font-size="14" lengthAdjust="spacing" textLength="227" x="42.5" y="170.6426">ParalellSfxPlayer(String, double, int)</text><ellipse cx="33.5" cy="180.7188" fill="#84BE84" rx="3" ry="3" style="stroke:#038048;stroke-width:1.0;"/><text fill="#000000" font-family="sans-serif" font-size="14" lengthAdjust="spacing" textLength="70" x="42.5" y="188.252">play(): void</text></g></a><rect height="12.5781" style="stroke:#00000000;stroke-width:1.0;fill:none;" width="184" x="191" y="270"/><text fill="#888888" font-family="sans-serif" font-size="10" lengthAdjust="spacing" textLength="184" x="191" y="280.3809">UMLDoclet 2.0.17, PlantUML 1.2022.5</text><!--MD5=[a8d29bb72307db43bee8669cfcccc322]
@startuml
    namespace com.javafwp.sound {

        class MusicPlayer [[musicPlayer.html]] {
            -menuLoop: MediaPlayer
            -start: MediaPlayer
            -gameLoop: MediaPlayer
            -end: MediaPlayer
            -cuedClip: MediaPlayer
            -currentClip: MediaPlayer
            -lastGamestate: gameState
            -loadAudioClip(String): MediaPlayer
            +updateMusic(gameState): void
        }

        class ParalellSfxPlayer [[paralellSfxPlayer.html]] {
            -clips: MediaPlayer[]
            +ParalellSfxPlayer(String, double, int)
            +play(): void
        }

    }

    center footer UMLDoclet 2.0.17, PlantUML 1.2022.5
@enduml

PlantUML version 1.2022.5(Sat Apr 30 12:55:52 CEST 2022)
(APACHE source distribution)
Java Runtime: Java(TM) SE Runtime Environment
JVM: Java HotSpot(TM) 64-Bit Server VM
Default Encoding: UTF-8
Language: de
Country: DE
--></g></svg>