<?xml version="1.0" encoding="UTF-8" standalone="no"?><svg xmlns="http://www.w3.org/2000/svg" xmlns:xlink="http://www.w3.org/1999/xlink" contentStyleType="text/css" height="143px" preserveAspectRatio="none" style="width:273px;height:143px;background:#FFFFFF;" version="1.1" viewBox="0 0 273 143" width="273px" zoomAndPan="magnify"><defs/><g><!--MD5=[7f4bfa08361df12c7f693779c33c25f2]
class com.javafwp.sound.paralellSfxPlayer--><a href="paralellSfxPlayer.html" target="_top" title="paralellSfxPlayer.html" xlink:actuate="onRequest" xlink:href="paralellSfxPlayer.html" xlink:show="new" xlink:title="paralellSfxPlayer.html" xlink:type="simple"><g id="elem_com.javafwp.sound.paralellSfxPlayer"><rect codeLine="5" fill="#F1F1F1" height="109.0156" id="com.javafwp.sound.paralellSfxPlayer" rx="2.5" ry="2.5" style="stroke:#181818;stroke-width:0.5;" width="252" x="7" y="7"/><ellipse cx="76.25" cy="27.0938" fill="#ADD1B2" rx="11" ry="11" style="stroke:#181818;stroke-width:1.0;"/><path d="M79.0156,22.9688 Q79.1719,22.75 79.3594,22.6406 Q79.5469,22.5313 79.7656,22.5313 Q80.1406,22.5313 80.375,22.7969 Q80.6094,23.0469 80.6094,23.6563 L80.6094,25.1094 Q80.6094,25.7188 80.375,25.9844 Q80.1406,26.25 79.7656,26.25 Q79.4219,26.25 79.2188,26.0469 Q79.0156,25.8594 78.9063,25.3438 Q78.8594,24.9844 78.6719,24.7969 Q78.3438,24.4219 77.7344,24.2031 Q77.125,23.9844 76.5,23.9844 Q75.7344,23.9844 75.0938,24.3125 Q74.4688,24.6406 73.9688,25.3906 Q73.4844,26.1406 73.4844,27.1719 L73.4844,28.2656 Q73.4844,29.5 74.375,30.3281 Q75.2656,31.1406 76.8594,31.1406 Q77.7969,31.1406 78.4531,30.8906 Q78.8438,30.7344 79.2656,30.2969 Q79.5313,30.0313 79.6719,29.9531 Q79.8281,29.875 80.0313,29.875 Q80.3594,29.875 80.6094,30.1406 Q80.875,30.3906 80.875,30.7344 Q80.875,31.0781 80.5313,31.4844 Q80.0313,32.0625 79.2344,32.3906 Q78.1563,32.8438 76.8594,32.8438 Q75.3438,32.8438 74.1406,32.2188 Q73.1563,31.7188 72.4688,30.6563 Q71.7813,29.5781 71.7813,28.2969 L71.7813,27.1406 Q71.7813,25.8125 72.3906,24.6719 Q73.0156,23.5156 74.1094,22.9063 Q75.2031,22.2813 76.4375,22.2813 Q77.1719,22.2813 77.8125,22.4531 Q78.4688,22.6094 79.0156,22.9688 Z " fill="#000000"/><text fill="#000000" font-family="sans-serif" font-size="14" lengthAdjust="spacing" textLength="105" x="96.75" y="26.5332">paralellSfxPlayer</text><text fill="#000000" font-family="sans-serif" font-size="10" lengthAdjust="spacing" textLength="91" x="103.75" y="39.9902">com.javafwp.sound</text><line style="stroke:#181818;stroke-width:0.5;" x1="8" x2="258" y1="47.1875" y2="47.1875"/><rect fill="none" height="6" style="stroke:#C82930;stroke-width:1.0;" width="6" x="15" y="55.1875"/><text fill="#000000" font-family="sans-serif" font-size="14" lengthAdjust="spacing" textLength="122" x="27" y="65.7207">clips: MediaPlayer[]</text><line style="stroke:#181818;stroke-width:0.5;" x1="8" x2="258" y1="72.7969" y2="72.7969"/><ellipse cx="18" cy="83.7969" fill="#84BE84" rx="3" ry="3" style="stroke:#038048;stroke-width:1.0;"/><text fill="#000000" font-family="sans-serif" font-size="14" lengthAdjust="spacing" textLength="226" x="27" y="91.3301">paralellSfxPlayer(String, double, int)</text><ellipse cx="18" cy="101.4063" fill="#84BE84" rx="3" ry="3" style="stroke:#038048;stroke-width:1.0;"/><text fill="#000000" font-family="sans-serif" font-size="14" lengthAdjust="spacing" textLength="70" x="27" y="108.9395">play(): void</text></g></a><rect height="12.5781" style="stroke:#00000000;stroke-width:1.0;fill:none;" width="184" x="40.5" y="123.0156"/><text fill="#888888" font-family="sans-serif" font-size="10" lengthAdjust="spacing" textLength="184" x="40.5" y="133.3965">UMLDoclet 2.0.17, PlantUML 1.2022.5</text><!--MD5=[692718a515450f9031b546931159b28f]
@startuml
    set namespaceSeparator none
    hide empty fields
    hide empty methods

    class "<size:14>paralellSfxPlayer\n<size:10>com.javafwp.sound" as com.javafwp.sound.paralellSfxPlayer [[paralellSfxPlayer.html]] {
        -clips: MediaPlayer[]
        +paralellSfxPlayer(String, double, int)
        +play(): void
    }

    center footer UMLDoclet 2.0.17, PlantUML 1.2022.5
@enduml

PlantUML version 1.2022.5(Sat Apr 30 12:55:52 CEST 2022)
(APACHE source distribution)
Java Runtime: Java(TM) SE Runtime Environment
JVM: Java HotSpot(TM) 64-Bit Server VM
Default Encoding: UTF-8
Language: de
Country: DE
--></g></svg>