<?xml version="1.0" encoding="UTF-8" standalone="no"?><svg xmlns="http://www.w3.org/2000/svg" xmlns:xlink="http://www.w3.org/1999/xlink" contentStyleType="text/css" height="100px" preserveAspectRatio="none" style="width:251px;height:100px;background:#FFFFFF;" version="1.1" viewBox="0 0 251 100" width="251px" zoomAndPan="magnify"><defs/><g><!--MD5=[6e24031f522b034ca3ab1e231b9ff3fc]
class com.javafwp.sprites.ImageLoader--><a href="imageLoader.html" target="_top" title="imageLoader.html" xlink:actuate="onRequest" xlink:href="imageLoader.html" xlink:show="new" xlink:title="imageLoader.html" xlink:type="simple"><g id="elem_com.javafwp.sprites.ImageLoader"><rect codeLine="5" fill="#F1F1F1" height="65.7969" id="com.javafwp.sprites.ImageLoader" rx="2.5" ry="2.5" style="stroke:#181818;stroke-width:0.5;" width="230" x="7" y="7"/><ellipse cx="71.75" cy="27.0938" fill="#ADD1B2" rx="11" ry="11" style="stroke:#181818;stroke-width:1.0;"/><path d="M74.5156,22.9688 Q74.6719,22.75 74.8594,22.6406 Q75.0469,22.5313 75.2656,22.5313 Q75.6406,22.5313 75.875,22.7969 Q76.1094,23.0469 76.1094,23.6563 L76.1094,25.1094 Q76.1094,25.7188 75.875,25.9844 Q75.6406,26.25 75.2656,26.25 Q74.9219,26.25 74.7188,26.0469 Q74.5156,25.8594 74.4063,25.3438 Q74.3594,24.9844 74.1719,24.7969 Q73.8438,24.4219 73.2344,24.2031 Q72.625,23.9844 72,23.9844 Q71.2344,23.9844 70.5938,24.3125 Q69.9688,24.6406 69.4688,25.3906 Q68.9844,26.1406 68.9844,27.1719 L68.9844,28.2656 Q68.9844,29.5 69.875,30.3281 Q70.7656,31.1406 72.3594,31.1406 Q73.2969,31.1406 73.9531,30.8906 Q74.3438,30.7344 74.7656,30.2969 Q75.0313,30.0313 75.1719,29.9531 Q75.3281,29.875 75.5313,29.875 Q75.8594,29.875 76.1094,30.1406 Q76.375,30.3906 76.375,30.7344 Q76.375,31.0781 76.0313,31.4844 Q75.5313,32.0625 74.7344,32.3906 Q73.6563,32.8438 72.3594,32.8438 Q70.8438,32.8438 69.6406,32.2188 Q68.6563,31.7188 67.9688,30.6563 Q67.2813,29.5781 67.2813,28.2969 L67.2813,27.1406 Q67.2813,25.8125 67.8906,24.6719 Q68.5156,23.5156 69.6094,22.9063 Q70.7031,22.2813 71.9375,22.2813 Q72.6719,22.2813 73.3125,22.4531 Q73.9688,22.6094 74.5156,22.9688 Z " fill="#000000"/><text fill="#000000" font-family="sans-serif" font-size="14" lengthAdjust="spacing" textLength="83" x="96.75" y="26.5332">ImageLoader</text><text fill="#000000" font-family="sans-serif" font-size="10" lengthAdjust="spacing" textLength="92" x="92.25" y="39.9902">com.javafwp.sprites</text><line style="stroke:#181818;stroke-width:0.5;" x1="8" x2="236" y1="47.1875" y2="47.1875"/><ellipse cx="18" cy="58.1875" fill="#84BE84" rx="3" ry="3" style="stroke:#038048;stroke-width:1.0;"/><text fill="#000000" font-family="sans-serif" font-size="14" lengthAdjust="spacing" textLength="204" x="27" y="65.7207">loadImage(String): ImagePattern</text></g></a><rect height="12.5781" style="stroke:#00000000;stroke-width:1.0;fill:none;" width="184" x="29.5" y="79.7969"/><text fill="#888888" font-family="sans-serif" font-size="10" lengthAdjust="spacing" textLength="184" x="29.5" y="90.1777">UMLDoclet 2.0.17, PlantUML 1.2022.5</text><!--MD5=[6e3f400b64b5f62e1b84b115e898c415]
@startuml
    set namespaceSeparator none
    hide empty fields
    hide empty methods

    class "<size:14>ImageLoader\n<size:10>com.javafwp.sprites" as com.javafwp.sprites.ImageLoader [[imageLoader.html]] {
        +loadImage(String): ImagePattern
    }

    center footer UMLDoclet 2.0.17, PlantUML 1.2022.5
@enduml

PlantUML version 1.2022.5(Sat Apr 30 12:55:52 CEST 2022)
(APACHE source distribution)
Java Runtime: Java(TM) SE Runtime Environment
JVM: Java HotSpot(TM) 64-Bit Server VM
Default Encoding: UTF-8
Language: de
Country: DE
--></g></svg>