<?xml version="1.0" encoding="UTF-8" standalone="no"?><svg xmlns="http://www.w3.org/2000/svg" xmlns:xlink="http://www.w3.org/1999/xlink" contentStyleType="text/css" height="96px" preserveAspectRatio="none" style="width:269px;height:96px;background:#FFFFFF;" version="1.1" viewBox="0 0 269 96" width="269px" zoomAndPan="magnify"><defs/><g><!--MD5=[ac462e5c6f6a6bd5c4547c47fcc62762]
class com.javafwp.sprites.imageLoader--><a href="imageLoader.html" target="_top" title="imageLoader.html" xlink:actuate="onRequest" xlink:href="imageLoader.html" xlink:show="new" xlink:title="imageLoader.html" xlink:type="simple"><g id="elem_com.javafwp.sprites.imageLoader"><rect codeLine="5" fill="#F1F1F1" height="62.7539" id="com.javafwp.sprites.imageLoader" rx="2.5" ry="2.5" style="stroke:#181818;stroke-width:0.5;" width="248" x="7" y="7"/><ellipse cx="78.25" cy="26.1328" fill="#ADD1B2" rx="11" ry="11" style="stroke:#181818;stroke-width:1.0;"/><path d="M80.7231,32.2759 Q80.1421,32.5747 79.5029,32.7241 Q78.8638,32.8735 78.1582,32.8735 Q75.6514,32.8735 74.3315,31.2217 Q73.0117,29.5698 73.0117,26.4487 Q73.0117,23.3193 74.3315,21.6675 Q75.6514,20.0156 78.1582,20.0156 Q78.8638,20.0156 79.5112,20.165 Q80.1587,20.3145 80.7231,20.6133 L80.7231,23.3359 Q80.0923,22.7549 79.4988,22.4851 Q78.9053,22.2153 78.2744,22.2153 Q76.9297,22.2153 76.2449,23.282 Q75.5601,24.3486 75.5601,26.4487 Q75.5601,28.5405 76.2449,29.6072 Q76.9297,30.6738 78.2744,30.6738 Q78.9053,30.6738 79.4988,30.4041 Q80.0923,30.1343 80.7231,29.5532 Z " fill="#000000"/><text fill="#000000" font-family="sans-serif" font-size="14" lengthAdjust="spacing" textLength="89" x="102.75" y="25.5352">imageLoader</text><text fill="#000000" font-family="sans-serif" font-size="10" lengthAdjust="spacing" textLength="97" x="98.75" y="38.1563">com.javafwp.sprites</text><line style="stroke:#181818;stroke-width:0.5;" x1="8" x2="254" y1="45.2656" y2="45.2656"/><ellipse cx="18" cy="56.2656" fill="#84BE84" rx="3" ry="3" style="stroke:#038048;stroke-width:1.0;"/><text fill="#000000" font-family="sans-serif" font-size="14" lengthAdjust="spacing" textLength="222" x="27" y="62.8008">loadImage(String): ImagePattern</text></g></a><rect height="11.7773" style="stroke:#00000000;stroke-width:1.0;fill:none;" width="182" x="39.5" y="76.7539"/><text fill="#888888" font-family="sans-serif" font-size="10" lengthAdjust="spacing" textLength="182" x="39.5" y="86.4219">UMLDoclet 2.0.17, PlantUML 1.2022.5</text><!--MD5=[74d5ef3aead5c19e38dab4defb1efec6]
@startuml
    set namespaceSeparator none
    hide empty fields
    hide empty methods

    class "<size:14>imageLoader\n<size:10>com.javafwp.sprites" as com.javafwp.sprites.imageLoader [[imageLoader.html]] {
        +loadImage(String): ImagePattern
    }

    center footer UMLDoclet 2.0.17, PlantUML 1.2022.5
@enduml

PlantUML version 1.2022.5(Sat Apr 30 12:55:52 CEST 2022)
(APACHE source distribution)
Java Runtime: OpenJDK Runtime Environment
JVM: OpenJDK 64-Bit Server VM
Default Encoding: UTF-8
Language: en
Country: DE
--></g></svg>