<?xml version="1.0" encoding="UTF-8" standalone="no"?><svg xmlns="http://www.w3.org/2000/svg" xmlns:xlink="http://www.w3.org/1999/xlink" contentStyleType="text/css" height="150px" preserveAspectRatio="none" style="width:275px;height:150px;background:#FFFFFF;" version="1.1" viewBox="0 0 275 150" width="275px" zoomAndPan="magnify"><defs/><g><!--MD5=[d6db2adfa490e930582d411cd8fb5281]
cluster com.javafwp.sprites--><g id="cluster_com.javafwp.sprites"><path d="M8.5,6 L149.5,6 A3.75,3.75 0 0 1 152,8.5 L159,29.6094 L265.5,29.6094 A2.5,2.5 0 0 1 268,32.1094 L268,121.5 A2.5,2.5 0 0 1 265.5,124 L8.5,124 A2.5,2.5 0 0 1 6,121.5 L6,8.5 A2.5,2.5 0 0 1 8.5,6 " style="stroke:#000000;stroke-width:1.5;fill:none;"/><line style="stroke:#000000;stroke-width:1.5;fill:none;" x1="6" x2="159" y1="29.6094" y2="29.6094"/><text fill="#000000" font-family="sans-serif" font-size="14" font-weight="bold" lengthAdjust="spacing" textLength="140" x="10" y="22.5332">com.javafwp.sprites</text></g><!--MD5=[6e24031f522b034ca3ab1e231b9ff3fc]
class com.javafwp.sprites.ImageLoader--><a href="imageLoader.html" target="_top" title="imageLoader.html" xlink:actuate="onRequest" xlink:href="imageLoader.html" xlink:show="new" xlink:title="imageLoader.html" xlink:type="simple"><g id="elem_com.javafwp.sprites.ImageLoader"><rect codeLine="3" fill="#F1F1F1" height="65.6094" id="com.javafwp.sprites.ImageLoader" rx="2.5" ry="2.5" style="stroke:#181818;stroke-width:0.5;" width="230" x="22" y="42"/><ellipse cx="91.25" cy="58" fill="#ADD1B2" rx="11" ry="11" style="stroke:#181818;stroke-width:1.0;"/><path d="M94.0156,53.875 Q94.1719,53.6563 94.3594,53.5469 Q94.5469,53.4375 94.7656,53.4375 Q95.1406,53.4375 95.375,53.7031 Q95.6094,53.9531 95.6094,54.5625 L95.6094,56.0156 Q95.6094,56.625 95.375,56.8906 Q95.1406,57.1563 94.7656,57.1563 Q94.4219,57.1563 94.2188,56.9531 Q94.0156,56.7656 93.9063,56.25 Q93.8594,55.8906 93.6719,55.7031 Q93.3438,55.3281 92.7344,55.1094 Q92.125,54.8906 91.5,54.8906 Q90.7344,54.8906 90.0938,55.2188 Q89.4688,55.5469 88.9688,56.2969 Q88.4844,57.0469 88.4844,58.0781 L88.4844,59.1719 Q88.4844,60.4063 89.375,61.2344 Q90.2656,62.0469 91.8594,62.0469 Q92.7969,62.0469 93.4531,61.7969 Q93.8438,61.6406 94.2656,61.2031 Q94.5313,60.9375 94.6719,60.8594 Q94.8281,60.7813 95.0313,60.7813 Q95.3594,60.7813 95.6094,61.0469 Q95.875,61.2969 95.875,61.6406 Q95.875,61.9844 95.5313,62.3906 Q95.0313,62.9688 94.2344,63.2969 Q93.1563,63.75 91.8594,63.75 Q90.3438,63.75 89.1406,63.125 Q88.1563,62.625 87.4688,61.5625 Q86.7813,60.4844 86.7813,59.2031 L86.7813,58.0469 Q86.7813,56.7188 87.3906,55.5781 Q88.0156,54.4219 89.1094,53.8125 Q90.2031,53.1875 91.4375,53.1875 Q92.1719,53.1875 92.8125,53.3594 Q93.4688,53.5156 94.0156,53.875 Z " fill="#000000"/><text fill="#000000" font-family="sans-serif" font-size="14" lengthAdjust="spacing" textLength="83" x="111.75" y="63.7285">ImageLoader</text><line style="stroke:#181818;stroke-width:0.5;" x1="23" x2="251" y1="74" y2="74"/><line style="stroke:#181818;stroke-width:0.5;" x1="23" x2="251" y1="82" y2="82"/><ellipse cx="33" cy="93" fill="#84BE84" rx="3" ry="3" style="stroke:#038048;stroke-width:1.0;"/><text fill="#000000" font-family="sans-serif" font-size="14" lengthAdjust="spacing" textLength="204" x="42" y="100.5332">loadImage(String): ImagePattern</text></g></a><rect height="12.5781" style="stroke:#00000000;stroke-width:1.0;fill:none;" width="184" x="38.5" y="130"/><text fill="#888888" font-family="sans-serif" font-size="10" lengthAdjust="spacing" textLength="184" x="38.5" y="140.3809">UMLDoclet 2.0.17, PlantUML 1.2022.5</text><!--MD5=[a2cd72ca1b13f140d537ebebf6d76407]
@startuml
    namespace com.javafwp.sprites {

        class ImageLoader [[imageLoader.html]] {
            +loadImage(String): ImagePattern
        }

    }

    center footer UMLDoclet 2.0.17, PlantUML 1.2022.5
@enduml

PlantUML version 1.2022.5(Sat Apr 30 12:55:52 CEST 2022)
(APACHE source distribution)
Java Runtime: Java(TM) SE Runtime Environment
JVM: Java HotSpot(TM) 64-Bit Server VM
Default Encoding: UTF-8
Language: de
Country: DE
--></g></svg>