<?xml version="1.0" encoding="UTF-8" standalone="no"?><svg xmlns="http://www.w3.org/2000/svg" xmlns:xlink="http://www.w3.org/1999/xlink" contentStyleType="text/css" height="146px" preserveAspectRatio="none" style="width:293px;height:146px;background:#FFFFFF;" version="1.1" viewBox="0 0 293 146" width="293px" zoomAndPan="magnify"><defs/><g><!--MD5=[d6db2adfa490e930582d411cd8fb5281]
cluster com.javafwp.sprites--><g id="cluster_com.javafwp.sprites"><path d="M8.5,6 L151.5,6 A3.75,3.75 0 0 1 154,8.5 L161,28.4883 L283.5,28.4883 A2.5,2.5 0 0 1 286,30.9883 L286,118.5 A2.5,2.5 0 0 1 283.5,121 L8.5,121 A2.5,2.5 0 0 1 6,118.5 L6,8.5 A2.5,2.5 0 0 1 8.5,6 " style="stroke:#000000;stroke-width:1.5;fill:none;"/><line style="stroke:#000000;stroke-width:1.5;fill:none;" x1="6" x2="161" y1="28.4883" y2="28.4883"/><text fill="#000000" font-family="sans-serif" font-size="14" font-weight="bold" lengthAdjust="spacing" textLength="142" x="10" y="21.5352">com.javafwp.sprites</text></g><!--MD5=[ac462e5c6f6a6bd5c4547c47fcc62762]
class com.javafwp.sprites.imageLoader--><a href="imageLoader.html" target="_top" title="imageLoader.html" xlink:actuate="onRequest" xlink:href="imageLoader.html" xlink:show="new" xlink:title="imageLoader.html" xlink:type="simple"><g id="elem_com.javafwp.sprites.imageLoader"><rect codeLine="3" fill="#F1F1F1" height="64.4883" id="com.javafwp.sprites.imageLoader" rx="2.5" ry="2.5" style="stroke:#181818;stroke-width:0.5;" width="248" x="22" y="41"/><ellipse cx="97.25" cy="57" fill="#ADD1B2" rx="11" ry="11" style="stroke:#181818;stroke-width:1.0;"/><path d="M99.7231,63.1431 Q99.1421,63.4419 98.5029,63.5913 Q97.8638,63.7407 97.1582,63.7407 Q94.6514,63.7407 93.3315,62.0889 Q92.0117,60.437 92.0117,57.3159 Q92.0117,54.1865 93.3315,52.5347 Q94.6514,50.8828 97.1582,50.8828 Q97.8638,50.8828 98.5112,51.0322 Q99.1587,51.1816 99.7231,51.4805 L99.7231,54.2031 Q99.0923,53.6221 98.4988,53.3523 Q97.9053,53.0825 97.2744,53.0825 Q95.9297,53.0825 95.2449,54.1492 Q94.5601,55.2158 94.5601,57.3159 Q94.5601,59.4077 95.2449,60.4744 Q95.9297,61.541 97.2744,61.541 Q97.9053,61.541 98.4988,61.2712 Q99.0923,61.0015 99.7231,60.4204 Z " fill="#000000"/><text fill="#000000" font-family="sans-serif" font-size="14" lengthAdjust="spacing" textLength="89" x="117.75" y="62.291">imageLoader</text><line style="stroke:#181818;stroke-width:0.5;" x1="23" x2="269" y1="73" y2="73"/><line style="stroke:#181818;stroke-width:0.5;" x1="23" x2="269" y1="81" y2="81"/><ellipse cx="33" cy="92" fill="#84BE84" rx="3" ry="3" style="stroke:#038048;stroke-width:1.0;"/><text fill="#000000" font-family="sans-serif" font-size="14" lengthAdjust="spacing" textLength="222" x="42" y="98.5352">loadImage(String): ImagePattern</text></g></a><rect height="11.7773" style="stroke:#00000000;stroke-width:1.0;fill:none;" width="182" x="48.5" y="127"/><text fill="#888888" font-family="sans-serif" font-size="10" lengthAdjust="spacing" textLength="182" x="48.5" y="136.668">UMLDoclet 2.0.17, PlantUML 1.2022.5</text><!--MD5=[a59049e0d41840c7968780463d4fb827]
@startuml
    namespace com.javafwp.sprites {

        class imageLoader [[imageLoader.html]] {
            +loadImage(String): ImagePattern
        }

    }

    center footer UMLDoclet 2.0.17, PlantUML 1.2022.5
@enduml

PlantUML version 1.2022.5(Sat Apr 30 12:55:52 CEST 2022)
(APACHE source distribution)
Java Runtime: OpenJDK Runtime Environment
JVM: OpenJDK 64-Bit Server VM
Default Encoding: UTF-8
Language: en
Country: DE
--></g></svg>