<?xml version="1.0" encoding="UTF-8" standalone="no"?><svg xmlns="http://www.w3.org/2000/svg" xmlns:xlink="http://www.w3.org/1999/xlink" contentStyleType="text/css" height="316px" preserveAspectRatio="none" style="width:1837px;height:316px;background:#FFFFFF;" version="1.1" viewBox="0 0 1837 316" width="1837px" zoomAndPan="magnify"><defs/><g><!--MD5=[cd43787fe916de52a1584e61cb754e92]
class com.javafwp--><a href="com/javafwp/package-summary.html" target="_top" title="com/javafwp/package-summary.html" xlink:actuate="onRequest" xlink:href="com/javafwp/package-summary.html" xlink:show="new" xlink:title="com/javafwp/package-summary.html" xlink:type="simple"><g id="elem_com.javafwp"><rect codeLine="33" fill="#F1F1F1" height="26.4883" id="com.javafwp" rx="2.5" ry="2.5" style="stroke:#181818;stroke-width:0.5;" width="91" x="739" y="7"/><text fill="#000000" font-family="sans-serif" font-size="14" lengthAdjust="spacing" textLength="85" x="742" y="25.5352">com.javafwp</text></g></a><!--MD5=[757901b4585b2052986e083412478a2f]
class javafx.application--><g id="elem_javafx.application"><rect fill="#F1F1F1" height="26.4883" id="javafx.application" rx="2.5" ry="2.5" style="stroke:#181818;stroke-width:0.5;" width="127" x="7" y="93"/><text fill="#000000" font-family="sans-serif" font-size="14" lengthAdjust="spacing" textLength="121" x="10" y="111.5352">javafx.application</text></g><!--MD5=[49bd5d998569edab8e18e58353f4c1c4]
class javafx.animation--><g id="elem_javafx.animation"><rect fill="#F1F1F1" height="26.4883" id="javafx.animation" rx="2.5" ry="2.5" style="stroke:#181818;stroke-width:0.5;" width="120" x="169.5" y="93"/><text fill="#000000" font-family="sans-serif" font-size="14" lengthAdjust="spacing" textLength="114" x="172.5" y="111.5352">javafx.animation</text></g><!--MD5=[9090366b3adc663e7caca156dcb58ddf]
class com.javafwp.game--><a href="com/javafwp/game/package-summary.html" target="_top" title="com/javafwp/game/package-summary.html" xlink:actuate="onRequest" xlink:href="com/javafwp/game/package-summary.html" xlink:show="new" xlink:title="com/javafwp/game/package-summary.html" xlink:type="simple"><g id="elem_com.javafwp.game"><rect codeLine="35" fill="#F1F1F1" height="26.4883" id="com.javafwp.game" rx="2.5" ry="2.5" style="stroke:#181818;stroke-width:0.5;" width="133" x="885" y="265"/><text fill="#000000" font-family="sans-serif" font-size="14" lengthAdjust="spacing" textLength="127" x="888" y="283.5352">com.javafwp.game</text></g></a><!--MD5=[706cb107120c83b065ef81c03352b3e7]
class javafx.stage--><g id="elem_javafx.stage"><rect fill="#F1F1F1" height="26.4883" id="javafx.stage" rx="2.5" ry="2.5" style="stroke:#181818;stroke-width:0.5;" width="88" x="395.5" y="93"/><text fill="#000000" font-family="sans-serif" font-size="14" lengthAdjust="spacing" textLength="82" x="398.5" y="111.5352">javafx.stage</text></g><!--MD5=[ba7f742f42240eb1c18035bb4becc881]
class javafx.scene.text--><g id="elem_javafx.scene.text"><rect fill="#F1F1F1" height="26.4883" id="javafx.scene.text" rx="2.5" ry="2.5" style="stroke:#181818;stroke-width:0.5;" width="121" x="1505" y="179"/><text fill="#000000" font-family="sans-serif" font-size="14" lengthAdjust="spacing" textLength="115" x="1508" y="197.5352">javafx.scene.text</text></g><!--MD5=[aec09770cbee9d568e9f0499e581894c]
class com.javafwp.sprites--><a href="com/javafwp/sprites/package-summary.html" target="_top" title="com/javafwp/sprites/package-summary.html" xlink:actuate="onRequest" xlink:href="com/javafwp/sprites/package-summary.html" xlink:show="new" xlink:title="com/javafwp/sprites/package-summary.html" xlink:type="simple"><g id="elem_com.javafwp.sprites"><rect codeLine="37" fill="#F1F1F1" height="26.4883" id="com.javafwp.sprites" rx="2.5" ry="2.5" style="stroke:#181818;stroke-width:0.5;" width="141" x="590" y="93"/><text fill="#000000" font-family="sans-serif" font-size="14" lengthAdjust="spacing" textLength="135" x="593" y="111.5352">com.javafwp.sprites</text></g></a><!--MD5=[9016767f2a2862b78f0fea3e57fcc1e8]
class com.javafwp.sound--><a href="com/javafwp/sound/package-summary.html" target="_top" title="com/javafwp/sound/package-summary.html" xlink:actuate="onRequest" xlink:href="com/javafwp/sound/package-summary.html" xlink:show="new" xlink:title="com/javafwp/sound/package-summary.html" xlink:type="simple"><g id="elem_com.javafwp.sound"><rect codeLine="39" fill="#F1F1F1" height="26.4883" id="com.javafwp.sound" rx="2.5" ry="2.5" style="stroke:#181818;stroke-width:0.5;" width="138" x="1028.5" y="179"/><text fill="#000000" font-family="sans-serif" font-size="14" lengthAdjust="spacing" textLength="132" x="1031.5" y="197.5352">com.javafwp.sound</text></g></a><!--MD5=[7de6b1539af6277b95d0b4d2130478d7]
class javafx.scene.shape--><g id="elem_javafx.scene.shape"><rect fill="#F1F1F1" height="26.4883" id="javafx.scene.shape" rx="2.5" ry="2.5" style="stroke:#181818;stroke-width:0.5;" width="135" x="636" y="179"/><text fill="#000000" font-family="sans-serif" font-size="14" lengthAdjust="spacing" textLength="129" x="639" y="197.5352">javafx.scene.shape</text></g><!--MD5=[cbe5f4aff5544463a31be21b7b821a65]
class com.javafwp.game.gameObjects--><a href="com/javafwp/game/gameObjects/package-summary.html" target="_top" title="com/javafwp/game/gameObjects/package-summary.html" xlink:actuate="onRequest" xlink:href="com/javafwp/game/gameObjects/package-summary.html" xlink:show="new" xlink:title="com/javafwp/game/gameObjects/package-summary.html" xlink:type="simple"><g id="elem_com.javafwp.game.gameObjects"><rect codeLine="41" fill="#F1F1F1" height="26.4883" id="com.javafwp.game.gameObjects" rx="2.5" ry="2.5" style="stroke:#181818;stroke-width:0.5;" width="226" x="837.5" y="93"/><text fill="#000000" font-family="sans-serif" font-size="14" lengthAdjust="spacing" textLength="220" x="840.5" y="111.5352">com.javafwp.game.gameObjects</text></g></a><!--MD5=[941a841a4283997e1b9401207870f633]
class javafx.scene.paint--><g id="elem_javafx.scene.paint"><rect fill="#F1F1F1" height="26.4883" id="javafx.scene.paint" rx="2.5" ry="2.5" style="stroke:#181818;stroke-width:0.5;" width="129" x="472" y="179"/><text fill="#000000" font-family="sans-serif" font-size="14" lengthAdjust="spacing" textLength="123" x="475" y="197.5352">javafx.scene.paint</text></g><!--MD5=[f7977e558710bb042f08cf22c5c498c6]
class com.javafwp.game.highscoreSystem--><a href="com/javafwp/game/highscoreSystem/package-summary.html" target="_top" title="com/javafwp/game/highscoreSystem/package-summary.html" xlink:actuate="onRequest" xlink:href="com/javafwp/game/highscoreSystem/package-summary.html" xlink:show="new" xlink:title="com/javafwp/game/highscoreSystem/package-summary.html" xlink:type="simple"><g id="elem_com.javafwp.game.highscoreSystem"><rect codeLine="43" fill="#F1F1F1" height="26.4883" id="com.javafwp.game.highscoreSystem" rx="2.5" ry="2.5" style="stroke:#181818;stroke-width:0.5;" width="253" x="1170" y="93"/><text fill="#000000" font-family="sans-serif" font-size="14" lengthAdjust="spacing" textLength="247" x="1173" y="111.5352">com.javafwp.game.highscoreSystem</text></g></a><!--MD5=[ace0bab5442f7240afa42562f28b4083]
class javafx.scene.layout--><g id="elem_javafx.scene.layout"><rect fill="#F1F1F1" height="26.4883" id="javafx.scene.layout" rx="2.5" ry="2.5" style="stroke:#181818;stroke-width:0.5;" width="136" x="1529.5" y="93"/><text fill="#000000" font-family="sans-serif" font-size="14" lengthAdjust="spacing" textLength="130" x="1532.5" y="111.5352">javafx.scene.layout</text></g><!--MD5=[2f6d9b015fbbbb11ef7c4efdf8a9c49b]
class javafx.scene.input--><g id="elem_javafx.scene.input"><rect fill="#F1F1F1" height="26.4883" id="javafx.scene.input" rx="2.5" ry="2.5" style="stroke:#181818;stroke-width:0.5;" width="130" x="1700.5" y="93"/><text fill="#000000" font-family="sans-serif" font-size="14" lengthAdjust="spacing" textLength="124" x="1703.5" y="111.5352">javafx.scene.input</text></g><!--MD5=[f3fac5395084164b5fd1cd391d283204]
class javafx.scene.control--><g id="elem_javafx.scene.control"><rect fill="#F1F1F1" height="26.4883" id="javafx.scene.control" rx="2.5" ry="2.5" style="stroke:#181818;stroke-width:0.5;" width="143" x="1327" y="179"/><text fill="#000000" font-family="sans-serif" font-size="14" lengthAdjust="spacing" textLength="137" x="1330" y="197.5352">javafx.scene.control</text></g><!--MD5=[c18a28c10143dbfbc566a10952e74eb8]
class javafx.scene--><g id="elem_javafx.scene"><rect fill="#F1F1F1" height="26.4883" id="javafx.scene" rx="2.5" ry="2.5" style="stroke:#181818;stroke-width:0.5;" width="90" x="1201.5" y="179"/><text fill="#000000" font-family="sans-serif" font-size="14" lengthAdjust="spacing" textLength="84" x="1204.5" y="197.5352">javafx.scene</text></g><!--MD5=[23e25cee8b650c372ac97073a59401a4]
class javafx.geometry--><g id="elem_javafx.geometry"><rect fill="#F1F1F1" height="26.4883" id="javafx.geometry" rx="2.5" ry="2.5" style="stroke:#181818;stroke-width:0.5;" width="116" x="806.5" y="179"/><text fill="#000000" font-family="sans-serif" font-size="14" lengthAdjust="spacing" textLength="110" x="809.5" y="197.5352">javafx.geometry</text></g><!--MD5=[16e30d1ab62912f417b40c138c1ad6b3]
class javafx.scene.media--><g id="elem_javafx.scene.media"><rect fill="#F1F1F1" height="26.4883" id="javafx.scene.media" rx="2.5" ry="2.5" style="stroke:#181818;stroke-width:0.5;" width="136" x="1053.5" y="265"/><text fill="#000000" font-family="sans-serif" font-size="14" lengthAdjust="spacing" textLength="130" x="1056.5" y="283.5352">javafx.scene.media</text></g><!--MD5=[22097d78c2555d49060b9b88d3645fa0]
link com.javafwp to javafx.application--><g id="link_com.javafwp_javafx.application"><path codeLine="6" d="M738.76,25.67 C634.47,36.42 371.11,64.25 151.5,93 C147.54,93.52 143.46,94.07 139.36,94.64 " fill="none" id="com.javafwp-to-javafx.application" style="stroke:#181818;stroke-width:1.0;"/><polygon fill="#181818" points="134.14,95.36,143.6109,98.0623,139.0909,94.6609,142.4923,90.1409,134.14,95.36" style="stroke:#181818;stroke-width:1.0;"/></g><!--MD5=[a06a2fc4df949cf19e623b6934463172]
link com.javafwp to javafx.animation--><g id="link_com.javafwp_javafx.animation"><path codeLine="7" d="M738.61,27.95 C640.21,42.84 408.67,77.88 294.91,95.1 " fill="none" id="com.javafwp-to-javafx.animation" style="stroke:#181818;stroke-width:1.0;"/><polygon fill="#181818" points="289.91,95.86,299.4119,98.4512,294.8524,95.1029,298.2006,90.5434,289.91,95.86" style="stroke:#181818;stroke-width:1.0;"/></g><!--MD5=[63275ece16e26e17f4e9993538ccadf3]
link com.javafwp to com.javafwp.game--><g id="link_com.javafwp_com.javafwp.game"><path codeLine="8" d="M738.69,22.02 C642.21,25.23 423.21,38.5 377.5,93 C370.07,101.85 373.37,108.21 377.5,119 C395.82,166.92 409.29,180.75 454.5,205 C526.61,243.67 760.18,264.34 879.66,272.62 " fill="none" id="com.javafwp-to-com.javafwp.game" style="stroke:#181818;stroke-width:1.0;"/><polygon fill="#181818" points="884.92,272.98,876.2156,268.372,879.9318,272.637,875.6668,276.3531,884.92,272.98" style="stroke:#181818;stroke-width:1.0;"/></g><!--MD5=[bbea8024e6f5a833c147a745fb78447c]
link com.javafwp to javafx.stage--><g id="link_com.javafwp_javafx.stage"><path codeLine="9" d="M738.69,32.15 C673.75,47.97 555.44,76.77 488.7,93.02 " fill="none" id="com.javafwp-to-javafx.stage" style="stroke:#181818;stroke-width:1.0;"/><polygon fill="#181818" points="483.59,94.26,493.2819,96.0115,488.4474,93.0742,491.3846,88.2397,483.59,94.26" style="stroke:#181818;stroke-width:1.0;"/></g><!--MD5=[d331306a709f1b6ae0d3d5f97cc7b558]
link com.javafwp to javafx.scene.text--><g id="link_com.javafwp_javafx.scene.text"><path codeLine="10" d="M830.1,22.76 C959.92,28.28 1329.23,47.64 1440.5,93 C1486.36,111.7 1529.4,152.4 1551,175.02 " fill="none" id="com.javafwp-to-javafx.scene.text" style="stroke:#181818;stroke-width:1.0;"/><polygon fill="#181818" points="1554.53,178.76,1551.237,169.478,1551.0885,175.1329,1545.4336,174.9844,1554.53,178.76" style="stroke:#181818;stroke-width:1.0;"/></g><!--MD5=[92b166ab4d38390891b876873780c869]
link com.javafwp to com.javafwp.sprites--><g id="link_com.javafwp_com.javafwp.sprites"><path codeLine="11" d="M766.73,33.04 C744.54,48.07 706.58,73.79 682.55,90.06 " fill="none" id="com.javafwp-to-com.javafwp.sprites" style="stroke:#181818;stroke-width:1.0;"/><polygon fill="#181818" points="678.23,92.99,687.9265,91.2644,682.3726,90.1902,683.4468,84.6363,678.23,92.99" style="stroke:#181818;stroke-width:1.0;"/></g><!--MD5=[b84c14a58e0654185946a97831c826bf]
link com.javafwp to com.javafwp.sound--><g id="link_com.javafwp_com.javafwp.sound"><path codeLine="12" d="M830.06,26 C904.35,35.11 1046.72,56.88 1080.5,93 C1100.94,114.86 1101.5,152.04 1099.72,173.77 " fill="none" id="com.javafwp-to-com.javafwp.sound" style="stroke:#181818;stroke-width:1.0;"/><polygon fill="#181818" points="1099.23,178.95,1104.0595,170.3665,1099.7007,173.9722,1096.095,169.6134,1099.23,178.95" style="stroke:#181818;stroke-width:1.0;"/></g><!--MD5=[40879fb05e8c08e0d1505a3e43d98aca]
link com.javafwp to javafx.scene.shape--><g id="link_com.javafwp_javafx.scene.shape"><path codeLine="13" d="M780.95,33.09 C775.21,51.93 763.09,89.21 748.5,119 C738.69,139.04 724.75,160.55 714.99,174.78 " fill="none" id="com.javafwp-to-javafx.scene.shape" style="stroke:#181818;stroke-width:1.0;"/><polygon fill="#181818" points="712.11,178.96,720.517,173.8295,714.9523,174.8465,713.9354,169.2818,712.11,178.96" style="stroke:#181818;stroke-width:1.0;"/></g><!--MD5=[5f0d252cff2acf4103707ec4495a8a92]
link com.javafwp to com.javafwp.game.gameObjects--><g id="link_com.javafwp_com.javafwp.game.gameObjects"><path codeLine="14" d="M808.28,33.04 C838.36,48.26 890.09,74.43 922.17,90.67 " fill="none" id="com.javafwp-to-com.javafwp.game.gameObjects" style="stroke:#181818;stroke-width:1.0;"/><polygon fill="#181818" points="926.76,92.99,920.538,85.3554,922.2994,90.7311,916.9237,92.4925,926.76,92.99" style="stroke:#181818;stroke-width:1.0;"/></g><!--MD5=[7a7947ea1df1656744067a3be20128eb]
link com.javafwp to javafx.scene.paint--><g id="link_com.javafwp_javafx.scene.paint"><path codeLine="15" d="M738.85,25.08 C691.4,31.66 617.85,48.75 572.5,93 C550.02,114.94 541.47,152.09 538.3,173.8 " fill="none" id="com.javafwp-to-javafx.scene.paint" style="stroke:#181818;stroke-width:1.0;"/><polygon fill="#181818" points="537.61,178.97,542.758,170.5737,538.2671,174.0134,534.8274,169.5224,537.61,178.97" style="stroke:#181818;stroke-width:1.0;"/></g><!--MD5=[e2f5da6584cbe75804fafbd6aff1cd25]
link com.javafwp to com.javafwp.game.highscoreSystem--><g id="link_com.javafwp_com.javafwp.game.highscoreSystem"><path codeLine="16" d="M830.39,28.53 C917.97,42.9 1109.88,74.38 1218.15,92.15 " fill="none" id="com.javafwp-to-com.javafwp.game.highscoreSystem" style="stroke:#181818;stroke-width:1.0;"/><polygon fill="#181818" points="1223.24,92.98,1214.9972,87.5897,1218.3046,92.1789,1213.7154,95.4863,1223.24,92.98" style="stroke:#181818;stroke-width:1.0;"/></g><!--MD5=[5c2bf107eed12f7336d353c56b6115ec]
link com.javafwp to javafx.scene.layout--><g id="link_com.javafwp_javafx.scene.layout"><path codeLine="17" d="M830.32,25.18 C944.15,35.66 1248.87,64.27 1502.5,93 C1509.55,93.8 1516.88,94.66 1524.21,95.55 " fill="none" id="com.javafwp-to-javafx.scene.layout" style="stroke:#181818;stroke-width:1.0;"/><polygon fill="#181818" points="1529.29,96.17,1520.8502,91.0936,1524.328,95.5551,1519.8664,99.0328,1529.29,96.17" style="stroke:#181818;stroke-width:1.0;"/></g><!--MD5=[660743e89707d33a02bb255802828e5e]
link com.javafwp to javafx.scene.input--><g id="link_com.javafwp_javafx.scene.input"><path codeLine="18" d="M830.45,23.61 C963.02,31.39 1357.55,56.14 1683.5,93 C1687.32,93.43 1691.24,93.9 1695.19,94.4 " fill="none" id="com.javafwp-to-javafx.scene.input" style="stroke:#181818;stroke-width:1.0;"/><polygon fill="#181818" points="1700.2,95.05,1691.7892,89.9258,1695.2415,94.407,1690.7603,97.8593,1700.2,95.05" style="stroke:#181818;stroke-width:1.0;"/></g><!--MD5=[b4ffce0c4df2ea6a757f011713b52af9]
link com.javafwp.game.highscoreSystem to javafx.scene.text--><g id="link_com.javafwp.game.highscoreSystem_javafx.scene.text"><path codeLine="19" d="M1335.04,119.04 C1384.58,134.5 1470.36,161.29 1522.13,177.46 " fill="none" id="com.javafwp.game.highscoreSystem-to-javafx.scene.text" style="stroke:#181818;stroke-width:1.0;"/><polygon fill="#181818" points="1527.03,178.99,1519.6261,172.4952,1522.2561,177.5035,1517.2477,180.1335,1527.03,178.99" style="stroke:#181818;stroke-width:1.0;"/></g><!--MD5=[77ba756141908bd8b8611486def65ad8]
link com.javafwp.game.highscoreSystem to javafx.scene.control--><g id="link_com.javafwp.game.highscoreSystem_javafx.scene.control"><path codeLine="20" d="M1311.11,119.04 C1329.22,133.94 1360.08,159.36 1379.87,175.66 " fill="none" id="com.javafwp.game.highscoreSystem-to-javafx.scene.control" style="stroke:#181818;stroke-width:1.0;"/><polygon fill="#181818" points="1383.91,178.99,1379.518,170.1746,1380.0549,175.806,1374.4236,176.3428,1383.91,178.99" style="stroke:#181818;stroke-width:1.0;"/></g><!--MD5=[3771ddd45ff4932dab9c8591600f643d]
link com.javafwp.game.highscoreSystem to javafx.scene--><g id="link_com.javafwp.game.highscoreSystem_javafx.scene"><path codeLine="21" d="M1289.34,119.04 C1280.65,133.63 1265.96,158.3 1256.25,174.62 " fill="none" id="com.javafwp.game.highscoreSystem-to-javafx.scene" style="stroke:#181818;stroke-width:1.0;"/><polygon fill="#181818" points="1253.65,178.99,1261.6882,173.299,1256.2057,174.6925,1254.8122,169.21,1253.65,178.99" style="stroke:#181818;stroke-width:1.0;"/></g><!--MD5=[36233ed42c519836673219d44cdea30e]
link com.javafwp.game.gameObjects to javafx.scene.paint--><g id="link_com.javafwp.game.gameObjects_javafx.scene.paint"><path codeLine="22" d="M891.18,119.04 C814.17,134.66 680.26,161.83 600.86,177.94 " fill="none" id="com.javafwp.game.gameObjects-to-javafx.scene.paint" style="stroke:#181818;stroke-width:1.0;"/><polygon fill="#181818" points="595.71,178.99,605.3221,181.1365,600.6118,178.0039,603.7444,173.2936,595.71,178.99" style="stroke:#181818;stroke-width:1.0;"/></g><!--MD5=[7260401a429eb96cf851b8cded559f6d]
link com.javafwp.game.gameObjects to javafx.geometry--><g id="link_com.javafwp.game.gameObjects_javafx.geometry"><path codeLine="23" d="M938.18,119.04 C922.98,133.88 897.11,159.15 880.42,175.45 " fill="none" id="com.javafwp.game.gameObjects-to-javafx.geometry" style="stroke:#181818;stroke-width:1.0;"/><polygon fill="#181818" points="876.8,178.99,886.0345,175.5659,880.378,175.4975,880.4465,169.841,876.8,178.99" style="stroke:#181818;stroke-width:1.0;"/></g><!--MD5=[0d21a5b322aee729db3c9bf15c3dea22]
link com.javafwp.game.gameObjects to com.javafwp.game--><g id="link_com.javafwp.game.gameObjects_com.javafwp.game"><path codeLine="24" d="M950.57,119.23 C950.75,149 951.2,225.34 951.4,259.74 " fill="none" id="com.javafwp.game.gameObjects-to-com.javafwp.game" style="stroke:#181818;stroke-width:1.0;"/><polygon fill="#181818" points="951.43,264.88,955.3527,255.846,951.3871,259.8802,947.353,255.9146,951.43,264.88" style="stroke:#181818;stroke-width:1.0;"/></g><!--MD5=[4189b6d576d59b0b52be8589c7fa8d6c]
link com.javafwp.game.gameObjects to javafx.scene.shape--><g id="link_com.javafwp.game.gameObjects_javafx.scene.shape"><path codeLine="25" d="M915.11,119.04 C869.72,134.47 791.18,161.18 743.61,177.36 " fill="none" id="com.javafwp.game.gameObjects-to-javafx.scene.shape" style="stroke:#181818;stroke-width:1.0;"/><polygon fill="#181818" points="738.82,178.99,748.6297,179.8678,743.5519,177.3746,746.045,172.2968,738.82,178.99" style="stroke:#181818;stroke-width:1.0;"/></g><!--MD5=[8b85ea2600de1fb97c42790a94c84338]
link com.javafwp.game.gameObjects to javafx.scene--><g id="link_com.javafwp.game.gameObjects_javafx.scene"><path codeLine="26" d="M992.91,119.04 C1047.53,134.54 1142.19,161.4 1199.12,177.55 " fill="none" id="com.javafwp.game.gameObjects-to-javafx.scene" style="stroke:#181818;stroke-width:1.0;"/><polygon fill="#181818" points="1204.17,178.99,1196.6102,172.6773,1199.3613,177.6202,1194.4185,180.3713,1204.17,178.99" style="stroke:#181818;stroke-width:1.0;"/></g><!--MD5=[e085c1125aef9e031a0b4e1325b8f237]
link com.javafwp.game.gameObjects to com.javafwp.sound--><g id="link_com.javafwp.game.gameObjects_com.javafwp.sound"><path codeLine="27" d="M971.56,119.04 C998.09,134.19 1043.63,160.21 1072.07,176.47 " fill="none" id="com.javafwp.game.gameObjects-to-com.javafwp.sound" style="stroke:#181818;stroke-width:1.0;"/><polygon fill="#181818" points="1076.48,178.99,1070.6363,171.0621,1072.1344,176.517,1066.6795,178.0151,1076.48,178.99" style="stroke:#181818;stroke-width:1.0;"/></g><!--MD5=[1104db29bf5d93d51fb6bbe75695b232]
link com.javafwp.sprites to javafx.scene.paint--><g id="link_com.javafwp.sprites_javafx.scene.paint"><path codeLine="28" d="M642.73,119.04 C620.54,134.07 582.58,159.79 558.55,176.06 " fill="none" id="com.javafwp.sprites-to-javafx.scene.paint" style="stroke:#181818;stroke-width:1.0;"/><polygon fill="#181818" points="554.23,178.99,563.9265,177.2644,558.3726,176.1902,559.4468,170.6363,554.23,178.99" style="stroke:#181818;stroke-width:1.0;"/></g><!--MD5=[98b36c2eb8cc3a59fa56d8a10a18a262]
link com.javafwp.sound to javafx.scene.media--><g id="link_com.javafwp.sound_javafx.scene.media"><path codeLine="29" d="M1100.94,205.04 C1105.04,219.38 1111.92,243.46 1116.58,259.78 " fill="none" id="com.javafwp.sound-to-javafx.scene.media" style="stroke:#181818;stroke-width:1.0;"/><polygon fill="#181818" points="1118.07,264.99,1119.4513,255.2385,1116.7002,260.1813,1111.7573,257.4302,1118.07,264.99" style="stroke:#181818;stroke-width:1.0;"/></g><!--MD5=[a93d8c2592b21b9df92d0d5f4b551d1f]
link com.javafwp.sound to com.javafwp.game--><g id="link_com.javafwp.sound_com.javafwp.game"><path codeLine="30" d="M1076.58,205.04 C1050.24,220.19 1005.01,246.21 976.76,262.47 " fill="none" id="com.javafwp.sound-to-com.javafwp.game" style="stroke:#181818;stroke-width:1.0;"/><polygon fill="#181818" points="972.38,264.99,982.1741,263.9526,976.7097,262.4893,978.173,257.025,972.38,264.99" style="stroke:#181818;stroke-width:1.0;"/></g><rect height="11.7773" style="stroke:#00000000;stroke-width:1.0;fill:none;" width="182" x="820.75" y="296.4883"/><text fill="#888888" font-family="sans-serif" font-size="10" lengthAdjust="spacing" textLength="182" x="820.75" y="306.1563">UMLDoclet 2.0.17, PlantUML 1.2022.5</text><!--MD5=[d771f78fe92d69bf37bc178ee5cb6f0a]
@startuml
    set namespaceSeparator none
    hide circle
    hide empty fields
    hide empty methods

    com.javafwp - -> javafx.application
    com.javafwp - -> javafx.animation
    com.javafwp - -> com.javafwp.game
    com.javafwp - -> javafx.stage
    com.javafwp - -> javafx.scene.text
    com.javafwp - -> com.javafwp.sprites
    com.javafwp - -> com.javafwp.sound
    com.javafwp - -> javafx.scene.shape
    com.javafwp - -> com.javafwp.game.gameObjects
    com.javafwp - -> javafx.scene.paint
    com.javafwp - -> com.javafwp.game.highscoreSystem
    com.javafwp - -> javafx.scene.layout
    com.javafwp - -> javafx.scene.input
    com.javafwp.game.highscoreSystem - -> javafx.scene.text
    com.javafwp.game.highscoreSystem - -> javafx.scene.control
    com.javafwp.game.highscoreSystem - -> javafx.scene
    com.javafwp.game.gameObjects - -> javafx.scene.paint
    com.javafwp.game.gameObjects - -> javafx.geometry
    com.javafwp.game.gameObjects - -> com.javafwp.game
    com.javafwp.game.gameObjects - -> javafx.scene.shape
    com.javafwp.game.gameObjects - -> javafx.scene
    com.javafwp.game.gameObjects - -> com.javafwp.sound
    com.javafwp.sprites - -> javafx.scene.paint
    com.javafwp.sound - -> javafx.scene.media
    com.javafwp.sound - -> com.javafwp.game

    ' Package links
    class "com.javafwp" [[com/javafwp/package-summary.html]] {
    }
    class "com.javafwp.game" [[com/javafwp/game/package-summary.html]] {
    }
    class "com.javafwp.sprites" [[com/javafwp/sprites/package-summary.html]] {
    }
    class "com.javafwp.sound" [[com/javafwp/sound/package-summary.html]] {
    }
    class "com.javafwp.game.gameObjects" [[com/javafwp/game/gameObjects/package-summary.html]] {
    }
    class "com.javafwp.game.highscoreSystem" [[com/javafwp/game/highscoreSystem/package-summary.html]] {
    }

    center footer UMLDoclet 2.0.17, PlantUML 1.2022.5
@enduml

@startuml
    set namespaceSeparator none
    hide circle
    hide empty fields
    hide empty methods

    com.javafwp - -> javafx.application
    com.javafwp - -> javafx.animation
    com.javafwp - -> com.javafwp.game
    com.javafwp - -> javafx.stage
    com.javafwp - -> javafx.scene.text
    com.javafwp - -> com.javafwp.sprites
    com.javafwp - -> com.javafwp.sound
    com.javafwp - -> javafx.scene.shape
    com.javafwp - -> com.javafwp.game.gameObjects
    com.javafwp - -> javafx.scene.paint
    com.javafwp - -> com.javafwp.game.highscoreSystem
    com.javafwp - -> javafx.scene.layout
    com.javafwp - -> javafx.scene.input
    com.javafwp.game.highscoreSystem - -> javafx.scene.text
    com.javafwp.game.highscoreSystem - -> javafx.scene.control
    com.javafwp.game.highscoreSystem - -> javafx.scene
    com.javafwp.game.gameObjects - -> javafx.scene.paint
    com.javafwp.game.gameObjects - -> javafx.geometry
    com.javafwp.game.gameObjects - -> com.javafwp.game
    com.javafwp.game.gameObjects - -> javafx.scene.shape
    com.javafwp.game.gameObjects - -> javafx.scene
    com.javafwp.game.gameObjects - -> com.javafwp.sound
    com.javafwp.sprites - -> javafx.scene.paint
    com.javafwp.sound - -> javafx.scene.media
    com.javafwp.sound - -> com.javafwp.game

    class "com.javafwp" [[com/javafwp/package-summary.html]] {
    }
    class "com.javafwp.game" [[com/javafwp/game/package-summary.html]] {
    }
    class "com.javafwp.sprites" [[com/javafwp/sprites/package-summary.html]] {
    }
    class "com.javafwp.sound" [[com/javafwp/sound/package-summary.html]] {
    }
    class "com.javafwp.game.gameObjects" [[com/javafwp/game/gameObjects/package-summary.html]] {
    }
    class "com.javafwp.game.highscoreSystem" [[com/javafwp/game/highscoreSystem/package-summary.html]] {
    }

    center footer UMLDoclet 2.0.17, PlantUML 1.2022.5
@enduml

PlantUML version 1.2022.5(Sat Apr 30 12:55:52 CEST 2022)
(APACHE source distribution)
Java Runtime: OpenJDK Runtime Environment
JVM: OpenJDK 64-Bit Server VM
Default Encoding: UTF-8
Language: en
Country: DE
--></g></svg>