<?xml version="1.0" encoding="UTF-8" standalone="no"?><svg xmlns="http://www.w3.org/2000/svg" xmlns:xlink="http://www.w3.org/1999/xlink" contentStyleType="text/css" height="324px" preserveAspectRatio="none" style="width:1807px;height:324px;background:#FFFFFF;" version="1.1" viewBox="0 0 1807 324" width="1807px" zoomAndPan="magnify"><defs/><g><!--MD5=[cd43787fe916de52a1584e61cb754e92]
class com.javafwp--><a href="com\javafwp\package-summary.html" target="_top" title="com\javafwp\package-summary.html" xlink:actuate="onRequest" xlink:href="com\javafwp\package-summary.html" xlink:show="new" xlink:title="com\javafwp\package-summary.html" xlink:type="simple"><g id="elem_com.javafwp"><rect codeLine="34" fill="#F1F1F1" height="27.6094" id="com.javafwp" rx="2.5" ry="2.5" style="stroke:#181818;stroke-width:0.5;" width="83" x="777.5" y="7"/><text fill="#000000" font-family="sans-serif" font-size="14" lengthAdjust="spacing" textLength="77" x="780.5" y="26.5332">com.javafwp</text></g></a><!--MD5=[757901b4585b2052986e083412478a2f]
class javafx.application--><g id="elem_javafx.application"><rect fill="#F1F1F1" height="27.6094" id="javafx.application" rx="2.5" ry="2.5" style="stroke:#181818;stroke-width:0.5;" width="114" x="7" y="95"/><text fill="#000000" font-family="sans-serif" font-size="14" lengthAdjust="spacing" textLength="108" x="10" y="114.5332">javafx.application</text></g><!--MD5=[49bd5d998569edab8e18e58353f4c1c4]
class javafx.animation--><g id="elem_javafx.animation"><rect fill="#F1F1F1" height="27.6094" id="javafx.animation" rx="2.5" ry="2.5" style="stroke:#181818;stroke-width:0.5;" width="107" x="156.5" y="95"/><text fill="#000000" font-family="sans-serif" font-size="14" lengthAdjust="spacing" textLength="101" x="159.5" y="114.5332">javafx.animation</text></g><!--MD5=[9090366b3adc663e7caca156dcb58ddf]
class com.javafwp.game--><a href="com\javafwp\game\package-summary.html" target="_top" title="com\javafwp\game\package-summary.html" xlink:actuate="onRequest" xlink:href="com\javafwp\game\package-summary.html" xlink:show="new" xlink:title="com\javafwp\game\package-summary.html" xlink:type="simple"><g id="elem_com.javafwp.game"><rect codeLine="36" fill="#F1F1F1" height="27.6094" id="com.javafwp.game" rx="2.5" ry="2.5" style="stroke:#181818;stroke-width:0.5;" width="122" x="848" y="271"/><text fill="#000000" font-family="sans-serif" font-size="14" lengthAdjust="spacing" textLength="116" x="851" y="290.5332">com.javafwp.game</text></g></a><!--MD5=[706cb107120c83b065ef81c03352b3e7]
class javafx.stage--><g id="elem_javafx.stage"><rect fill="#F1F1F1" height="27.6094" id="javafx.stage" rx="2.5" ry="2.5" style="stroke:#181818;stroke-width:0.5;" width="81" x="370.5" y="95"/><text fill="#000000" font-family="sans-serif" font-size="14" lengthAdjust="spacing" textLength="75" x="373.5" y="114.5332">javafx.stage</text></g><!--MD5=[ba7f742f42240eb1c18035bb4becc881]
class javafx.scene.text--><g id="elem_javafx.scene.text"><rect fill="#F1F1F1" height="27.6094" id="javafx.scene.text" rx="2.5" ry="2.5" style="stroke:#181818;stroke-width:0.5;" width="110" x="1264" y="183"/><text fill="#000000" font-family="sans-serif" font-size="14" lengthAdjust="spacing" textLength="104" x="1267" y="202.5332">javafx.scene.text</text></g><!--MD5=[aec09770cbee9d568e9f0499e581894c]
class com.javafwp.sprites--><a href="com\javafwp\sprites\package-summary.html" target="_top" title="com\javafwp\sprites\package-summary.html" xlink:actuate="onRequest" xlink:href="com\javafwp\sprites\package-summary.html" xlink:show="new" xlink:title="com\javafwp\sprites\package-summary.html" xlink:type="simple"><g id="elem_com.javafwp.sprites"><rect codeLine="38" fill="#F1F1F1" height="27.6094" id="com.javafwp.sprites" rx="2.5" ry="2.5" style="stroke:#181818;stroke-width:0.5;" width="129" x="486.5" y="95"/><text fill="#000000" font-family="sans-serif" font-size="14" lengthAdjust="spacing" textLength="123" x="489.5" y="114.5332">com.javafwp.sprites</text></g></a><!--MD5=[9016767f2a2862b78f0fea3e57fcc1e8]
class com.javafwp.sound--><a href="com\javafwp\sound\package-summary.html" target="_top" title="com\javafwp\sound\package-summary.html" xlink:actuate="onRequest" xlink:href="com\javafwp\sound\package-summary.html" xlink:show="new" xlink:title="com\javafwp\sound\package-summary.html" xlink:type="simple"><g id="elem_com.javafwp.sound"><rect codeLine="40" fill="#F1F1F1" height="27.6094" id="com.javafwp.sound" rx="2.5" ry="2.5" style="stroke:#181818;stroke-width:0.5;" width="126" x="984" y="183"/><text fill="#000000" font-family="sans-serif" font-size="14" lengthAdjust="spacing" textLength="120" x="987" y="202.5332">com.javafwp.sound</text></g></a><!--MD5=[7de6b1539af6277b95d0b4d2130478d7]
class javafx.scene.shape--><g id="elem_javafx.scene.shape"><rect fill="#F1F1F1" height="27.6094" id="javafx.scene.shape" rx="2.5" ry="2.5" style="stroke:#181818;stroke-width:0.5;" width="127" x="610.5" y="183"/><text fill="#000000" font-family="sans-serif" font-size="14" lengthAdjust="spacing" textLength="121" x="613.5" y="202.5332">javafx.scene.shape</text></g><!--MD5=[cbe5f4aff5544463a31be21b7b821a65]
class com.javafwp.game.gameObjects--><a href="com\javafwp\game\gameObjects\package-summary.html" target="_top" title="com\javafwp\game\gameObjects\package-summary.html" xlink:actuate="onRequest" xlink:href="com\javafwp\game\gameObjects\package-summary.html" xlink:show="new" xlink:title="com\javafwp\game\gameObjects\package-summary.html" xlink:type="simple"><g id="elem_com.javafwp.game.gameObjects"><rect codeLine="42" fill="#F1F1F1" height="27.6094" id="com.javafwp.game.gameObjects" rx="2.5" ry="2.5" style="stroke:#181818;stroke-width:0.5;" width="209" x="793.5" y="95"/><text fill="#000000" font-family="sans-serif" font-size="14" lengthAdjust="spacing" textLength="203" x="796.5" y="114.5332">com.javafwp.game.gameObjects</text></g></a><!--MD5=[941a841a4283997e1b9401207870f633]
class javafx.scene.paint--><g id="elem_javafx.scene.paint"><rect fill="#F1F1F1" height="27.6094" id="javafx.scene.paint" rx="2.5" ry="2.5" style="stroke:#181818;stroke-width:0.5;" width="119" x="456.5" y="183"/><text fill="#000000" font-family="sans-serif" font-size="14" lengthAdjust="spacing" textLength="113" x="459.5" y="202.5332">javafx.scene.paint</text></g><!--MD5=[f7977e558710bb042f08cf22c5c498c6]
class com.javafwp.game.highscoreSystem--><a href="com\javafwp\game\highscoreSystem\package-summary.html" target="_top" title="com\javafwp\game\highscoreSystem\package-summary.html" xlink:actuate="onRequest" xlink:href="com\javafwp\game\highscoreSystem\package-summary.html" xlink:show="new" xlink:title="com\javafwp\game\highscoreSystem\package-summary.html" xlink:type="simple"><g id="elem_com.javafwp.game.highscoreSystem"><rect codeLine="44" fill="#F1F1F1" height="27.6094" id="com.javafwp.game.highscoreSystem" rx="2.5" ry="2.5" style="stroke:#181818;stroke-width:0.5;" width="234" x="1180" y="95"/><text fill="#000000" font-family="sans-serif" font-size="14" lengthAdjust="spacing" textLength="228" x="1183" y="114.5332">com.javafwp.game.highscoreSystem</text></g></a><!--MD5=[f3fac5395084164b5fd1cd391d283204]
class javafx.scene.control--><g id="elem_javafx.scene.control"><rect fill="#F1F1F1" height="27.6094" id="javafx.scene.control" rx="2.5" ry="2.5" style="stroke:#181818;stroke-width:0.5;" width="131" x="1409.5" y="183"/><text fill="#000000" font-family="sans-serif" font-size="14" lengthAdjust="spacing" textLength="125" x="1412.5" y="202.5332">javafx.scene.control</text></g><!--MD5=[ace0bab5442f7240afa42562f28b4083]
class javafx.scene.layout--><g id="elem_javafx.scene.layout"><rect fill="#F1F1F1" height="27.6094" id="javafx.scene.layout" rx="2.5" ry="2.5" style="stroke:#181818;stroke-width:0.5;" width="126" x="1520" y="95"/><text fill="#000000" font-family="sans-serif" font-size="14" lengthAdjust="spacing" textLength="120" x="1523" y="114.5332">javafx.scene.layout</text></g><!--MD5=[2f6d9b015fbbbb11ef7c4efdf8a9c49b]
class javafx.scene.input--><g id="elem_javafx.scene.input"><rect fill="#F1F1F1" height="27.6094" id="javafx.scene.input" rx="2.5" ry="2.5" style="stroke:#181818;stroke-width:0.5;" width="119" x="1681.5" y="95"/><text fill="#000000" font-family="sans-serif" font-size="14" lengthAdjust="spacing" textLength="113" x="1684.5" y="114.5332">javafx.scene.input</text></g><!--MD5=[23e25cee8b650c372ac97073a59401a4]
class javafx.geometry--><g id="elem_javafx.geometry"><rect fill="#F1F1F1" height="27.6094" id="javafx.geometry" rx="2.5" ry="2.5" style="stroke:#181818;stroke-width:0.5;" width="105" x="772.5" y="183"/><text fill="#000000" font-family="sans-serif" font-size="14" lengthAdjust="spacing" textLength="99" x="775.5" y="202.5332">javafx.geometry</text></g><!--MD5=[c18a28c10143dbfbc566a10952e74eb8]
class javafx.scene--><g id="elem_javafx.scene"><rect fill="#F1F1F1" height="27.6094" id="javafx.scene" rx="2.5" ry="2.5" style="stroke:#181818;stroke-width:0.5;" width="84" x="1145" y="183"/><text fill="#000000" font-family="sans-serif" font-size="14" lengthAdjust="spacing" textLength="78" x="1148" y="202.5332">javafx.scene</text></g><!--MD5=[16e30d1ab62912f417b40c138c1ad6b3]
class javafx.scene.media--><g id="elem_javafx.scene.media"><rect fill="#F1F1F1" height="27.6094" id="javafx.scene.media" rx="2.5" ry="2.5" style="stroke:#181818;stroke-width:0.5;" width="126" x="1005" y="271"/><text fill="#000000" font-family="sans-serif" font-size="14" lengthAdjust="spacing" textLength="120" x="1008" y="290.5332">javafx.scene.media</text></g><!--MD5=[22097d78c2555d49060b9b88d3645fa0]
link com.javafwp to javafx.application--><g id="link_com.javafwp_javafx.application"><path codeLine="6" d="M777.49,25.51 C671.09,34.72 380.05,61.21 139,95 C134.86,95.58 130.6,96.22 126.31,96.88 " fill="none" id="com.javafwp-to-javafx.application" style="stroke:#181818;stroke-width:1.0;"/><polygon fill="#181818" points="121.27,97.68,130.7864,100.2175,126.208,96.8951,129.5304,92.3167,121.27,97.68" style="stroke:#181818;stroke-width:1.0;"/></g><!--MD5=[a06a2fc4df949cf19e623b6934463172]
link com.javafwp to javafx.animation--><g id="link_com.javafwp_javafx.animation"><path codeLine="7" d="M777.2,27.46 C687.87,39.21 471.76,68 291,95 C283.79,96.08 276.22,97.24 268.73,98.42 " fill="none" id="com.javafwp-to-javafx.animation" style="stroke:#181818;stroke-width:1.0;"/><polygon fill="#181818" points="263.57,99.23,273.0875,101.7632,268.5076,98.4428,271.828,93.863,263.57,99.23" style="stroke:#181818;stroke-width:1.0;"/></g><!--MD5=[63275ece16e26e17f4e9993538ccadf3]
link com.javafwp to com.javafwp.game--><g id="link_com.javafwp_com.javafwp.game"><path codeLine="8" d="M777.38,21.94 C673.56,22.78 407.57,31.22 353,95 C344.91,104.46 348.3,111.48 353,123 C373.64,173.64 390.38,185.97 439,211 C508.2,246.63 730.33,269.37 842.65,278.88 " fill="none" id="com.javafwp-to-com.javafwp.game" style="stroke:#181818;stroke-width:1.0;"/><polygon fill="#181818" points="847.91,279.33,839.2721,274.5985,842.9272,278.916,838.6097,282.571,847.91,279.33" style="stroke:#181818;stroke-width:1.0;"/></g><!--MD5=[bbea8024e6f5a833c147a745fb78447c]
link com.javafwp to javafx.stage--><g id="link_com.javafwp_javafx.stage"><path codeLine="9" d="M777.47,30.45 C711.88,43.85 580.33,70.92 469,95 C464.94,95.88 460.72,96.8 456.5,97.73 " fill="none" id="com.javafwp-to-javafx.stage" style="stroke:#181818;stroke-width:1.0;"/><polygon fill="#181818" points="451.55,98.83,461.2034,100.7824,456.4309,97.7453,459.468,92.9729,451.55,98.83" style="stroke:#181818;stroke-width:1.0;"/></g><!--MD5=[d331306a709f1b6ae0d3d5f97cc7b558]
link com.javafwp to javafx.scene.text--><g id="link_com.javafwp_javafx.scene.text"><path codeLine="10" d="M860.86,34.14 C908.06,48.02 986.97,71.84 1054,95 C1136.05,123.35 1230.78,160.56 1281.8,180.97 " fill="none" id="com.javafwp-to-javafx.scene.text" style="stroke:#181818;stroke-width:1.0;"/><polygon fill="#181818" points="1286.6,182.9,1279.7293,175.8436,1281.9576,181.043,1276.7581,183.2714,1286.6,182.9" style="stroke:#181818;stroke-width:1.0;"/></g><!--MD5=[92b166ab4d38390891b876873780c869]
link com.javafwp to com.javafwp.sprites--><g id="link_com.javafwp_com.javafwp.sprites"><path codeLine="11" d="M778.3,35.06 C729.36,50.77 647.46,77.05 596.48,93.41 " fill="none" id="com.javafwp-to-com.javafwp.sprites" style="stroke:#181818;stroke-width:1.0;"/><polygon fill="#181818" points="591.65,94.96,601.4413,96.0235,596.4116,93.4346,599.0006,88.4049,591.65,94.96" style="stroke:#181818;stroke-width:1.0;"/></g><!--MD5=[b84c14a58e0654185946a97831c826bf]
link com.javafwp to com.javafwp.sound--><g id="link_com.javafwp_com.javafwp.sound"><path codeLine="12" d="M860.62,25.88 C906.21,32.36 978.36,49.56 1020,95 C1041,117.92 1045.99,155.38 1046.99,177.66 " fill="none" id="com.javafwp-to-com.javafwp.sound" style="stroke:#181818;stroke-width:1.0;"/><polygon fill="#181818" points="1047.16,182.72,1050.8493,173.5882,1046.9887,177.7229,1042.854,173.8623,1047.16,182.72" style="stroke:#181818;stroke-width:1.0;"/></g><!--MD5=[40879fb05e8c08e0d1505a3e43d98aca]
link com.javafwp to javafx.scene.shape--><g id="link_com.javafwp_javafx.scene.shape"><path codeLine="13" d="M808.1,35.08 C782.28,66.06 717.37,143.96 688.38,178.75 " fill="none" id="com.javafwp-to-javafx.scene.shape" style="stroke:#181818;stroke-width:1.0;"/><polygon fill="#181818" points="685.03,182.77,693.863,178.4135,688.2295,178.9277,687.7153,173.2943,685.03,182.77" style="stroke:#181818;stroke-width:1.0;"/></g><!--MD5=[5f0d252cff2acf4103707ec4495a8a92]
link com.javafwp to com.javafwp.game.gameObjects--><g id="link_com.javafwp_com.javafwp.game.gameObjects"><path codeLine="14" d="M831,35.06 C844.69,49.96 867.12,74.39 882.22,90.82 " fill="none" id="com.javafwp-to-com.javafwp.game.gameObjects" style="stroke:#181818;stroke-width:1.0;"/><polygon fill="#181818" points="885.89,94.82,882.7292,85.4921,882.5004,91.1443,876.8482,90.9155,885.89,94.82" style="stroke:#181818;stroke-width:1.0;"/></g><!--MD5=[7a7947ea1df1656744067a3be20128eb]
link com.javafwp to javafx.scene.paint--><g id="link_com.javafwp_javafx.scene.paint"><path codeLine="15" d="M796.23,35.08 C741.5,66.51 602.75,146.18 543.5,180.21 " fill="none" id="com.javafwp-to-javafx.scene.paint" style="stroke:#181818;stroke-width:1.0;"/><polygon fill="#181818" points="539.04,182.77,548.8355,181.7465,543.3733,180.2755,544.8443,174.8133,539.04,182.77" style="stroke:#181818;stroke-width:1.0;"/></g><!--MD5=[e2f5da6584cbe75804fafbd6aff1cd25]
link com.javafwp to com.javafwp.game.highscoreSystem--><g id="link_com.javafwp_com.javafwp.game.highscoreSystem"><path codeLine="16" d="M860.58,29.48 C940.55,43.87 1116.89,75.59 1219.25,94.01 " fill="none" id="com.javafwp-to-com.javafwp.game.highscoreSystem" style="stroke:#181818;stroke-width:1.0;"/><polygon fill="#181818" points="1224.37,94.93,1216.2222,89.3971,1219.4493,94.0431,1214.8032,97.2702,1224.37,94.93" style="stroke:#181818;stroke-width:1.0;"/></g><!--MD5=[dd182e3d9fc22e6493f6faffded1e551]
link com.javafwp to javafx.scene.control--><g id="link_com.javafwp_javafx.scene.control"><path codeLine="17" d="M860.78,21.69 C983.76,21.56 1341.54,27.17 1432,95 C1458.65,114.98 1468.95,154.76 1472.81,177.99 " fill="none" id="com.javafwp-to-javafx.scene.control" style="stroke:#181818;stroke-width:1.0;"/><polygon fill="#181818" points="1473.58,182.96,1476.1712,173.4581,1472.8229,178.0176,1468.2634,174.6694,1473.58,182.96" style="stroke:#181818;stroke-width:1.0;"/></g><!--MD5=[5c2bf107eed12f7336d353c56b6115ec]
link com.javafwp to javafx.scene.layout--><g id="link_com.javafwp_javafx.scene.layout"><path codeLine="18" d="M860.86,26.01 C966.83,36.28 1254.21,64.83 1493,95 C1500,95.88 1507.3,96.86 1514.58,97.86 " fill="none" id="com.javafwp-to-javafx.scene.layout" style="stroke:#181818;stroke-width:1.0;"/><polygon fill="#181818" points="1519.61,98.56,1511.245,93.3612,1514.6574,97.8729,1510.1457,101.2853,1519.61,98.56" style="stroke:#181818;stroke-width:1.0;"/></g><!--MD5=[660743e89707d33a02bb255802828e5e]
link com.javafwp to javafx.scene.input--><g id="link_com.javafwp_javafx.scene.input"><path codeLine="19" d="M860.89,24.41 C984.27,31.78 1356.89,55.88 1664,95 C1667.97,95.51 1672.05,96.07 1676.16,96.67 " fill="none" id="com.javafwp-to-javafx.scene.input" style="stroke:#181818;stroke-width:1.0;"/><polygon fill="#181818" points="1681.38,97.44,1673.0595,92.1703,1676.4334,96.7109,1671.8929,100.0848,1681.38,97.44" style="stroke:#181818;stroke-width:1.0;"/></g><!--MD5=[36233ed42c519836673219d44cdea30e]
link com.javafwp.game.gameObjects to javafx.scene.paint--><g id="link_com.javafwp.game.gameObjects_javafx.scene.paint"><path codeLine="20" d="M839.98,123.06 C769.66,138.89 651.6,165.47 579.08,181.8 " fill="none" id="com.javafwp.game.gameObjects-to-javafx.scene.paint" style="stroke:#181818;stroke-width:1.0;"/><polygon fill="#181818" points="573.94,182.96,583.5988,184.8855,578.8179,181.8618,581.8416,177.0809,573.94,182.96" style="stroke:#181818;stroke-width:1.0;"/></g><!--MD5=[7260401a429eb96cf851b8cded559f6d]
link com.javafwp.game.gameObjects to javafx.geometry--><g id="link_com.javafwp.game.gameObjects_javafx.geometry"><path codeLine="21" d="M886.91,123.06 C874.26,137.96 853.53,162.39 839.58,178.82 " fill="none" id="com.javafwp.game.gameObjects-to-javafx.geometry" style="stroke:#181818;stroke-width:1.0;"/><polygon fill="#181818" points="836.19,182.82,845.0671,178.5541,839.4287,179.0107,838.9721,173.3723,836.19,182.82" style="stroke:#181818;stroke-width:1.0;"/></g><!--MD5=[4189b6d576d59b0b52be8589c7fa8d6c]
link com.javafwp.game.gameObjects to javafx.scene.shape--><g id="link_com.javafwp.game.gameObjects_javafx.scene.shape"><path codeLine="22" d="M863.98,123.06 C823.32,138.67 755.45,164.73 712.79,181.11 " fill="none" id="com.javafwp.game.gameObjects-to-javafx.scene.shape" style="stroke:#181818;stroke-width:1.0;"/><polygon fill="#181818" points="707.97,182.96,717.8063,183.4565,712.6356,181.1622,714.9299,175.9915,707.97,182.96" style="stroke:#181818;stroke-width:1.0;"/></g><!--MD5=[8b85ea2600de1fb97c42790a94c84338]
link com.javafwp.game.gameObjects to javafx.scene--><g id="link_com.javafwp.game.gameObjects_javafx.scene"><path codeLine="23" d="M941.89,123.06 C995.23,138.93 1084.88,165.61 1139.71,181.93 " fill="none" id="com.javafwp.game.gameObjects-to-javafx.scene" style="stroke:#181818;stroke-width:1.0;"/><polygon fill="#181818" points="1144.58,183.38,1137.0949,176.9789,1139.7877,181.9537,1134.8129,184.6465,1144.58,183.38" style="stroke:#181818;stroke-width:1.0;"/></g><!--MD5=[0d21a5b322aee729db3c9bf15c3dea22]
link com.javafwp.game.gameObjects to com.javafwp.game--><g id="link_com.javafwp.game.gameObjects_com.javafwp.game"><path codeLine="24" d="M898.83,123.08 C900.76,153.69 905.59,230.06 907.83,265.45 " fill="none" id="com.javafwp.game.gameObjects-to-com.javafwp.game" style="stroke:#181818;stroke-width:1.0;"/><polygon fill="#181818" points="908.16,270.77,911.5859,261.5362,907.8454,265.7799,903.6017,262.0395,908.16,270.77" style="stroke:#181818;stroke-width:1.0;"/></g><!--MD5=[e085c1125aef9e031a0b4e1325b8f237]
link com.javafwp.game.gameObjects to com.javafwp.sound--><g id="link_com.javafwp.game.gameObjects_com.javafwp.sound"><path codeLine="25" d="M920.63,123.06 C947.21,138.4 991.29,163.84 1019.73,180.26 " fill="none" id="com.javafwp.game.gameObjects-to-com.javafwp.sound" style="stroke:#181818;stroke-width:1.0;"/><polygon fill="#181818" points="1024.16,182.82,1018.367,174.855,1019.8303,180.3193,1014.3659,181.7826,1024.16,182.82" style="stroke:#181818;stroke-width:1.0;"/></g><!--MD5=[b4ffce0c4df2ea6a757f011713b52af9]
link com.javafwp.game.highscoreSystem to javafx.scene.text--><g id="link_com.javafwp.game.highscoreSystem_javafx.scene.text"><path codeLine="26" d="M1300.34,123.06 C1304.06,137.58 1310.09,161.15 1314.28,177.55 " fill="none" id="com.javafwp.game.highscoreSystem-to-javafx.scene.text" style="stroke:#181818;stroke-width:1.0;"/><polygon fill="#181818" points="1315.63,182.82,1317.2672,173.1082,1314.3871,177.9769,1309.5183,175.0968,1315.63,182.82" style="stroke:#181818;stroke-width:1.0;"/></g><!--MD5=[77ba756141908bd8b8611486def65ad8]
link com.javafwp.game.highscoreSystem to javafx.scene.control--><g id="link_com.javafwp.game.highscoreSystem_javafx.scene.control"><path codeLine="27" d="M1324.03,123.06 C1356.01,138.51 1409.19,164.2 1443.14,180.61 " fill="none" id="com.javafwp.game.highscoreSystem-to-javafx.scene.control" style="stroke:#181818;stroke-width:1.0;"/><polygon fill="#181818" points="1448,182.96,1441.6327,175.4462,1443.4969,180.7871,1438.156,182.6512,1448,182.96" style="stroke:#181818;stroke-width:1.0;"/></g><!--MD5=[3771ddd45ff4932dab9c8591600f643d]
link com.javafwp.game.highscoreSystem to javafx.scene--><g id="link_com.javafwp.game.highscoreSystem_javafx.scene"><path codeLine="28" d="M1280.29,123.06 C1260.91,138.22 1228.93,163.22 1207.91,179.65 " fill="none" id="com.javafwp.game.highscoreSystem-to-javafx.scene" style="stroke:#181818;stroke-width:1.0;"/><polygon fill="#181818" points="1203.86,182.82,1213.414,180.4279,1207.799,179.7404,1208.4866,174.1255,1203.86,182.82" style="stroke:#181818;stroke-width:1.0;"/></g><!--MD5=[98b36c2eb8cc3a59fa56d8a10a18a262]
link com.javafwp.sound to javafx.scene.media--><g id="link_com.javafwp.sound_javafx.scene.media"><path codeLine="29" d="M1050.19,211.06 C1053.74,225.58 1059.49,249.15 1063.5,265.55 " fill="none" id="com.javafwp.sound-to-javafx.scene.media" style="stroke:#181818;stroke-width:1.0;"/><polygon fill="#181818" points="1064.78,270.82,1066.5315,261.1281,1063.5942,265.9626,1058.7597,263.0254,1064.78,270.82" style="stroke:#181818;stroke-width:1.0;"/></g><!--MD5=[a93d8c2592b21b9df92d0d5f4b551d1f]
link com.javafwp.sound to com.javafwp.game--><g id="link_com.javafwp.sound_com.javafwp.game"><path codeLine="30" d="M1026.04,211.06 C1001.52,226.34 960.93,251.63 934.58,268.06 " fill="none" id="com.javafwp.sound-to-com.javafwp.game" style="stroke:#181818;stroke-width:1.0;"/><polygon fill="#181818" points="930.16,270.82,939.9107,269.4332,934.3976,268.1662,935.6646,262.653,930.16,270.82" style="stroke:#181818;stroke-width:1.0;"/></g><!--MD5=[1104db29bf5d93d51fb6bbe75695b232]
link com.javafwp.sprites to javafx.scene.paint--><g id="link_com.javafwp.sprites_javafx.scene.paint"><path codeLine="31" d="M545.68,123.06 C539.72,137.71 530.02,161.56 523.33,177.98 " fill="none" id="com.javafwp.sprites-to-javafx.scene.paint" style="stroke:#181818;stroke-width:1.0;"/><polygon fill="#181818" points="521.37,182.82,528.47,175.9944,523.2565,178.1895,521.0613,172.976,521.37,182.82" style="stroke:#181818;stroke-width:1.0;"/></g><rect height="12.5781" style="stroke:#00000000;stroke-width:1.0;fill:none;" width="184" x="804.75" y="303.6094"/><text fill="#888888" font-family="sans-serif" font-size="10" lengthAdjust="spacing" textLength="184" x="804.75" y="313.9902">UMLDoclet 2.0.17, PlantUML 1.2022.5</text><!--MD5=[fb36c84c63f35f348523abfe70b34ac4]
@startuml
    set namespaceSeparator none
    hide circle
    hide empty fields
    hide empty methods

    com.javafwp - -> javafx.application
    com.javafwp - -> javafx.animation
    com.javafwp - -> com.javafwp.game
    com.javafwp - -> javafx.stage
    com.javafwp - -> javafx.scene.text
    com.javafwp - -> com.javafwp.sprites
    com.javafwp - -> com.javafwp.sound
    com.javafwp - -> javafx.scene.shape
    com.javafwp - -> com.javafwp.game.gameObjects
    com.javafwp - -> javafx.scene.paint
    com.javafwp - -> com.javafwp.game.highscoreSystem
    com.javafwp - -> javafx.scene.control
    com.javafwp - -> javafx.scene.layout
    com.javafwp - -> javafx.scene.input
    com.javafwp.game.gameObjects - -> javafx.scene.paint
    com.javafwp.game.gameObjects - -> javafx.geometry
    com.javafwp.game.gameObjects - -> javafx.scene.shape
    com.javafwp.game.gameObjects - -> javafx.scene
    com.javafwp.game.gameObjects - -> com.javafwp.game
    com.javafwp.game.gameObjects - -> com.javafwp.sound
    com.javafwp.game.highscoreSystem - -> javafx.scene.text
    com.javafwp.game.highscoreSystem - -> javafx.scene.control
    com.javafwp.game.highscoreSystem - -> javafx.scene
    com.javafwp.sound - -> javafx.scene.media
    com.javafwp.sound - -> com.javafwp.game
    com.javafwp.sprites - -> javafx.scene.paint

    ' Package links
    class "com.javafwp" [[com\javafwp\package-summary.html]] {
    }
    class "com.javafwp.game" [[com\javafwp\game\package-summary.html]] {
    }
    class "com.javafwp.sprites" [[com\javafwp\sprites\package-summary.html]] {
    }
    class "com.javafwp.sound" [[com\javafwp\sound\package-summary.html]] {
    }
    class "com.javafwp.game.gameObjects" [[com\javafwp\game\gameObjects\package-summary.html]] {
    }
    class "com.javafwp.game.highscoreSystem" [[com\javafwp\game\highscoreSystem\package-summary.html]] {
    }

    center footer UMLDoclet 2.0.17, PlantUML 1.2022.5
@enduml

@startuml
    set namespaceSeparator none
    hide circle
    hide empty fields
    hide empty methods

    com.javafwp - -> javafx.application
    com.javafwp - -> javafx.animation
    com.javafwp - -> com.javafwp.game
    com.javafwp - -> javafx.stage
    com.javafwp - -> javafx.scene.text
    com.javafwp - -> com.javafwp.sprites
    com.javafwp - -> com.javafwp.sound
    com.javafwp - -> javafx.scene.shape
    com.javafwp - -> com.javafwp.game.gameObjects
    com.javafwp - -> javafx.scene.paint
    com.javafwp - -> com.javafwp.game.highscoreSystem
    com.javafwp - -> javafx.scene.control
    com.javafwp - -> javafx.scene.layout
    com.javafwp - -> javafx.scene.input
    com.javafwp.game.gameObjects - -> javafx.scene.paint
    com.javafwp.game.gameObjects - -> javafx.geometry
    com.javafwp.game.gameObjects - -> javafx.scene.shape
    com.javafwp.game.gameObjects - -> javafx.scene
    com.javafwp.game.gameObjects - -> com.javafwp.game
    com.javafwp.game.gameObjects - -> com.javafwp.sound
    com.javafwp.game.highscoreSystem - -> javafx.scene.text
    com.javafwp.game.highscoreSystem - -> javafx.scene.control
    com.javafwp.game.highscoreSystem - -> javafx.scene
    com.javafwp.sound - -> javafx.scene.media
    com.javafwp.sound - -> com.javafwp.game
    com.javafwp.sprites - -> javafx.scene.paint

    class "com.javafwp" [[com\javafwp\package-summary.html]] {
    }
    class "com.javafwp.game" [[com\javafwp\game\package-summary.html]] {
    }
    class "com.javafwp.sprites" [[com\javafwp\sprites\package-summary.html]] {
    }
    class "com.javafwp.sound" [[com\javafwp\sound\package-summary.html]] {
    }
    class "com.javafwp.game.gameObjects" [[com\javafwp\game\gameObjects\package-summary.html]] {
    }
    class "com.javafwp.game.highscoreSystem" [[com\javafwp\game\highscoreSystem\package-summary.html]] {
    }

    center footer UMLDoclet 2.0.17, PlantUML 1.2022.5
@enduml

PlantUML version 1.2022.5(Sat Apr 30 12:55:52 CEST 2022)
(APACHE source distribution)
Java Runtime: Java(TM) SE Runtime Environment
JVM: Java HotSpot(TM) 64-Bit Server VM
Default Encoding: UTF-8
Language: de
Country: DE
--></g></svg>