<?xml version="1.0" encoding="UTF-8" standalone="no"?><svg xmlns="http://www.w3.org/2000/svg" xmlns:xlink="http://www.w3.org/1999/xlink" contentStyleType="text/css" height="324px" preserveAspectRatio="none" style="width:1737px;height:324px;background:#FFFFFF;" version="1.1" viewBox="0 0 1737 324" width="1737px" zoomAndPan="magnify"><defs/><g><!--MD5=[cd43787fe916de52a1584e61cb754e92]
class com.javafwp--><a href="com\javafwp\package-summary.html" target="_top" title="com\javafwp\package-summary.html" xlink:actuate="onRequest" xlink:href="com\javafwp\package-summary.html" xlink:show="new" xlink:title="com\javafwp\package-summary.html" xlink:type="simple"><g id="elem_com.javafwp"><rect codeLine="33" fill="#F1F1F1" height="27.6094" id="com.javafwp" rx="2.5" ry="2.5" style="stroke:#181818;stroke-width:0.5;" width="83" x="699.5" y="7"/><text fill="#000000" font-family="sans-serif" font-size="14" lengthAdjust="spacing" textLength="77" x="702.5" y="26.5332">com.javafwp</text></g></a><!--MD5=[757901b4585b2052986e083412478a2f]
class javafx.application--><g id="elem_javafx.application"><rect fill="#F1F1F1" height="27.6094" id="javafx.application" rx="2.5" ry="2.5" style="stroke:#181818;stroke-width:0.5;" width="114" x="7" y="95"/><text fill="#000000" font-family="sans-serif" font-size="14" lengthAdjust="spacing" textLength="108" x="10" y="114.5332">javafx.application</text></g><!--MD5=[49bd5d998569edab8e18e58353f4c1c4]
class javafx.animation--><g id="elem_javafx.animation"><rect fill="#F1F1F1" height="27.6094" id="javafx.animation" rx="2.5" ry="2.5" style="stroke:#181818;stroke-width:0.5;" width="107" x="156.5" y="95"/><text fill="#000000" font-family="sans-serif" font-size="14" lengthAdjust="spacing" textLength="101" x="159.5" y="114.5332">javafx.animation</text></g><!--MD5=[9090366b3adc663e7caca156dcb58ddf]
class com.javafwp.game--><a href="com\javafwp\game\package-summary.html" target="_top" title="com\javafwp\game\package-summary.html" xlink:actuate="onRequest" xlink:href="com\javafwp\game\package-summary.html" xlink:show="new" xlink:title="com\javafwp\game\package-summary.html" xlink:type="simple"><g id="elem_com.javafwp.game"><rect codeLine="35" fill="#F1F1F1" height="27.6094" id="com.javafwp.game" rx="2.5" ry="2.5" style="stroke:#181818;stroke-width:0.5;" width="122" x="837" y="271"/><text fill="#000000" font-family="sans-serif" font-size="14" lengthAdjust="spacing" textLength="116" x="840" y="290.5332">com.javafwp.game</text></g></a><!--MD5=[706cb107120c83b065ef81c03352b3e7]
class javafx.stage--><g id="elem_javafx.stage"><rect fill="#F1F1F1" height="27.6094" id="javafx.stage" rx="2.5" ry="2.5" style="stroke:#181818;stroke-width:0.5;" width="81" x="370.5" y="95"/><text fill="#000000" font-family="sans-serif" font-size="14" lengthAdjust="spacing" textLength="75" x="373.5" y="114.5332">javafx.stage</text></g><!--MD5=[ba7f742f42240eb1c18035bb4becc881]
class javafx.scene.text--><g id="elem_javafx.scene.text"><rect fill="#F1F1F1" height="27.6094" id="javafx.scene.text" rx="2.5" ry="2.5" style="stroke:#181818;stroke-width:0.5;" width="110" x="1420" y="183"/><text fill="#000000" font-family="sans-serif" font-size="14" lengthAdjust="spacing" textLength="104" x="1423" y="202.5332">javafx.scene.text</text></g><!--MD5=[aec09770cbee9d568e9f0499e581894c]
class com.javafwp.sprites--><a href="com\javafwp\sprites\package-summary.html" target="_top" title="com\javafwp\sprites\package-summary.html" xlink:actuate="onRequest" xlink:href="com\javafwp\sprites\package-summary.html" xlink:show="new" xlink:title="com\javafwp\sprites\package-summary.html" xlink:type="simple"><g id="elem_com.javafwp.sprites"><rect codeLine="37" fill="#F1F1F1" height="27.6094" id="com.javafwp.sprites" rx="2.5" ry="2.5" style="stroke:#181818;stroke-width:0.5;" width="129" x="558.5" y="95"/><text fill="#000000" font-family="sans-serif" font-size="14" lengthAdjust="spacing" textLength="123" x="561.5" y="114.5332">com.javafwp.sprites</text></g></a><!--MD5=[9016767f2a2862b78f0fea3e57fcc1e8]
class com.javafwp.sound--><a href="com\javafwp\sound\package-summary.html" target="_top" title="com\javafwp\sound\package-summary.html" xlink:actuate="onRequest" xlink:href="com\javafwp\sound\package-summary.html" xlink:show="new" xlink:title="com\javafwp\sound\package-summary.html" xlink:type="simple"><g id="elem_com.javafwp.sound"><rect codeLine="39" fill="#F1F1F1" height="27.6094" id="com.javafwp.sound" rx="2.5" ry="2.5" style="stroke:#181818;stroke-width:0.5;" width="126" x="973" y="183"/><text fill="#000000" font-family="sans-serif" font-size="14" lengthAdjust="spacing" textLength="120" x="976" y="202.5332">com.javafwp.sound</text></g></a><!--MD5=[7de6b1539af6277b95d0b4d2130478d7]
class javafx.scene.shape--><g id="elem_javafx.scene.shape"><rect fill="#F1F1F1" height="27.6094" id="javafx.scene.shape" rx="2.5" ry="2.5" style="stroke:#181818;stroke-width:0.5;" width="127" x="599.5" y="183"/><text fill="#000000" font-family="sans-serif" font-size="14" lengthAdjust="spacing" textLength="121" x="602.5" y="202.5332">javafx.scene.shape</text></g><!--MD5=[cbe5f4aff5544463a31be21b7b821a65]
class com.javafwp.game.gameObjects--><a href="com\javafwp\game\gameObjects\package-summary.html" target="_top" title="com\javafwp\game\gameObjects\package-summary.html" xlink:actuate="onRequest" xlink:href="com\javafwp\game\gameObjects\package-summary.html" xlink:show="new" xlink:title="com\javafwp\game\gameObjects\package-summary.html" xlink:type="simple"><g id="elem_com.javafwp.game.gameObjects"><rect codeLine="41" fill="#F1F1F1" height="27.6094" id="com.javafwp.game.gameObjects" rx="2.5" ry="2.5" style="stroke:#181818;stroke-width:0.5;" width="209" x="794.5" y="95"/><text fill="#000000" font-family="sans-serif" font-size="14" lengthAdjust="spacing" textLength="203" x="797.5" y="114.5332">com.javafwp.game.gameObjects</text></g></a><!--MD5=[941a841a4283997e1b9401207870f633]
class javafx.scene.paint--><g id="elem_javafx.scene.paint"><rect fill="#F1F1F1" height="27.6094" id="javafx.scene.paint" rx="2.5" ry="2.5" style="stroke:#181818;stroke-width:0.5;" width="119" x="445.5" y="183"/><text fill="#000000" font-family="sans-serif" font-size="14" lengthAdjust="spacing" textLength="113" x="448.5" y="202.5332">javafx.scene.paint</text></g><!--MD5=[f7977e558710bb042f08cf22c5c498c6]
class com.javafwp.game.highscoreSystem--><a href="com\javafwp\game\highscoreSystem\package-summary.html" target="_top" title="com\javafwp\game\highscoreSystem\package-summary.html" xlink:actuate="onRequest" xlink:href="com\javafwp\game\highscoreSystem\package-summary.html" xlink:show="new" xlink:title="com\javafwp\game\highscoreSystem\package-summary.html" xlink:type="simple"><g id="elem_com.javafwp.game.highscoreSystem"><rect codeLine="43" fill="#F1F1F1" height="27.6094" id="com.javafwp.game.highscoreSystem" rx="2.5" ry="2.5" style="stroke:#181818;stroke-width:0.5;" width="234" x="1110" y="95"/><text fill="#000000" font-family="sans-serif" font-size="14" lengthAdjust="spacing" textLength="228" x="1113" y="114.5332">com.javafwp.game.highscoreSystem</text></g></a><!--MD5=[ace0bab5442f7240afa42562f28b4083]
class javafx.scene.layout--><g id="elem_javafx.scene.layout"><rect fill="#F1F1F1" height="27.6094" id="javafx.scene.layout" rx="2.5" ry="2.5" style="stroke:#181818;stroke-width:0.5;" width="126" x="1450" y="95"/><text fill="#000000" font-family="sans-serif" font-size="14" lengthAdjust="spacing" textLength="120" x="1453" y="114.5332">javafx.scene.layout</text></g><!--MD5=[2f6d9b015fbbbb11ef7c4efdf8a9c49b]
class javafx.scene.input--><g id="elem_javafx.scene.input"><rect fill="#F1F1F1" height="27.6094" id="javafx.scene.input" rx="2.5" ry="2.5" style="stroke:#181818;stroke-width:0.5;" width="119" x="1611.5" y="95"/><text fill="#000000" font-family="sans-serif" font-size="14" lengthAdjust="spacing" textLength="113" x="1614.5" y="114.5332">javafx.scene.input</text></g><!--MD5=[23e25cee8b650c372ac97073a59401a4]
class javafx.geometry--><g id="elem_javafx.geometry"><rect fill="#F1F1F1" height="27.6094" id="javafx.geometry" rx="2.5" ry="2.5" style="stroke:#181818;stroke-width:0.5;" width="105" x="761.5" y="183"/><text fill="#000000" font-family="sans-serif" font-size="14" lengthAdjust="spacing" textLength="99" x="764.5" y="202.5332">javafx.geometry</text></g><!--MD5=[c18a28c10143dbfbc566a10952e74eb8]
class javafx.scene--><g id="elem_javafx.scene"><rect fill="#F1F1F1" height="27.6094" id="javafx.scene" rx="2.5" ry="2.5" style="stroke:#181818;stroke-width:0.5;" width="84" x="1134" y="183"/><text fill="#000000" font-family="sans-serif" font-size="14" lengthAdjust="spacing" textLength="78" x="1137" y="202.5332">javafx.scene</text></g><!--MD5=[f3fac5395084164b5fd1cd391d283204]
class javafx.scene.control--><g id="elem_javafx.scene.control"><rect fill="#F1F1F1" height="27.6094" id="javafx.scene.control" rx="2.5" ry="2.5" style="stroke:#181818;stroke-width:0.5;" width="131" x="1253.5" y="183"/><text fill="#000000" font-family="sans-serif" font-size="14" lengthAdjust="spacing" textLength="125" x="1256.5" y="202.5332">javafx.scene.control</text></g><!--MD5=[16e30d1ab62912f417b40c138c1ad6b3]
class javafx.scene.media--><g id="elem_javafx.scene.media"><rect fill="#F1F1F1" height="27.6094" id="javafx.scene.media" rx="2.5" ry="2.5" style="stroke:#181818;stroke-width:0.5;" width="126" x="994" y="271"/><text fill="#000000" font-family="sans-serif" font-size="14" lengthAdjust="spacing" textLength="120" x="997" y="290.5332">javafx.scene.media</text></g><!--MD5=[22097d78c2555d49060b9b88d3645fa0]
link com.javafwp to javafx.application--><g id="link_com.javafwp_javafx.application"><path codeLine="6" d="M699.3,26.32 C601.33,36.62 348.88,64.11 139,95 C134.87,95.61 130.61,96.27 126.32,96.95 " fill="none" id="com.javafwp-to-javafx.application" style="stroke:#181818;stroke-width:1.0;"/><polygon fill="#181818" points="121.28,97.76,130.7975,100.2932,126.2176,96.9728,129.538,92.393,121.28,97.76" style="stroke:#181818;stroke-width:1.0;"/></g><!--MD5=[a06a2fc4df949cf19e623b6934463172]
link com.javafwp to javafx.animation--><g id="link_com.javafwp_javafx.animation"><path codeLine="7" d="M699.33,28.75 C605.47,43.95 377.25,80.91 268.93,98.46 " fill="none" id="com.javafwp-to-javafx.animation" style="stroke:#181818;stroke-width:1.0;"/><polygon fill="#181818" points="263.87,99.28,273.3946,101.7863,268.8054,98.4789,272.1128,93.8897,263.87,99.28" style="stroke:#181818;stroke-width:1.0;"/></g><!--MD5=[63275ece16e26e17f4e9993538ccadf3]
link com.javafwp to com.javafwp.game--><g id="link_com.javafwp_com.javafwp.game"><path codeLine="8" d="M699.36,23.39 C608.43,27.4 396.7,42.31 353,95 C345.06,104.58 348.7,111.32 353,123 C370.76,171.22 383.14,185.93 428,211 C495.94,248.96 718.67,270.6 831.39,279.37 " fill="none" id="com.javafwp-to-com.javafwp.game" style="stroke:#181818;stroke-width:1.0;"/><polygon fill="#181818" points="836.67,279.78,828.0053,275.0977,831.6849,279.3943,827.3883,283.0739,836.67,279.78" style="stroke:#181818;stroke-width:1.0;"/></g><!--MD5=[bbea8024e6f5a833c147a745fb78447c]
link com.javafwp to javafx.stage--><g id="link_com.javafwp_javafx.stage"><path codeLine="9" d="M699.21,32.89 C637.09,49.08 520.84,79.38 456.59,96.12 " fill="none" id="com.javafwp-to-javafx.stage" style="stroke:#181818;stroke-width:1.0;"/><polygon fill="#181818" points="451.68,97.4,461.3963,99.0103,456.5196,96.1437,459.3862,91.267,451.68,97.4" style="stroke:#181818;stroke-width:1.0;"/></g><!--MD5=[d331306a709f1b6ae0d3d5f97cc7b558]
link com.javafwp to javafx.scene.text--><g id="link_com.javafwp_javafx.scene.text"><path codeLine="10" d="M782.57,23.63 C904.26,28.92 1257.7,48.02 1362,95 C1404.46,114.12 1442.22,155.08 1461.49,178.54 " fill="none" id="com.javafwp-to-javafx.scene.text" style="stroke:#181818;stroke-width:1.0;"/><polygon fill="#181818" points="1464.86,182.71,1462.272,173.2073,1461.7,178.8351,1456.0722,178.2632,1464.86,182.71" style="stroke:#181818;stroke-width:1.0;"/></g><!--MD5=[92b166ab4d38390891b876873780c869]
link com.javafwp to com.javafwp.sprites--><g id="link_com.javafwp_com.javafwp.sprites"><path codeLine="11" d="M723.08,35.06 C702.2,50.28 667.69,75.43 645.15,91.85 " fill="none" id="com.javafwp-to-com.javafwp.sprites" style="stroke:#181818;stroke-width:1.0;"/><polygon fill="#181818" points="641.09,94.82,650.717,92.7411,645.1275,91.8706,645.998,86.2812,641.09,94.82" style="stroke:#181818;stroke-width:1.0;"/></g><!--MD5=[b84c14a58e0654185946a97831c826bf]
link com.javafwp to com.javafwp.sound--><g id="link_com.javafwp_com.javafwp.sound"><path codeLine="12" d="M782.54,27.2 C852.51,36.84 989.37,59.77 1021,95 C1041.39,117.71 1041.14,155.57 1038.79,177.92 " fill="none" id="com.javafwp-to-com.javafwp.sound" style="stroke:#181818;stroke-width:1.0;"/><polygon fill="#181818" points="1038.19,182.98,1043.2184,174.5115,1038.7767,178.0145,1035.2737,173.5728,1038.19,182.98" style="stroke:#181818;stroke-width:1.0;"/></g><!--MD5=[40879fb05e8c08e0d1505a3e43d98aca]
link com.javafwp to javafx.scene.shape--><g id="link_com.javafwp_javafx.scene.shape"><path codeLine="13" d="M737.18,35.05 C731.27,54.58 719.11,92.41 705,123 C695.9,142.73 683.21,164.16 674.16,178.66 " fill="none" id="com.javafwp-to-javafx.scene.shape" style="stroke:#181818;stroke-width:1.0;"/><polygon fill="#181818" points="671.48,182.93,679.6686,177.4576,674.1505,178.7029,672.9052,173.1848,671.48,182.93" style="stroke:#181818;stroke-width:1.0;"/></g><!--MD5=[5f0d252cff2acf4103707ec4495a8a92]
link com.javafwp to com.javafwp.game.gameObjects--><g id="link_com.javafwp_com.javafwp.game.gameObjects"><path codeLine="14" d="M765,35.06 C793.27,50.45 840.19,75.99 870.35,92.4 " fill="none" id="com.javafwp-to-com.javafwp.game.gameObjects" style="stroke:#181818;stroke-width:1.0;"/><polygon fill="#181818" points="875.04,94.96,869.0454,87.1456,870.6478,92.5708,865.2226,94.1731,875.04,94.96" style="stroke:#181818;stroke-width:1.0;"/></g><!--MD5=[7a7947ea1df1656744067a3be20128eb]
link com.javafwp to javafx.scene.paint--><g id="link_com.javafwp_javafx.scene.paint"><path codeLine="15" d="M699.44,26.71 C654.63,33.9 583.96,51.71 541,95 C518.42,117.75 509.93,155.59 506.79,177.93 " fill="none" id="com.javafwp-to-javafx.scene.paint" style="stroke:#181818;stroke-width:1.0;"/><polygon fill="#181818" points="506.13,182.99,511.2542,174.5792,506.773,178.0315,503.3207,173.5503,506.13,182.99" style="stroke:#181818;stroke-width:1.0;"/></g><!--MD5=[e2f5da6584cbe75804fafbd6aff1cd25]
link com.javafwp to com.javafwp.game.highscoreSystem--><g id="link_com.javafwp_com.javafwp.game.highscoreSystem"><path codeLine="16" d="M782.86,29.41 C864.03,43.77 1044,75.62 1148.22,94.06 " fill="none" id="com.javafwp-to-com.javafwp.game.highscoreSystem" style="stroke:#181818;stroke-width:1.0;"/><polygon fill="#181818" points="1153.43,94.98,1145.2667,89.47,1148.5068,94.107,1143.8698,97.3471,1153.43,94.98" style="stroke:#181818;stroke-width:1.0;"/></g><!--MD5=[5c2bf107eed12f7336d353c56b6115ec]
link com.javafwp to javafx.scene.layout--><g id="link_com.javafwp_javafx.scene.layout"><path codeLine="17" d="M782.58,25.91 C889.16,36.06 1180.79,64.56 1423,95 C1430,95.88 1437.3,96.85 1444.58,97.85 " fill="none" id="com.javafwp-to-javafx.scene.layout" style="stroke:#181818;stroke-width:1.0;"/><polygon fill="#181818" points="1449.61,98.55,1441.245,93.3512,1444.6574,97.8629,1440.1457,101.2753,1449.61,98.55" style="stroke:#181818;stroke-width:1.0;"/></g><!--MD5=[660743e89707d33a02bb255802828e5e]
link com.javafwp to javafx.scene.input--><g id="link_com.javafwp_javafx.scene.input"><path codeLine="18" d="M782.85,24.36 C906.94,31.63 1283.62,55.59 1594,95 C1597.97,95.5 1602.05,96.07 1606.16,96.66 " fill="none" id="com.javafwp-to-javafx.scene.input" style="stroke:#181818;stroke-width:1.0;"/><polygon fill="#181818" points="1611.38,97.44,1603.0595,92.1703,1606.4334,96.7109,1601.8929,100.0848,1611.38,97.44" style="stroke:#181818;stroke-width:1.0;"/></g><!--MD5=[36233ed42c519836673219d44cdea30e]
link com.javafwp.game.gameObjects to javafx.scene.paint--><g id="link_com.javafwp.game.gameObjects_javafx.scene.paint"><path codeLine="19" d="M839.16,123.06 C766.63,138.89 644.86,165.47 570.06,181.8 " fill="none" id="com.javafwp.game.gameObjects-to-javafx.scene.paint" style="stroke:#181818;stroke-width:1.0;"/><polygon fill="#181818" points="564.76,182.96,574.4024,184.9662,569.6469,181.9026,572.7105,177.1471,564.76,182.96" style="stroke:#181818;stroke-width:1.0;"/></g><!--MD5=[7260401a429eb96cf851b8cded559f6d]
link com.javafwp.game.gameObjects to javafx.geometry--><g id="link_com.javafwp.game.gameObjects_javafx.geometry"><path codeLine="20" d="M886.09,123.06 C871.24,138.09 846.81,162.8 830.57,179.24 " fill="none" id="com.javafwp.game.gameObjects-to-javafx.geometry" style="stroke:#181818;stroke-width:1.0;"/><polygon fill="#181818" points="827.03,182.82,836.2008,179.2288,830.544,179.2631,830.5098,173.6064,827.03,182.82" style="stroke:#181818;stroke-width:1.0;"/></g><!--MD5=[4189b6d576d59b0b52be8589c7fa8d6c]
link com.javafwp.game.gameObjects to javafx.scene.shape--><g id="link_com.javafwp.game.gameObjects_javafx.scene.shape"><path codeLine="21" d="M863.16,123.06 C820.23,138.7 748.52,164.84 703.59,181.21 " fill="none" id="com.javafwp.game.gameObjects-to-javafx.scene.shape" style="stroke:#181818;stroke-width:1.0;"/><polygon fill="#181818" points="698.79,182.96,708.6158,183.6339,703.4873,181.2467,705.8745,176.1182,698.79,182.96" style="stroke:#181818;stroke-width:1.0;"/></g><!--MD5=[8b85ea2600de1fb97c42790a94c84338]
link com.javafwp.game.gameObjects to javafx.scene--><g id="link_com.javafwp.game.gameObjects_javafx.scene"><path codeLine="22" d="M941.07,123.06 C991.65,138.77 1076.3,165.05 1128.99,181.41 " fill="none" id="com.javafwp.game.gameObjects-to-javafx.scene" style="stroke:#181818;stroke-width:1.0;"/><polygon fill="#181818" points="1133.99,182.96,1126.5806,176.4715,1129.2148,181.4776,1124.2087,184.1117,1133.99,182.96" style="stroke:#181818;stroke-width:1.0;"/></g><!--MD5=[0d21a5b322aee729db3c9bf15c3dea22]
link com.javafwp.game.gameObjects to com.javafwp.game--><g id="link_com.javafwp.game.gameObjects_com.javafwp.game"><path codeLine="23" d="M898.92,123.08 C898.75,153.69 898.31,230.06 898.11,265.45 " fill="none" id="com.javafwp.game.gameObjects-to-com.javafwp.game" style="stroke:#181818;stroke-width:1.0;"/><polygon fill="#181818" points="898.08,270.77,902.1314,261.793,898.1086,265.7701,894.1315,261.7473,898.08,270.77" style="stroke:#181818;stroke-width:1.0;"/></g><!--MD5=[e085c1125aef9e031a0b4e1325b8f237]
link com.javafwp.game.gameObjects to com.javafwp.sound--><g id="link_com.javafwp.game.gameObjects_com.javafwp.sound"><path codeLine="24" d="M919.81,123.06 C944.15,138.34 984.44,163.63 1010.6,180.06 " fill="none" id="com.javafwp.game.gameObjects-to-com.javafwp.sound" style="stroke:#181818;stroke-width:1.0;"/><polygon fill="#181818" points="1015,182.82,1009.4954,174.653,1010.7624,180.1662,1005.2493,181.4332,1015,182.82" style="stroke:#181818;stroke-width:1.0;"/></g><!--MD5=[b4ffce0c4df2ea6a757f011713b52af9]
link com.javafwp.game.highscoreSystem to javafx.scene.text--><g id="link_com.javafwp.game.highscoreSystem_javafx.scene.text"><path codeLine="25" d="M1264.67,123.06 C1309.86,138.73 1385.44,164.94 1432.63,181.31 " fill="none" id="com.javafwp.game.highscoreSystem-to-javafx.scene.text" style="stroke:#181818;stroke-width:1.0;"/><polygon fill="#181818" points="1437.39,182.96,1430.2076,176.2211,1432.6685,181.3146,1427.575,183.7755,1437.39,182.96" style="stroke:#181818;stroke-width:1.0;"/></g><!--MD5=[77ba756141908bd8b8611486def65ad8]
link com.javafwp.game.highscoreSystem to javafx.scene.control--><g id="link_com.javafwp.game.highscoreSystem_javafx.scene.control"><path codeLine="26" d="M1240.97,123.06 C1257.05,138.09 1283.49,162.8 1301.07,179.24 " fill="none" id="com.javafwp.game.highscoreSystem-to-javafx.scene.control" style="stroke:#181818;stroke-width:1.0;"/><polygon fill="#181818" points="1304.9,182.82,1301.051,173.7544,1301.2452,179.4079,1295.5917,179.6021,1304.9,182.82" style="stroke:#181818;stroke-width:1.0;"/></g><!--MD5=[3771ddd45ff4932dab9c8591600f643d]
link com.javafwp.game.highscoreSystem to javafx.scene--><g id="link_com.javafwp.game.highscoreSystem_javafx.scene"><path codeLine="27" d="M1219.25,123.06 C1210.49,137.84 1196.18,161.97 1186.44,178.4 " fill="none" id="com.javafwp.game.highscoreSystem-to-javafx.scene" style="stroke:#181818;stroke-width:1.0;"/><polygon fill="#181818" points="1183.82,182.82,1191.8582,177.129,1186.3757,178.5225,1184.9822,173.04,1183.82,182.82" style="stroke:#181818;stroke-width:1.0;"/></g><!--MD5=[98b36c2eb8cc3a59fa56d8a10a18a262]
link com.javafwp.sound to javafx.scene.media--><g id="link_com.javafwp.sound_javafx.scene.media"><path codeLine="28" d="M1039.19,211.06 C1042.74,225.58 1048.49,249.15 1052.5,265.55 " fill="none" id="com.javafwp.sound-to-javafx.scene.media" style="stroke:#181818;stroke-width:1.0;"/><polygon fill="#181818" points="1053.78,270.82,1055.5315,261.1281,1052.5942,265.9626,1047.7597,263.0254,1053.78,270.82" style="stroke:#181818;stroke-width:1.0;"/></g><!--MD5=[a93d8c2592b21b9df92d0d5f4b551d1f]
link com.javafwp.sound to com.javafwp.game--><g id="link_com.javafwp.sound_com.javafwp.game"><path codeLine="29" d="M1015.04,211.06 C990.52,226.34 949.93,251.63 923.58,268.06 " fill="none" id="com.javafwp.sound-to-com.javafwp.game" style="stroke:#181818;stroke-width:1.0;"/><polygon fill="#181818" points="919.16,270.82,928.9107,269.4332,923.3976,268.1662,924.6646,262.653,919.16,270.82" style="stroke:#181818;stroke-width:1.0;"/></g><!--MD5=[1104db29bf5d93d51fb6bbe75695b232]
link com.javafwp.sprites to javafx.scene.paint--><g id="link_com.javafwp.sprites_javafx.scene.paint"><path codeLine="30" d="M605.08,123.06 C584.2,138.28 549.69,163.43 527.15,179.85 " fill="none" id="com.javafwp.sprites-to-javafx.scene.paint" style="stroke:#181818;stroke-width:1.0;"/><polygon fill="#181818" points="523.09,182.82,532.717,180.7411,527.1275,179.8706,527.998,174.2812,523.09,182.82" style="stroke:#181818;stroke-width:1.0;"/></g><rect height="12.5781" style="stroke:#00000000;stroke-width:1.0;fill:none;" width="184" x="769.75" y="303.6094"/><text fill="#888888" font-family="sans-serif" font-size="10" lengthAdjust="spacing" textLength="184" x="769.75" y="313.9902">UMLDoclet 2.0.17, PlantUML 1.2022.5</text><!--MD5=[9fc6cd374691d96a785f72c4ec98ac56]
@startuml
    set namespaceSeparator none
    hide circle
    hide empty fields
    hide empty methods

    com.javafwp - -> javafx.application
    com.javafwp - -> javafx.animation
    com.javafwp - -> com.javafwp.game
    com.javafwp - -> javafx.stage
    com.javafwp - -> javafx.scene.text
    com.javafwp - -> com.javafwp.sprites
    com.javafwp - -> com.javafwp.sound
    com.javafwp - -> javafx.scene.shape
    com.javafwp - -> com.javafwp.game.gameObjects
    com.javafwp - -> javafx.scene.paint
    com.javafwp - -> com.javafwp.game.highscoreSystem
    com.javafwp - -> javafx.scene.layout
    com.javafwp - -> javafx.scene.input
    com.javafwp.game.gameObjects - -> javafx.scene.paint
    com.javafwp.game.gameObjects - -> javafx.geometry
    com.javafwp.game.gameObjects - -> javafx.scene.shape
    com.javafwp.game.gameObjects - -> javafx.scene
    com.javafwp.game.gameObjects - -> com.javafwp.game
    com.javafwp.game.gameObjects - -> com.javafwp.sound
    com.javafwp.game.highscoreSystem - -> javafx.scene.text
    com.javafwp.game.highscoreSystem - -> javafx.scene.control
    com.javafwp.game.highscoreSystem - -> javafx.scene
    com.javafwp.sound - -> javafx.scene.media
    com.javafwp.sound - -> com.javafwp.game
    com.javafwp.sprites - -> javafx.scene.paint

    ' Package links
    class "com.javafwp" [[com\javafwp\package-summary.html]] {
    }
    class "com.javafwp.game" [[com\javafwp\game\package-summary.html]] {
    }
    class "com.javafwp.sprites" [[com\javafwp\sprites\package-summary.html]] {
    }
    class "com.javafwp.sound" [[com\javafwp\sound\package-summary.html]] {
    }
    class "com.javafwp.game.gameObjects" [[com\javafwp\game\gameObjects\package-summary.html]] {
    }
    class "com.javafwp.game.highscoreSystem" [[com\javafwp\game\highscoreSystem\package-summary.html]] {
    }

    center footer UMLDoclet 2.0.17, PlantUML 1.2022.5
@enduml

@startuml
    set namespaceSeparator none
    hide circle
    hide empty fields
    hide empty methods

    com.javafwp - -> javafx.application
    com.javafwp - -> javafx.animation
    com.javafwp - -> com.javafwp.game
    com.javafwp - -> javafx.stage
    com.javafwp - -> javafx.scene.text
    com.javafwp - -> com.javafwp.sprites
    com.javafwp - -> com.javafwp.sound
    com.javafwp - -> javafx.scene.shape
    com.javafwp - -> com.javafwp.game.gameObjects
    com.javafwp - -> javafx.scene.paint
    com.javafwp - -> com.javafwp.game.highscoreSystem
    com.javafwp - -> javafx.scene.layout
    com.javafwp - -> javafx.scene.input
    com.javafwp.game.gameObjects - -> javafx.scene.paint
    com.javafwp.game.gameObjects - -> javafx.geometry
    com.javafwp.game.gameObjects - -> javafx.scene.shape
    com.javafwp.game.gameObjects - -> javafx.scene
    com.javafwp.game.gameObjects - -> com.javafwp.game
    com.javafwp.game.gameObjects - -> com.javafwp.sound
    com.javafwp.game.highscoreSystem - -> javafx.scene.text
    com.javafwp.game.highscoreSystem - -> javafx.scene.control
    com.javafwp.game.highscoreSystem - -> javafx.scene
    com.javafwp.sound - -> javafx.scene.media
    com.javafwp.sound - -> com.javafwp.game
    com.javafwp.sprites - -> javafx.scene.paint

    class "com.javafwp" [[com\javafwp\package-summary.html]] {
    }
    class "com.javafwp.game" [[com\javafwp\game\package-summary.html]] {
    }
    class "com.javafwp.sprites" [[com\javafwp\sprites\package-summary.html]] {
    }
    class "com.javafwp.sound" [[com\javafwp\sound\package-summary.html]] {
    }
    class "com.javafwp.game.gameObjects" [[com\javafwp\game\gameObjects\package-summary.html]] {
    }
    class "com.javafwp.game.highscoreSystem" [[com\javafwp\game\highscoreSystem\package-summary.html]] {
    }

    center footer UMLDoclet 2.0.17, PlantUML 1.2022.5
@enduml

PlantUML version 1.2022.5(Sat Apr 30 12:55:52 CEST 2022)
(APACHE source distribution)
Java Runtime: Java(TM) SE Runtime Environment
JVM: Java HotSpot(TM) 64-Bit Server VM
Default Encoding: UTF-8
Language: de
Country: DE
--></g></svg>