<?xml version="1.0" encoding="UTF-8" standalone="no"?><svg xmlns="http://www.w3.org/2000/svg" xmlns:xlink="http://www.w3.org/1999/xlink" contentStyleType="text/css" height="1289px" preserveAspectRatio="none" style="width:282px;height:1289px;background:#FFFFFF;" version="1.1" viewBox="0 0 282 1289" width="282px" zoomAndPan="magnify"><defs/><g><!--MD5=[0cc4ecf2ce3ec1ce636f50a6a6bb827a]
class com.javafwp.gameLoop--><a href="gameLoop.html" target="_top" title="gameLoop.html" xlink:actuate="onRequest" xlink:href="gameLoop.html" xlink:show="new" xlink:title="gameLoop.html" xlink:type="simple"><g id="elem_com.javafwp.gameLoop"><rect codeLine="5" fill="#F1F1F1" height="1130.3594" id="com.javafwp.gameLoop" rx="2.5" ry="2.5" style="stroke:#181818;stroke-width:0.5;" width="256" x="19" y="133"/><ellipse cx="109.25" cy="153.0938" fill="#ADD1B2" rx="11" ry="11" style="stroke:#181818;stroke-width:1.0;"/><path d="M112.0156,148.9688 Q112.1719,148.75 112.3594,148.6406 Q112.5469,148.5313 112.7656,148.5313 Q113.1406,148.5313 113.375,148.7969 Q113.6094,149.0469 113.6094,149.6563 L113.6094,151.1094 Q113.6094,151.7188 113.375,151.9844 Q113.1406,152.25 112.7656,152.25 Q112.4219,152.25 112.2188,152.0469 Q112.0156,151.8594 111.9063,151.3438 Q111.8594,150.9844 111.6719,150.7969 Q111.3438,150.4219 110.7344,150.2031 Q110.125,149.9844 109.5,149.9844 Q108.7344,149.9844 108.0938,150.3125 Q107.4688,150.6406 106.9688,151.3906 Q106.4844,152.1406 106.4844,153.1719 L106.4844,154.2656 Q106.4844,155.5 107.375,156.3281 Q108.2656,157.1406 109.8594,157.1406 Q110.7969,157.1406 111.4531,156.8906 Q111.8438,156.7344 112.2656,156.2969 Q112.5313,156.0313 112.6719,155.9531 Q112.8281,155.875 113.0313,155.875 Q113.3594,155.875 113.6094,156.1406 Q113.875,156.3906 113.875,156.7344 Q113.875,157.0781 113.5313,157.4844 Q113.0313,158.0625 112.2344,158.3906 Q111.1563,158.8438 109.8594,158.8438 Q108.3438,158.8438 107.1406,158.2188 Q106.1563,157.7188 105.4688,156.6563 Q104.7813,155.5781 104.7813,154.2969 L104.7813,153.1406 Q104.7813,151.8125 105.3906,150.6719 Q106.0156,149.5156 107.1094,148.9063 Q108.2031,148.2813 109.4375,148.2813 Q110.1719,148.2813 110.8125,148.4531 Q111.4688,148.6094 112.0156,148.9688 Z " fill="#000000"/><text fill="#000000" font-family="sans-serif" font-size="14" lengthAdjust="spacing" textLength="67" x="129.75" y="152.5332">gameLoop</text><text fill="#000000" font-family="sans-serif" font-size="10" lengthAdjust="spacing" textLength="60" x="133.25" y="165.9902">com.javafwp</text><line style="stroke:#181818;stroke-width:0.5;" x1="20" x2="274" y1="173.1875" y2="173.1875"/><polygon fill="none" points="30,180.1875,26,186.1875,34,186.1875" style="stroke:#1963A0;stroke-width:1.0;"/><text fill="#000000" font-family="sans-serif" font-size="14" lengthAdjust="spacing" textLength="137" x="39" y="191.7207">timer: AnimationTimer</text><rect fill="none" height="6" style="stroke:#C82930;stroke-width:1.0;" width="6" x="27" y="198.7969"/><text fill="#000000" font-family="sans-serif" font-size="14" lengthAdjust="spacing" textLength="144" x="39" y="209.3301">gameState: gameState</text><polygon fill="none" points="30,215.4063,26,221.4063,34,221.4063" style="stroke:#1963A0;stroke-width:1.0;"/><text fill="#000000" font-family="sans-serif" font-size="14" lengthAdjust="spacing" textLength="129" x="39" y="226.9395">primaryStage: Stage</text><polygon fill="none" points="30,233.0156,26,239.0156,34,239.0156" style="stroke:#1963A0;stroke-width:1.0;"/><text fill="#000000" font-family="sans-serif" font-size="14" lengthAdjust="spacing" textLength="97" x="39" y="244.5488">scoreText: Text</text><polygon fill="none" points="30,250.625,26,256.625,34,256.625" style="stroke:#1963A0;stroke-width:1.0;"/><text fill="#000000" font-family="sans-serif" font-size="14" lengthAdjust="spacing" textLength="174" x="39" y="262.1582">imageLoader: imageLoader</text><rect fill="none" height="6" style="stroke:#C82930;stroke-width:1.0;" width="6" x="27" y="269.2344"/><text fill="#000000" font-family="sans-serif" font-size="14" lengthAdjust="spacing" textLength="58" x="39" y="279.7676">score: int</text><rect fill="none" height="6" style="stroke:#C82930;stroke-width:1.0;" width="6" x="27" y="286.8438"/><text fill="#000000" font-family="sans-serif" font-size="14" lengthAdjust="spacing" textLength="167" x="39" y="297.377">scoreSfx: paralellSfxPlayer</text><rect fill="none" height="6" style="stroke:#C82930;stroke-width:1.0;" width="6" x="27" y="304.4531"/><text fill="#000000" font-family="sans-serif" font-size="14" lengthAdjust="spacing" textLength="193" x="39" y="314.9863">playingBackground: Rectangle</text><rect fill="none" height="6" style="stroke:#C82930;stroke-width:1.0;" width="6" x="27" y="322.0625"/><text fill="#000000" font-family="sans-serif" font-size="14" lengthAdjust="spacing" textLength="86" x="39" y="332.5957">player: player</text><rect fill="none" height="6" style="stroke:#C82930;stroke-width:1.0;" width="6" x="27" y="339.6719"/><text fill="#000000" font-family="sans-serif" font-size="14" lengthAdjust="spacing" textLength="197" x="39" y="350.2051">plattforms: ArrayList&lt;plattform&gt;</text><rect fill="none" height="6" style="stroke:#C82930;stroke-width:1.0;" width="6" x="27" y="357.2813"/><text fill="#000000" font-family="sans-serif" font-size="14" lengthAdjust="spacing" textLength="127" x="39" y="367.8145">plattformPaint: Paint</text><rect fill="none" height="6" style="stroke:#C82930;stroke-width:1.0;" width="6" x="27" y="374.8906"/><text fill="#000000" font-family="sans-serif" font-size="14" lengthAdjust="spacing" textLength="201" x="39" y="385.4238">projectiles: ArrayList&lt;projectile&gt;</text><rect fill="none" height="6" style="stroke:#C82930;stroke-width:1.0;" width="6" x="27" y="392.5"/><text fill="#000000" font-family="sans-serif" font-size="14" lengthAdjust="spacing" textLength="113" x="39" y="403.0332">missleColor: Paint</text><rect fill="none" height="6" style="stroke:#C82930;stroke-width:1.0;" width="6" x="27" y="410.1094"/><text fill="#000000" font-family="sans-serif" font-size="14" lengthAdjust="spacing" textLength="174" x="39" y="420.6426">missileSfx: paralellSfxPlayer</text><rect fill="none" height="6" style="stroke:#C82930;stroke-width:1.0;" width="6" x="27" y="427.7188"/><text fill="#000000" font-family="sans-serif" font-size="14" lengthAdjust="spacing" textLength="106" x="39" y="438.252">heatbar: heatbar</text><rect fill="none" height="6" style="stroke:#C82930;stroke-width:1.0;" width="6" x="27" y="445.3281"/><text fill="#000000" font-family="sans-serif" font-size="14" lengthAdjust="spacing" textLength="171" x="39" y="455.8613">enemys: ArrayList&lt;enemy&gt;</text><polygon fill="none" points="30,461.9375,26,467.9375,34,467.9375" style="stroke:#1963A0;stroke-width:1.0;"/><text fill="#000000" font-family="sans-serif" font-size="14" lengthAdjust="spacing" textLength="94" x="39" y="473.4707">currentTick: int</text><rect fill="none" height="6" style="stroke:#C82930;stroke-width:1.0;" width="6" x="27" y="480.5469"/><text fill="#000000" font-family="sans-serif" font-size="14" lengthAdjust="spacing" textLength="174" x="39" y="491.0801">enemySfx: paralellSfxPlayer</text><polygon fill="none" points="30,497.1563,26,503.1563,34,503.1563" style="stroke:#1963A0;stroke-width:1.0;"/><text fill="#000000" font-family="sans-serif" font-size="14" lengthAdjust="spacing" textLength="224" x="39" y="508.6895">highscoreSystem: highscoreSystem</text><rect fill="none" height="6" style="stroke:#C82930;stroke-width:1.0;" width="6" x="27" y="515.7656"/><text fill="#000000" font-family="sans-serif" font-size="14" lengthAdjust="spacing" textLength="128" x="39" y="526.2988">deathMessage: Text</text><rect fill="none" height="6" style="stroke:#C82930;stroke-width:1.0;" width="6" x="27" y="533.375"/><text fill="#000000" font-family="sans-serif" font-size="14" lengthAdjust="spacing" textLength="183" x="39" y="543.9082">menuBackground: Rectangle</text><rect fill="none" height="6" style="stroke:#C82930;stroke-width:1.0;" width="6" x="27" y="550.9844"/><text fill="#000000" font-family="sans-serif" font-size="14" lengthAdjust="spacing" textLength="156" x="39" y="561.5176">menuOverlay: Rectangle</text><rect fill="none" height="6" style="stroke:#C82930;stroke-width:1.0;" width="6" x="27" y="568.5938"/><text fill="#000000" font-family="sans-serif" font-size="14" lengthAdjust="spacing" textLength="150" x="39" y="579.127">menuFrameCounter: int</text><rect fill="none" height="6" style="stroke:#C82930;stroke-width:1.0;" width="6" x="27" y="586.2031"/><text fill="#000000" font-family="sans-serif" font-size="14" lengthAdjust="spacing" textLength="131" x="39" y="596.7363">menuFrames: Paint[]</text><rect fill="none" height="6" style="stroke:#C82930;stroke-width:1.0;" width="6" x="27" y="603.8125"/><text fill="#000000" font-family="sans-serif" font-size="14" lengthAdjust="spacing" textLength="179" x="39" y="614.3457">shopBackground: Rectangle</text><rect fill="none" height="6" style="stroke:#C82930;stroke-width:1.0;" width="6" x="27" y="621.4219"/><text fill="#000000" font-family="sans-serif" font-size="14" lengthAdjust="spacing" textLength="93" x="39" y="631.9551">shopText: Text</text><rect fill="none" height="6" style="stroke:#C82930;stroke-width:1.0;" width="6" x="27" y="639.0313"/><text fill="#000000" font-family="sans-serif" font-size="14" lengthAdjust="spacing" textLength="94" x="39" y="649.5645">resetText: Text</text><rect fill="none" height="6" style="stroke:#C82930;stroke-width:1.0;" width="6" x="27" y="656.6406"/><text fill="#000000" font-family="sans-serif" font-size="14" lengthAdjust="spacing" textLength="126" x="39" y="667.1738">password: TextField</text><rect fill="none" height="6" style="stroke:#C82930;stroke-width:1.0;" width="6" x="27" y="674.25"/><text fill="#000000" font-family="sans-serif" font-size="14" lengthAdjust="spacing" textLength="160" x="39" y="684.7832">musicPlayer: musicPlayer</text><ellipse cx="30" cy="694.8594" fill="none" rx="3" ry="3" style="stroke:#038048;stroke-width:1.0;"/><text fill="#000000" font-family="sans-serif" font-size="14" lengthAdjust="spacing" text-decoration="underline" textLength="99" x="39" y="702.3926">debug: boolean</text><rect fill="none" height="6" style="stroke:#C82930;stroke-width:1.0;" width="6" x="27" y="709.4688"/><text fill="#000000" font-family="sans-serif" font-size="14" lengthAdjust="spacing" textLength="230" x="39" y="720.002">keys: HashMap&lt;KeyCode, Boolean&gt;</text><rect fill="none" height="6" style="stroke:#C82930;stroke-width:1.0;" width="6" x="27" y="727.0781"/><text fill="#000000" font-family="sans-serif" font-size="14" lengthAdjust="spacing" textLength="95" x="39" y="737.6113">appRoot: Pane</text><rect fill="none" height="6" style="stroke:#C82930;stroke-width:1.0;" width="6" x="27" y="744.6875"/><text fill="#000000" font-family="sans-serif" font-size="14" lengthAdjust="spacing" textLength="106" x="39" y="755.2207">gameRoot: Pane</text><rect fill="none" height="6" style="stroke:#C82930;stroke-width:1.0;" width="6" x="27" y="762.2969"/><text fill="#000000" font-family="sans-serif" font-size="14" lengthAdjust="spacing" textLength="106" x="39" y="772.8301">scoreRoot: Pane</text><rect fill="none" height="6" style="stroke:#C82930;stroke-width:1.0;" width="6" x="27" y="779.9063"/><text fill="#000000" font-family="sans-serif" font-size="14" lengthAdjust="spacing" textLength="106" x="39" y="790.4395">menuRoot: Pane</text><rect fill="none" height="6" style="stroke:#C82930;stroke-width:1.0;" width="6" x="27" y="797.5156"/><text fill="#000000" font-family="sans-serif" font-size="14" lengthAdjust="spacing" textLength="102" x="39" y="808.0488">shopRoot: Pane</text><rect fill="none" height="6" style="stroke:#C82930;stroke-width:1.0;" width="6" x="27" y="815.125"/><text fill="#000000" font-family="sans-serif" font-size="14" lengthAdjust="spacing" textLength="107" x="39" y="825.6582">deathRoot: Pane</text><line style="stroke:#181818;stroke-width:0.5;" x1="20" x2="274" y1="832.7344" y2="832.7344"/><ellipse cx="30" cy="843.7344" fill="#84BE84" rx="3" ry="3" style="stroke:#038048;stroke-width:1.0;"/><text fill="#000000" font-family="sans-serif" font-size="14" lengthAdjust="spacing" textLength="109" x="39" y="851.2676">start(Stage): void</text><rect fill="#F24D5C" height="6" style="stroke:#C82930;stroke-width:1.0;" width="6" x="27" y="858.3438"/><text fill="#000000" font-family="sans-serif" font-size="14" lengthAdjust="spacing" textLength="213" x="39" y="868.877">isPressedKey(KeyCode): boolean</text><rect fill="#F24D5C" height="6" style="stroke:#C82930;stroke-width:1.0;" width="6" x="27" y="875.9531"/><text fill="#000000" font-family="sans-serif" font-size="14" lengthAdjust="spacing" textLength="99" x="39" y="886.4863">init(Stage): void</text><rect fill="#F24D5C" height="6" style="stroke:#C82930;stroke-width:1.0;" width="6" x="27" y="893.5625"/><text fill="#000000" font-family="sans-serif" font-size="14" lengthAdjust="spacing" textLength="112" x="39" y="904.0957">initHeatbar(): void</text><rect fill="#F24D5C" height="6" style="stroke:#C82930;stroke-width:1.0;" width="6" x="27" y="911.1719"/><text fill="#000000" font-family="sans-serif" font-size="14" lengthAdjust="spacing" textLength="128" x="39" y="921.7051">initShopState(): void</text><rect fill="#F24D5C" height="6" style="stroke:#C82930;stroke-width:1.0;" width="6" x="27" y="928.7813"/><text fill="#000000" font-family="sans-serif" font-size="14" lengthAdjust="spacing" textLength="130" x="39" y="939.3145">initMenuState(): void</text><rect fill="#F24D5C" height="6" style="stroke:#C82930;stroke-width:1.0;" width="6" x="27" y="946.3906"/><text fill="#000000" font-family="sans-serif" font-size="14" lengthAdjust="spacing" textLength="122" x="39" y="956.9238">initPlayState(): void</text><rect fill="#F24D5C" height="6" style="stroke:#C82930;stroke-width:1.0;" width="6" x="27" y="964"/><text fill="#000000" font-family="sans-serif" font-size="14" lengthAdjust="spacing" textLength="145" x="39" y="974.5332">initDeathScreen(): void</text><rect fill="#F24D5C" height="6" style="stroke:#C82930;stroke-width:1.0;" width="6" x="27" y="981.6094"/><text fill="#000000" font-family="sans-serif" font-size="14" lengthAdjust="spacing" textLength="183" x="39" y="992.1426">switchState(gameState): void</text><rect fill="#F24D5C" height="6" style="stroke:#C82930;stroke-width:1.0;" width="6" x="27" y="999.2188"/><text fill="#000000" font-family="sans-serif" font-size="14" lengthAdjust="spacing" textLength="124" x="39" y="1009.752">addPlattform(): void</text><rect fill="#F24D5C" height="6" style="stroke:#C82930;stroke-width:1.0;" width="6" x="27" y="1016.8281"/><text fill="#000000" font-family="sans-serif" font-size="14" lengthAdjust="spacing" textLength="209" x="39" y="1027.3613">removeOffscreenPlattform(): void</text><rect fill="#F24D5C" height="6" style="stroke:#C82930;stroke-width:1.0;" width="6" x="27" y="1034.4375"/><text fill="#000000" font-family="sans-serif" font-size="14" lengthAdjust="spacing" textLength="185" x="39" y="1044.9707">addMissle(MouseEvent): void</text><rect fill="#F24D5C" height="6" style="stroke:#C82930;stroke-width:1.0;" width="6" x="27" y="1052.0469"/><text fill="#000000" font-family="sans-serif" font-size="14" lengthAdjust="spacing" textLength="192" x="39" y="1062.5801">removeOffscreenMissle(): void</text><rect fill="#F24D5C" height="6" style="stroke:#C82930;stroke-width:1.0;" width="6" x="27" y="1069.6563"/><text fill="#000000" font-family="sans-serif" font-size="14" lengthAdjust="spacing" textLength="111" x="39" y="1080.1895">addEnemy(): void</text><rect fill="#F24D5C" height="6" style="stroke:#C82930;stroke-width:1.0;" width="6" x="27" y="1087.2656"/><text fill="#000000" font-family="sans-serif" font-size="14" lengthAdjust="spacing" textLength="150" x="39" y="1097.7988">enemyPlayerColl(): void</text><rect fill="#F24D5C" height="6" style="stroke:#C82930;stroke-width:1.0;" width="6" x="27" y="1104.875"/><text fill="#000000" font-family="sans-serif" font-size="14" lengthAdjust="spacing" textLength="135" x="39" y="1115.4082">enemyProjColl(): void</text><rect fill="#F24D5C" height="6" style="stroke:#C82930;stroke-width:1.0;" width="6" x="27" y="1122.4844"/><text fill="#000000" font-family="sans-serif" font-size="14" lengthAdjust="spacing" textLength="221" x="39" y="1133.0176">randomBetweenBounds(int, int): int</text><rect fill="#F24D5C" height="6" style="stroke:#C82930;stroke-width:1.0;" width="6" x="27" y="1140.0938"/><text fill="#000000" font-family="sans-serif" font-size="14" lengthAdjust="spacing" textLength="121" x="39" y="1150.627">playerDeath(): void</text><rect fill="#F24D5C" height="6" style="stroke:#C82930;stroke-width:1.0;" width="6" x="27" y="1157.7031"/><text fill="#000000" font-family="sans-serif" font-size="14" lengthAdjust="spacing" textLength="114" x="39" y="1168.2363">resetGame(): void</text><rect fill="#F24D5C" height="6" style="stroke:#C82930;stroke-width:1.0;" width="6" x="27" y="1175.3125"/><text fill="#000000" font-family="sans-serif" font-size="14" lengthAdjust="spacing" textLength="122" x="39" y="1185.8457">updateTexts(): void</text><rect fill="#F24D5C" height="6" style="stroke:#C82930;stroke-width:1.0;" width="6" x="27" y="1192.9219"/><text fill="#000000" font-family="sans-serif" font-size="14" lengthAdjust="spacing" textLength="112" x="39" y="1203.4551">keyActions(): void</text><rect fill="#F24D5C" height="6" style="stroke:#C82930;stroke-width:1.0;" width="6" x="27" y="1210.5313"/><text fill="#000000" font-family="sans-serif" font-size="14" lengthAdjust="spacing" textLength="207" x="39" y="1221.0645">synchronousInputDelay(int): void</text><rect fill="#F24D5C" height="6" style="stroke:#C82930;stroke-width:1.0;" width="6" x="27" y="1228.1406"/><text fill="#000000" font-family="sans-serif" font-size="14" lengthAdjust="spacing" textLength="115" x="39" y="1238.6738">update(long): void</text><ellipse cx="30" cy="1248.75" fill="#84BE84" rx="3" ry="3" style="stroke:#038048;stroke-width:1.0;"/><text fill="#000000" font-family="sans-serif" font-size="14" lengthAdjust="spacing" text-decoration="underline" textLength="119" x="39" y="1256.2832">main(String[]): void</text></g></a><!--MD5=[e3612552781b2b3849880f2b7cc3064d]
class javafx.application.Application--><g id="elem_javafx.application.Application"><rect codeLine="69" fill="#F1F1F1" height="65.7969" id="javafx.application.Application" rx="2.5" ry="2.5" style="stroke:#181818;stroke-width:0.5;" width="134" x="7" y="7"/><ellipse cx="30.55" cy="27.0938" fill="#A9DCDF" rx="11" ry="11" style="stroke:#181818;stroke-width:1.0;"/><path d="M32.7375,28.8594 L28.5969,28.8594 L28.175,29.8906 L28.5969,29.8906 Q29.2063,29.8906 29.4719,30.125 Q29.7375,30.3594 29.7375,30.75 Q29.7375,31.125 29.4719,31.3594 Q29.2063,31.5938 28.5969,31.5938 L26.3,31.5938 Q25.6906,31.5938 25.4406,31.3594 Q25.175,31.125 25.175,30.7344 Q25.175,30.3594 25.4563,30.125 Q25.7219,29.875 26.3469,29.8906 L29.0188,23.2344 L27.9094,23.2344 Q27.3,23.2344 27.0344,23 Q26.7688,22.7656 26.7688,22.375 Q26.7688,22 27.0344,21.7656 Q27.3,21.5313 27.9094,21.5313 L31.5813,21.5313 L34.9719,29.8906 Q35.5656,29.8906 35.7531,30.0313 Q36.1438,30.2969 36.1438,30.75 Q36.1438,31.125 35.8781,31.3594 Q35.6281,31.5938 35.0188,31.5938 L32.7219,31.5938 Q32.1125,31.5938 31.8469,31.3594 Q31.5813,31.125 31.5813,30.7344 Q31.5813,30.3594 31.8469,30.125 Q32.1125,29.8906 32.7219,29.8906 L33.1438,29.8906 L32.7375,28.8594 Z M32.0188,27.1563 L30.6594,23.7813 L29.2844,27.1563 L32.0188,27.1563 Z " fill="#000000"/><text fill="#000000" font-family="sans-serif" font-size="14" font-style="italic" lengthAdjust="spacing" textLength="69" x="53.45" y="26.5332">Application</text><text fill="#000000" font-family="sans-serif" font-size="10" font-style="italic" lengthAdjust="spacing" textLength="83" x="46.45" y="39.9902">javafx.application</text><line style="stroke:#181818;stroke-width:0.5;" x1="8" x2="140" y1="47.1875" y2="47.1875"/><ellipse cx="18" cy="58.1875" fill="#84BE84" rx="3" ry="3" style="stroke:#038048;stroke-width:1.0;"/><text fill="#000000" font-family="sans-serif" font-size="14" font-style="italic" lengthAdjust="spacing" textLength="108" x="27" y="65.7207">start(Stage): void</text></g><!--MD5=[bc6abc979c5b9e50f9f6a5b03d26dae8]
class com.javafwp.globals--><a href="globals.html" target="_top" title="globals.html" xlink:actuate="onRequest" xlink:href="globals.html" xlink:show="new" xlink:title="globals.html" xlink:type="simple"><g id="elem_com.javafwp.globals"><rect codeLine="72" fill="#F1F1F1" height="40.1875" id="com.javafwp.globals" rx="2.5" ry="2.5" style="stroke:#181818;stroke-width:0.5;" width="89" x="176.5" y="20"/><ellipse cx="191.5" cy="40.0938" fill="#B4A7E5" rx="11" ry="11" style="stroke:#181818;stroke-width:1.0;"/><path d="M192.4531,36.7344 L192.4531,43.3906 L194.1719,43.3906 Q194.7813,43.3906 195.0469,43.625 Q195.3125,43.8594 195.3125,44.25 Q195.3125,44.625 195.0469,44.8594 Q194.7813,45.0938 194.1719,45.0938 L189.0313,45.0938 Q188.4219,45.0938 188.1563,44.8594 Q187.8906,44.625 187.8906,44.2344 Q187.8906,43.8594 188.1563,43.625 Q188.4219,43.3906 189.0313,43.3906 L190.75,43.3906 L190.75,36.7344 L189.0313,36.7344 Q188.4219,36.7344 188.1563,36.5 Q187.8906,36.2656 187.8906,35.875 Q187.8906,35.5 188.1563,35.2656 Q188.4219,35.0313 189.0313,35.0313 L194.1719,35.0313 Q194.7813,35.0313 195.0469,35.2656 Q195.3125,35.5 195.3125,35.875 Q195.3125,36.2656 195.0469,36.5 Q194.7813,36.7344 194.1719,36.7344 L192.4531,36.7344 Z " fill="#000000"/><text fill="#000000" font-family="sans-serif" font-size="14" font-style="italic" lengthAdjust="spacing" textLength="45" x="211.5" y="39.5332">globals</text><text fill="#000000" font-family="sans-serif" font-size="10" font-style="italic" lengthAdjust="spacing" textLength="57" x="205.5" y="52.9902">com.javafwp</text></g></a><!--MD5=[dc24493c16737d8a7c0e2f5cc62c2625]
reverse link javafx.application.Application to com.javafwp.gameLoop--><g id="link_javafx.application.Application_com.javafwp.gameLoop"><path codeLine="74" d="M79.83,93.36 C81.12,104.99 82.6,118.26 84.22,132.87 " fill="none" id="javafx.application.Application-backto-com.javafwp.gameLoop" style="stroke:#181818;stroke-width:1.0;"/><polygon fill="none" points="72.83,93.74,77.57,73.08,86.74,92.19,72.83,93.74" style="stroke:#181818;stroke-width:1.0;"/></g><!--MD5=[bf7effe7db76cc72001a24843436910e]
reverse link com.javafwp.globals to com.javafwp.gameLoop--><g id="link_com.javafwp.globals_com.javafwp.gameLoop"><path codeLine="75" d="M216.58,80.2 C214.96,94.59 212.94,112.43 210.64,132.88 " fill="none" id="com.javafwp.globals-backto-com.javafwp.gameLoop" style="stroke:#181818;stroke-width:1.0;stroke-dasharray:7.0,7.0;"/><polygon fill="none" points="209.63,79.37,218.83,60.28,223.54,80.94,209.63,79.37" style="stroke:#181818;stroke-width:1.0;"/></g><rect height="12.5781" style="stroke:#00000000;stroke-width:1.0;fill:none;" width="184" x="42" y="1269.3594"/><text fill="#888888" font-family="sans-serif" font-size="10" lengthAdjust="spacing" textLength="184" x="42" y="1279.7402">UMLDoclet 2.0.17, PlantUML 1.2022.5</text><!--MD5=[42fb68c7e2467fb2c2dc8413367ad1c5]
@startuml
    set namespaceSeparator none
    hide empty fields
    hide empty methods

    class "<size:14>gameLoop\n<size:10>com.javafwp" as com.javafwp.gameLoop [[gameLoop.html]] {
        ~timer: AnimationTimer
        -gameState: gameState
        ~primaryStage: Stage
        ~scoreText: Text
        ~imageLoader: imageLoader
        -score: int
        -scoreSfx: paralellSfxPlayer
        -playingBackground: Rectangle
        -player: player
        -plattforms: ArrayList<plattform>
        -plattformPaint: Paint
        -projectiles: ArrayList<projectile>
        -missleColor: Paint
        -missileSfx: paralellSfxPlayer
        -heatbar: heatbar
        -enemys: ArrayList<enemy>
        ~currentTick: int
        -enemySfx: paralellSfxPlayer
        ~highscoreSystem: highscoreSystem
        -deathMessage: Text
        -menuBackground: Rectangle
        -menuOverlay: Rectangle
        -menuFrameCounter: int
        -menuFrames: Paint[]
        -shopBackground: Rectangle
        -shopText: Text
        -resetText: Text
        -password: TextField
        -musicPlayer: musicPlayer
        {static} +debug: boolean
        -keys: HashMap<KeyCode, Boolean>
        -appRoot: Pane
        -gameRoot: Pane
        -scoreRoot: Pane
        -menuRoot: Pane
        -shopRoot: Pane
        -deathRoot: Pane
        +start(Stage): void
        -isPressedKey(KeyCode): boolean
        -init(Stage): void
        -initHeatbar(): void
        -initShopState(): void
        -initMenuState(): void
        -initPlayState(): void
        -initDeathScreen(): void
        -switchState(gameState): void
        -addPlattform(): void
        -removeOffscreenPlattform(): void
        -addMissle(MouseEvent): void
        -removeOffscreenMissle(): void
        -addEnemy(): void
        -enemyPlayerColl(): void
        -enemyProjColl(): void
        -randomBetweenBounds(int, int): int
        -playerDeath(): void
        -resetGame(): void
        -updateTexts(): void
        -keyActions(): void
        -synchronousInputDelay(int): void
        -update(long): void
        {static} +main(String[]): void
    }

    abstract class "<size:14>Application\n<size:10>javafx.application" as javafx.application.Application {
        {abstract} +start(Stage): void
    }
    interface "<size:14>globals\n<size:10>com.javafwp" as com.javafwp.globals [[globals.html]]

    javafx.application.Application <|- - com.javafwp.gameLoop
    com.javafwp.globals <|.. com.javafwp.gameLoop

    center footer UMLDoclet 2.0.17, PlantUML 1.2022.5
@enduml

PlantUML version 1.2022.5(Sat Apr 30 12:55:52 CEST 2022)
(APACHE source distribution)
Java Runtime: Java(TM) SE Runtime Environment
JVM: Java HotSpot(TM) 64-Bit Server VM
Default Encoding: UTF-8
Language: de
Country: DE
--></g></svg>