<?xml version="1.0" encoding="UTF-8" standalone="no"?><svg xmlns="http://www.w3.org/2000/svg" xmlns:xlink="http://www.w3.org/1999/xlink" contentStyleType="text/css" height="100px" preserveAspectRatio="none" style="width:192px;height:100px;background:#FFFFFF;" version="1.1" viewBox="0 0 192 100" width="192px" zoomAndPan="magnify"><defs/><g><!--MD5=[94047e23e1129bb13f7a5bf152a2df03]
class com.javafwp.mainStart--><a href="mainStart.html" target="_top" title="mainStart.html" xlink:actuate="onRequest" xlink:href="mainStart.html" xlink:show="new" xlink:title="mainStart.html" xlink:type="simple"><g id="elem_com.javafwp.mainStart"><rect codeLine="5" fill="#F1F1F1" height="65.7969" id="com.javafwp.mainStart" rx="2.5" ry="2.5" style="stroke:#181818;stroke-width:0.5;" width="145" x="20" y="7"/><ellipse cx="58.85" cy="27.0938" fill="#ADD1B2" rx="11" ry="11" style="stroke:#181818;stroke-width:1.0;"/><path d="M61.6156,22.9688 Q61.7719,22.75 61.9594,22.6406 Q62.1469,22.5313 62.3656,22.5313 Q62.7406,22.5313 62.975,22.7969 Q63.2094,23.0469 63.2094,23.6563 L63.2094,25.1094 Q63.2094,25.7188 62.975,25.9844 Q62.7406,26.25 62.3656,26.25 Q62.0219,26.25 61.8188,26.0469 Q61.6156,25.8594 61.5063,25.3438 Q61.4594,24.9844 61.2719,24.7969 Q60.9438,24.4219 60.3344,24.2031 Q59.725,23.9844 59.1,23.9844 Q58.3344,23.9844 57.6938,24.3125 Q57.0688,24.6406 56.5688,25.3906 Q56.0844,26.1406 56.0844,27.1719 L56.0844,28.2656 Q56.0844,29.5 56.975,30.3281 Q57.8656,31.1406 59.4594,31.1406 Q60.3969,31.1406 61.0531,30.8906 Q61.4438,30.7344 61.8656,30.2969 Q62.1313,30.0313 62.2719,29.9531 Q62.4281,29.875 62.6313,29.875 Q62.9594,29.875 63.2094,30.1406 Q63.475,30.3906 63.475,30.7344 Q63.475,31.0781 63.1313,31.4844 Q62.6313,32.0625 61.8344,32.3906 Q60.7563,32.8438 59.4594,32.8438 Q57.9438,32.8438 56.7406,32.2188 Q55.7563,31.7188 55.0688,30.6563 Q54.3813,29.5781 54.3813,28.2969 L54.3813,27.1406 Q54.3813,25.8125 54.9906,24.6719 Q55.6156,23.5156 56.7094,22.9063 Q57.8031,22.2813 59.0375,22.2813 Q59.7719,22.2813 60.4125,22.4531 Q61.0688,22.6094 61.6156,22.9688 Z " fill="#000000"/><text fill="#000000" font-family="sans-serif" font-size="14" lengthAdjust="spacing" textLength="60" x="78.15" y="26.5332">mainStart</text><text fill="#000000" font-family="sans-serif" font-size="10" lengthAdjust="spacing" textLength="60" x="78.15" y="39.9902">com.javafwp</text><line style="stroke:#181818;stroke-width:0.5;" x1="21" x2="164" y1="47.1875" y2="47.1875"/><ellipse cx="31" cy="58.1875" fill="#84BE84" rx="3" ry="3" style="stroke:#038048;stroke-width:1.0;"/><text fill="#000000" font-family="sans-serif" font-size="14" lengthAdjust="spacing" text-decoration="underline" textLength="119" x="40" y="65.7207">main(String[]): void</text></g></a><rect height="12.5781" style="stroke:#00000000;stroke-width:1.0;fill:none;" width="184" x="0" y="79.7969"/><text fill="#888888" font-family="sans-serif" font-size="10" lengthAdjust="spacing" textLength="184" x="0" y="90.1777">UMLDoclet 2.0.17, PlantUML 1.2022.5</text><!--MD5=[dc0f38dc4eb166269a5549b303d390b1]
@startuml
    set namespaceSeparator none
    hide empty fields
    hide empty methods

    class "<size:14>mainStart\n<size:10>com.javafwp" as com.javafwp.mainStart [[mainStart.html]] {
        {static} +main(String[]): void
    }

    center footer UMLDoclet 2.0.17, PlantUML 1.2022.5
@enduml

PlantUML version 1.2022.5(Sat Apr 30 12:55:52 CEST 2022)
(APACHE source distribution)
Java Runtime: Java(TM) SE Runtime Environment
JVM: Java HotSpot(TM) 64-Bit Server VM
Default Encoding: UTF-8
Language: de
Country: DE
--></g></svg>